<?xml version="1.0" encoding="UTF-8"?>
<!DOCTYPE svg PUBLIC "-//W3C//DTD SVG 1.1//EN" "http://www.w3.org/Graphics/SVG/1.1/DTD/svg11.dtd">
<!-- Creator: CorelDRAW 2017 -->
<svg xmlns="http://www.w3.org/2000/svg" xml:space="preserve" width="300px" height="300px" version="1.1" style="shape-rendering:geometricPrecision; text-rendering:geometricPrecision; image-rendering:optimizeQuality; fill-rule:evenodd; clip-rule:evenodd"
viewBox="0 0 30000 30000"
 xmlns:xlink="http://www.w3.org/1999/xlink">
 <defs>
  <style type="text/css">
   <![CDATA[
    .fil2 {fill:none}
    .fil0 {fill:#1E3A6E}
    .fil1 {fill:#F4F4F6}
   ]]>
  </style>
 </defs>
 <g id="Layer_x0020_1">
  <metadata id="CorelCorpID_0Corel-Layer"/>
  <path class="fil0" d="M10671 8871c595,94 1314,632 1752,1022 377,335 698,705 968,1108 161,273 237,518 232,737 -5,228 -96,428 -269,601 -238,237 -475,475 -713,712 -63,167 -81,330 -59,488 85,598 1276,1878 1709,2301 296,289 607,561 933,817 313,247 640,478 980,695 144,77 286,119 425,119 123,0 244,-34 363,-107 350,-266 700,-533 1050,-800 140,-114 283,-171 431,-169 148,2 300,63 457,182 414,295 791,599 1128,909 157,145 306,291 446,438 376,397 703,760 716,1344 3,153 -19,304 -61,452 -133,461 -371,759 -772,1020 -513,334 -1143,424 -1745,425 -403,1 -798,-48 -1188,-138 -651,-159 -1311,-403 -1963,-721 -1328,-649 -2620,-1606 -3719,-2779 -692,-738 -1390,-1570 -1969,-2587 -211,-371 -406,-766 -580,-1191 -261,-636 -405,-1060 -435,-1745 -9,-189 -10,-376 -5,-559 19,-701 101,-1505 532,-2084 382,-513 746,-586 1356,-490z"/>
  <path class="fil1" d="M15000 25277c-5676,0 -10277,-4601 -10277,-10277 0,-5676 4601,-10277 10277,-10277 5676,0 10277,4601 10277,10277 0,5676 -4601,10277 -10277,10277zm0 2383c-6992,0 -12660,-5668 -12660,-12660 0,-6992 5668,-12660 12660,-12660 6992,0 12660,5668 12660,12660 0,6992 -5668,12660 -12660,12660z"/>
  <rect class="fil2" width="30000" height="30000"/>
 </g>
</svg>
