<?xml version="1.0" encoding="UTF-8"?>
<!DOCTYPE svg PUBLIC "-//W3C//DTD SVG 1.1//EN" "http://www.w3.org/Graphics/SVG/1.1/DTD/svg11.dtd">
<!-- Creator: CorelDRAW 2017 -->
<svg xmlns="http://www.w3.org/2000/svg" xml:space="preserve" width="300px" height="300px" version="1.1" style="shape-rendering:geometricPrecision; text-rendering:geometricPrecision; image-rendering:optimizeQuality; fill-rule:evenodd; clip-rule:evenodd"
viewBox="0 0 30000 30000"
 xmlns:xlink="http://www.w3.org/1999/xlink">
 <defs>
  <style type="text/css">
   <![CDATA[
    .fil0 {fill:none}
    .fil11 {fill:#FEFEFE}
    .fil9 {fill:#15333D}
    .fil6 {fill:#2F4F68}
    .fil8 {fill:#36576E}
    .fil1 {fill:#4C7296}
    .fil7 {fill:#704018}
    .fil4 {fill:#7D4922}
    .fil10 {fill:#9A3521}
    .fil5 {fill:#D39F6D}
    .fil12 {fill:#E6E7E7}
    .fil2 {fill:#EDB57A}
    .fil13 {fill:#F4F4F6}
    .fil3 {fill:#FCC082}
   ]]>
  </style>
 </defs>
 <g id="Layer_x0020_1">
  <metadata id="CorelCorpID_0Corel-Layer"/>
  <rect class="fil0" width="30000" height="30000"/>
  <g id="_2214118531920">
   <path class="fil1" d="M9609 19181c392,-448 887,-852 1486,-1212 587,-352 1282,-508 1990,-885l1915 1928c0,794 0,1588 0,2382 -191,861 664,3896 -218,3881l-418 -7c-3,0 -140,-381 -160,-294 -1058,23 -2026,-150 -2916,-488 -1018,-387 -1935,-990 -2772,-1763 141,-710 308,-1398 514,-2051 165,-522 356,-1021 579,-1491z"/>
   <path class="fil1" d="M20391 19181c-392,-448 -887,-852 -1486,-1212 -587,-352 -1282,-508 -1990,-885l-1915 1928c0,794 0,1588 0,2382 218,982 -789,3898 218,3881l418 -7 160 -294c1058,23 2026,-150 2916,-488 1018,-387 1935,-990 2772,-1763 -141,-710 -308,-1398 -514,-2051 -165,-522 -356,-1021 -579,-1491z"/>
   <path class="fil2" d="M14212 7910c263,69 525,138 788,207 0,2934 0,5869 0,8804 -419,-111 -826,-281 -1223,-507 -604,-345 -1489,-1043 -1938,-1583 -382,-459 -547,-915 -695,-1483 -58,-221 -108,-458 -148,-712 -310,-2 -569,-107 -759,-357 -260,-341 -470,-1198 -166,-1561 98,-117 245,-168 447,-145 616,-703 1232,-1406 1847,-2109 616,-185 1232,-369 1847,-554z"/>
   <path class="fil3" d="M15778 7592c-262,68 -515,456 -778,525 0,2934 0,5869 0,8804 419,-111 826,-281 1223,-507 604,-345 1489,-1043 1938,-1583 382,-459 547,-915 695,-1483 58,-221 108,-458 148,-712 310,-2 569,-107 759,-357 260,-341 470,-1198 166,-1561 -98,-117 -245,-168 -447,-145 -616,-703 -585,-1809 -1200,-2512 -616,-185 -1888,-285 -2504,-469z"/>
   <path class="fil4" d="M15000 8548c0,-656 0,-1744 0,-2400 667,-23 1193,23 1630,123 1103,251 2056,1023 2543,2014 284,579 428,1256 387,2007 -25,337 -57,625 -96,877 -48,311 -107,564 -172,781 -54,-655 -169,-1292 -373,-1901 -120,-357 -511,-1452 -905,-1534 -64,-13 -129,-11 -196,10 -200,123 -408,211 -624,267 -312,81 -834,163 -1083,-103 -196,-208 -22,-247 76,-424 50,-90 90,-199 121,-326 -244,154 -492,296 -746,410 -183,82 -370,151 -562,199z"/>
   <polygon class="fil3" points="13058,16593 15000,18975 15000,16921 13019,15906 "/>
   <polygon class="fil0" points="16942,16593 15000,18975 15000,16921 16981,15906 "/>
   <polygon class="fil3" points="16942,16593 15000,18975 15000,16921 16981,15906 "/>
   <polygon class="fil5" points="15000,16921 16981,15906 14029,17784 13058,16593 13019,15906 "/>
   <polygon class="fil6" points="11475,19293 12441,17545 11133,19415 12544,20095 11471,20851 14364,25268 14396,25176 11782,20717 12891,19968 "/>
   <polygon class="fil6" points="18525,19293 17559,17545 18867,19415 17456,20095 18529,20851 15636,25268 15604,25176 18218,20717 17109,19968 "/>
   <path class="fil7" d="M15000 8548c0,-656 0,-1744 0,-2400 -656,19 -1173,97 -1603,223 -1084,320 -2020,1150 -2499,2171 -279,597 -420,1283 -380,2031 24,335 56,622 94,871 48,308 105,558 169,770 183,-1087 488,-2032 995,-2743 244,-341 535,-628 881,-850 207,-133 833,-460 1076,-356 167,71 -28,239 -98,298 -95,80 -157,118 -150,156 24,142 424,128 808,50 311,-64 609,-177 707,-221z"/>
   <g>
    <path class="fil8" d="M19232 12910c6,-126 -7,-251 -13,-376 -7,-134 -19,-268 -31,-402 -16,-186 -34,-372 -52,-558 -12,-127 -24,-253 -37,-380 -7,-65 -15,-130 -23,-195 0,-67 -11,-133 -19,-199 -10,-80 -17,-159 -25,-239 -10,-89 -21,-177 -31,-266 -9,-79 -18,-159 -25,-238 -2,-21 -5,-41 -10,-61 -3,-18 4,-29 24,-29 15,0 30,0 45,0 187,0 374,1 560,-1 54,-1 103,9 152,32 16,7 30,23 51,15 16,22 42,30 65,43 234,132 404,319 489,577 19,59 29,119 29,182 -1,496 0,992 -1,1488 0,145 -30,283 -108,407 -93,148 -231,237 -394,290 -204,67 -414,79 -627,58 -21,-2 -31,-9 -26,-31 10,-39 8,-78 7,-117z"/>
    <path class="fil9" d="M18594 14360c-104,43 -207,86 -311,129 -555,227 -1122,416 -1709,542 -221,48 -444,86 -671,97 -37,2 -64,12 -86,48 -34,56 -89,89 -147,118 -96,48 -199,74 -305,91 -63,9 -126,16 -189,23 -101,0 -202,3 -303,0 -167,-4 -330,-31 -488,-88 -186,-68 -291,-203 -335,-390 -32,-133 4,-249 100,-344 110,-109 245,-177 391,-222 119,-38 240,-56 365,-38 11,2 22,1 34,1 45,20 95,16 143,22 169,22 336,55 492,126 104,47 199,107 256,210 10,19 23,20 42,18 113,-14 227,-24 340,-40 303,-45 604,-102 902,-177 446,-112 880,-256 1292,-461 173,-86 339,-183 497,-296 13,-9 29,-16 38,-31 124,-82 232,-183 336,-288 17,-17 33,-35 50,-54 87,-97 222,-112 328,-35 64,46 107,109 141,179 15,32 7,62 -7,92 -19,41 -48,75 -80,107 -72,73 -153,132 -237,188 -244,163 -505,294 -769,418 -37,18 -77,30 -110,55z"/>
    <path class="fil9" d="M11960 8661c-59,42 -100,102 -145,155 -155,183 -297,376 -425,578 -148,234 -281,476 -385,734 -11,28 -24,42 -56,41 -95,-2 -191,0 -286,-1 -40,0 -40,-1 -32,-42 35,-179 93,-353 153,-525 97,-276 217,-542 354,-800 138,-262 297,-510 478,-744 86,-113 181,-219 275,-325 91,-102 191,-196 293,-286 196,-173 409,-326 636,-458 255,-148 524,-261 806,-348 158,-49 320,-86 483,-114 127,-21 254,-37 383,-47 175,-14 350,-22 526,-20 125,7 250,11 374,24 149,15 296,35 443,61 210,38 416,90 618,156 153,50 302,110 448,176 202,92 394,200 578,321 131,87 258,180 378,282 124,105 247,212 359,330 173,181 334,374 479,578 182,255 339,525 473,808 67,144 128,290 179,441 15,46 9,55 -40,60 -125,11 -249,23 -374,35 -24,2 -47,10 -71,11 -29,1 -44,-9 -55,-36 -24,-61 -51,-121 -80,-179 -130,-258 -287,-499 -468,-724 -127,-156 -263,-303 -410,-439 -176,-162 -366,-307 -570,-434 -126,-78 -254,-151 -388,-214 -290,-136 -592,-239 -906,-304 -121,-24 -242,-47 -363,-62 -98,-13 -197,-22 -296,-28 -102,-6 -205,-11 -308,-8 -21,17 -46,14 -70,13 -227,-3 -452,20 -675,58 -510,88 -985,268 -1423,544 -315,199 -599,435 -854,706 -11,12 -24,19 -36,27l0 -1z"/>
   </g>
   <polygon class="fil10" points="15000,19012 15843,19903 15398,20550 15715,23125 15218,25275 15000,25275 14782,25275 14285,23125 14602,20550 14157,19903 "/>
   <polygon class="fil11" points="15000,19012 13763,20189 13085,17084 13058,16593 15000,18967 "/>
   <polygon class="fil11" points="15000,19012 16237,20189 16915,17084 16942,16593 15000,18967 "/>
   <polygon class="fil11" points="14602,20550 14285,23125 13737,20069 15000,19012 14157,19903 "/>
   <polygon class="fil11" points="15398,20550 15715,23125 16265,20060 15000,19012 15843,19903 "/>
   <polygon class="fil12" points="16223,20297 16265,20060 15000,19012 "/>
   <polygon class="fil12" points="13777,20297 13735,20060 15000,19012 "/>
  </g>
  <path class="fil13" d="M15000 25277c-5676,0 -10277,-4601 -10277,-10277 0,-5676 4601,-10277 10277,-10277 5676,0 10277,4601 10277,10277 0,5676 -4601,10277 -10277,10277zm0 2383c-6992,0 -12660,-5668 -12660,-12660 0,-6992 5668,-12660 12660,-12660 6992,0 12660,5668 12660,12660 0,6992 -5668,12660 -12660,12660z"/>
 </g>
</svg>
