<?xml version="1.0" encoding="UTF-8"?>
<!DOCTYPE svg PUBLIC "-//W3C//DTD SVG 1.1//EN" "http://www.w3.org/Graphics/SVG/1.1/DTD/svg11.dtd">
<!-- Creator: CorelDRAW 2017 -->
<svg xmlns="http://www.w3.org/2000/svg" xml:space="preserve" width="300px" height="300px" version="1.1" style="shape-rendering:geometricPrecision; text-rendering:geometricPrecision; image-rendering:optimizeQuality; fill-rule:evenodd; clip-rule:evenodd"
viewBox="0 0 30000 30000"
 xmlns:xlink="http://www.w3.org/1999/xlink">
 <defs>
  <style type="text/css">
   <![CDATA[
    .fil0 {fill:none}
    .fil4 {fill:#1F3A6F}
    .fil3 {fill:#D9D9D9}
    .fil1 {fill:#F4F4F6}
    .fil2 {fill:#F7921E}
   ]]>
  </style>
 </defs>
 <g id="Layer_x0020_1">
  <metadata id="CorelCorpID_0Corel-Layer"/>
  <rect class="fil0" width="30000" height="30000"/>
  <path class="fil1" d="M15000 25277c-5676,0 -10277,-4601 -10277,-10277 0,-5676 4601,-10277 10277,-10277 5676,0 10277,4601 10277,10277 0,5676 -4601,10277 -10277,10277zm0 2383c-6992,0 -12660,-5668 -12660,-12660 0,-6992 5668,-12660 12660,-12660 6992,0 12660,5668 12660,12660 0,6992 -5668,12660 -12660,12660z"/>
  <g id="_2250490447280">
   <path class="fil2" d="M12261 10631c876,0 1587,710 1587,1587 0,877 -711,1587 -1587,1587 -877,0 -1588,-710 -1588,-1587 0,-877 711,-1587 1588,-1587zm-4406 2059l0 -945c0,-224 184,-404 409,-408l508 -10c86,-337 219,-654 393,-945l-354 -367c-156,-162 -159,-419 0,-578l668 -668c159,-159 417,-156 578,0l367 353c291,-173 609,-306 946,-392l9 -509c5,-225 184,-409 409,-409l945 0c225,0 404,184 409,409l9 509c337,85 655,219 946,392l367 -353c162,-156 419,-159 578,0l668 668c159,159 156,416 0,578l-353 367c173,291 306,608 392,945l508 10c225,4 409,184 409,408l0 945c0,225 -184,405 -409,409l-508 10c-86,336 -219,654 -392,945l353 367c156,162 159,419 0,578l-668 668c-159,159 -416,156 -578,0l-367 -353c-291,173 -609,306 -946,392l-9 509c-5,224 -184,408 -409,408l-945 0c-225,0 -404,-183 -409,-408l-9 -509c-337,-86 -654,-219 -946,-392l-367 353c-162,156 -419,159 -578,0l-668 -668c-159,-159 -156,-416 0,-578l354 -367c-174,-291 -307,-609 -393,-945l-508 -10c-225,-4 -409,-184 -409,-409z"/>
   <path class="fil3" d="M13700 18546c583,0 1055,472 1055,1055 0,582 -472,1054 -1055,1054 -582,0 -1055,-472 -1055,-1054 0,-583 473,-1055 1055,-1055zm-2927 1368l0 -627c0,-150 122,-269 271,-272l338 -6c57,-224 146,-435 261,-629l-235 -243c-103,-108 -105,-279 0,-384l444 -444c106,-106 277,-104 384,0l244 234c193,-115 405,-203 628,-260l7 -338c2,-149 122,-272 271,-272l628 0c149,0 269,123 272,272l6 338c224,57 435,145 628,260l244 -234c108,-104 278,-106 384,0l444 444c106,105 104,276 0,384l-235 243c115,194 204,405 261,629l338 6c149,3 271,122 271,272l0 627c0,150 -122,269 -271,272l-338 6c-57,224 -146,435 -261,629l235 243c104,108 106,279 0,384l-444 444c-106,106 -276,104 -384,0l-244 -234c-193,115 -404,203 -628,260l-6 338c-3,150 -123,272 -272,272l-628 0c-149,0 -269,-122 -271,-272l-7 -338c-223,-57 -435,-145 -628,-260l-244 234c-107,104 -278,106 -384,0l-444 -444c-105,-105 -103,-276 0,-384l235 -243c-115,-194 -204,-405 -261,-629l-338 -6c-149,-3 -271,-122 -271,-272z"/>
   <path class="fil4" d="M18959 14661c717,-63 1350,468 1412,1185 63,717 -468,1349 -1185,1412 -717,63 -1349,-468 -1412,-1185 -62,-717 468,-1349 1185,-1412zm-3457 2000l-67 -773c-16,-184 121,-344 305,-364l415 -44c47,-281 133,-551 254,-801l-316 -275c-139,-122 -160,-332 -41,-473l499 -594c119,-142 329,-158 473,-42l325 263c226,-162 476,-294 746,-388l-29 -417c-12,-184 121,-348 305,-364l773 -67c184,-16 344,121 364,305l44 415c282,46 551,133 802,253l275 -315c121,-139 331,-160 472,-41l595 499c141,118 157,329 41,473l-263 325c163,226 294,476 389,745l417 -28c184,-13 347,121 363,305l68 773c16,184 -122,344 -305,364l-416 44c-46,281 -132,551 -253,802l315 274c139,122 160,332 41,473l-498 595c-119,141 -330,157 -473,41l-326 -263c-226,163 -476,294 -745,388l28 417c13,184 -121,348 -305,364l-773 67c-184,17 -344,-121 -363,-305l-45 -415c-281,-46 -551,-133 -801,-253l-275 315c-121,139 -332,160 -473,41l-594 -499c-142,-118 -157,-329 -42,-472l263 -326c-162,-226 -294,-476 -388,-745l-417 28c-184,13 -348,-121 -364,-305z"/>
  </g>
 </g>
</svg>
