<?xml version="1.0" encoding="UTF-8"?>
<!DOCTYPE svg PUBLIC "-//W3C//DTD SVG 1.1//EN" "http://www.w3.org/Graphics/SVG/1.1/DTD/svg11.dtd">
<!-- Creator: CorelDRAW 2017 -->
<svg xmlns="http://www.w3.org/2000/svg" xml:space="preserve" width="300px" height="300px" version="1.1" style="shape-rendering:geometricPrecision; text-rendering:geometricPrecision; image-rendering:optimizeQuality; fill-rule:evenodd; clip-rule:evenodd"
viewBox="0 0 30000 30000"
 xmlns:xlink="http://www.w3.org/1999/xlink">
 <defs>
  <style type="text/css">
   <![CDATA[
    .fil0 {fill:none}
    .fil12 {fill:#15333D}
    .fil10 {fill:#36576E}
    .fil11 {fill:#505050}
    .fil1 {fill:#565656}
    .fil2 {fill:#626062}
    .fil8 {fill:#693F21}
    .fil3 {fill:#754928}
    .fil6 {fill:#B8A190}
    .fil16 {fill:#C3CED0}
    .fil13 {fill:#CAA075}
    .fil14 {fill:#D0DFE4}
    .fil5 {fill:#D18E66}
    .fil15 {fill:#DBE6EA}
    .fil7 {fill:#E4B683}
    .fil4 {fill:#E8A170}
    .fil9 {fill:#F4C18A}
    .fil17 {fill:#F4F4F6}
   ]]>
  </style>
 </defs>
 <g id="Layer_x0020_1">
  <metadata id="CorelCorpID_0Corel-Layer"/>
  <rect class="fil0" width="30000" height="30000"/>
  <g id="_2250381797072">
   <path class="fil1" d="M9920 20366c447,-571 995,-1023 1634,-1363 399,-213 818,-375 1259,-477 7,-2 15,-5 18,-6 10,-7 6,-13 4,-16 -28,-41 -17,-71 16,-107 100,-107 195,-218 292,-327 9,-10 18,-19 31,-33 89,89 177,176 265,263 23,5 39,22 56,38 208,208 420,412 623,625 286,301 585,587 875,883 13,14 30,26 37,46 2,38 -34,46 -53,68 -212,170 -424,343 -637,512 -65,51 -65,51 -28,123 139,278 274,557 418,832 42,80 48,156 39,241 -19,163 -33,327 -48,490 -13,147 -28,294 -43,441 -11,117 -20,235 -34,352 -2,16 -2,33 -14,46 -1634,-176 -2913,-43 -3833,-34l-437 1446c-264,15 -527,30 -790,44 -242,-333 -484,-666 -725,-1000 2,-307 21,-596 61,-861 119,-769 540,-1623 1014,-2226z"/>
   <path class="fil2" d="M17195 18449c82,9 161,33 240,55 627,172 1182,478 1672,905 435,379 791,824 1091,1315 8,29 16,57 24,85l1 -1c426,865 805,1786 932,2634l-321 592 -1163 250 65 -1582c-807,206 -2313,-12 -4366,295 -14,-14 -12,-33 -14,-51 -16,-168 -31,-336 -46,-505 -15,-157 -28,-314 -43,-470 -12,-126 -22,-252 -35,-378 -4,-34 -1,-65 14,-95 160,-321 320,-641 481,-962 7,-14 14,-29 29,-38 27,-8 43,9 61,24 122,99 245,199 368,297 47,38 47,38 71,-21 161,-408 322,-816 483,-1223 140,-356 281,-712 421,-1068 9,-21 15,-44 35,-58z"/>
   <path class="fil3" d="M16072 6972c406,13 809,51 1205,150 254,63 499,151 724,289 151,93 285,205 392,348 126,168 199,357 224,565 22,186 11,371 -28,554 -8,37 -4,67 14,102 178,350 308,717 408,1096 74,283 124,571 155,862 3,27 3,55 4,83 -18,22 -36,6 -52,-1 -46,-21 -94,-26 -144,-26 -151,1 -303,0 -454,1 -62,0 -64,2 -57,65 29,254 58,509 85,764 2,18 4,36 0,54 -45,123 -75,248 -68,380 1,19 6,45 -17,52 -20,7 -35,-14 -48,-28 -102,-116 -200,-236 -289,-362 -278,-393 -501,-814 -649,-1273 -81,-249 -139,-503 -168,-764 -2,-20 -5,-39 -9,-58 -6,-5 -11,-1 -13,2 -55,83 -141,127 -225,172 -429,233 -883,399 -1361,498 -197,41 -397,72 -599,82 -41,2 -82,14 -123,8 -12,-2 -24,-4 -27,-19 10,-70 7,-141 7,-211 0,-534 0,-1068 0,-1602 0,-30 -2,-60 5,-89 12,-33 41,-27 67,-27 182,-1 364,16 544,42 400,57 782,174 1142,359 253,130 485,290 698,478 290,256 530,551 726,884 60,103 118,209 162,321 15,40 39,49 80,43 111,-15 222,-25 333,-36 49,-4 55,-11 38,-58 -69,-197 -154,-388 -252,-572 -137,-254 -296,-494 -477,-718 -318,-395 -695,-720 -1138,-968 -449,-250 -931,-400 -1441,-461 -127,-15 -254,-29 -383,-30 -34,0 -73,3 -98,-33 -6,-63 -15,-127 -15,-191 0,-194 0,-387 0,-581 0,-73 0,-73 -69,-94 -7,-2 -12,-6 -16,-11 55,-15 113,-13 170,-16 171,-12 343,-23 514,-25 13,-1 27,2 38,-8 89,0 177,0 266,0 55,12 110,2 165,5 18,1 36,-2 54,3z"/>
   <path class="fil4" d="M15764 20501c-45,73 -79,151 -118,227 -127,252 -253,505 -381,757 -19,38 -27,75 -18,118 9,40 8,81 12,122 13,125 21,251 33,377 11,124 25,247 36,371 9,92 15,183 23,275 6,66 13,133 19,200 1,16 0,33 0,49 -132,0 -263,0 -395,0 -22,-27 -16,-59 -16,-90 0,-519 0,-1038 0,-1557 0,-437 0,-874 0,-1311 0,-31 -2,-63 16,-91 7,-13 21,-19 32,-28 9,-9 21,-15 18,-31 4,-2 9,-2 13,0 109,96 224,183 336,275 122,100 244,199 367,298 12,9 29,17 23,39z"/>
   <path class="fil5" d="M14975 19948c0,998 0,1997 0,2995 0,18 0,36 0,54 -115,0 -230,0 -345,0 1,-93 15,-186 24,-278 4,-47 7,-95 13,-142 15,-118 22,-238 33,-357 12,-118 25,-237 37,-356 8,-86 9,-173 24,-259 9,-55 -7,-98 -30,-144 -153,-301 -304,-604 -456,-906 -16,-31 -16,-36 12,-58 151,-121 302,-241 453,-362 78,-63 154,-128 235,-187z"/>
   <path class="fil6" d="M16072 6972c-67,7 -134,-1 -201,0 -6,0 -12,-5 -18,-8 73,0 145,0 217,0 1,3 1,6 2,8z"/>
   <path class="fil7" d="M14956 10574c9,1 19,2 29,3 -2,4 0,11 -6,12 -64,12 -57,60 -57,106 0,1334 0,2669 0,4003 0,33 3,66 -6,98 -12,28 -36,22 -59,21 -239,-15 -447,63 -625,218 -108,94 -127,238 -73,372 64,158 185,243 342,285 122,32 245,52 371,50 64,-1 128,-2 192,1 17,0 45,-11 48,23 -32,24 -69,14 -105,14 -85,2 -85,1 -85,84 0,287 0,574 0,861 0,28 3,56 -10,82 -28,28 -65,19 -98,17 -453,-32 -883,-150 -1286,-360 -6,-3 -12,-6 -18,-9 -49,-24 -49,-24 -49,31 -1,531 0,1062 -1,1592 0,28 3,56 -5,83 -2,6 -6,11 -11,14 -13,-17 -7,-38 -7,-57 -1,-554 -1,-1108 0,-1662 0,-42 -11,-64 -47,-85 -238,-137 -456,-299 -658,-484 -227,-206 -429,-435 -608,-684 -176,-243 -328,-500 -458,-770 -156,-324 -280,-661 -372,-1010 -34,-128 -66,-257 -90,-388 -1,-8 -5,-15 -10,-28 -17,18 -31,34 -46,50 -117,129 -263,118 -384,11 -85,-75 -144,-170 -192,-271 -81,-169 -126,-349 -153,-533 -21,-138 -28,-278 -20,-417 9,-175 36,-346 107,-508 27,-60 59,-118 107,-164 25,-25 44,-51 49,-86 16,10 30,5 47,-1 108,-37 203,-11 287,63 90,79 155,176 204,283 103,228 158,469 168,720 3,59 11,118 10,177 0,13 1,28 8,38 43,61 94,115 143,170 16,19 29,5 36,-12 16,-40 34,-79 50,-118 69,-171 132,-345 212,-510 125,-259 160,-541 222,-815 88,-391 154,-787 218,-1183 3,-22 6,-43 17,-62 3,-4 8,-7 13,-9 24,-2 40,14 58,25 437,273 904,475 1406,595 219,52 442,85 666,104 107,10 214,-1 320,16 51,8 101,-13 152,-8 20,2 40,-3 57,12z"/>
   <path class="fil8" d="M12291 9835c-86,537 -182,1073 -305,1604 -27,115 -57,229 -86,343 -5,20 -6,42 -31,53 -12,5 -13,22 -18,34 -90,218 -180,437 -270,655 -8,18 -13,37 -25,53 -17,2 -23,-12 -31,-21 -48,-54 -94,-110 -142,-164 -18,-20 -21,-42 -21,-68 0,-273 -36,-540 -137,-795 -51,-131 -116,-254 -220,-353 -51,-48 -108,-84 -181,-91 -56,-6 -107,10 -154,37 -10,-10 -3,-23 -8,-33 21,-352 61,-700 149,-1042 53,-204 122,-402 231,-584 64,-107 139,-204 238,-280 25,-19 22,-34 13,-58 -53,-139 -89,-282 -120,-426 -2,-8 -6,-16 2,-25 102,35 202,81 324,86 -149,-217 -257,-443 -326,-688 -68,-246 -93,-495 -59,-750 23,4 38,15 54,23 222,116 446,231 679,325 56,23 114,43 173,58 22,6 44,9 74,8 -45,-110 -100,-213 -135,-323 16,-11 31,-6 45,-6 197,4 394,1 591,-20 148,-15 295,-41 438,-88 135,-46 277,-70 417,-98 287,-56 576,-99 866,-135 158,-20 316,-34 475,-51 24,-2 49,-2 74,-2 24,0 49,1 74,1 18,0 26,8 26,27 0,11 0,23 0,34 0,209 1,417 0,626 0,67 17,133 10,201 -16,16 -37,13 -56,12 -113,-6 -227,5 -339,12 -252,16 -500,56 -743,124 -403,111 -774,291 -1110,541 -210,157 -400,334 -573,532 -288,332 -516,701 -701,1097 -123,261 -220,532 -295,810 -5,17 -9,35 -13,53 -13,59 -12,62 48,62 63,0 125,-1 188,0 34,1 53,-10 67,-43 183,-432 433,-822 739,-1177 19,-22 36,-47 59,-66 13,-12 23,-29 45,-24z"/>
   <path class="fil9" d="M15033 19889l-4 0c0,0 -4,0 -4,0 -15,-7 -25,-21 -37,-32 -270,-271 -540,-542 -810,-813 -247,-248 -493,-496 -740,-744 14,-41 5,-83 6,-125 0,0 2,-4 2,-4 42,-49 103,-69 157,-99 433,-244 867,-487 1302,-730 462,-259 925,-518 1387,-778 59,-33 118,-65 177,-98 14,-8 28,-18 46,-10 0,607 0,1214 0,1821 0,28 0,56 0,84 4,17 -8,27 -18,37 -42,42 -79,89 -121,130 -158,155 -307,319 -464,476 -144,145 -288,292 -428,441 -131,138 -272,266 -396,411 -13,16 -26,40 -55,33z"/>
   <path class="fil9" d="M14906 14807c0,-1388 0,-2777 0,-4165 0,-10 0,-20 0,-30 0,-19 9,-26 27,-27 17,-1 37,6 52,-8 198,-14 395,-35 591,-70 357,-64 702,-167 1036,-306 190,-80 374,-170 551,-274 35,-21 62,-48 88,-78 18,-19 35,-39 59,-68 47,481 175,930 374,1357 200,428 455,821 779,1176 9,-25 5,-42 4,-59 -5,-120 15,-236 58,-347 3,-8 5,-16 12,-21 38,40 27,93 32,140 33,317 64,634 90,951 13,172 25,344 31,516 1,24 5,50 -17,69 -16,20 -18,46 -26,69 -63,203 -135,404 -221,600 -3,7 -5,15 -7,23 -2,32 -30,41 -50,55 -211,148 -439,265 -676,364 -449,188 -917,310 -1395,396 -186,33 -373,62 -561,79 -27,2 -48,-2 -63,-27 -51,-88 -136,-136 -225,-176 -154,-71 -320,-94 -487,-115 -21,-2 -43,-2 -56,-24z"/>
   <path class="fil9" d="M14906 16811c0,-332 0,-663 0,-995 0,-8 0,-16 0,-25 0,-18 10,-25 28,-25 44,0 88,0 133,-1 16,0 33,5 46,-9 23,-20 52,-21 79,-23 107,-8 211,-33 311,-72 65,-25 123,-61 164,-120 23,-33 56,-43 94,-45 275,-15 543,-72 809,-137 248,-61 490,-138 731,-220 251,-87 499,-183 743,-291 21,-10 43,-25 69,-12 -5,27 -23,47 -36,69 -152,243 -320,472 -512,685 -278,309 -592,572 -952,782 -11,6 -24,10 -29,24 -91,65 -193,110 -294,156 -308,138 -630,223 -965,261 -124,14 -249,12 -373,11 -16,0 -33,1 -46,-13z"/>
   <path class="fil10" d="M18673 13563c6,-110 -6,-220 -11,-329 -6,-118 -17,-236 -27,-354 -14,-163 -30,-326 -46,-489 -10,-111 -21,-222 -32,-333 -6,-57 -13,-114 -20,-171 -1,-59 -10,-117 -17,-176 -9,-69 -15,-139 -23,-209 -8,-78 -18,-155 -26,-233 -8,-70 -16,-140 -22,-210 -2,-18 -5,-35 -9,-53 -3,-15 4,-25 21,-25 13,0 26,-1 39,-1 164,0 328,2 492,0 48,-1 91,8 133,28 14,6 27,20 45,13 14,20 37,26 57,38 205,116 355,279 429,506 17,52 26,104 26,160 -1,435 0,870 -1,1306 0,127 -27,248 -95,357 -82,130 -203,208 -346,255 -179,59 -363,69 -550,51 -19,-2 -27,-8 -22,-28 8,-34 7,-68 5,-103z"/>
   <path class="fil11" d="M15033 19889c67,-57 123,-123 184,-185 276,-284 552,-568 828,-853 148,-153 297,-307 445,-460 9,-10 21,-17 25,-30 77,-68 142,-145 215,-216 35,-35 70,-69 108,-105 19,22 40,45 61,68 87,98 174,197 261,295 12,15 23,31 35,46 -28,73 -57,146 -85,219 -77,195 -154,391 -231,585 -73,185 -146,369 -219,553 -82,207 -163,414 -245,622 -56,144 -114,289 -171,434 -1,2 -4,4 -8,8 -39,-17 -68,-48 -100,-74 -103,-81 -202,-166 -306,-245 -22,-17 -39,-41 -66,-50 -53,-55 -115,-98 -173,-145 -177,-145 -356,-288 -534,-432 -11,-9 -26,-16 -24,-35z"/>
   <path class="fil12" d="M18113 14836c-91,38 -181,76 -272,113 -487,199 -985,366 -1500,476 -194,42 -390,76 -589,85 -33,2 -56,11 -76,42 -29,49 -78,79 -129,104 -84,42 -175,65 -268,79 -55,9 -110,14 -166,21 -88,0 -177,2 -265,0 -147,-4 -290,-27 -429,-78 -163,-59 -255,-178 -294,-342 -27,-116 4,-218 88,-302 97,-95 215,-155 343,-195 105,-32 211,-48 321,-33 9,2 19,1 29,1 40,18 84,15 126,20 149,19 295,48 432,110 91,41 174,94 225,185 9,16 20,17 36,15 100,-12 200,-21 299,-35 266,-40 530,-90 792,-155 391,-99 772,-225 1134,-405 151,-75 297,-161 435,-259 12,-9 26,-14 34,-28 109,-72 203,-160 295,-253 15,-15 29,-31 43,-47 77,-85 195,-98 289,-31 56,41 93,96 123,158 14,27 6,54 -6,80 -17,36 -42,66 -70,94 -63,64 -135,116 -209,165 -213,143 -442,258 -674,367 -33,15 -67,26 -97,48z"/>
   <path class="fil13" d="M14906 16811c97,0 194,4 291,-1 79,-5 158,-15 237,-26 122,-17 241,-41 360,-72 155,-41 306,-92 453,-157 98,-42 193,-88 287,-139 16,-8 31,-18 50,-20 8,2 19,6 6,14 -24,17 -50,31 -75,46 -99,55 -198,109 -297,164 -96,54 -192,108 -287,162 -103,58 -206,116 -309,173 -120,68 -240,134 -361,201 -125,71 -251,142 -377,213 -93,52 -186,103 -279,155 -94,53 -188,107 -282,160 -93,52 -187,103 -280,155 -101,57 -202,115 -304,171 -97,54 -195,108 -293,161 0,-578 0,-1157 0,-1735 0,-7 1,-13 1,-19 16,-7 26,3 37,9 134,69 271,133 412,186 143,54 289,97 438,129 89,19 179,36 269,48 47,6 94,12 142,13 54,2 107,12 161,9z"/>
   <path class="fil12" d="M12291 9835c-52,36 -87,89 -127,136 -136,160 -260,329 -373,507 -130,205 -247,418 -338,644 -9,24 -21,37 -49,36 -84,-2 -168,0 -251,-1 -35,0 -35,-1 -28,-36 31,-158 81,-311 135,-462 85,-242 190,-475 310,-702 121,-229 260,-447 419,-653 76,-99 159,-191 242,-285 80,-90 167,-171 257,-251 172,-152 358,-286 558,-401 224,-131 460,-230 707,-306 139,-44 281,-76 425,-100 111,-18 223,-32 335,-41 154,-12 308,-20 462,-18 110,6 220,9 329,21 130,13 259,31 388,54 184,33 365,79 542,136 134,44 265,97 394,155 177,80 345,175 507,282 115,76 226,158 331,247 109,93 217,186 316,290 152,159 292,328 420,507 160,224 297,461 415,709 59,126 113,255 157,387 13,41 8,48 -35,53 -109,10 -218,20 -328,30 -21,2 -41,9 -63,10 -25,1 -38,-8 -47,-31 -22,-54 -45,-106 -71,-158 -114,-226 -251,-437 -411,-635 -111,-137 -230,-266 -359,-385 -155,-142 -322,-270 -501,-381 -110,-68 -223,-132 -340,-188 -255,-119 -519,-210 -795,-266 -106,-22 -212,-42 -319,-55 -86,-11 -173,-19 -259,-24 -91,-6 -180,-10 -271,-8 -18,15 -40,12 -61,12 -200,-3 -397,17 -593,51 -447,77 -864,235 -1249,477 -276,175 -525,382 -749,620 -10,10 -21,16 -32,23l0 0z"/>
   <path class="fil8" d="M12291 9835c52,-77 122,-138 190,-199 45,-42 90,-85 138,-126 85,-72 173,-141 263,-206 165,-119 340,-224 524,-311 263,-126 536,-218 823,-274 112,-21 225,-37 339,-49 135,-16 271,-21 407,-18 0,613 0,1225 0,1838 0,30 -2,58 -19,84 -211,12 -420,4 -629,-16 -448,-44 -877,-158 -1291,-333 -241,-101 -472,-224 -694,-362 -16,-10 -31,-25 -51,-28z"/>
  </g>
  <g id="_2250381824592">
   <path class="fil14" d="M11487 25698l-1230 -1186 -476 -4544c-17,-279 33,-503 170,-653 118,-129 302,-204 564,-214l4273 0 424 0 4273 0c262,10 446,85 564,214 137,150 187,374 170,653l-476 4544 -1230 1186 -3301 0 -424 0 -3301 0z"/>
   <path class="fil15" d="M10426 24675l-169 -163 -476 -4544c-17,-279 33,-503 170,-653 118,-129 302,-204 564,-214l4273 0 424 0 4273 0c262,10 446,85 564,214l-9623 5360z"/>
   <path class="fil16" d="M15064 21494c383,0 694,311 694,694 0,383 -311,694 -694,694 -383,0 -694,-311 -694,-694 0,-383 311,-694 694,-694zm0 281c228,0 413,185 413,413 0,228 -185,413 -413,413 -228,0 -413,-185 -413,-413 0,-228 185,-413 413,-413z"/>
  </g>
  <path class="fil17" d="M15000 25277c-5676,0 -10277,-4601 -10277,-10277 0,-5676 4601,-10277 10277,-10277 5676,0 10277,4601 10277,10277 0,5676 -4601,10277 -10277,10277zm0 2383c-6992,0 -12660,-5668 -12660,-12660 0,-6992 5668,-12660 12660,-12660 6992,0 12660,5668 12660,12660 0,6992 -5668,12660 -12660,12660z"/>
 </g>
</svg>
