<?xml version="1.0" encoding="UTF-8"?>
<!DOCTYPE svg PUBLIC "-//W3C//DTD SVG 1.1//EN" "http://www.w3.org/Graphics/SVG/1.1/DTD/svg11.dtd">
<!-- Creator: CorelDRAW 2017 -->
<svg xmlns="http://www.w3.org/2000/svg" xml:space="preserve" width="590px" height="540px" version="1.1" style="shape-rendering:geometricPrecision; text-rendering:geometricPrecision; image-rendering:optimizeQuality; fill-rule:evenodd; clip-rule:evenodd"
viewBox="0 0 59000 54010"
 xmlns:xlink="http://www.w3.org/1999/xlink">
 <defs>
  <style type="text/css">
   <![CDATA[
    .fil1 {fill:#EBE9EA}
    .fil0 {fill:white}
    .fil14 {fill:#2B2A29;fill-rule:nonzero}
    .fil4 {fill:#0ED33D;fill-rule:nonzero}
    .fil8 {fill:#15365D;fill-rule:nonzero}
    .fil13 {fill:#1D3A6E;fill-rule:nonzero}
    .fil10 {fill:#8C8C8C;fill-rule:nonzero}
    .fil6 {fill:#9E9E9E;fill-rule:nonzero}
    .fil7 {fill:#DDDDDD;fill-rule:nonzero}
    .fil11 {fill:#F6911D;fill-rule:nonzero}
    .fil9 {fill:#F9F9FB;fill-rule:nonzero}
    .fil3 {fill:#FBCF26;fill-rule:nonzero}
    .fil5 {fill:#FDFDFD;fill-rule:nonzero}
    .fil2 {fill:#FF6B80;fill-rule:nonzero}
    .fil12 {fill:white;fill-rule:nonzero}
   ]]>
  </style>
 </defs>
 <g id="Layer_x0020_1">
  <metadata id="CorelCorpID_0Corel-Layer"/>
  <g id="_1820587849408">
   <path class="fil0" d="M673 53961l57654 0c343,0 623,-281 623,-624l0 -52664c0,-343 -280,-623 -623,-623l-57654 0c-343,0 -623,280 -623,623l0 52664c0,343 280,624 623,624z"/>
   <path class="fil1" d="M58950 5500l0 -4827c0,-343 -280,-623 -623,-623l-57654 0c-343,0 -623,280 -623,623l0 4827 58900 0z"/>
   <g>
    <g>
     <path class="fil2" d="M2151 2210c-359,0 -650,291 -650,650 0,359 291,650 650,650 359,0 650,-291 650,-650 0,-359 -291,-650 -650,-650z"/>
    </g>
   </g>
   <g>
    <g>
     <path class="fil3" d="M4351 2210c-359,0 -650,291 -650,650 0,359 291,650 650,650 359,0 650,-291 650,-650 0,-359 -291,-650 -650,-650z"/>
    </g>
   </g>
   <g>
    <g>
     <path class="fil4" d="M6551 2210c-359,0 -650,291 -650,650 0,359 291,650 650,650 359,0 650,-291 650,-650 0,-359 -291,-650 -650,-650z"/>
    </g>
   </g>
   <g>
    <g>
     <path class="fil5" d="M11201 1310l-2200 0c-221,0 -400,179 -400,400l0 2100c0,221 179,400 400,400l2200 0c221,0 400,-179 400,-400l0 -2100c0,-221 -179,-400 -400,-400z"/>
    </g>
   </g>
   <g>
    <g>
     <polygon class="fil6" points="10401,2210 10222,2210 9701,2810 10222,3410 10401,3410 9880,2810 "/>
    </g>
   </g>
   <g>
    <g>
     <path class="fil5" d="M14501 1310l-2200 0c-221,0 -400,179 -400,400l0 2100c0,221 179,400 400,400l2200 0c221,0 400,-179 400,-400l0 -2100c0,-221 -179,-400 -400,-400z"/>
    </g>
   </g>
   <g>
    <g>
     <path class="fil5" d="M19500 1310l-3199 0c-221,0 -400,179 -400,400l0 2100c0,221 179,400 400,400l3199 0c221,0 400,-179 400,-400l0 -2100c0,-221 -179,-400 -400,-400z"/>
    </g>
   </g>
   <g>
    <g>
     <polygon class="fil6" points="13280,2210 13101,2210 13621,2810 13101,3410 13280,3410 13801,2810 "/>
    </g>
   </g>
   <path class="fil6" d="M17569 2780l0 97 -94 0 0 -97 94 0zm0 -201l0 97 -94 0 0 -97 94 0zm0 -201l0 97 -94 0 0 -97 94 0zm-340 -257l1443 0c27,0 52,11 70,29 18,18 29,43 29,70l0 1080c0,27 -11,52 -29,70 -18,18 -43,30 -70,30l-1443 0c-27,0 -52,-12 -70,-30 -18,-17 -29,-42 -29,-70l0 -1080c0,-27 11,-52 29,-70 18,-18 43,-29 70,-29zm609 85l0 1109 834 0c4,0 7,-2 10,-5 2,-2 4,-6 4,-10l0 -1080c0,-4 -2,-7 -4,-10 -3,-3 -6,-4 -10,-4l-834 0zm-109 1109l0 -1109 -500 0c-4,0 -7,1 -10,4 -2,3 -4,6 -4,10l0 1080c0,4 2,8 4,10 3,3 6,5 10,5l500 0z"/>
   <path class="fil7" d="M673 53911l57654 0c158,0 301,-64 405,-168 104,-105 169,-248 169,-406l0 -52664c0,-158 -65,-301 -169,-405 -104,-104 -247,-169 -405,-169l-57654 0c-158,0 -301,65 -405,169 -104,104 -169,247 -169,405l0 52664c0,158 65,301 169,405 104,105 247,169 405,169zm57654 99l-57654 0c-185,0 -353,-75 -475,-198 -122,-121 -198,-290 -198,-475l0 -52664c0,-185 76,-353 198,-475 122,-122 290,-198 475,-198l57654 0c185,0 353,76 475,198 122,122 198,290 198,475l0 52664c0,185 -76,354 -198,476 -122,122 -290,197 -475,197z"/>
   <g>
    <g>
     <path class="fil5" d="M57499 1310l-36199 0c-221,0 -400,179 -400,400l0 2100c0,221 179,400 400,400l36199 0c221,0 400,-179 400,-400l0 -2100c0,-221 -179,-400 -400,-400z"/>
    </g>
   </g>
   <g>
    <polygon class="fil8" points="23056,2655 23214,2655 22882,3439 22747,3439 22600,3075 22455,3439 22318,3439 21988,2655 22144,2655 22398,3280 22512,2989 22375,2656 22510,2656 22600,2902 22690,2656 22825,2656 22690,2989 22804,3280 "/>
    <polygon class="fil8" points="24307,2655 24464,2655 24133,3439 23998,3439 23851,3075 23706,3439 23569,3439 23239,2655 23395,2655 23649,3280 23762,2989 23626,2656 23761,2656 23851,2902 23941,2656 24076,2656 23941,2989 24055,3280 "/>
    <polygon class="fil8" points="25558,2655 25715,2655 25384,3439 25249,3439 25102,3075 24956,3439 24820,3439 24490,2655 24646,2655 24899,3280 25013,2989 24877,2656 25012,2656 25102,2902 25192,2656 25327,2656 25192,2989 25306,3280 "/>
    <polygon class="fil8" points="25750,3439 25750,3247 25886,3247 25886,3439 "/>
    <polygon class="fil8" points="26050,2374 26345,2908 26642,2374 26825,2374 26429,3058 26429,3439 26260,3439 26260,3055 25865,2374 "/>
    <path class="fil8" d="M27323 3447c-75,0 -143,-16 -204,-46 -62,-31 -115,-71 -159,-122 -45,-50 -79,-108 -103,-173 -24,-65 -36,-131 -36,-199 0,-71 13,-139 38,-204 26,-65 61,-123 106,-173 45,-50 98,-90 160,-119 62,-30 130,-44 203,-44 75,0 143,15 205,47 61,31 114,73 158,124 44,51 78,108 102,173 24,64 36,130 36,197 0,71 -13,139 -38,204 -26,65 -61,122 -106,172 -45,49 -98,89 -160,118 -61,30 -129,45 -202,45zm-331 -540l0 0c0,50 8,98 23,145 16,47 38,89 67,125 29,36 64,64 105,86 41,21 87,32 138,32 52,0 99,-11 140,-34 42,-22 77,-52 105,-89 29,-37 50,-78 65,-124 15,-46 23,-93 23,-141 0,-51 -8,-100 -24,-147 -16,-46 -39,-87 -68,-123 -29,-35 -64,-64 -105,-85 -41,-22 -86,-32 -136,-32 -52,0 -99,11 -140,33 -42,23 -77,52 -105,88 -29,36 -51,77 -66,124 -15,46 -22,94 -22,142z"/>
    <path class="fil8" d="M28447 3295c56,0 102,-11 139,-33 37,-22 67,-51 90,-86 22,-36 38,-76 48,-122 9,-45 14,-92 14,-140l0 -540 169 0 0 540c0,73 -8,142 -25,206 -17,65 -44,121 -81,170 -37,48 -85,87 -143,115 -59,28 -129,42 -211,42 -85,0 -157,-15 -215,-45 -59,-29 -106,-69 -142,-118 -36,-50 -62,-106 -78,-170 -16,-64 -24,-131 -24,-200l0 -540 168 0 0 540c0,49 5,96 14,142 10,45 26,86 48,121 23,36 53,64 90,86 38,21 84,32 139,32z"/>
    <path class="fil8" d="M29129 3439l0 -1065 464 0c48,0 92,10 132,30 41,20 76,46 105,79 29,32 51,69 68,111 16,41 25,84 25,127 0,36 -5,70 -15,103 -10,33 -24,64 -42,92 -18,28 -40,52 -66,72 -26,21 -55,36 -86,46l254 405 -191 0 -234 -370 -246 0 0 370 -168 0zm168 -519l0 0 294 0c24,0 46,-5 65,-16 20,-10 37,-25 51,-43 14,-19 25,-40 33,-64 8,-24 12,-49 12,-76 0,-27 -5,-53 -15,-77 -9,-24 -22,-45 -37,-63 -16,-18 -33,-32 -54,-43 -21,-10 -42,-15 -64,-15l-285 0 0 397z"/>
    <polygon class="fil8" points="30095,3103 30095,2955 30544,2955 30544,3103 "/>
    <polygon class="fil8" points="31072,2379 31229,2379 31360,2740 31492,2379 31651,2379 31468,2853 31628,3244 31960,2374 32143,2374 31705,3439 31559,3439 31361,2962 31162,3439 31018,3439 30580,2374 30761,2374 31096,3244 31253,2853 "/>
    <polygon class="fil8" points="32999,3291 32999,3439 32269,3439 32269,2374 32986,2374 32986,2523 32437,2523 32437,2826 32912,2826 32912,2965 32437,2965 32437,3291 "/>
    <path class="fil8" d="M34016 3165c0,43 -9,81 -26,115 -18,34 -41,63 -71,86 -29,24 -64,42 -104,54 -40,13 -82,19 -127,19l-509 0 0 -1065 549 0c37,0 71,8 101,24 30,16 55,37 76,62 21,26 37,55 49,87 11,33 17,66 17,99 0,52 -13,100 -40,146 -26,45 -64,79 -113,101 61,18 109,51 145,98 35,48 53,106 53,174zm-669 -645l0 0 0 313 309 0c21,0 40,-4 58,-12 17,-8 33,-19 46,-32 14,-14 24,-30 32,-49 7,-19 11,-40 11,-63 0,-46 -13,-84 -39,-113 -26,-30 -59,-44 -99,-44l-318 0zm497 613l0 0c0,-22 -4,-43 -12,-63 -7,-20 -17,-37 -30,-52 -12,-15 -27,-27 -45,-36 -18,-9 -38,-14 -59,-14l-351 0 0 326 341 0c22,0 42,-5 61,-13 19,-9 36,-20 50,-35 14,-14 25,-31 33,-51 8,-19 12,-40 12,-62z"/>
    <path class="fil8" d="M34825 2625c-11,-11 -25,-23 -44,-36 -19,-12 -41,-24 -67,-35 -25,-11 -54,-20 -84,-27 -32,-7 -64,-10 -99,-10 -67,0 -116,13 -150,39 -34,26 -51,62 -51,109 0,26 5,47 16,64 11,16 27,31 49,43 22,12 50,22 83,32 33,9 71,20 115,31 53,14 100,28 144,43 43,15 80,34 111,56 30,23 54,51 71,84 17,33 26,74 26,123 0,56 -11,103 -32,142 -21,39 -49,71 -85,95 -35,25 -76,43 -123,54 -47,12 -97,18 -150,18 -81,0 -160,-13 -236,-37 -76,-25 -144,-60 -205,-107l78 -144c13,13 31,27 55,43 24,16 52,31 85,44 32,14 68,25 107,35 39,9 79,14 121,14 64,0 114,-12 150,-35 35,-24 53,-58 53,-103 0,-27 -7,-49 -20,-67 -12,-18 -31,-34 -56,-48 -25,-13 -56,-25 -92,-36 -36,-10 -77,-21 -123,-33 -53,-14 -99,-29 -139,-45 -39,-15 -72,-34 -98,-56 -26,-22 -46,-48 -59,-77 -14,-30 -20,-65 -20,-107 0,-52 9,-99 29,-139 19,-41 46,-75 81,-102 34,-28 75,-48 122,-62 47,-14 97,-21 151,-21 75,0 142,11 202,34 61,23 114,52 160,86l-76 138z"/>
    <polygon class="fil8" points="35114,3439 35114,2376 35282,2376 35282,3439 "/>
    <polygon class="fil8" points="36303,2523 35949,2523 35949,3439 35781,3439 35781,2523 35426,2523 35426,2374 36303,2374 "/>
    <polygon class="fil8" points="37179,3291 37179,3439 36449,3439 36449,2374 37166,2374 37166,2523 36617,2523 36617,2826 37092,2826 37092,2965 36617,2965 36617,3291 "/>
    <polygon class="fil8" points="37329,3439 37329,3247 37466,3247 37466,3439 "/>
    <path class="fil8" d="M37605 3046c0,-55 10,-107 29,-156 19,-49 46,-92 82,-129 35,-37 78,-66 128,-88 50,-21 106,-32 168,-32 81,0 151,18 209,53 59,36 102,83 131,142l-160 51c-19,-33 -45,-59 -77,-77 -32,-19 -67,-28 -106,-28 -33,0 -64,7 -92,20 -29,13 -54,31 -75,54 -21,24 -37,52 -49,84 -12,32 -18,67 -18,106 0,38 6,73 19,106 12,32 29,61 51,85 21,24 46,42 75,56 28,13 58,20 90,20 20,0 40,-3 60,-8 20,-6 39,-13 55,-23 17,-10 31,-22 44,-35 12,-13 21,-27 27,-42l162 48c-26,59 -69,107 -130,145 -61,37 -133,56 -216,56 -61,0 -117,-11 -167,-33 -50,-22 -92,-52 -128,-89 -35,-38 -63,-81 -82,-130 -20,-49 -30,-101 -30,-156z"/>
    <path class="fil8" d="M38838 3454c-62,0 -117,-11 -167,-33 -49,-22 -92,-51 -127,-88 -35,-37 -62,-81 -81,-130 -19,-50 -28,-101 -28,-155 0,-54 9,-106 28,-156 19,-49 47,-92 82,-129 36,-37 78,-67 128,-89 49,-22 104,-33 165,-33 61,0 117,11 166,33 50,22 92,52 128,89 35,37 62,80 81,129 19,50 29,102 29,156 0,54 -10,105 -29,155 -19,49 -46,93 -81,130 -36,37 -78,66 -128,88 -49,22 -105,33 -166,33zm-234 -405l0 0c0,38 6,73 18,105 12,32 29,60 50,83 21,24 46,42 74,56 29,13 59,20 92,20 33,0 64,-7 93,-20 28,-14 53,-32 74,-56 21,-24 37,-52 49,-84 12,-32 18,-67 18,-105 0,-37 -6,-72 -18,-105 -12,-32 -28,-60 -49,-84 -21,-24 -46,-43 -74,-57 -29,-13 -60,-20 -93,-20 -32,0 -62,7 -90,21 -29,14 -54,33 -75,57 -21,24 -37,52 -50,85 -12,32 -19,67 -19,104z"/>
    <path class="fil8" d="M40586 3439l-165 0 0 -439c0,-73 -13,-127 -37,-161 -25,-34 -59,-51 -104,-51 -47,0 -90,17 -129,52 -39,34 -67,79 -84,134l0 465 -165 0 0 -439c0,-74 -12,-128 -36,-162 -23,-33 -58,-50 -104,-50 -46,0 -89,17 -128,51 -40,34 -68,79 -85,134l0 466 -165 0 0 -784 150 0 0 157c31,-55 72,-97 122,-127 51,-29 109,-44 174,-44 66,0 117,17 154,51 37,34 61,77 71,128 33,-58 74,-103 124,-133 50,-31 107,-46 170,-46 46,0 84,9 115,26 30,18 54,41 72,70 18,29 31,63 38,101 8,39 12,80 12,123l0 478z"/>
   </g>
   <g>
    <g>
     <path class="fil9" d="M55699 22109l-52298 0c-331,0 -600,269 -600,600l0 4000c0,332 269,600 600,600l52298 0c331,0 600,-268 600,-600l0 -4000c0,-331 -269,-600 -600,-600z"/>
    </g>
   </g>
   <g>
    <path class="fil10" d="M5781 25409l-170 0 -702 -1078 -7 0c9,126 14,242 14,348l0 730 -138 0 0 -1285 168 0 701 1074 7 0c-1,-15 -4,-66 -8,-152 -4,-86 -6,-147 -4,-184l0 -738 139 0 0 1285z"/>
    <path class="fil10" d="M6705 25409l-29 -137 -7 0c-48,61 -96,101 -144,123 -47,21 -107,32 -179,32 -95,0 -170,-25 -224,-74 -54,-49 -81,-119 -81,-210 0,-195 155,-296 466,-306l164 -5 0 -60c0,-75 -17,-131 -49,-167 -33,-36 -85,-54 -156,-54 -80,0 -171,24 -272,73l-45 -111c47,-26 99,-46 156,-61 56,-14 113,-22 170,-22 115,0 200,26 255,77 55,51 83,132 83,245l0 657 -108 0zm-330 -103l0 0c91,0 163,-24 214,-74 52,-50 78,-120 78,-209l0 -87 -146 6c-116,4 -199,22 -251,54 -51,32 -76,81 -76,149 0,52 16,93 47,120 32,28 77,41 134,41z"/>
    <path class="fil10" d="M8341 25409l0 -626c0,-77 -16,-135 -49,-173 -33,-38 -83,-58 -153,-58 -90,0 -158,26 -201,79 -43,52 -65,132 -65,240l0 538 -146 0 0 -626c0,-77 -16,-135 -49,-173 -33,-38 -84,-58 -154,-58 -91,0 -158,28 -201,83 -42,54 -63,144 -63,269l0 505 -146 0 0 -963 118 0 24 132 7 0c28,-47 66,-84 117,-110 50,-26 106,-40 168,-40 150,0 249,55 295,164l7 0c29,-50 71,-90 125,-120 55,-29 117,-44 186,-44 109,0 191,28 245,84 54,56 81,146 81,269l0 628 -146 0z"/>
    <path class="fil10" d="M9195 25427c-142,0 -255,-44 -337,-130 -82,-87 -124,-207 -124,-361 0,-156 39,-279 115,-370 76,-92 179,-138 308,-138 121,0 216,40 287,120 70,79 105,184 105,314l0 92 -663 0c2,113 31,199 85,258 54,58 131,87 229,87 104,0 206,-21 308,-65l0 130c-52,23 -101,39 -147,48 -46,10 -101,15 -166,15zm-40 -876l0 0c-77,0 -139,25 -185,75 -46,51 -73,120 -81,209l504 0c0,-92 -21,-162 -62,-211 -41,-49 -100,-73 -176,-73z"/>
   </g>
   <g>
    <g>
     <path class="fil9" d="M55699 28009l-52298 0c-331,0 -600,269 -600,600l0 4000c0,331 269,600 600,600l52298 0c331,0 600,-269 600,-600l0 -4000c0,-331 -269,-600 -600,-600z"/>
    </g>
   </g>
   <g>
    <polygon class="fil10" points="5494,31309 4778,31309 4778,30024 5494,30024 5494,30157 4927,30157 4927,30571 5460,30571 5460,30703 4927,30703 4927,31175 5494,31175 "/>
    <path class="fil10" d="M6985 31309l0 -627c0,-76 -17,-134 -50,-172 -33,-39 -83,-58 -153,-58 -90,0 -158,26 -201,78 -43,53 -65,133 -65,241l0 538 -146 0 0 -627c0,-76 -16,-134 -49,-172 -33,-39 -84,-58 -154,-58 -91,0 -158,28 -201,82 -42,55 -63,145 -63,270l0 505 -146 0 0 -963 118 0 24 132 7 0c28,-47 66,-84 117,-110 50,-27 106,-40 168,-40 150,0 249,55 295,164l7 0c29,-51 71,-91 125,-120 55,-29 117,-44 186,-44 109,0 191,28 245,84 54,56 81,146 81,269l0 628 -145 0z"/>
    <path class="fil10" d="M8023 31309l-29 -137 -7 0c-48,60 -96,101 -143,123 -48,21 -108,32 -179,32 -96,0 -171,-25 -225,-74 -54,-49 -81,-119 -81,-210 0,-195 155,-297 467,-306l163 -5 0 -60c0,-76 -16,-132 -49,-168 -32,-36 -84,-54 -156,-54 -80,0 -171,25 -272,74l-45 -111c47,-26 99,-46 156,-61 57,-15 113,-22 170,-22 115,0 200,25 255,76 56,51 83,133 83,246l0 657 -108 0zm-329 -103l0 0c91,0 162,-25 214,-74 52,-50 78,-120 78,-210l0 -87 -146 6c-116,5 -200,23 -251,55 -52,31 -77,81 -77,149 0,52 16,92 48,120 32,27 76,41 134,41z"/>
    <path class="fil10" d="M8420 30085c0,-34 8,-58 24,-74 17,-15 37,-23 62,-23 23,0 43,8 60,24 17,16 26,40 26,73 0,33 -9,57 -26,73 -17,16 -37,24 -60,24 -25,0 -45,-8 -62,-24 -16,-16 -24,-40 -24,-73zm158 1224l0 0 -146 0 0 -963 146 0 0 963z"/>
    <polygon class="fil10" points="9033,31309 8887,31309 8887,29942 9033,29942 "/>
    <path class="fil10" d="M10640 31309l-160 -409 -515 0 -158 409 -152 0 508 -1290 126 0 505 1290 -154 0zm-207 -543l0 0 -149 -398c-20,-51 -39,-112 -60,-186 -13,57 -31,118 -55,186l-151 398 415 0z"/>
    <path class="fil10" d="M11605 31180l-8 0c-68,98 -168,147 -302,147 -126,0 -224,-43 -294,-130 -70,-86 -106,-208 -106,-367 0,-159 36,-282 106,-370 70,-88 168,-132 294,-132 130,0 230,48 300,143l12 0 -7 -70 -3 -68 0 -391 146 0 0 1367 -119 0 -19 -129zm-292 24l0 0c100,0 172,-27 217,-81 44,-54 67,-141 67,-262l0 -31c0,-136 -23,-234 -68,-292 -46,-58 -118,-88 -218,-88 -85,0 -151,34 -196,100 -46,67 -68,161 -68,282 0,123 22,216 67,278 45,63 112,94 199,94z"/>
    <path class="fil10" d="M12708 31180l-8 0c-68,98 -168,147 -303,147 -125,0 -223,-43 -294,-130 -70,-86 -105,-208 -105,-367 0,-159 36,-282 106,-370 70,-88 168,-132 293,-132 131,0 231,48 301,143l11 0 -6 -70 -3 -68 0 -391 146 0 0 1367 -119 0 -19 -129zm-292 24l0 0c100,0 172,-27 217,-81 44,-54 67,-141 67,-262l0 -31c0,-136 -23,-234 -68,-292 -46,-58 -118,-88 -218,-88 -85,0 -151,34 -196,100 -46,67 -68,161 -68,282 0,123 22,216 67,278 45,63 112,94 199,94z"/>
    <path class="fil10" d="M13595 30328c42,0 81,4 115,11l-21 135c-39,-9 -75,-13 -105,-13 -78,0 -145,32 -200,95 -55,63 -83,142 -83,236l0 517 -146 0 0 -963 120 0 17 178 7 0c36,-62 79,-111 129,-145 51,-34 106,-51 167,-51z"/>
    <path class="fil10" d="M14297 31327c-143,0 -255,-44 -337,-130 -83,-87 -124,-208 -124,-362 0,-155 38,-278 115,-370 76,-91 179,-137 308,-137 121,0 216,40 286,119 71,80 106,184 106,315l0 92 -664 0c3,113 32,199 86,257 54,59 131,88 229,88 104,0 206,-21 308,-65l0 130c-52,22 -101,38 -147,48 -46,10 -101,15 -166,15zm-40 -877l0 0c-77,0 -139,26 -185,76 -46,50 -73,120 -81,209l503 0c0,-92 -20,-162 -61,-211 -41,-49 -100,-74 -176,-74z"/>
    <path class="fil10" d="M15521 31046c0,90 -33,159 -100,208 -67,48 -161,73 -281,73 -128,0 -228,-21 -299,-61l0 -135c46,23 96,42 149,55 53,13 104,20 153,20 76,0 135,-12 176,-36 41,-25 61,-62 61,-111 0,-38 -16,-70 -48,-97 -33,-26 -96,-58 -191,-94 -89,-34 -153,-63 -191,-88 -38,-24 -66,-53 -84,-84 -19,-32 -28,-70 -28,-114 0,-78 32,-140 96,-186 64,-45 151,-68 263,-68 103,0 205,21 304,63l-52 119c-97,-40 -184,-60 -263,-60 -69,0 -121,11 -156,33 -35,22 -53,51 -53,90 0,25 7,47 20,65 13,19 34,36 63,52 30,17 86,40 169,72 114,41 192,83 232,125 40,42 60,95 60,159z"/>
    <path class="fil10" d="M16380 31046c0,90 -34,159 -101,208 -66,48 -160,73 -281,73 -127,0 -227,-21 -299,-61l0 -135c47,23 96,42 149,55 53,13 105,20 154,20 76,0 134,-12 176,-36 41,-25 61,-62 61,-111 0,-38 -16,-70 -49,-97 -32,-26 -96,-58 -190,-94 -90,-34 -153,-63 -191,-88 -38,-24 -66,-53 -85,-84 -18,-32 -27,-70 -27,-114 0,-78 32,-140 96,-186 63,-45 151,-68 262,-68 104,0 205,21 304,63l-51 119c-97,-40 -185,-60 -263,-60 -69,0 -121,11 -157,33 -35,22 -52,51 -52,90 0,25 6,47 19,65 14,19 35,36 64,52 29,17 86,40 169,72 114,41 191,83 231,125 41,42 61,95 61,159z"/>
   </g>
   <g>
    <g>
     <path class="fil9" d="M55699 33909l-52298 0c-331,0 -600,268 -600,600l0 4000c0,331 269,600 600,600l52298 0c331,0 600,-269 600,-600l0 -4000c0,-332 -269,-600 -600,-600z"/>
    </g>
   </g>
   <g>
    <path class="fil10" d="M5592 36298c0,130 -44,230 -133,300 -89,70 -216,105 -381,105l-151 0 0 506 -149 0 0 -1285 333 0c321,0 481,125 481,374zm-665 277l0 0 135 0c132,0 228,-21 287,-64 59,-43 89,-111 89,-206 0,-85 -28,-148 -84,-190 -55,-41 -142,-62 -260,-62l-167 0 0 522z"/>
    <path class="fil10" d="M6499 37209l0 -623c0,-79 -18,-137 -54,-176 -36,-39 -92,-58 -168,-58 -101,0 -175,27 -222,83 -46,55 -70,145 -70,270l0 504 -146 0 0 -1368 146 0 0 414c0,50 -2,91 -7,124l9 0c29,-46 70,-83 123,-109 53,-27 113,-40 181,-40 118,0 206,28 265,84 59,56 88,145 88,266l0 629 -145 0z"/>
    <path class="fil10" d="M7775 36726c0,157 -39,280 -118,368 -79,88 -189,132 -328,132 -86,0 -163,-20 -229,-60 -67,-41 -119,-99 -155,-174 -36,-76 -55,-164 -55,-266 0,-157 40,-279 118,-367 79,-87 188,-131 327,-131 135,0 242,45 321,134 80,90 119,211 119,364zm-733 0l0 0c0,123 24,217 73,282 50,64 122,96 218,96 95,0 168,-32 217,-96 50,-64 74,-158 74,-282 0,-122 -24,-215 -74,-279 -49,-63 -123,-95 -219,-95 -96,0 -168,31 -216,94 -49,63 -73,156 -73,280z"/>
    <path class="fil10" d="M8690 37209l0 -623c0,-79 -17,-137 -53,-176 -36,-39 -92,-58 -168,-58 -101,0 -175,27 -222,82 -46,54 -70,144 -70,269l0 506 -146 0 0 -963 119 0 24 131 7 0c30,-47 71,-84 125,-110 54,-26 114,-39 181,-39 116,0 203,28 261,84 59,56 88,145 88,268l0 629 -146 0z"/>
    <path class="fil10" d="M9543 37226c-142,0 -255,-43 -337,-130 -82,-86 -124,-207 -124,-361 0,-155 39,-278 115,-370 77,-91 179,-137 308,-137 121,0 216,40 287,119 70,79 105,184 105,314l0 93 -663 0c2,113 31,198 85,257 54,59 131,88 229,88 104,0 206,-22 308,-65l0 130c-52,22 -101,38 -147,48 -46,10 -101,14 -166,14zm-40 -876l0 0c-77,0 -139,25 -185,76 -46,50 -73,120 -81,209l504 0c0,-92 -21,-163 -62,-211 -41,-49 -99,-74 -176,-74z"/>
    <path class="fil10" d="M11639 37209l-170 0 -703 -1079 -7 0c10,127 14,243 14,348l0 731 -138 0 0 -1285 169 0 701 1074 7 0c-2,-16 -4,-67 -8,-153 -4,-85 -6,-147 -5,-184l0 -737 140 0 0 1285z"/>
    <path class="fil10" d="M12107 36246l0 624c0,79 18,138 54,176 36,39 92,58 168,58 101,0 174,-27 221,-82 47,-55 70,-145 70,-270l0 -506 146 0 0 963 -121 0 -21 -129 -8 0c-30,47 -71,83 -124,109 -53,25 -114,37 -182,37 -117,0 -204,-27 -263,-83 -58,-56 -87,-145 -87,-267l0 -630 147 0z"/>
    <path class="fil10" d="M14303 37209l0 -627c0,-77 -17,-134 -49,-173 -33,-38 -84,-57 -153,-57 -91,0 -158,26 -202,78 -43,52 -65,133 -65,241l0 538 -145 0 0 -627c0,-77 -17,-134 -50,-173 -32,-38 -84,-57 -153,-57 -92,0 -159,27 -201,82 -43,55 -64,145 -64,269l0 506 -146 0 0 -963 119 0 23 131 8 0c27,-46 66,-83 116,-109 50,-27 106,-40 168,-40 151,0 249,54 296,163l7 0c28,-50 70,-90 124,-119 55,-29 117,-44 187,-44 109,0 190,28 244,84 55,56 82,145 82,268l0 629 -146 0z"/>
    <path class="fil10" d="M15198 36230c126,0 224,43 294,129 70,87 105,209 105,367 0,159 -35,281 -105,369 -71,88 -169,131 -294,131 -63,0 -120,-11 -172,-34 -52,-23 -96,-59 -131,-107l-10 0 -31 124 -105 0 0 -1368 146 0 0 333c0,74 -2,141 -7,200l7 0c68,-96 169,-144 303,-144zm-22 122l0 0c-99,0 -171,28 -215,86 -44,57 -66,153 -66,288 0,136 23,232 68,291 45,58 117,87 217,87 90,0 156,-32 200,-98 44,-65 66,-159 66,-281 0,-126 -22,-219 -66,-281 -44,-61 -112,-92 -204,-92z"/>
    <path class="fil10" d="M16259 37226c-142,0 -254,-43 -337,-130 -82,-86 -123,-207 -123,-361 0,-155 38,-278 114,-370 77,-91 180,-137 308,-137 121,0 217,40 287,119 70,79 105,184 105,314l0 93 -663 0c3,113 31,198 86,257 54,59 130,88 229,88 103,0 206,-22 307,-65l0 130c-51,22 -100,38 -146,48 -46,10 -102,14 -167,14zm-39 -876l0 0c-78,0 -139,25 -185,76 -46,50 -73,120 -82,209l504 0c0,-92 -20,-163 -62,-211 -41,-49 -99,-74 -175,-74z"/>
    <path class="fil10" d="M17302 36228c42,0 81,4 115,11l-20 135c-40,-9 -75,-13 -106,-13 -78,0 -145,31 -200,95 -55,63 -83,142 -83,236l0 517 -146 0 0 -963 121 0 16 178 7 0c36,-63 79,-111 129,-145 51,-34 106,-51 167,-51z"/>
   </g>
   <g>
    <g>
     <path class="fil9" d="M55699 39809l-52298 0c-331,0 -600,268 -600,600l0 3999c0,332 269,600 600,600l52298 0c331,0 600,-268 600,-600l0 -3999c0,-332 -269,-600 -600,-600z"/>
    </g>
   </g>
   <g>
    <path class="fil10" d="M5328 41939c-141,0 -253,47 -335,141 -81,94 -122,223 -122,386 0,168 39,298 118,390 79,92 191,137 337,137 90,0 192,-16 307,-48l0 131c-89,33 -199,50 -330,50 -189,0 -335,-57 -438,-172 -103,-115 -154,-278 -154,-490 0,-132 25,-248 74,-348 50,-99 121,-176 215,-230 93,-54 203,-81 330,-81 134,0 252,25 353,74l-63 128c-98,-45 -195,-68 -292,-68z"/>
    <path class="fil10" d="M6484 43109l-29 -138 -7 0c-49,61 -96,102 -144,123 -48,21 -108,32 -179,32 -96,0 -170,-24 -225,-74 -54,-49 -81,-119 -81,-210 0,-194 156,-296 467,-306l163 -5 0 -60c0,-75 -16,-131 -49,-167 -32,-36 -84,-54 -155,-54 -81,0 -172,25 -273,74l-45 -112c48,-26 100,-46 156,-61 57,-14 113,-21 170,-21 115,0 200,25 256,76 55,51 83,133 83,245l0 658 -108 0zm-330 -103l0 0c91,0 162,-25 214,-75 52,-50 78,-119 78,-209l0 -87 -146 6c-116,4 -200,22 -251,54 -51,32 -77,82 -77,149 0,53 16,93 48,120 32,28 77,42 134,42z"/>
    <polygon class="fil10" points="7038,43109 6892,43109 6892,41741 7038,41741 "/>
    <polygon class="fil10" points="7493,43109 7347,43109 7347,41741 7493,41741 "/>
    <path class="fil10" d="M8719 42130c126,0 224,43 294,129 70,87 105,209 105,367 0,158 -35,281 -105,369 -71,87 -169,131 -294,131 -63,0 -120,-11 -172,-35 -52,-23 -96,-58 -131,-106l-10 0 -31 124 -105 0 0 -1368 146 0 0 332c0,75 -2,141 -7,201l7 0c68,-96 169,-144 303,-144zm-22 122l0 0c-99,0 -171,28 -215,85 -44,57 -66,154 -66,289 0,135 23,232 68,291 45,58 117,87 217,87 90,0 156,-33 200,-98 44,-65 66,-159 66,-282 0,-125 -22,-219 -66,-280 -44,-62 -112,-92 -204,-92z"/>
    <path class="fil10" d="M9966 43109l-29 -138 -7 0c-48,61 -96,102 -144,123 -48,21 -107,32 -179,32 -95,0 -170,-24 -224,-74 -55,-49 -82,-119 -82,-210 0,-194 156,-296 467,-306l163 -5 0 -60c0,-75 -16,-131 -48,-167 -33,-36 -85,-54 -156,-54 -81,0 -171,25 -273,74l-45 -112c48,-26 100,-46 156,-61 57,-14 114,-21 170,-21 115,0 200,25 256,76 55,51 83,133 83,245l0 658 -108 0zm-330 -103l0 0c91,0 162,-25 214,-75 52,-50 78,-119 78,-209l0 -87 -146 6c-116,4 -200,22 -251,54 -51,32 -77,82 -77,149 0,53 16,93 48,120 32,28 77,42 134,42z"/>
    <path class="fil10" d="M10759 43126c-139,0 -247,-43 -324,-129 -76,-85 -114,-207 -114,-364 0,-161 39,-286 116,-373 78,-88 188,-132 332,-132 46,0 93,5 139,15 46,10 82,21 109,35l-45 124c-32,-13 -67,-24 -105,-32 -39,-9 -72,-13 -102,-13 -195,0 -293,125 -293,374 0,119 24,210 72,273 47,63 118,95 212,95 80,0 162,-18 247,-52l0 129c-65,33 -146,50 -244,50z"/>
    <path class="fil10" d="M11375 42616c26,-36 64,-83 115,-141l312 -330 173 0 -390 411 417 553 -177 0 -340 -456 -110 95 0 361 -144 0 0 -1368 144 0 0 725c0,32 -2,82 -7,150l7 0z"/>
    <path class="fil10" d="M12955 43006c25,0 50,-2 74,-6 24,-4 43,-8 58,-12l0 112c-16,7 -40,14 -70,19 -31,5 -59,7 -83,7 -187,0 -280,-98 -280,-294l0 -573 -138 0 0 -71 138 -60 62 -206 84 0 0 223 280 0 0 114 -280 0 0 567c0,58 14,102 41,133 28,31 66,47 114,47z"/>
    <path class="fil10" d="M13267 41884c0,-33 8,-58 24,-73 17,-16 37,-23 62,-23 23,0 43,8 60,23 17,16 26,41 26,73 0,33 -9,58 -26,74 -17,16 -37,24 -60,24 -25,0 -45,-8 -62,-24 -16,-16 -24,-41 -24,-74zm158 1225l0 0 -146 0 0 -964 146 0 0 964z"/>
    <path class="fil10" d="M14962 43109l0 -627c0,-77 -16,-134 -49,-173 -33,-38 -84,-57 -153,-57 -91,0 -158,26 -201,78 -44,52 -65,132 -65,241l0 538 -146 0 0 -627c0,-77 -17,-134 -49,-173 -33,-38 -85,-57 -154,-57 -92,0 -159,27 -201,82 -43,55 -64,144 -64,269l0 506 -146 0 0 -964 119 0 24 132 7 0c27,-47 66,-83 116,-110 50,-26 106,-39 168,-39 151,0 249,54 296,163l7 0c28,-50 70,-90 125,-119 54,-30 116,-44 186,-44 109,0 190,28 245,84 54,56 81,145 81,268l0 629 -146 0z"/>
    <path class="fil10" d="M15815 43126c-142,0 -254,-43 -337,-130 -82,-87 -123,-207 -123,-361 0,-155 38,-279 115,-370 76,-92 179,-137 308,-137 120,0 216,39 286,119 70,79 106,184 106,314l0 92 -664 0c3,113 32,199 86,258 54,58 130,88 229,88 103,0 206,-22 307,-65l0 130c-51,22 -100,38 -146,48 -46,9 -102,14 -167,14zm-39 -876l0 0c-77,0 -139,25 -185,76 -46,50 -73,120 -81,209l503 0c0,-92 -20,-163 -61,-212 -41,-49 -100,-73 -176,-73z"/>
   </g>
   <g>
    <g>
     <path class="fil11" d="M39700 46008l-20300 0c-331,0 -600,269 -600,600l0 4000c0,332 269,600 600,600l20300 0c331,0 600,-268 600,-600l0 -4000c0,-331 -269,-600 -600,-600z"/>
    </g>
   </g>
   <g>
    <path class="fil12" d="M26906 48476c-12,-13 -29,-27 -52,-42 -23,-15 -50,-29 -80,-42 -31,-14 -65,-24 -102,-33 -37,-8 -77,-12 -119,-12 -79,0 -139,15 -180,46 -41,32 -61,75 -61,132 0,31 7,56 20,76 13,20 33,37 59,52 27,14 60,27 99,38 40,12 86,24 139,37 62,17 119,34 172,52 52,18 96,41 133,68 36,27 65,60 85,100 21,39 31,89 31,147 0,68 -13,125 -38,171 -25,47 -59,85 -102,115 -42,29 -92,51 -148,64 -56,14 -116,21 -180,21 -97,0 -191,-15 -283,-44 -91,-29 -173,-72 -246,-129l93 -172c16,15 38,33 67,52 29,19 63,37 102,53 39,16 82,30 128,41 47,12 96,17 146,17 77,0 137,-14 179,-42 43,-28 64,-69 64,-123 0,-33 -8,-60 -23,-81 -16,-22 -39,-41 -69,-57 -30,-16 -66,-31 -109,-43 -44,-13 -93,-26 -148,-41 -64,-16 -119,-34 -167,-53 -47,-18 -86,-41 -117,-67 -32,-27 -55,-58 -71,-93 -17,-35 -25,-78 -25,-129 0,-62 12,-118 35,-166 24,-49 56,-90 97,-123 42,-32 91,-57 147,-74 57,-17 117,-25 182,-25 89,0 169,13 242,41 73,28 137,62 192,103l-92 165z"/>
    <path class="fil12" d="M27784 49281c68,0 123,-13 168,-40 44,-26 80,-61 107,-103 27,-43 46,-92 57,-146 12,-55 17,-111 17,-168l0 -648 204 0 0 648c0,87 -10,170 -31,247 -20,77 -52,145 -97,203 -44,59 -102,105 -172,138 -70,34 -154,51 -253,51 -102,0 -188,-18 -258,-54 -70,-35 -127,-82 -170,-142 -43,-59 -74,-127 -94,-204 -19,-77 -28,-157 -28,-239l0 -648 201 0 0 648c0,58 6,115 17,170 12,54 31,103 58,145 27,43 63,77 108,103 45,26 100,39 166,39z"/>
    <path class="fil12" d="M29608 49124c0,52 -11,98 -32,139 -21,41 -49,75 -84,103 -36,28 -78,50 -126,65 -48,15 -99,23 -153,23l-610 0 0 -1278 659 0c44,0 85,9 121,28 36,20 66,45 91,75 26,31 45,66 59,104 14,39 21,79 21,118 0,63 -16,121 -48,176 -32,54 -77,95 -136,121 73,22 131,61 174,118 42,57 64,127 64,208zm-803 -774l0 0 0 376 371 0c25,0 48,-4 69,-14 21,-10 40,-23 56,-39 16,-16 29,-35 38,-58 9,-23 13,-48 13,-76 0,-55 -16,-100 -47,-136 -31,-35 -71,-53 -118,-53l-382 0zm596 736l0 0c0,-26 -5,-51 -14,-75 -9,-24 -21,-45 -36,-63 -15,-18 -33,-33 -55,-43 -21,-11 -45,-17 -70,-17l-421 0 0 391 408 0c27,0 51,-5 74,-15 23,-11 43,-24 60,-42 16,-17 30,-38 39,-61 10,-23 15,-48 15,-75z"/>
    <polygon class="fil12" points="30895,49454 30895,48534 30515,49230 30403,49230 30022,48534 30022,49454 29820,49454 29820,48176 30036,48176 30459,48957 30882,48176 31098,48176 31098,49454 "/>
    <polygon class="fil12" points="31386,49454 31386,48177 31588,48177 31588,49454 "/>
    <polygon class="fil12" points="32813,48354 32389,48354 32389,49454 32187,49454 32187,48354 31760,48354 31760,48176 32813,48176 "/>
   </g>
   <g>
    <polygon class="fil11" points="19985,9406 20458,10260 20933,9406 21226,9406 20592,10500 20592,11110 20321,11110 20321,10495 19690,9406 "/>
    <path class="fil11" d="M21749 11134c-99,0 -189,-18 -268,-53 -79,-35 -147,-82 -203,-142 -56,-59 -99,-128 -129,-207 -31,-79 -46,-162 -46,-249 0,-86 15,-169 46,-248 30,-79 74,-148 131,-208 56,-59 124,-106 204,-141 79,-35 167,-53 265,-53 97,0 186,18 265,53 79,35 147,82 204,141 57,60 100,129 131,208 30,79 45,162 45,248 0,87 -15,170 -45,249 -31,79 -74,148 -131,207 -57,60 -125,107 -204,142 -79,35 -168,53 -265,53zm-375 -648l0 0c0,61 10,117 29,168 19,51 46,96 79,133 34,38 74,67 119,89 46,21 95,32 148,32 53,0 102,-11 147,-32 46,-22 86,-52 119,-90 34,-39 60,-83 79,-135 20,-51 29,-107 29,-168 0,-59 -9,-114 -29,-166 -19,-52 -45,-97 -79,-136 -33,-38 -73,-68 -119,-90 -45,-21 -94,-32 -147,-32 -51,0 -100,11 -145,33 -46,23 -86,53 -119,91 -34,39 -61,84 -81,136 -20,52 -30,108 -30,167z"/>
    <path class="fil11" d="M23009 11134c-130,0 -228,-43 -295,-129 -68,-85 -101,-213 -101,-382l0 -768 264 0 0 715c0,225 79,338 237,338 77,0 149,-23 216,-69 68,-47 120,-114 156,-202l0 -782 264 0 0 943c0,30 6,52 17,65 11,12 31,20 60,21l0 226c-29,5 -53,8 -74,9 -21,2 -40,3 -55,3 -100,-8 -156,-54 -168,-137l-5 -130c-56,92 -129,161 -219,208 -89,47 -188,71 -297,71z"/>
    <path class="fil11" d="M24797 10083c-103,3 -193,27 -272,71 -78,44 -135,106 -170,188l0 768 -264 0 0 -1255 245 0 0 280c45,-86 102,-156 172,-211 69,-54 143,-81 221,-81 16,0 30,0 40,0 10,0 20,1 28,2l0 238z"/>
    <path class="fil11" d="M26575 9807c-16,-18 -39,-37 -70,-57 -30,-20 -66,-38 -106,-56 -41,-18 -86,-32 -136,-43 -50,-11 -102,-17 -158,-17 -106,0 -186,21 -240,62 -55,42 -82,100 -82,176 0,41 9,75 26,102 18,26 44,49 80,68 35,19 79,36 132,51 52,16 114,32 184,50 84,22 160,45 230,69 69,24 128,54 177,90 49,36 87,81 114,133 27,53 41,119 41,197 0,90 -17,166 -50,228 -34,63 -79,113 -136,153 -57,39 -123,68 -198,86 -75,18 -155,28 -240,28 -130,0 -255,-20 -377,-59 -121,-39 -231,-97 -329,-172l125 -230c21,21 51,44 89,69 38,26 84,50 136,71 52,22 109,40 171,55 63,16 127,23 195,23 102,0 182,-19 238,-56 57,-38 86,-93 86,-165 0,-43 -11,-79 -32,-108 -20,-28 -51,-54 -91,-75 -40,-22 -89,-41 -146,-58 -58,-17 -123,-35 -197,-54 -85,-22 -159,-46 -222,-71 -63,-24 -116,-54 -157,-89 -42,-36 -73,-77 -95,-124 -22,-47 -32,-105 -32,-172 0,-83 15,-157 46,-222 32,-65 75,-119 130,-163 55,-44 120,-77 196,-100 75,-22 156,-33 242,-33 118,0 226,18 323,55 97,37 182,83 255,137l-122 221z"/>
    <path class="fil11" d="M26923 10481c0,-88 15,-171 46,-250 30,-78 74,-147 130,-206 57,-59 126,-106 206,-140 80,-35 169,-52 268,-52 130,0 242,29 335,85 94,57 164,133 210,227l-257 82c-30,-53 -71,-94 -122,-124 -51,-29 -108,-44 -170,-44 -53,0 -102,10 -148,31 -46,21 -85,50 -119,87 -33,38 -60,83 -79,134 -19,51 -29,108 -29,170 0,61 10,117 30,169 20,52 47,97 82,136 34,38 74,68 120,90 45,21 94,32 145,32 32,0 64,-4 96,-13 32,-9 61,-21 88,-37 26,-16 49,-34 69,-55 20,-21 35,-44 45,-68l259 77c-42,95 -111,172 -209,232 -98,60 -213,90 -346,90 -97,0 -186,-18 -266,-53 -80,-35 -148,-83 -205,-143 -57,-60 -101,-129 -132,-207 -31,-79 -47,-162 -47,-250z"/>
    <path class="fil11" d="M29469 11110l-264 0 0 -703c0,-116 -21,-201 -62,-256 -42,-55 -101,-83 -178,-83 -35,0 -71,7 -108,22 -37,14 -71,35 -104,61 -33,26 -62,58 -89,94 -26,36 -46,75 -59,118l0 747 -264 0 0 -1752 264 0 0 749c50,-87 116,-154 198,-202 83,-48 173,-72 270,-72 77,0 141,14 192,42 51,28 92,65 123,112 30,46 51,100 63,162 12,61 18,127 18,195l0 766z"/>
    <path class="fil11" d="M30336 11134c-100,0 -189,-18 -268,-53 -79,-35 -147,-82 -203,-142 -56,-59 -99,-128 -129,-207 -31,-79 -46,-162 -46,-249 0,-86 15,-169 46,-248 30,-79 74,-148 130,-208 57,-59 125,-106 204,-141 80,-35 168,-53 266,-53 97,0 186,18 265,53 79,35 147,82 204,141 57,60 100,129 131,208 30,79 45,162 45,248 0,87 -15,170 -45,249 -31,79 -74,148 -131,207 -57,60 -125,107 -204,142 -79,35 -168,53 -265,53zm-375 -648l0 0c0,61 10,117 29,168 19,51 46,96 79,133 34,38 73,67 119,89 46,21 95,32 148,32 52,0 102,-11 147,-32 46,-22 85,-52 119,-90 34,-39 60,-83 79,-135 19,-51 29,-107 29,-168 0,-59 -10,-114 -29,-166 -19,-52 -45,-97 -79,-136 -34,-38 -73,-68 -119,-90 -45,-21 -95,-32 -147,-32 -52,0 -100,11 -146,33 -45,23 -85,53 -118,91 -34,39 -61,84 -81,136 -20,52 -30,108 -30,167z"/>
    <path class="fil11" d="M31778 11134c-99,0 -188,-18 -268,-53 -79,-35 -146,-82 -202,-142 -56,-59 -100,-128 -130,-207 -30,-79 -46,-162 -46,-249 0,-86 16,-169 46,-248 30,-79 74,-148 131,-208 57,-59 125,-106 204,-141 79,-35 167,-53 265,-53 98,0 186,18 265,53 79,35 147,82 204,141 57,60 101,129 131,208 30,79 46,162 46,248 0,87 -16,170 -46,249 -30,79 -74,148 -131,207 -57,60 -125,107 -204,142 -79,35 -167,53 -265,53zm-374 -648l0 0c0,61 9,117 28,168 20,51 46,96 80,133 33,38 73,67 118,89 46,21 95,32 148,32 53,0 102,-11 148,-32 45,-22 85,-52 118,-90 34,-39 60,-83 80,-135 19,-51 28,-107 28,-168 0,-59 -9,-114 -28,-166 -20,-52 -46,-97 -80,-136 -33,-38 -73,-68 -118,-90 -46,-21 -95,-32 -148,-32 -51,0 -100,11 -145,33 -46,23 -85,53 -119,91 -34,39 -60,84 -80,136 -20,52 -30,108 -30,167z"/>
    <path class="fil11" d="M32654 9358l264 0 0 1382c0,47 12,83 36,109 24,27 57,40 101,40 17,0 38,-3 62,-8 24,-6 46,-14 67,-23l39 213c-39,18 -84,32 -137,42 -53,11 -100,16 -142,16 -91,0 -162,-25 -213,-74 -52,-50 -77,-120 -77,-212l0 -1485z"/>
    <polygon class="fil11" points="33933,11110 33933,9406 34202,9406 34202,10872 35116,10872 35116,11110 "/>
    <path class="fil11" d="M35843 11134c-99,0 -188,-18 -267,-53 -79,-35 -147,-82 -203,-142 -56,-59 -99,-128 -130,-207 -30,-79 -45,-162 -45,-249 0,-86 15,-169 45,-248 31,-79 74,-148 131,-208 57,-59 125,-106 204,-141 79,-35 168,-53 265,-53 98,0 186,18 266,53 79,35 147,82 204,141 56,60 100,129 130,208 31,79 46,162 46,248 0,87 -15,170 -46,249 -30,79 -74,148 -130,207 -57,60 -125,107 -204,142 -80,35 -168,53 -266,53zm-374 -648l0 0c0,61 10,117 29,168 19,51 45,96 79,133 34,38 73,67 119,89 45,21 95,32 147,32 53,0 102,-11 148,-32 46,-22 85,-52 119,-90 33,-39 60,-83 79,-135 19,-51 29,-107 29,-168 0,-59 -10,-114 -29,-166 -19,-52 -46,-97 -79,-136 -34,-38 -73,-68 -119,-90 -46,-21 -95,-32 -148,-32 -51,0 -99,11 -145,33 -45,23 -85,53 -119,91 -33,39 -60,84 -80,136 -20,52 -30,108 -30,167z"/>
    <path class="fil11" d="M37216 11122c-85,0 -162,-17 -231,-52 -70,-34 -130,-81 -180,-140 -51,-59 -90,-127 -118,-204 -28,-77 -42,-158 -42,-243 0,-89 14,-174 42,-253 28,-79 68,-148 119,-206 51,-58 112,-105 183,-139 71,-35 150,-52 237,-52 102,0 191,24 266,72 75,48 138,111 187,187l0 -237 233 0 0 1219c0,91 -17,172 -50,242 -34,71 -81,130 -141,179 -60,49 -130,86 -212,112 -82,25 -170,38 -264,38 -139,0 -254,-24 -346,-71 -91,-47 -169,-113 -232,-198l148 -139c48,67 110,118 186,154 76,35 157,52 244,52 54,0 106,-7 155,-21 48,-15 91,-37 128,-67 37,-31 66,-69 88,-116 21,-46 32,-101 32,-165l0 -192c-45,77 -106,136 -185,177 -78,42 -161,63 -247,63zm86 -214l0 0c40,0 79,-7 116,-20 36,-14 71,-32 102,-55 31,-24 58,-50 80,-80 22,-29 38,-61 48,-94l0 -329c-32,-80 -82,-145 -149,-196 -67,-50 -139,-75 -216,-75 -57,0 -109,12 -155,37 -45,25 -84,58 -116,98 -32,41 -57,87 -74,138 -18,52 -27,104 -27,159 0,57 10,111 30,162 20,50 48,94 83,132 35,37 76,67 124,90 47,22 98,33 154,33z"/>
    <path class="fil11" d="M38790 11134c-99,0 -188,-18 -267,-53 -79,-35 -147,-82 -203,-142 -56,-59 -99,-128 -130,-207 -30,-79 -45,-162 -45,-249 0,-86 15,-169 45,-248 31,-79 74,-148 131,-208 57,-59 125,-106 204,-141 79,-35 168,-53 265,-53 98,0 186,18 266,53 79,35 147,82 204,141 56,60 100,129 130,208 31,79 46,162 46,248 0,87 -15,170 -46,249 -30,79 -74,148 -130,207 -57,60 -125,107 -204,142 -80,35 -168,53 -266,53zm-374 -648l0 0c0,61 10,117 29,168 19,51 45,96 79,133 34,38 73,67 119,89 45,21 95,32 147,32 53,0 102,-11 148,-32 46,-22 85,-52 119,-90 33,-39 60,-83 79,-135 19,-51 29,-107 29,-168 0,-59 -10,-114 -29,-166 -19,-52 -46,-97 -79,-136 -34,-38 -73,-68 -119,-90 -46,-21 -95,-32 -148,-32 -51,0 -99,11 -145,33 -45,23 -85,53 -119,91 -33,39 -60,84 -80,136 -20,52 -30,108 -30,167z"/>
   </g>
   <g>
    <polygon class="fil13" points="19312,16808 19312,14820 20647,14820 20647,15158 19698,15158 19698,15671 20487,15671 20487,15984 19698,15984 19698,16808 "/>
    <path class="fil13" d="M21744 15665c-114,2 -216,24 -305,66 -90,42 -154,105 -193,189l0 888 -375 0 0 -1468 344 0 0 314c50,-101 116,-182 197,-244 81,-61 167,-92 256,-92 21,0 36,1 46,1 10,1 20,3 30,5l0 341z"/>
    <path class="fil13" d="M22636 16836c-117,0 -224,-21 -319,-61 -95,-40 -176,-94 -243,-163 -67,-69 -119,-150 -156,-241 -36,-92 -54,-188 -54,-289 0,-104 18,-203 53,-295 36,-92 87,-174 154,-244 67,-70 149,-125 245,-166 96,-41 204,-62 323,-62 119,0 226,21 320,62 95,41 175,96 241,165 66,69 117,149 151,241 35,91 52,186 52,285 0,25 -1,48 -2,70 0,23 -3,41 -6,56l-1134 0c6,58 20,110 42,154 23,45 52,83 87,115 35,32 76,56 120,73 45,17 92,25 140,25 75,0 145,-18 211,-54 67,-37 112,-85 136,-145l322 90c-54,112 -140,204 -259,276 -118,72 -260,108 -424,108zm381 -885l0 0c-10,-110 -50,-198 -122,-265 -72,-66 -159,-99 -262,-99 -50,0 -97,9 -141,26 -44,18 -82,43 -116,75 -34,31 -61,70 -83,114 -21,45 -34,95 -37,149l761 0z"/>
    <path class="fil13" d="M24315 16836c-117,0 -224,-21 -319,-61 -95,-40 -176,-94 -243,-163 -68,-69 -119,-150 -156,-241 -36,-92 -54,-188 -54,-289 0,-104 17,-203 53,-295 35,-92 87,-174 154,-244 67,-70 149,-125 245,-166 96,-41 203,-62 323,-62 119,0 226,21 320,62 94,41 175,96 241,165 66,69 116,149 151,241 34,91 52,186 52,285 0,25 -1,48 -2,70 -1,23 -3,41 -7,56l-1133 0c6,58 20,110 42,154 22,45 51,83 87,115 35,32 75,56 120,73 45,17 92,25 140,25 75,0 145,-18 211,-54 66,-37 112,-85 136,-145l322 90c-54,112 -141,204 -259,276 -119,72 -260,108 -424,108zm381 -885l0 0c-10,-110 -50,-198 -122,-265 -72,-66 -159,-99 -262,-99 -50,0 -97,9 -141,26 -44,18 -83,43 -116,75 -34,31 -61,70 -83,114 -21,45 -34,95 -37,149l761 0z"/>
    <polygon class="fil13" points="27399,16469 27399,16808 26019,16808 26019,14820 27373,14820 27373,15158 26405,15158 26405,15637 27242,15637 27242,15951 26405,15951 26405,16469 "/>
    <polygon class="fil13" points="28031,16808 27491,15340 27877,15340 28249,16502 28624,15340 28977,15340 28437,16808 "/>
    <path class="fil13" d="M29531 16836c-71,0 -137,-12 -199,-35 -62,-24 -115,-56 -160,-98 -44,-42 -79,-91 -104,-147 -26,-56 -38,-118 -38,-185 0,-69 15,-133 46,-192 31,-59 74,-109 129,-150 55,-41 120,-73 197,-96 76,-24 160,-35 252,-35 65,0 129,5 191,16 63,12 118,28 167,48l0 -84c0,-97 -28,-172 -83,-224 -55,-52 -136,-78 -244,-78 -79,0 -155,14 -230,42 -75,28 -151,69 -229,123l-115 -238c188,-125 392,-188 610,-188 211,0 374,52 491,156 117,103 175,253 175,449l0 456c0,40 7,68 22,84 15,17 41,27 79,28l0 320c-36,7 -69,12 -100,15 -31,3 -57,4 -79,4 -71,-2 -125,-18 -163,-49 -37,-31 -60,-72 -70,-124l-8 -82c-65,86 -145,152 -238,196 -93,45 -193,68 -299,68zm106 -275l0 0c63,0 124,-11 180,-33 57,-23 102,-53 133,-90 41,-32 62,-67 62,-106l0 -168c-45,-17 -93,-31 -146,-41 -52,-10 -102,-15 -151,-15 -97,0 -176,22 -238,65 -61,44 -92,100 -92,167 0,64 24,116 73,158 48,42 108,63 179,63z"/>
    <path class="fil13" d="M30742 14764l375 0 0 1556c0,114 51,171 154,171 21,0 44,-4 71,-11 27,-7 53,-16 77,-25l51 299c-51,25 -109,43 -177,56 -67,13 -127,20 -181,20 -118,0 -209,-31 -273,-94 -65,-62 -97,-151 -97,-267l0 -1705z"/>
    <path class="fil13" d="M32080 16836c-151,0 -266,-49 -345,-146 -78,-97 -117,-241 -117,-431l0 -919 375 0 0 838c0,226 81,338 243,338 75,0 146,-22 214,-65 68,-44 124,-111 167,-201l0 -910 375 0 0 1036c0,40 7,68 22,84 15,17 41,27 79,28l0 320c-40,7 -74,12 -104,15 -30,3 -56,4 -78,4 -68,0 -120,-15 -158,-46 -39,-31 -63,-73 -72,-127l-8 -121c-67,101 -152,177 -253,227 -102,50 -215,76 -340,76z"/>
    <path class="fil13" d="M33775 16836c-71,0 -137,-12 -198,-35 -62,-24 -115,-56 -160,-98 -45,-42 -80,-91 -105,-147 -25,-56 -38,-118 -38,-185 0,-69 16,-133 47,-192 30,-59 73,-109 128,-150 55,-41 121,-73 198,-96 76,-24 160,-35 251,-35 66,0 130,5 192,16 62,12 118,28 166,48l0 -84c0,-97 -27,-172 -82,-224 -55,-52 -137,-78 -245,-78 -78,0 -155,14 -229,42 -75,28 -151,69 -230,123l-114 -238c188,-125 391,-188 610,-188 210,0 374,52 491,156 116,103 174,253 174,449l0 456c0,40 8,68 23,84 15,17 41,27 78,28l0 320c-35,7 -68,12 -99,15 -31,3 -58,4 -80,4 -71,-2 -125,-18 -162,-49 -37,-31 -61,-72 -70,-124l-8 -82c-66,86 -145,152 -238,196 -94,45 -193,68 -300,68zm107 -275l0 0c63,0 123,-11 180,-33 57,-23 101,-53 133,-90 41,-32 61,-67 61,-106l0 -168c-44,-17 -93,-31 -145,-41 -52,-10 -103,-15 -151,-15 -97,0 -176,22 -238,65 -61,44 -92,100 -92,167 0,64 24,116 73,158 48,42 108,63 179,63z"/>
    <path class="fil13" d="M35846 16732c-50,22 -113,45 -186,67 -74,23 -151,34 -231,34 -52,0 -101,-7 -147,-20 -46,-13 -86,-34 -120,-63 -35,-29 -62,-66 -83,-112 -20,-46 -31,-101 -31,-166l0 -843 -190 0 0 -289 190 0 0 -476 375 0 0 476 311 0 0 289 -311 0 0 717c0,52 14,89 42,110 28,22 62,32 101,32 39,0 77,-6 115,-19 37,-13 67,-24 89,-34l76 297z"/>
    <path class="fil13" d="M36033 15136l0 -372 375 0 0 372 -375 0zm0 1672l0 0 0 -1468 375 0 0 1468 -375 0z"/>
    <path class="fil13" d="M37421 16836c-119,0 -227,-21 -322,-62 -95,-41 -176,-97 -242,-167 -66,-70 -117,-150 -152,-242 -36,-91 -53,-187 -53,-288 0,-103 17,-200 53,-291 35,-92 86,-173 152,-243 66,-70 147,-125 242,-166 95,-41 203,-62 322,-62 119,0 226,21 321,62 94,41 174,96 240,166 66,70 117,151 153,243 35,91 53,188 53,291 0,101 -18,197 -53,288 -36,92 -86,172 -151,242 -66,70 -146,126 -241,167 -95,41 -203,62 -322,62zm-383 -759l0 0c0,65 10,124 29,178 20,53 47,99 81,138 35,39 75,70 122,91 47,22 97,32 151,32 54,0 105,-10 151,-32 47,-21 87,-52 122,-91 34,-39 61,-86 81,-140 20,-54 29,-114 29,-179 0,-63 -9,-122 -29,-176 -20,-54 -47,-101 -81,-140 -35,-40 -75,-70 -122,-91 -46,-22 -97,-33 -151,-33 -54,0 -104,12 -151,34 -47,22 -87,53 -122,92 -34,40 -61,86 -81,140 -19,55 -29,113 -29,177z"/>
    <path class="fil13" d="M39797 16808l-375 0 0 -824c0,-117 -21,-203 -62,-257 -41,-54 -98,-81 -171,-81 -37,0 -75,7 -114,22 -39,15 -76,36 -111,63 -34,27 -66,59 -94,97 -27,37 -48,78 -61,123l0 857 -375 0 0 -1468 339 0 0 272c54,-93 132,-166 235,-218 102,-53 218,-79 347,-79 91,0 166,17 223,51 58,33 103,77 135,131 31,54 53,116 66,185 12,69 18,139 18,210l0 916z"/>
   </g>
   <path class="fil13" d="M18194 8205l22807 0 0 4108 -22913 0 0 -4108 106 0zm22594 213l-22488 0 0 3682 22488 0 0 -3682z"/>
   <path class="fil14" d="M20301 18572c-102,-115 -248,-172 -435,-172 -155,0 -268,30 -339,88 -71,59 -106,139 -106,238 0,51 9,93 27,128 18,34 46,63 84,86 38,23 86,43 145,60 59,17 128,34 209,50 86,18 164,38 232,60 69,21 127,48 176,81 48,33 85,73 111,121 26,47 39,106 39,176 0,70 -13,131 -41,184 -27,52 -66,95 -116,130 -50,35 -110,62 -179,80 -69,18 -146,26 -231,26 -247,0 -457,-78 -628,-236l60 -92c67,70 149,125 246,166 97,41 206,62 326,62 139,0 247,-25 325,-76 79,-51 118,-127 118,-230 0,-52 -10,-97 -30,-133 -20,-37 -51,-68 -93,-95 -42,-27 -94,-50 -155,-69 -62,-20 -135,-38 -218,-56 -85,-18 -160,-37 -225,-57 -65,-20 -119,-46 -164,-76 -45,-31 -78,-68 -101,-111 -22,-43 -33,-97 -33,-163 0,-71 14,-135 41,-190 28,-55 66,-102 115,-140 49,-38 108,-66 177,-86 68,-19 144,-29 228,-29 102,0 194,16 275,46 80,31 153,77 219,140l-59 89zm901 1267c-6,3 -16,9 -30,17 -14,8 -32,16 -54,23 -21,8 -46,15 -72,21 -27,5 -56,8 -88,8 -31,0 -60,-4 -88,-13 -27,-9 -52,-22 -73,-40 -20,-18 -37,-40 -50,-65 -12,-25 -19,-55 -19,-89l0 -876 -163 0 0 -92 163 0 0 -398 112 0 0 398 273 0 0 92 -273 0 0 849c0,43 15,75 45,97 29,22 64,32 102,32 47,0 86,-7 120,-23 34,-16 54,-26 61,-30l34 89zm547 78c-248,0 -373,-171 -373,-514l0 -670 112 0 0 655c0,286 98,429 293,429 49,0 97,-9 144,-26 47,-17 90,-41 131,-71 40,-31 75,-68 106,-111 30,-43 54,-91 72,-143l0 -733 112 0 0 1006c0,37 16,55 47,55l0 101c-9,2 -16,2 -22,2 -6,0 -12,0 -18,0 -32,0 -57,-9 -77,-28 -20,-18 -31,-43 -31,-72l0 -177c-52,94 -122,167 -210,219 -87,52 -183,78 -286,78zm1433 0c-81,0 -155,-16 -224,-50 -68,-33 -127,-78 -177,-134 -50,-56 -89,-120 -117,-192 -27,-72 -41,-147 -41,-225 0,-80 14,-157 40,-230 27,-73 64,-137 112,-192 48,-55 104,-99 169,-132 65,-33 136,-49 213,-49 51,0 99,7 144,22 46,15 87,35 125,60 38,24 73,53 104,86 32,32 58,67 81,105l0 -722 112 0 0 1475c0,37 15,55 46,55l0 101c-7,2 -14,2 -20,2 -6,0 -12,0 -18,0 -32,0 -59,-10 -79,-31 -20,-21 -30,-44 -30,-69l0 -134c-48,77 -111,139 -191,185 -80,46 -163,69 -249,69zm20 -100c40,0 83,-8 129,-25 47,-16 90,-39 130,-68 40,-29 74,-62 102,-99 27,-38 43,-78 48,-121l0 -382c-17,-42 -40,-82 -71,-120 -30,-38 -65,-70 -103,-98 -39,-28 -81,-50 -126,-66 -44,-16 -88,-24 -129,-24 -67,0 -128,14 -182,43 -55,29 -102,67 -141,114 -40,47 -70,101 -91,161 -20,60 -31,122 -31,187 0,67 12,130 36,189 24,60 57,113 99,159 43,46 92,83 148,110 56,26 116,40 182,40zm1372 100c-82,0 -158,-16 -228,-48 -70,-32 -131,-76 -182,-132 -52,-55 -92,-120 -121,-193 -29,-73 -43,-151 -43,-234 0,-82 14,-159 43,-232 29,-72 69,-135 120,-190 50,-54 111,-97 181,-128 70,-31 145,-47 225,-47 82,0 158,16 227,48 70,32 129,75 180,130 51,54 91,117 120,190 29,72 43,148 43,229 0,7 0,16 -1,28 -1,11 -1,18 -1,21l-1021 0c4,67 20,129 47,186 27,58 60,107 101,149 41,42 89,74 142,98 54,24 111,36 172,36 41,0 80,-6 120,-17 39,-11 76,-26 109,-46 34,-19 64,-42 90,-70 26,-28 46,-58 61,-90l99 26c-18,42 -43,80 -75,115 -32,35 -70,66 -112,91 -42,25 -89,45 -140,59 -50,14 -102,21 -156,21zm456 -648c-5,-68 -20,-131 -46,-187 -26,-57 -60,-106 -101,-147 -41,-41 -88,-73 -142,-96 -53,-23 -111,-34 -172,-34 -61,0 -118,11 -172,34 -53,23 -101,55 -142,96 -41,41 -73,90 -98,148 -24,57 -39,119 -43,186l916 0zm1302 626l-111 0 0 -648c0,-150 -21,-260 -64,-328 -42,-69 -111,-103 -204,-103 -50,0 -98,9 -147,27 -48,17 -93,43 -134,76 -41,32 -77,71 -108,115 -31,44 -55,91 -69,142l0 719 -112 0 0 -1162 103 0 0 277c23,-45 53,-85 89,-122 36,-36 75,-67 118,-93 44,-27 90,-47 140,-61 50,-14 101,-21 153,-21 127,0 216,44 268,133 52,89 78,216 78,381l0 668zm845 -56c-6,3 -16,9 -30,17 -14,8 -32,16 -54,23 -21,8 -45,15 -72,21 -27,5 -56,8 -87,8 -32,0 -61,-4 -89,-13 -27,-9 -51,-22 -72,-40 -21,-18 -38,-40 -51,-65 -12,-25 -19,-55 -19,-89l0 -876 -163 0 0 -92 163 0 0 -398 112 0 0 398 273 0 0 92 -273 0 0 849c0,43 15,75 45,97 30,22 64,32 103,32 46,0 86,-7 119,-23 34,-16 54,-26 62,-30l33 89zm809 56l0 -1586 661 0c67,0 129,14 186,42 57,28 105,66 145,113 40,47 72,100 95,158 23,59 35,119 35,178 0,58 -9,114 -27,169 -18,54 -43,103 -76,146 -33,43 -72,79 -118,107 -47,29 -97,47 -152,56l395 617 -132 0 -384 -599 -514 0 0 599 -114 0zm114 -704l556 0c51,0 97,-11 139,-33 42,-23 77,-52 107,-89 30,-36 53,-78 68,-125 16,-47 24,-95 24,-144 0,-51 -9,-99 -28,-146 -19,-47 -44,-89 -76,-124 -32,-36 -69,-65 -112,-86 -42,-22 -88,-33 -137,-33l-541 0 0 780zm1810 726c-82,0 -158,-16 -228,-48 -70,-32 -131,-76 -182,-132 -51,-55 -92,-120 -121,-193 -29,-73 -43,-151 -43,-234 0,-82 14,-159 43,-232 29,-72 69,-135 120,-190 50,-54 111,-97 181,-128 70,-31 145,-47 225,-47 82,0 158,16 227,48 70,32 130,75 180,130 51,54 91,117 120,190 29,72 43,148 43,229 0,7 0,16 -1,28 -1,11 -1,18 -1,21l-1021 0c4,67 20,129 47,186 27,58 60,107 101,149 41,42 89,74 142,98 54,24 111,36 172,36 41,0 81,-6 120,-17 39,-11 76,-26 109,-46 34,-19 64,-42 90,-70 26,-28 46,-58 61,-90l99 26c-18,42 -43,80 -75,115 -32,35 -70,66 -112,91 -42,25 -89,45 -140,59 -50,14 -102,21 -156,21zm456 -648c-5,-68 -20,-131 -46,-187 -26,-57 -60,-106 -101,-147 -41,-41 -88,-73 -141,-96 -54,-23 -111,-34 -173,-34 -61,0 -118,11 -172,34 -53,23 -100,55 -141,96 -41,41 -74,90 -99,148 -24,57 -39,119 -43,186l916 0zm827 644c-81,0 -155,-17 -222,-50 -67,-34 -125,-79 -174,-134 -49,-56 -87,-120 -114,-191 -27,-72 -40,-146 -40,-222 0,-79 13,-155 39,-228 26,-73 63,-137 111,-193 47,-56 104,-100 171,-133 66,-33 138,-49 217,-49 102,0 190,26 265,79 75,53 140,118 193,194l0 -253 101 0 0 1184c0,79 -15,149 -45,208 -29,60 -69,109 -119,149 -50,39 -108,69 -174,89 -67,20 -136,30 -209,30 -67,0 -128,-6 -181,-19 -54,-12 -101,-30 -142,-53 -41,-23 -78,-52 -110,-85 -32,-34 -60,-71 -84,-111l76 -51c47,79 109,136 188,173 79,36 163,55 253,55 59,0 115,-8 168,-25 53,-16 99,-40 139,-72 39,-33 71,-72 94,-120 23,-48 34,-104 34,-168l0 -254c-47,74 -111,134 -190,181 -79,46 -161,69 -245,69zm26 -96c50,0 97,-9 143,-28 47,-19 89,-43 127,-73 38,-30 69,-63 95,-100 25,-38 40,-75 44,-112l0 -382c-18,-45 -41,-86 -71,-124 -30,-38 -64,-71 -102,-97 -38,-27 -79,-48 -123,-64 -44,-16 -88,-23 -133,-23 -70,0 -132,14 -187,44 -56,30 -102,69 -140,116 -38,48 -67,102 -87,162 -20,61 -30,121 -30,183 0,67 12,130 35,189 24,60 57,113 100,159 42,46 91,83 147,110 56,26 117,40 182,40zm865 78l0 -1162 112 0 0 1162 -112 0zm0 -1426l0 -205 112 0 0 205 -112 0zm827 1448c-89,0 -175,-15 -257,-44 -82,-30 -153,-75 -215,-134l56 -76c63,56 128,98 195,125 67,27 140,40 221,40 101,0 183,-21 245,-64 61,-42 92,-101 92,-177 0,-36 -7,-66 -23,-91 -16,-24 -39,-45 -70,-62 -32,-18 -71,-33 -117,-46 -46,-14 -99,-28 -161,-43 -65,-15 -122,-29 -171,-44 -48,-15 -88,-33 -119,-54 -31,-21 -55,-46 -70,-76 -16,-30 -24,-68 -24,-114 0,-58 11,-109 34,-152 22,-43 53,-79 92,-107 40,-28 85,-50 137,-64 51,-14 106,-21 164,-21 91,0 171,15 241,46 70,30 125,69 163,117l-62 60c-39,-44 -89,-78 -151,-100 -62,-22 -128,-34 -198,-34 -43,0 -84,5 -122,14 -38,9 -71,23 -99,42 -28,20 -51,45 -67,75 -16,31 -25,67 -25,108 0,35 6,62 17,83 11,21 29,39 54,54 24,15 56,28 95,39 38,11 85,23 138,37 73,18 138,35 195,51 56,16 104,37 142,60 38,24 67,53 87,85 20,33 30,75 30,125 0,105 -41,188 -122,250 -81,61 -189,92 -325,92zm1224 -78c-5,3 -16,9 -30,17 -14,8 -32,16 -53,23 -22,8 -46,15 -73,21 -27,5 -56,8 -87,8 -31,0 -61,-4 -88,-13 -28,-9 -52,-22 -73,-40 -21,-18 -38,-40 -50,-65 -13,-25 -19,-55 -19,-89l0 -876 -163 0 0 -92 163 0 0 -398 111 0 0 398 273 0 0 92 -273 0 0 849c0,43 15,75 45,97 30,22 64,32 103,32 46,0 86,-7 120,-23 33,-16 54,-26 61,-30l33 89zm738 -1005c-106,3 -198,34 -275,92 -77,59 -132,140 -163,243l0 726 -112 0 0 -1162 105 0 0 286c40,-82 94,-149 160,-200 66,-51 137,-81 213,-88 15,0 29,-1 41,-1 12,-1 22,-1 31,-1l0 105zm478 1083c-54,0 -104,-9 -151,-28 -47,-18 -88,-43 -123,-76 -35,-32 -62,-70 -81,-113 -20,-44 -29,-92 -29,-142 0,-51 12,-97 36,-139 23,-42 57,-78 100,-108 43,-31 94,-55 153,-72 59,-17 124,-25 196,-25 62,0 126,5 190,16 64,11 121,27 172,46l0 -114c0,-110 -32,-198 -94,-262 -63,-65 -148,-98 -255,-98 -58,0 -119,12 -182,36 -63,24 -127,58 -191,103l-45 -76c151,-101 292,-152 425,-152 140,0 250,41 332,122 81,81 121,193 121,336l0 568c0,37 16,55 47,55l0 101c-7,2 -14,2 -21,2 -7,0 -13,0 -19,0 -27,0 -51,-9 -74,-28 -22,-18 -33,-43 -33,-72l0 -96c-54,70 -122,123 -205,161 -82,37 -172,55 -269,55zm22 -89c87,0 167,-16 240,-48 73,-32 127,-76 163,-131 25,-30 38,-59 38,-89l0 -206c-114,-41 -230,-62 -349,-62 -116,0 -210,24 -282,71 -71,48 -107,110 -107,188 0,39 8,75 23,109 14,35 35,64 62,89 27,24 59,44 95,58 37,14 76,21 117,21zm1401 11c-5,3 -16,9 -30,17 -14,8 -32,16 -53,23 -22,8 -46,15 -73,21 -27,5 -56,8 -87,8 -31,0 -61,-4 -88,-13 -28,-9 -52,-22 -73,-40 -21,-18 -38,-40 -50,-65 -13,-25 -19,-55 -19,-89l0 -876 -163 0 0 -92 163 0 0 -398 111 0 0 398 273 0 0 92 -273 0 0 849c0,43 15,75 45,97 30,22 64,32 103,32 46,0 86,-7 120,-23 33,-16 54,-26 61,-30l33 89zm188 56l0 -1162 112 0 0 1162 -112 0zm0 -1426l0 -205 112 0 0 205 -112 0zm945 1448c-82,0 -157,-16 -226,-48 -70,-32 -130,-75 -180,-130 -51,-56 -90,-120 -119,-193 -28,-73 -42,-149 -42,-230 0,-82 14,-159 43,-232 29,-73 70,-137 121,-192 51,-55 111,-99 180,-131 68,-32 143,-48 223,-48 81,0 156,16 225,48 69,32 130,76 181,131 51,55 92,119 121,192 29,73 43,150 43,232 0,81 -14,157 -43,230 -29,73 -69,137 -120,193 -51,55 -111,98 -181,130 -70,32 -145,48 -226,48zm-453 -596c0,68 12,133 36,193 23,60 56,113 97,158 41,44 89,80 144,106 55,26 114,39 176,39 63,0 122,-13 177,-39 55,-26 103,-62 144,-109 41,-46 74,-99 98,-159 25,-61 37,-126 37,-196 0,-68 -12,-133 -37,-193 -24,-61 -57,-113 -98,-159 -41,-45 -89,-81 -144,-108 -55,-27 -114,-40 -177,-40 -61,0 -119,13 -174,40 -55,27 -103,63 -145,109 -42,46 -75,100 -98,162 -24,62 -36,127 -36,196zm2237 574l-112 0 0 -648c0,-150 -21,-260 -64,-328 -42,-69 -110,-103 -204,-103 -49,0 -98,9 -147,27 -48,17 -93,43 -134,76 -41,32 -77,71 -108,115 -31,44 -54,91 -69,142l0 719 -112 0 0 -1162 103 0 0 277c24,-45 53,-85 89,-122 36,-36 75,-67 119,-93 43,-27 89,-47 139,-61 50,-14 101,-21 153,-21 127,0 216,44 268,133 53,89 79,216 79,381l0 668z"/>
  </g>
 </g>
</svg>
