<?xml version="1.0" encoding="UTF-8"?>
<!DOCTYPE svg PUBLIC "-//W3C//DTD SVG 1.1//EN" "http://www.w3.org/Graphics/SVG/1.1/DTD/svg11.dtd">
<!-- Creator: CorelDRAW 2017 -->
<svg xmlns="http://www.w3.org/2000/svg" xml:space="preserve" width="738px" height="278px" version="1.1" style="shape-rendering:geometricPrecision; text-rendering:geometricPrecision; image-rendering:optimizeQuality; fill-rule:evenodd; clip-rule:evenodd"
viewBox="0 0 73800 27792"
 xmlns:xlink="http://www.w3.org/1999/xlink">
 <defs>
  <style type="text/css">
   <![CDATA[
    .str0 {stroke:#2B2A29;stroke-width:57;stroke-miterlimit:22.9256}
    .fil19 {fill:#14B4C0}
    .fil15 {fill:#15333D}
    .fil13 {fill:#36576E}
    .fil14 {fill:#505050}
    .fil4 {fill:#565656}
    .fil5 {fill:#626062}
    .fil11 {fill:#693F21}
    .fil6 {fill:#754928}
    .fil17 {fill:#7D4721}
    .fil9 {fill:#B8A190}
    .fil16 {fill:#CAA075}
    .fil8 {fill:#D18E66}
    .fil10 {fill:#E4B683}
    .fil7 {fill:#E8A170}
    .fil18 {fill:#E9EAEC}
    .fil12 {fill:#F4C18A}
    .fil21 {fill:#F4F4F6}
    .fil20 {fill:#FFFEFF}
    .fil3 {fill:white}
    .fil1 {fill:#1D3A6E;fill-rule:nonzero}
    .fil2 {fill:#F6911D;fill-rule:nonzero}
    .fil0 {fill:red;fill-rule:nonzero}
    .fil23 {fill:white;fill-rule:nonzero}
    .fil22 {fill:url(#id0)}
    .fil24 {fill:url(#id1)}
   ]]>
  </style>
  <linearGradient id="id0" gradientUnits="userSpaceOnUse" x1="0" y1="12275" x2="19520" y2="12275">
   <stop offset="0" style="stop-opacity:1; stop-color:#1F3A6F"/>
   <stop offset="1" style="stop-opacity:1; stop-color:#0E254F"/>
  </linearGradient>
  <linearGradient id="id1" gradientUnits="userSpaceOnUse" x1="54280" y1="12286" x2="73800" y2="12286">
   <stop offset="0" style="stop-opacity:1; stop-color:#F7921E"/>
   <stop offset="1" style="stop-opacity:1; stop-color:#CE7A1A"/>
  </linearGradient>
 </defs>
 <g id="Layer_x0020_1">
  <metadata id="CorelCorpID_0Corel-Layer"/>
  <g id="_1432956959696">
   <g>
    <polygon class="fil0" points="19816,23825 19365,23825 19365,25001 19089,25001 19089,23825 18636,23825 18636,23583 19816,23583 "/>
    <path class="fil0" d="M20452 25021c-84,0 -159,-14 -227,-43 -68,-28 -126,-67 -174,-116 -48,-50 -85,-107 -111,-172 -25,-65 -38,-134 -38,-206 0,-74 12,-145 37,-211 26,-66 62,-123 110,-173 48,-50 106,-90 175,-119 68,-29 145,-44 230,-44 85,0 162,15 229,44 67,29 124,68 171,118 48,49 84,106 108,171 25,66 37,134 37,204 0,17 0,34 -1,50 -1,16 -2,29 -5,40l-808 0c4,41 14,78 30,110 16,32 36,59 62,82 25,22 54,40 85,52 32,12 66,18 100,18 53,0 104,-13 151,-39 47,-26 79,-60 97,-103l229 64c-38,80 -100,145 -184,196 -85,52 -186,77 -303,77zm272 -631l0 0c-7,-78 -36,-141 -87,-188 -51,-48 -114,-71 -187,-71 -36,0 -69,6 -101,19 -31,12 -58,30 -82,53 -24,22 -44,49 -59,81 -15,32 -24,68 -27,106l543 0z"/>
    <path class="fil0" d="M21450 25021c-51,0 -98,-8 -142,-25 -44,-16 -82,-40 -113,-69 -32,-30 -57,-65 -75,-105 -18,-40 -27,-84 -27,-132 0,-49 11,-95 33,-137 22,-42 52,-78 92,-107 39,-29 86,-52 140,-69 55,-16 115,-25 180,-25 46,0 92,4 136,12 45,8 85,20 119,34l0 -60c0,-69 -19,-122 -59,-159 -39,-38 -97,-56 -174,-56 -56,0 -111,10 -164,30 -53,20 -108,49 -164,87l-81 -169c134,-89 279,-134 435,-134 150,0 267,37 350,111 83,74 125,180 125,320l0 326c0,28 5,48 16,60 10,12 29,18 55,20l0 227c-25,6 -48,9 -70,11 -22,2 -41,3 -57,3 -51,-1 -89,-13 -116,-35 -27,-22 -43,-51 -50,-88l-6 -58c-46,61 -103,108 -170,139 -66,32 -137,48 -213,48zm76 -195l0 0c45,0 88,-8 128,-24 41,-16 73,-38 95,-64 30,-23 44,-48 44,-76l0 -120c-32,-12 -66,-22 -104,-29 -37,-7 -73,-11 -107,-11 -69,0 -126,16 -170,47 -44,31 -66,71 -66,119 0,45 17,83 52,113 35,30 77,45 128,45z"/>
    <path class="fil0" d="M22252 24478c0,-73 13,-142 38,-208 25,-65 62,-122 110,-171 48,-50 106,-89 173,-118 68,-29 145,-44 230,-44 114,0 212,25 292,74 81,49 141,114 181,193l-262 80c-22,-38 -52,-68 -89,-89 -38,-20 -79,-30 -124,-30 -39,0 -75,7 -108,23 -33,15 -62,36 -87,63 -24,28 -44,61 -58,99 -13,39 -20,81 -20,128 0,47 7,89 21,128 15,39 35,72 59,100 25,28 54,49 87,65 33,15 69,23 106,23 48,0 92,-12 133,-36 40,-24 68,-53 84,-88l262 80c-36,80 -95,145 -178,196 -82,50 -181,75 -297,75 -85,0 -162,-14 -230,-44 -67,-29 -125,-68 -173,-118 -48,-50 -85,-108 -111,-174 -26,-66 -39,-135 -39,-207z"/>
    <path class="fil0" d="M24413 25001l-267 0 0 -587c0,-82 -15,-143 -46,-183 -31,-39 -74,-58 -130,-58 -24,0 -49,5 -76,16 -26,10 -51,25 -75,44 -24,20 -46,43 -66,69 -20,27 -35,56 -44,88l0 611 -268 0 0 -1458 268 0 0 606c38,-68 91,-121 157,-157 65,-37 138,-55 218,-55 68,0 123,12 166,35 42,23 75,54 99,93 24,38 41,82 50,132 10,49 14,99 14,151l0 653z"/>
    <path class="fil0" d="M25130 25021c-84,0 -160,-14 -228,-43 -68,-28 -126,-67 -174,-116 -47,-50 -84,-107 -110,-172 -26,-65 -39,-134 -39,-206 0,-74 12,-145 38,-211 25,-66 62,-123 109,-173 48,-50 107,-90 175,-119 69,-29 145,-44 231,-44 85,0 161,15 228,44 67,29 124,68 172,118 47,49 83,106 107,171 25,66 37,134 37,204 0,17 0,34 -1,50 0,16 -2,29 -5,40l-808 0c4,41 14,78 30,110 16,32 37,59 62,82 25,22 54,40 86,52 32,12 65,18 100,18 53,0 103,-13 150,-39 47,-26 80,-60 97,-103l229 64c-38,80 -100,145 -184,196 -85,52 -185,77 -302,77zm271 -631l0 0c-7,-78 -36,-141 -87,-188 -51,-48 -113,-71 -186,-71 -36,0 -70,6 -101,19 -31,12 -59,30 -83,53 -24,22 -44,49 -59,81 -15,32 -24,68 -27,106l543 0z"/>
    <path class="fil0" d="M26463 24187c-82,1 -154,16 -218,46 -64,30 -110,75 -138,135l0 633 -267 0 0 -1046 245 0 0 224c36,-72 83,-130 141,-174 58,-44 119,-66 183,-66 14,0 25,0 33,1 7,1 14,2 21,3l0 244z"/>
    <polygon class="fil1" points="27077,25001 27077,23583 28029,23583 28029,23825 27353,23825 27353,24191 27915,24191 27915,24414 27353,24414 27353,25001 "/>
    <path class="fil1" d="M28811 24187c-81,1 -153,16 -217,46 -64,30 -110,75 -138,135l0 633 -267 0 0 -1046 245 0 0 224c36,-72 83,-130 141,-174 58,-44 119,-66 182,-66 15,0 26,0 33,1 8,1 15,2 21,3l0 244z"/>
    <path class="fil1" d="M29418 25021c-85,0 -162,-14 -230,-44 -67,-29 -125,-68 -172,-118 -47,-50 -84,-108 -109,-173 -25,-65 -38,-134 -38,-206 0,-73 13,-142 38,-208 25,-65 62,-122 109,-172 47,-50 105,-90 172,-119 68,-29 145,-44 230,-44 85,0 161,15 228,44 68,29 125,69 172,119 47,50 83,107 109,172 25,66 38,135 38,208 0,72 -13,141 -38,206 -26,65 -62,123 -108,173 -47,50 -104,89 -172,118 -67,30 -144,44 -229,44zm-274 -541l0 0c0,47 7,89 21,127 14,38 34,71 58,99 25,28 54,49 87,65 33,15 69,23 108,23 38,0 74,-8 108,-23 33,-16 62,-37 86,-65 25,-28 44,-61 58,-100 14,-39 21,-81 21,-128 0,-45 -7,-87 -21,-126 -14,-38 -33,-72 -58,-100 -24,-28 -53,-49 -86,-64 -34,-16 -70,-23 -108,-23 -39,0 -75,8 -108,24 -33,15 -62,38 -87,65 -24,28 -44,62 -58,100 -14,39 -21,81 -21,126z"/>
    <path class="fil1" d="M31765 25001l-268 0 0 -587c0,-84 -15,-145 -44,-183 -29,-39 -69,-58 -119,-58 -52,0 -102,20 -148,60 -47,41 -80,94 -100,159l0 609 -267 0 0 -587c0,-84 -15,-145 -43,-183 -29,-39 -68,-58 -119,-58 -52,0 -101,20 -149,59 -47,40 -80,93 -100,158l0 611 -268 0 0 -1046 242 0 0 194c38,-68 91,-121 158,-157 67,-37 144,-55 231,-55 88,0 155,21 202,64 48,42 79,95 93,158 43,-72 97,-127 162,-165 65,-38 139,-57 223,-57 64,0 117,12 158,36 41,24 73,55 96,94 22,38 38,82 47,132 8,49 13,99 13,149l0 653z"/>
    <polygon class="fil1" points="19747,27505 20547,26536 19769,26536 19769,26294 20864,26294 20864,26502 20090,27471 20870,27471 20870,27712 19747,27712 "/>
    <path class="fil1" d="M20938 27712l559 -1418 223 0 557 1418 -291 0 -130 -353 -497 0 -130 353 -291 0zm671 -1120l0 0 -204 573 401 0 -197 -573z"/>
    <polygon class="fil1" points="23584,27712 23584,26774 23219,27473 23069,27473 22704,26774 22704,27712 22429,27712 22429,26294 22724,26294 23143,27101 23566,26294 23860,26294 23860,27712 "/>
    <polygon class="fil1" points="25139,27471 25139,27712 24155,27712 24155,26294 25121,26294 25121,26536 24430,26536 24430,26878 25027,26878 25027,27101 24430,27101 24430,27471 "/>
    <polygon class="fil1" points="25635,26804 25635,27712 25360,27712 25360,26294 25574,26294 26312,27225 26312,26296 26587,26296 26587,27712 26364,27712 "/>
    <polygon class="fil1" points="28074,26294 28074,27712 27800,27712 27800,27107 27158,27107 27158,27712 26883,27712 26883,26294 27158,26294 27158,26868 27800,26868 27800,26294 "/>
    <path class="fil1" d="M28958 27722c-100,0 -191,-20 -274,-60 -82,-41 -153,-95 -212,-162 -59,-67 -105,-144 -137,-231 -32,-87 -48,-175 -48,-266 0,-94 17,-185 51,-271 34,-87 81,-163 142,-230 60,-66 132,-119 214,-159 83,-39 173,-59 270,-59 100,0 191,21 273,63 83,42 153,97 212,165 58,68 103,145 135,232 32,86 48,174 48,263 0,95 -17,185 -51,271 -33,86 -80,162 -140,228 -60,66 -131,118 -214,157 -82,40 -172,59 -269,59zm-393 -719l0 0c0,62 9,121 27,178 18,57 44,108 77,152 34,44 76,79 125,106 49,27 105,40 168,40 64,0 120,-14 168,-41 49,-28 90,-64 123,-109 33,-45 59,-96 76,-153 17,-56 26,-114 26,-173 0,-61 -9,-120 -28,-177 -19,-58 -45,-108 -79,-152 -34,-44 -75,-79 -124,-105 -48,-26 -103,-39 -164,-39 -64,0 -120,14 -169,41 -48,27 -90,63 -124,108 -33,44 -59,95 -76,152 -18,56 -26,114 -26,172z"/>
    <polygon class="fil1" points="29846,27712 29846,26294 30798,26294 30798,26536 30121,26536 30121,26902 30684,26902 30684,27125 30121,27125 30121,27712 "/>
   </g>
   <g>
    <path class="fil1" d="M43313 23955c-9,-9 -26,-22 -51,-38 -25,-16 -54,-32 -90,-47 -35,-15 -73,-28 -114,-39 -42,-11 -84,-16 -126,-16 -76,0 -132,14 -170,42 -37,28 -56,67 -56,118 0,29 7,53 21,73 14,19 35,36 61,51 27,14 60,28 101,40 41,12 87,24 141,38 69,18 132,38 188,59 57,22 105,48 144,80 39,32 69,71 91,115 21,45 32,100 32,165 0,76 -15,141 -43,195 -29,54 -67,97 -115,131 -48,33 -104,57 -168,72 -63,16 -130,23 -199,23 -107,0 -212,-16 -315,-48 -104,-31 -197,-77 -280,-135l122 -238c12,12 33,28 65,47 31,19 68,39 110,58 43,19 90,35 142,49 52,13 105,20 160,20 151,0 227,-49 227,-146 0,-32 -8,-59 -26,-80 -17,-21 -42,-40 -73,-56 -32,-16 -71,-30 -116,-44 -45,-13 -96,-27 -152,-42 -68,-18 -127,-39 -176,-61 -50,-22 -92,-47 -125,-77 -33,-29 -58,-63 -75,-103 -17,-40 -25,-88 -25,-142 0,-72 13,-136 40,-192 27,-56 63,-102 111,-140 47,-37 102,-65 164,-85 63,-19 130,-29 202,-29 100,0 191,16 275,47 84,32 157,69 220,111l-122 224z"/>
    <path class="fil1" d="M44267 24947c-36,16 -80,32 -133,48 -52,16 -107,24 -164,24 -38,0 -73,-4 -105,-14 -33,-9 -61,-24 -86,-45 -25,-20 -44,-47 -59,-79 -15,-33 -22,-73 -22,-119l0 -601 -136 0 0 -206 136 0 0 -340 268 0 0 340 221 0 0 206 -221 0 0 511c0,37 10,63 29,79 20,15 44,23 72,23 28,0 55,-5 82,-14 27,-10 48,-18 64,-24l54 211z"/>
    <path class="fil1" d="M44720 25021c-108,0 -190,-34 -246,-103 -55,-70 -83,-172 -83,-308l0 -655 267 0 0 597c0,161 58,242 174,242 53,0 104,-16 152,-47 49,-32 88,-79 119,-143l0 -649 267 0 0 739c0,28 6,48 16,60 11,12 30,18 56,20l0 227c-28,6 -52,9 -74,11 -21,2 -40,3 -55,3 -48,0 -86,-11 -113,-33 -28,-22 -45,-52 -51,-90l-6 -86c-48,72 -108,125 -181,161 -72,36 -153,54 -242,54z"/>
    <path class="fil1" d="M46075 25021c-72,0 -138,-14 -199,-42 -60,-28 -113,-66 -156,-115 -44,-50 -79,-107 -103,-173 -25,-66 -37,-137 -37,-213 0,-76 11,-146 35,-212 23,-65 55,-122 97,-171 41,-50 90,-88 147,-116 57,-28 120,-42 188,-42 76,0 144,19 206,56 62,37 110,86 145,146l0 -596 267 0 0 1151c0,28 6,48 16,60 11,12 30,18 56,20l0 227c-50,10 -93,14 -127,14 -50,-1 -88,-12 -115,-34 -27,-21 -44,-51 -51,-89l-6 -72c-39,66 -91,116 -156,150 -65,34 -134,51 -207,51zm70 -227l0 0c25,0 51,-5 77,-13 27,-9 52,-21 74,-37 23,-16 43,-35 62,-56 19,-21 33,-45 42,-70l0 -250c-23,-58 -60,-107 -111,-146 -51,-38 -105,-57 -160,-57 -40,0 -77,8 -111,26 -34,17 -63,40 -87,70 -24,30 -43,65 -56,103 -13,39 -20,79 -20,120 0,44 8,85 22,122 15,37 35,70 61,98 26,28 57,50 92,66 35,16 73,24 115,24z"/>
    <path class="fil1" d="M47424 25021c-84,0 -160,-14 -228,-43 -68,-28 -126,-67 -173,-116 -48,-50 -85,-107 -111,-172 -26,-65 -39,-134 -39,-206 0,-74 13,-145 38,-211 25,-66 62,-123 110,-173 47,-50 106,-90 174,-119 69,-29 145,-44 231,-44 85,0 161,15 228,44 67,29 124,68 172,118 47,49 83,106 107,171 25,66 37,134 37,204 0,17 0,34 -1,50 0,16 -2,29 -5,40l-808 0c4,41 14,78 30,110 16,32 37,59 62,82 25,22 54,40 86,52 32,12 65,18 100,18 53,0 103,-13 150,-39 47,-26 80,-60 97,-103l230 64c-39,80 -101,145 -185,196 -85,52 -185,77 -302,77zm271 -631l0 0c-7,-78 -36,-141 -87,-188 -51,-48 -113,-71 -186,-71 -36,0 -70,6 -101,19 -31,12 -59,30 -83,53 -24,22 -44,49 -59,81 -15,32 -24,68 -27,106l543 0z"/>
    <path class="fil1" d="M49106 25001l-268 0 0 -587c0,-84 -14,-145 -43,-183 -30,-39 -70,-58 -122,-58 -27,0 -54,5 -82,16 -28,10 -54,25 -79,44 -24,20 -47,43 -67,69 -20,27 -34,56 -44,88l0 611 -267 0 0 -1046 241 0 0 194c39,-67 95,-119 168,-156 73,-37 156,-56 248,-56 65,0 118,12 159,36 41,24 73,55 96,94 23,38 38,82 47,132 8,49 13,99 13,149l0 653z"/>
    <path class="fil1" d="M49960 24947c-36,16 -80,32 -133,48 -52,16 -107,24 -164,24 -38,0 -73,-4 -105,-14 -33,-9 -61,-24 -86,-45 -25,-20 -44,-47 -59,-79 -15,-33 -22,-73 -22,-119l0 -601 -136 0 0 -206 136 0 0 -340 268 0 0 340 221 0 0 206 -221 0 0 511c0,37 10,63 30,79 19,15 43,23 71,23 28,0 56,-5 82,-14 27,-10 48,-18 64,-24l54 211z"/>
    <polygon class="fil1" points="50598,25001 50598,23583 51550,23583 51550,23825 50874,23825 50874,24191 51436,24191 51436,24414 50874,24414 50874,25001 "/>
    <path class="fil1" d="M52332 24187c-81,1 -153,16 -217,46 -64,30 -110,75 -138,135l0 633 -267 0 0 -1046 245 0 0 224c36,-72 83,-130 141,-174 58,-44 119,-66 183,-66 14,0 25,0 32,1 8,1 15,2 21,3l0 244z"/>
    <path class="fil1" d="M52939 25021c-85,0 -162,-14 -229,-44 -68,-29 -126,-68 -173,-118 -47,-50 -84,-108 -109,-173 -25,-65 -38,-134 -38,-206 0,-73 13,-142 38,-208 25,-65 62,-122 109,-172 47,-50 105,-90 173,-119 67,-29 144,-44 229,-44 85,0 161,15 229,44 67,29 124,69 171,119 47,50 84,107 109,172 25,66 38,135 38,208 0,72 -13,141 -38,206 -25,65 -61,123 -108,173 -46,50 -104,89 -171,118 -68,30 -145,44 -230,44zm-273 -541l0 0c0,47 7,89 21,127 14,38 33,71 58,99 24,28 53,49 86,65 34,15 69,23 108,23 39,0 75,-8 108,-23 33,-16 62,-37 87,-65 24,-28 44,-61 58,-100 13,-39 20,-81 20,-128 0,-45 -7,-87 -20,-126 -14,-38 -34,-72 -58,-100 -25,-28 -54,-49 -87,-64 -33,-16 -69,-23 -108,-23 -39,0 -74,8 -108,24 -33,15 -62,38 -86,65 -25,28 -44,62 -58,100 -14,39 -21,81 -21,126z"/>
    <path class="fil1" d="M55286 25001l-268 0 0 -587c0,-84 -14,-145 -44,-183 -29,-39 -69,-58 -119,-58 -52,0 -101,20 -148,60 -46,41 -80,94 -100,159l0 609 -267 0 0 -587c0,-84 -14,-145 -43,-183 -29,-39 -68,-58 -119,-58 -52,0 -101,20 -148,59 -48,40 -81,93 -101,158l0 611 -268 0 0 -1046 242 0 0 194c38,-68 91,-121 159,-157 67,-37 144,-55 230,-55 88,0 155,21 203,64 47,42 78,95 92,158 43,-72 97,-127 162,-165 65,-38 140,-57 223,-57 64,0 117,12 158,36 41,24 73,55 96,94 23,38 38,82 47,132 8,49 13,99 13,149l0 653z"/>
    <polygon class="fil1" points="40896,27792 40896,26234 41272,26234 41272,26448 41144,26448 41144,27579 41272,27579 41272,27792 "/>
    <polygon class="fil2" points="42050,26294 42399,26977 42754,26294 43052,26294 42537,27217 42537,27712 42263,27712 42263,27213 41751,26294 "/>
    <path class="fil2" d="M43702 27722c-100,0 -191,-20 -273,-60 -83,-41 -154,-95 -213,-162 -59,-67 -105,-144 -136,-231 -32,-87 -48,-175 -48,-266 0,-94 17,-185 51,-271 33,-87 81,-163 141,-230 61,-66 132,-119 215,-159 82,-39 172,-59 269,-59 100,0 191,21 273,63 83,42 153,97 212,165 59,68 104,145 136,232 32,86 48,174 48,263 0,95 -17,185 -51,271 -34,86 -81,162 -141,228 -60,66 -131,118 -213,157 -83,40 -173,59 -270,59zm-393 -719l0 0c0,62 9,121 27,178 18,57 44,108 78,152 34,44 75,79 124,106 50,27 106,40 168,40 64,0 120,-14 169,-41 48,-28 89,-64 122,-109 34,-45 59,-96 76,-153 18,-56 26,-114 26,-173 0,-61 -9,-120 -28,-177 -18,-58 -45,-108 -79,-152 -33,-44 -75,-79 -123,-105 -49,-26 -104,-39 -165,-39 -64,0 -120,14 -168,41 -49,27 -90,63 -124,108 -34,44 -60,95 -77,152 -17,56 -26,114 -26,172z"/>
    <path class="fil2" d="M45187 27479c65,0 120,-13 164,-40 45,-27 81,-61 108,-104 27,-43 47,-92 58,-147 11,-55 17,-112 17,-171l0 -723 273 0 0 723c0,98 -11,189 -35,274 -23,85 -59,160 -109,224 -50,64 -114,114 -193,151 -78,38 -172,56 -281,56 -113,0 -209,-19 -289,-59 -79,-39 -143,-91 -192,-155 -49,-65 -85,-140 -107,-225 -22,-85 -33,-174 -33,-266l0 -723 276 0 0 723c0,60 5,118 17,173 11,55 30,104 57,147 28,43 63,77 107,103 44,26 98,39 162,39z"/>
    <path class="fil2" d="M46083 27712l0 -1418 626 0c65,0 126,14 181,41 55,28 103,64 143,108 39,45 71,95 93,152 23,57 34,114 34,171 0,92 -23,175 -69,250 -45,76 -108,130 -186,163l333 533 -311 0 -298 -475 -271 0 0 475 -275 0zm275 -717l0 0 345 0c26,0 49,-6 71,-18 22,-12 41,-28 57,-48 16,-21 29,-45 38,-73 9,-28 14,-58 14,-90 0,-34 -5,-64 -16,-92 -11,-28 -25,-52 -43,-73 -18,-21 -39,-37 -62,-48 -23,-11 -47,-17 -71,-17l-333 0 0 459z"/>
    <path class="fil2" d="M48751 26666c-10,-9 -27,-22 -51,-38 -25,-16 -55,-32 -90,-47 -35,-15 -74,-28 -115,-39 -41,-11 -83,-16 -125,-16 -76,0 -133,14 -170,42 -37,28 -56,67 -56,118 0,29 7,53 21,73 14,19 34,36 61,51 26,14 60,28 101,40 40,12 87,24 140,38 69,18 132,38 189,59 56,22 104,48 144,80 39,32 69,71 90,115 22,45 32,100 32,165 0,76 -14,141 -43,195 -28,54 -67,97 -114,131 -48,33 -104,57 -168,72 -64,16 -130,23 -200,23 -106,0 -211,-16 -315,-48 -104,-31 -197,-77 -279,-135l122 -238c11,12 33,28 64,47 32,19 68,39 111,58 43,19 90,35 142,49 52,13 105,20 159,20 152,0 228,-49 228,-146 0,-32 -9,-59 -26,-80 -17,-21 -42,-40 -74,-56 -32,-16 -70,-30 -116,-44 -45,-13 -95,-27 -151,-42 -68,-18 -127,-39 -177,-61 -50,-22 -91,-47 -125,-77 -33,-29 -58,-63 -74,-103 -17,-40 -25,-88 -25,-142 0,-72 13,-136 40,-192 26,-56 63,-102 110,-140 48,-37 102,-65 165,-85 62,-19 130,-29 201,-29 100,0 192,16 276,47 84,32 157,69 219,111l-121 224z"/>
    <path class="fil2" d="M49048 26993c0,-86 15,-172 46,-256 30,-85 75,-160 133,-227 57,-67 128,-120 212,-162 84,-41 180,-62 287,-62 127,0 236,29 329,86 92,58 160,132 204,224l-211 146c-16,-40 -37,-74 -62,-101 -25,-27 -53,-49 -83,-65 -30,-16 -61,-28 -93,-35 -32,-7 -62,-11 -92,-11 -65,0 -122,14 -171,42 -49,28 -90,64 -123,109 -33,44 -57,95 -74,152 -16,56 -25,112 -25,168 0,63 10,123 29,181 20,58 47,109 82,153 35,44 78,79 127,106 49,26 103,40 161,40 31,0 62,-4 94,-12 32,-8 63,-21 93,-38 30,-17 58,-40 83,-67 25,-27 46,-60 62,-99l225 130c-21,53 -52,100 -93,141 -40,40 -86,75 -138,102 -52,28 -107,50 -164,64 -57,15 -114,22 -170,22 -98,0 -188,-21 -270,-63 -82,-43 -152,-99 -211,-167 -60,-69 -106,-147 -138,-234 -33,-87 -49,-176 -49,-267z"/>
    <polygon class="fil2" points="51660,26294 51660,27712 51387,27712 51387,27107 50744,27107 50744,27712 50469,27712 50469,26294 50744,26294 50744,26868 51387,26868 51387,26294 "/>
    <path class="fil2" d="M52544 27722c-100,0 -191,-20 -273,-60 -83,-41 -154,-95 -213,-162 -59,-67 -105,-144 -137,-231 -31,-87 -47,-175 -47,-266 0,-94 17,-185 50,-271 34,-87 82,-163 142,-230 61,-66 132,-119 215,-159 82,-39 172,-59 269,-59 100,0 191,21 273,63 83,42 153,97 212,165 58,68 104,145 136,232 32,86 47,174 47,263 0,95 -16,185 -50,271 -34,86 -81,162 -141,228 -60,66 -131,118 -214,157 -82,40 -172,59 -269,59zm-393 -719l0 0c0,62 9,121 27,178 18,57 44,108 78,152 34,44 75,79 124,106 50,27 105,40 168,40 64,0 120,-14 169,-41 48,-28 89,-64 122,-109 34,-45 59,-96 76,-153 17,-56 26,-114 26,-173 0,-61 -9,-120 -28,-177 -18,-58 -45,-108 -79,-152 -34,-44 -75,-79 -123,-105 -49,-26 -104,-39 -165,-39 -64,0 -120,14 -169,41 -48,27 -89,63 -123,108 -34,44 -60,95 -77,152 -17,56 -26,114 -26,172z"/>
    <path class="fil2" d="M54021 27722c-100,0 -191,-20 -274,-60 -82,-41 -153,-95 -212,-162 -59,-67 -105,-144 -137,-231 -32,-87 -48,-175 -48,-266 0,-94 17,-185 51,-271 34,-87 81,-163 142,-230 60,-66 132,-119 214,-159 83,-39 173,-59 270,-59 99,0 191,21 273,63 83,42 153,97 212,165 58,68 103,145 135,232 32,86 48,174 48,263 0,95 -17,185 -51,271 -34,86 -81,162 -140,228 -60,66 -131,118 -214,157 -82,40 -172,59 -269,59zm-393 -719l0 0c0,62 9,121 26,178 18,57 44,108 78,152 34,44 76,79 125,106 49,27 105,40 168,40 63,0 120,-14 168,-41 49,-28 90,-64 123,-109 33,-45 59,-96 76,-153 17,-56 26,-114 26,-173 0,-61 -10,-120 -28,-177 -19,-58 -45,-108 -79,-152 -34,-44 -75,-79 -124,-105 -48,-26 -103,-39 -164,-39 -64,0 -120,14 -169,41 -49,27 -90,63 -124,108 -34,44 -59,95 -77,152 -17,56 -25,114 -25,172z"/>
    <polygon class="fil2" points="54909,27712 54909,26294 55184,26294 55184,27471 55906,27471 55906,27712 "/>
    <polygon class="fil1" points="56443,27792 56443,27579 56569,27579 56569,26448 56443,26448 56443,26234 56816,26234 56816,27792 "/>
   </g>
   <circle class="fil3 str0" cx="25338" cy="10721" r="8530"/>
   <circle class="fil3 str0" cx="48425" cy="10721" r="8530"/>
   <path class="fil4" d="M19446 19311c196,-577 473,-1111 850,-1591 445,-568 990,-1017 1626,-1356 397,-211 813,-372 1251,-474 8,-2 16,-5 18,-6 10,-7 7,-13 5,-16 -28,-41 -17,-71 16,-106 99,-106 193,-217 290,-326 8,-10 18,-19 30,-32 89,88 176,175 264,261 23,5 39,22 56,38 207,207 418,410 620,622 284,298 581,584 869,878 14,14 30,26 37,45 3,38 -33,46 -52,68 -211,169 -422,341 -634,509 -64,51 -64,51 -28,123 138,276 273,554 416,827 42,79 48,155 39,240 -19,162 -33,324 -48,487 -13,146 -28,292 -42,438 -12,117 -21,234 -35,351 -2,16 -1,33 -13,46 -2533,-273 -3976,-35 -4779,-441 -282,-142 -690,-158 -756,-585z"/>
   <path class="fil5" d="M27532 15813c81,9 159,33 238,55 624,171 1176,476 1663,900 433,377 786,820 1085,1308 873,2904 -1045,1698 -4802,2261 -13,-15 -12,-33 -13,-51 -16,-168 -31,-335 -46,-502 -15,-156 -28,-312 -43,-468 -12,-125 -21,-251 -35,-376 -4,-33 -1,-64 14,-95 159,-319 319,-637 478,-956 8,-14 15,-29 30,-38 26,-8 43,9 60,24 122,98 244,197 366,295 47,38 47,38 71,-21 159,-405 320,-811 480,-1216 140,-354 279,-708 419,-1062 9,-21 14,-44 35,-58z"/>
   <path class="fil6" d="M26414 4400c404,13 805,50 1199,148 253,64 497,151 720,288 150,92 283,204 390,346 125,167 198,355 223,562 22,185 11,369 -28,551 -8,36 -4,67 13,102 178,347 307,713 406,1090 74,281 124,567 155,856 3,28 2,56 4,84 -18,21 -36,5 -52,-2 -46,-20 -93,-26 -143,-25 -151,1 -301,0 -452,0 -61,0 -63,2 -56,65 29,253 57,506 84,760 2,18 4,35 0,53 -44,122 -74,247 -67,379 1,18 6,44 -17,51 -20,7 -35,-14 -48,-28 -102,-115 -199,-234 -288,-360 -276,-390 -497,-809 -645,-1266 -81,-247 -139,-500 -167,-760 -2,-19 -5,-38 -9,-57 -6,-6 -11,-1 -13,2 -55,83 -140,126 -223,171 -427,231 -878,397 -1354,495 -197,41 -395,72 -596,82 -41,2 -81,13 -122,8 -12,-3 -24,-5 -27,-19 10,-70 7,-140 7,-211 0,-531 0,-1062 0,-1593 0,-29 -2,-59 5,-88 12,-33 41,-26 66,-27 182,-1 362,16 542,42 398,57 777,173 1135,357 252,129 482,288 694,475 288,255 528,549 722,879 60,103 118,208 161,319 16,40 40,50 80,44 110,-15 221,-25 331,-36 49,-4 55,-11 38,-58 -68,-196 -153,-386 -251,-569 -136,-252 -294,-491 -474,-714 -316,-392 -691,-716 -1132,-962 -446,-250 -926,-398 -1433,-459 -126,-15 -253,-29 -381,-30 -34,0 -73,3 -97,-32 -6,-64 -15,-127 -15,-190 0,-193 0,-386 0,-578 0,-73 0,-73 -69,-94 -7,-2 -12,-6 -16,-11 56,-15 113,-12 169,-16 171,-12 341,-22 512,-25 13,0 26,3 37,-7 89,0 177,0 265,0 55,11 110,2 164,5 18,1 36,-3 53,3z"/>
   <path class="fil7" d="M26108 17854c-44,72 -78,150 -116,226 -127,251 -252,502 -379,753 -20,38 -28,74 -18,117 9,39 7,81 11,121 13,125 22,250 33,375 11,123 25,246 36,369 9,91 15,182 23,273 5,67 12,133 18,200 2,16 0,32 0,49 -130,0 -261,0 -392,0 -22,-27 -16,-60 -16,-90 0,-516 0,-1033 0,-1549 0,-434 0,-869 0,-1304 0,-31 -2,-62 16,-90 7,-13 21,-18 31,-28 9,-8 21,-15 19,-30 4,-3 8,-3 13,0 108,95 222,182 333,273 122,99 243,198 366,296 12,10 29,18 22,39z"/>
   <path class="fil8" d="M25324 17304c0,993 0,1986 0,2979 0,18 0,36 0,54 -115,0 -229,0 -344,0 2,-93 15,-185 24,-278 5,-46 8,-94 14,-140 14,-118 21,-237 32,-355 12,-118 26,-236 37,-354 8,-86 9,-173 24,-258 9,-55 -7,-97 -30,-143 -152,-300 -303,-601 -454,-901 -15,-31 -15,-36 12,-58 150,-120 301,-240 451,-360 78,-63 153,-128 234,-186z"/>
   <path class="fil9" d="M26414 4400c-66,6 -133,-2 -200,-1 -5,1 -11,-5 -17,-7 72,0 144,0 216,0 1,2 1,5 1,8z"/>
   <path class="fil10" d="M25304 7982c10,1 20,1 29,2 -1,5 0,12 -5,13 -64,11 -57,59 -57,105 0,1327 0,2654 0,3981 0,33 3,66 -6,98 -12,27 -36,22 -58,20 -238,-15 -445,63 -622,217 -108,94 -127,237 -72,370 63,157 183,241 340,283 120,32 243,52 368,50 64,-1 128,-1 191,1 17,1 45,-11 48,23 -32,24 -69,14 -104,14 -85,2 -85,1 -85,84 0,285 0,571 0,856 0,27 3,56 -9,82 -29,28 -65,18 -98,16 -451,-31 -878,-149 -1279,-358 -6,-3 -12,-6 -18,-9 -49,-24 -49,-23 -49,31 0,528 0,1056 -1,1584 0,27 3,55 -5,82 -2,6 -6,11 -11,14 -13,-18 -7,-38 -7,-57 0,-551 -1,-1102 1,-1653 0,-41 -11,-64 -48,-85 -236,-135 -453,-297 -654,-480 -226,-206 -426,-433 -605,-680 -174,-242 -326,-498 -455,-766 -155,-323 -279,-658 -370,-1005 -34,-128 -65,-256 -89,-386 -1,-8 -5,-15 -10,-28 -17,19 -32,34 -46,50 -117,128 -262,117 -382,11 -84,-75 -143,-169 -191,-270 -80,-168 -126,-346 -153,-529 -20,-138 -27,-277 -19,-416 9,-173 36,-343 106,-504 27,-60 59,-118 106,-164 26,-24 44,-50 49,-85 16,10 31,5 47,-1 108,-37 202,-11 286,63 89,78 154,175 202,281 103,227 157,467 168,716 3,59 11,117 10,176 -1,13 0,27 8,38 42,61 93,114 141,169 17,18 29,5 37,-12 16,-40 33,-79 49,-118 69,-170 131,-342 211,-507 124,-257 160,-537 221,-810 87,-389 153,-783 217,-1177 3,-21 6,-42 17,-61 3,-5 7,-8 13,-9 23,-2 39,13 57,24 434,273 899,473 1398,592 218,52 440,85 663,104 106,9 213,-1 318,16 50,8 101,-13 152,-8 19,1 39,-3 55,12z"/>
   <path class="fil11" d="M22655 7247c-86,534 -182,1067 -304,1595 -26,114 -57,228 -85,341 -5,20 -7,42 -31,52 -12,6 -13,22 -18,34 -90,218 -179,435 -269,652 -7,18 -13,37 -25,53 -17,2 -22,-12 -30,-21 -48,-54 -94,-110 -142,-163 -18,-20 -20,-42 -20,-68 -1,-271 -36,-537 -136,-791 -51,-130 -116,-253 -219,-350 -51,-48 -108,-84 -180,-91 -56,-6 -107,9 -154,37 -9,-10 -2,-23 -8,-33 21,-350 61,-697 149,-1036 52,-204 121,-400 229,-581 64,-106 139,-203 237,-279 25,-19 22,-34 13,-58 -52,-137 -88,-280 -119,-423 -2,-8 -6,-16 2,-25 101,35 201,81 322,85 -148,-215 -256,-440 -324,-684 -68,-244 -93,-492 -59,-745 23,3 38,14 53,23 222,115 444,229 676,323 56,22 113,43 172,58 22,5 44,9 73,8 -44,-111 -99,-212 -133,-322 15,-11 30,-6 44,-6 196,4 392,1 587,-19 148,-16 294,-41 436,-89 135,-45 276,-69 415,-96 285,-56 573,-99 861,-135 157,-19 315,-34 473,-50 24,-3 49,-2 73,-3 25,0 49,1 74,1 18,0 26,9 26,27 0,11 0,23 0,34 0,208 1,415 0,623 -1,66 17,132 10,199 -16,16 -37,13 -56,12 -113,-6 -225,5 -337,12 -250,17 -497,56 -739,123 -401,111 -770,290 -1104,539 -209,155 -398,332 -570,529 -287,329 -513,697 -697,1091 -122,259 -219,528 -294,805 -4,18 -9,35 -13,53 -13,59 -11,61 49,61 62,0 124,-1 186,1 34,1 54,-11 67,-43 182,-430 431,-818 735,-1170 19,-23 36,-47 58,-67 13,-11 24,-28 46,-23z"/>
   <path class="fil12" d="M25382 17246l-4 -1c0,0 -4,1 -4,1 -16,-7 -25,-21 -37,-33 -269,-269 -538,-538 -806,-808 -245,-246 -490,-493 -735,-740 13,-41 4,-83 5,-124 0,0 3,-4 3,-4 41,-49 102,-69 155,-99 431,-242 863,-484 1295,-726 460,-257 920,-515 1380,-773 58,-33 117,-64 175,-98 14,-8 28,-18 46,-10 0,604 0,1208 0,1811 0,28 0,56 0,83 5,18 -8,28 -18,38 -42,41 -78,88 -120,129 -157,154 -305,317 -461,473 -144,144 -286,290 -426,439 -130,138 -270,265 -394,409 -13,15 -25,39 -54,33z"/>
   <path class="fil12" d="M25255 12191c0,-1380 0,-2761 0,-4142 0,-10 1,-20 0,-29 0,-19 9,-26 27,-27 17,-1 36,6 51,-9 197,-13 394,-34 588,-69 355,-63 698,-166 1031,-305 189,-78 372,-168 548,-272 35,-21 62,-48 88,-77 17,-20 34,-39 58,-68 47,478 173,925 372,1350 199,426 453,816 775,1169 8,-25 5,-42 4,-59 -6,-119 15,-234 57,-345 3,-8 5,-16 12,-21 38,40 27,93 32,140 33,315 64,630 89,946 14,170 25,341 31,513 1,23 5,49 -16,68 -17,20 -19,46 -26,69 -63,202 -135,402 -220,596 -3,8 -5,16 -7,23 -2,32 -30,41 -50,56 -210,146 -436,263 -672,361 -447,187 -912,309 -1388,394 -185,33 -370,61 -558,78 -27,3 -47,-1 -62,-26 -51,-88 -135,-135 -223,-176 -154,-70 -319,-93 -485,-113 -21,-3 -43,-3 -56,-25z"/>
   <path class="fil12" d="M25255 14184c0,-330 0,-659 0,-989 0,-8 1,-16 0,-25 0,-18 10,-25 28,-25 44,0 88,0 132,-1 16,0 33,5 46,-9 23,-20 51,-20 78,-23 107,-8 210,-32 309,-71 65,-25 124,-61 164,-119 23,-33 56,-44 93,-46 274,-14 540,-71 805,-136 246,-60 487,-136 727,-219 250,-86 497,-181 738,-289 22,-9 44,-25 70,-12 -5,27 -23,47 -37,69 -150,241 -318,470 -509,681 -276,307 -589,569 -946,777 -11,7 -24,11 -29,25 -91,64 -192,110 -293,155 -306,137 -626,222 -959,259 -124,14 -247,13 -371,12 -16,0 -33,0 -46,-14z"/>
   <path class="fil13" d="M29002 10954c5,-109 -6,-218 -12,-327 -5,-117 -16,-235 -27,-352 -14,-162 -29,-324 -45,-487 -10,-110 -21,-221 -32,-331 -6,-57 -13,-113 -20,-170 0,-59 -10,-116 -17,-174 -9,-69 -14,-139 -22,-208 -9,-78 -18,-155 -27,-232 -8,-70 -15,-139 -22,-209 -1,-18 -4,-35 -8,-52 -3,-16 3,-26 20,-26 13,0 27,0 40,0 163,0 326,1 489,-1 47,-1 90,9 132,28 14,6 26,20 45,14 14,19 37,25 57,37 204,115 352,278 426,503 17,52 26,104 26,159 -1,433 -1,866 -1,1299 0,127 -27,247 -95,355 -81,129 -201,207 -343,254 -179,58 -362,68 -548,50 -18,-2 -27,-8 -22,-27 8,-34 7,-68 6,-103z"/>
   <path class="fil14" d="M25382 17246c66,-57 122,-123 182,-185 275,-282 549,-565 824,-848 147,-152 295,-305 443,-458 9,-9 20,-17 24,-30 77,-66 142,-144 214,-214 35,-35 70,-68 107,-104 20,21 41,44 61,67 87,98 173,196 259,294 13,14 24,30 36,45 -29,73 -57,146 -85,219 -77,194 -153,387 -230,581 -72,184 -145,366 -218,550 -81,206 -162,412 -243,618 -56,144 -113,288 -170,432 -1,3 -4,4 -8,8 -39,-16 -68,-48 -100,-73 -102,-81 -201,-166 -304,-245 -22,-16 -39,-40 -66,-49 -52,-54 -114,-97 -172,-144 -176,-144 -354,-287 -531,-430 -11,-9 -25,-16 -23,-34z"/>
   <path class="fil15" d="M28445 12220c-91,38 -181,75 -271,113 -485,198 -980,363 -1492,473 -193,42 -388,75 -586,85 -32,1 -56,10 -75,42 -29,48 -78,78 -128,103 -84,41 -174,65 -267,79 -54,8 -110,14 -165,20 -88,0 -176,2 -264,0 -146,-4 -288,-27 -426,-77 -162,-59 -254,-177 -292,-340 -28,-116 3,-218 87,-301 96,-95 214,-154 342,-194 103,-32 209,-48 318,-32 10,1 20,0 29,0 40,18 83,15 125,20 148,19 294,48 430,110 91,41 173,93 223,183 9,16 21,18 37,16 99,-12 198,-21 297,-35 264,-40 527,-90 787,-155 389,-97 768,-223 1128,-402 151,-75 296,-160 433,-258 12,-8 26,-14 34,-28 108,-71 202,-159 293,-251 15,-15 29,-31 43,-47 76,-84 194,-97 287,-31 56,41 93,96 123,157 13,28 6,54 -6,80 -17,36 -42,66 -70,94 -63,63 -134,115 -207,164 -213,141 -440,256 -671,365 -33,15 -67,26 -96,47z"/>
   <path class="fil16" d="M25255 14184c97,0 193,4 289,-1 79,-5 158,-15 237,-26 120,-17 239,-40 357,-71 154,-41 305,-92 451,-156 97,-42 192,-88 285,-138 16,-8 31,-19 50,-20 8,2 18,6 6,14 -24,16 -50,30 -75,45 -98,55 -197,109 -295,164 -96,53 -191,107 -286,160 -102,58 -204,116 -306,173 -120,67 -240,133 -359,200 -126,70 -250,141 -375,211 -93,52 -186,102 -278,154 -94,53 -187,107 -281,159 -92,52 -185,103 -278,155 -101,56 -201,114 -302,170 -97,54 -194,107 -291,160 -1,-575 -1,-1150 -1,-1726 0,-6 1,-13 1,-19 16,-7 26,4 37,9 134,69 269,133 410,186 142,53 287,95 435,128 89,19 178,36 268,47 47,6 93,13 141,14 53,1 107,12 160,8z"/>
   <path class="fil15" d="M22655 7247c-52,36 -87,88 -127,135 -135,159 -259,327 -370,504 -130,204 -246,416 -336,641 -10,24 -21,36 -50,36 -83,-2 -166,-1 -250,-1 -34,-1 -34,-2 -27,-37 31,-157 81,-308 134,-459 84,-240 189,-472 308,-698 121,-228 259,-445 417,-649 76,-98 159,-191 241,-283 79,-90 166,-171 255,-250 172,-152 357,-284 555,-400 223,-129 458,-228 703,-304 139,-43 280,-75 423,-99 110,-18 222,-32 334,-41 153,-12 305,-19 459,-18 109,7 218,10 327,21 129,13 258,31 386,54 183,33 363,78 539,136 133,43 264,96 392,154 175,79 343,174 504,280 115,75 225,157 329,246 109,92 216,185 314,288 151,158 291,326 418,504 159,223 296,458 413,705 59,126 112,254 156,385 13,41 8,48 -35,52 -109,11 -217,21 -326,31 -21,2 -41,9 -63,10 -25,1 -37,-8 -47,-32 -21,-53 -44,-105 -70,-156 -114,-225 -250,-435 -409,-632 -110,-136 -229,-264 -357,-383 -154,-141 -320,-268 -498,-379 -110,-68 -222,-131 -339,-186 -253,-119 -516,-209 -790,-266 -105,-21 -211,-41 -317,-54 -86,-11 -172,-19 -258,-24 -90,-5 -179,-10 -269,-8 -18,15 -40,13 -61,12 -198,-3 -395,17 -590,51 -444,76 -859,233 -1241,474 -275,174 -523,380 -746,617 -9,10 -20,16 -31,23l0 0z"/>
   <path class="fil11" d="M22655 7247c51,-77 121,-137 188,-198 46,-42 90,-85 138,-125 85,-72 171,-140 261,-205 165,-119 338,-223 521,-310 262,-125 534,-217 819,-272 111,-21 224,-37 337,-49 135,-15 270,-21 405,-18 0,610 0,1219 0,1828 0,30 -2,58 -20,84 -209,12 -417,3 -625,-17 -445,-43 -872,-157 -1284,-330 -240,-101 -469,-223 -689,-361 -17,-10 -31,-24 -51,-27z"/>
   <g>
    <path class="fil16" d="M46981 15661l2469 -1313c-340,69 -834,172 -1176,161 -680,-22 -809,-89 -1366,-380 -6,-3 -12,-6 -18,-9 -49,-24 -50,-23 -50,31 0,471 24,1018 23,1488 27,1 64,-1 81,5 10,4 21,9 37,17z"/>
    <path class="fil17" d="M44206 10825c-92,1253 -234,2466 -429,3633 -186,1112 -421,2182 -708,3210l265 117c10,-13 21,-27 32,-41 445,-568 989,-1017 1626,-1356 1146,-610 1379,-636 1871,-749 0,-482 0,-964 1,-1446 0,-41 -11,-63 -47,-84 -236,-135 -453,-297 -655,-481 -225,-205 -426,-433 -604,-680 -175,-242 -326,-497 -455,-766 -156,-323 -279,-658 -371,-1004 -33,-128 -65,-256 -88,-386 -2,-8 -6,-15 -10,-28 -17,18 -32,34 -47,50 -116,128 -262,117 -381,11z"/>
    <path class="fil17" d="M52475 10825c92,1253 234,2466 430,3633 186,1112 421,2182 708,3210l-265 117c-11,-13 -22,-27 -32,-41 -446,-568 -990,-1017 -1626,-1356 -1147,-610 -1380,-636 -1872,-749 0,-482 1,-964 -1,-1446 0,-41 11,-63 48,-84 236,-135 453,-297 654,-481 226,-205 426,-433 605,-680 174,-242 326,-497 455,-766 155,-323 279,-658 370,-1004 34,-128 65,-256 89,-386 1,-8 5,-15 10,-28 17,18 32,34 46,50 117,128 262,117 381,11z"/>
    <path class="fil18" d="M42515 19335c197,-577 474,-1111 851,-1591 445,-568 989,-1017 1626,-1356 1146,-610 1379,-636 1871,-749 205,-46 335,350 678,710 85,89 477,254 799,412l0 3538c-85,12 -177,18 -276,16 -2,16 -1,33 -14,46 -62,0 -124,0 -186,0 -324,0 -5816,347 -5349,-1026z"/>
    <path class="fil3" d="M54166 19335c-197,-577 -474,-1111 -851,-1591 -445,-568 -990,-1017 -1626,-1356 -1146,-610 -1380,-636 -1872,-749 -205,-46 -334,350 -677,710 -85,89 -477,254 -800,412l0 3538c86,12 177,18 277,16 2,16 1,33 14,46 62,0 124,8 186,0 2930,-412 3463,264 5349,-1026z"/>
    <polygon class="fil19" points="48119,16669 48776,16699 48776,19807 48119,19807 "/>
    <path class="fil12" d="M49297 14419l-2410 1217c178,328 392,593 646,785 128,97 267,176 416,235 469,185 946,82 1347,-220 279,-210 495,-518 655,-914l0 -1443 -654 340z"/>
    <path class="fil20" d="M46868 15141c48,0 87,41 87,91 0,51 -39,92 -87,92 -48,0 -87,-41 -87,-92 0,-50 39,-91 87,-91zm3140 0c-48,0 -87,41 -87,91 0,51 39,92 87,92 48,0 87,-41 87,-92 0,-50 -39,-91 -87,-91zm-146 138c-55,0 -100,47 -100,105 0,59 45,106 100,106 55,0 100,-47 100,-106 0,-58 -45,-105 -100,-105zm-172 157c-64,0 -116,55 -116,122 0,67 52,121 116,121 63,0 115,-54 115,-121 0,-67 -52,-122 -115,-122zm-198 180c-71,0 -128,60 -128,134 0,74 57,135 128,135 70,0 127,-61 127,-135 0,-74 -57,-134 -127,-134zm-231 167c-73,0 -133,63 -133,140 0,77 60,140 133,140 74,0 133,-63 133,-140 0,-77 -59,-140 -133,-140zm-268 112c-77,0 -140,67 -140,149 0,82 63,148 140,148 77,0 140,-66 140,-148 0,-82 -63,-149 -140,-149zm-280 114c-77,0 -140,69 -140,155 0,85 63,155 140,155 78,0 141,-70 141,-155 0,-86 -63,-155 -141,-155zm-275 44c72,5 129,78 129,167 0,90 -57,163 -129,168l0 0 0 0c-72,-5 -129,-78 -129,-168 0,-89 57,-162 129,-167l0 0 0 0zm-275 -44c78,0 140,69 140,155 0,85 -62,155 -140,155 -77,0 -140,-70 -140,-155 0,-86 63,-155 140,-155zm-279 -114c77,0 140,67 140,149 0,82 -63,148 -140,148 -78,0 -141,-66 -141,-148 0,-82 63,-149 141,-149zm-269 -112c74,0 133,63 133,140 0,77 -59,140 -133,140 -73,0 -133,-63 -133,-140 0,-77 60,-140 133,-140zm-230 -167c70,0 127,60 127,134 0,74 -57,135 -127,135 -70,0 -127,-61 -127,-135 0,-74 57,-134 127,-134zm-198 -180c64,0 116,55 116,122 0,67 -52,121 -116,121 -64,0 -115,-54 -115,-121 0,-67 51,-122 115,-122zm-172 -157c55,0 100,47 100,105 0,59 -45,106 -100,106 -56,0 -101,-47 -101,-106 0,-58 45,-105 101,-105z"/>
    <path class="fil11" d="M44706 9412c-12,-40 -26,-79 -41,-118 -51,-131 -116,-253 -220,-351 -50,-48 -107,-83 -180,-91 -56,-5 -185,86 -232,114 -38,-994 90,-1853 352,-2525 282,-721 957,-1455 1680,-1749 235,-95 477,-169 752,-215 462,-78 1054,-81 1524,-76 68,1345 68,2660 0,3945 -447,771 -1793,1021 -2600,1071 -324,21 -669,19 -1035,-5z"/>
    <path class="fil17" d="M52170 9454c13,-40 -65,-137 -49,-176 51,-131 12,-237 115,-335 51,-48 108,-83 180,-91 56,-5 186,86 233,114 37,-994 -91,-1853 -353,-2525 -282,-721 -956,-1455 -1679,-1749 -236,-95 -478,-169 -753,-215 -461,-78 -1054,-81 -1523,-76 0,1315 0,2630 0,3945 446,771 1793,1021 2599,1071 324,21 865,60 1230,37z"/>
    <path class="fil10" d="M48341 8425c-1,13 0,26 0,40 157,2008 132,4005 -1,5996 0,9 1,18 1,26l0 2 0 6c0,16 -2,33 -10,48 -28,28 -64,19 -97,17 -451,-32 -878,-149 -1280,-358 -5,-3 -11,-6 -17,-9l-120 -84c-236,-135 -453,-297 -655,-481 -225,-205 -426,-433 -604,-680 -175,-242 -326,-497 -455,-766 -156,-323 -279,-658 -371,-1004 -33,-128 -65,-256 -88,-386 -2,-8 -6,-15 -10,-28 -17,18 -32,34 -47,50 -116,128 -262,117 -381,11 -85,-75 -143,-169 -192,-270 -80,-168 -125,-347 -152,-530 -20,-137 -28,-276 -20,-415 10,-173 37,-344 107,-505 22,-50 48,-98 84,-139 47,-28 176,-119 232,-114 73,8 130,43 180,91 104,98 169,220 220,351 15,39 29,78 41,118 366,24 711,26 1035,5 807,-50 2153,-300 2600,-1071l0 79z"/>
    <path class="fil12" d="M48341 14461c0,9 0,18 0,26l0 2 0 6c0,16 2,33 10,48 30,28 67,19 101,17 471,-32 916,-149 1334,-358 6,-3 12,-6 18,-9l126 -84c246,-135 472,-297 682,-481 235,-205 444,-433 630,-680 182,-242 340,-497 475,-766 162,-323 290,-658 385,-1004 36,-128 68,-256 93,-386 1,-8 6,-15 10,-28 18,18 33,34 49,50 121,128 273,117 397,11 88,-75 150,-169 200,-270 84,-168 131,-347 159,-530 21,-137 29,-276 20,-415 -10,-173 -37,-344 -111,-505 -23,-50 -50,-98 -87,-139 -49,-28 -184,-119 -243,-114 -75,8 -134,43 -187,91 -108,98 -176,220 -229,351 -16,39 -30,78 -43,118 -382,24 -742,26 -1079,5 -841,-50 -2245,-300 -2710,-1071 0,2038 0,4077 0,6115z"/>
    <path class="fil13" d="M52173 11015c6,-114 -6,-227 -12,-341 -6,-121 -17,-243 -28,-364 -14,-169 -31,-338 -47,-506 -10,-115 -22,-229 -33,-344 -6,-59 -14,-118 -21,-177 0,-60 -10,-120 -18,-181 -8,-71 -15,-144 -23,-216 -8,-80 -18,-160 -27,-241 -8,-72 -16,-144 -23,-216 -2,-18 -5,-37 -9,-55 -3,-16 4,-26 22,-26 13,0 27,0 40,0 170,0 339,1 509,-1 49,-1 93,9 137,29 15,6 28,21 47,14 15,20 38,27 59,38 212,120 366,289 443,523 18,54 27,108 27,165 -1,450 0,899 -1,1349 0,131 -28,256 -98,368 -85,135 -210,215 -358,264 -185,61 -376,71 -569,52 -19,-2 -28,-8 -23,-28 9,-35 8,-71 6,-106z"/>
    <path class="fil15" d="M51558 12268c-93,39 -185,77 -278,115 -496,202 -1003,370 -1527,483 -198,42 -397,76 -600,86 -34,1 -58,10 -77,42 -30,50 -80,80 -132,105 -86,43 -178,66 -272,81 -57,8 -113,14 -169,21 -91,0 -181,2 -271,0 -149,-4 -295,-28 -437,-79 -165,-60 -259,-180 -299,-347 -28,-118 4,-221 90,-306 98,-96 219,-157 349,-197 106,-33 215,-50 327,-34 9,2 20,1 30,1 40,18 85,15 127,20 152,19 301,49 441,112 93,42 177,95 228,187 10,16 21,17 38,15 101,-12 203,-20 303,-35 272,-40 541,-91 807,-157 398,-100 787,-228 1155,-410 154,-77 303,-163 444,-263 12,-9 26,-15 34,-28 111,-73 207,-163 300,-256 16,-16 30,-32 45,-48 78,-86 198,-100 293,-31 57,40 96,97 126,159 14,28 6,55 -6,82 -17,36 -43,67 -72,95 -64,64 -137,117 -212,167 -218,144 -451,261 -687,372 -33,15 -68,27 -98,48z"/>
    <path class="fil15" d="M45589 7143c-53,37 -90,91 -132,140 -140,165 -268,340 -384,523 -134,212 -255,431 -348,665 -10,25 -22,38 -51,37 -87,-2 -173,0 -260,-1 -36,0 -36,-1 -29,-38 33,-163 85,-320 140,-476 87,-250 196,-490 319,-724 126,-237 269,-462 433,-674 79,-102 164,-198 250,-294 82,-93 173,-177 265,-259 178,-157 370,-295 575,-414 231,-135 476,-237 730,-316 144,-45 290,-78 439,-103 114,-19 230,-33 346,-43 159,-12 317,-20 476,-18 113,7 227,10 339,22 134,13 268,32 401,55 190,34 377,82 560,141 138,46 273,100 406,160 182,83 356,181 523,291 119,78 233,163 342,255 112,95 224,192 325,299 157,164 302,338 434,523 165,231 307,475 428,732 61,130 116,263 162,399 14,42 8,50 -36,54 -113,11 -225,21 -338,32 -22,2 -43,9 -65,10 -26,1 -39,-8 -49,-33 -23,-54 -46,-109 -73,-162 -118,-233 -260,-451 -424,-655 -114,-142 -238,-275 -371,-397 -160,-147 -332,-279 -516,-394 -114,-70 -231,-136 -352,-193 -263,-123 -535,-217 -820,-275 -109,-23 -219,-43 -329,-57 -89,-12 -178,-20 -267,-25 -94,-5 -186,-10 -280,-8 -18,16 -41,13 -63,13 -206,-4 -409,17 -612,52 -461,80 -891,242 -1288,492 -285,180 -542,394 -774,640 -9,10 -21,17 -32,24l0 0z"/>
   </g>
   <path class="fil21" d="M48425 19057c-4604,0 -8337,-3732 -8337,-8336 0,-4605 3733,-8337 8337,-8337 4604,0 8337,3732 8337,8337 0,4604 -3733,8336 -8337,8336zm0 2384c-5921,0 -10721,-4799 -10721,-10720 0,-5921 4800,-10721 10721,-10721 5921,0 10721,4800 10721,10721 0,5921 -4800,10720 -10721,10720z"/>
   <path class="fil21" d="M25338 19057c-4605,0 -8337,-3732 -8337,-8336 0,-4605 3732,-8337 8337,-8337 4604,0 8336,3732 8336,8337 0,4604 -3732,8336 -8336,8336zm0 2384c-5921,0 -10721,-4799 -10721,-10720 0,-5921 4800,-10721 10721,-10721 5921,0 10720,4800 10720,10721 0,5921 -4799,10720 -10720,10720z"/>
   <path class="fil22 str0" d="M19318 6764c-196,-185 -409,-180 -655,-188 -5997,-179 -11993,-359 -17989,-539 -191,8 -337,54 -446,134 -120,89 -194,220 -228,385 0,3130 0,6259 0,9389 13,188 71,327 165,428 110,117 269,180 467,203 767,-70 1534,-140 2301,-210 5,715 9,1431 14,2147 758,-791 1516,-1581 2273,-2372 4557,-416 9113,-832 13669,-1249 177,-14 321,-71 428,-177 101,-98 170,-239 203,-426 0,-2303 0,-4607 0,-6910 0,-230 -22,-444 -202,-615z"/>
   <g>
    <polygon class="fil23" points="2935,10345 2746,10345 2746,9831 2217,9831 2217,10345 2029,10345 2029,9205 2217,9205 2217,9671 2746,9671 2746,9205 2935,9205 "/>
    <path class="fil23" d="M3206 9254c0,-33 9,-58 27,-76 19,-18 44,-27 78,-27 32,0 58,9 76,27 18,18 27,43 27,76 0,31 -9,55 -27,73 -18,18 -44,27 -76,27 -34,0 -59,-9 -78,-27 -18,-18 -27,-42 -27,-73zm196 1091l0 0 -185 0 0 -863 185 0 0 863z"/>
    <path class="fil23" d="M3638 10248c0,-39 10,-68 31,-88 20,-20 49,-30 87,-30 37,0 66,10 86,31 19,21 29,50 29,87 0,37 -10,66 -30,87 -20,22 -48,33 -85,33 -37,0 -66,-11 -87,-31 -20,-21 -31,-51 -31,-89zm187 -249l0 0 -137 0 -40 -794 217 0 -40 794z"/>
    <polygon class="fil23" points="4547,10345 4547,9205 4734,9205 4734,10345 "/>
    <path class="fil23" d="M5165 9205l12 17c-28,108 -74,233 -138,373l-134 0c37,-150 63,-280 79,-390l181 0z"/>
    <path class="fil23" d="M6060 10345l-186 0 0 -532c0,-66 -12,-115 -37,-148 -25,-32 -65,-49 -118,-49 -71,0 -124,23 -157,70 -33,46 -50,122 -50,229l0 430 -184 0 0 -863 144 0 26 113 10 0c24,-41 59,-72 104,-95 46,-22 97,-33 152,-33 133,0 222,45 265,135l13 0c25,-42 61,-76 108,-99 46,-24 100,-36 160,-36 104,0 179,26 227,78 47,52 71,131 71,238l0 562 -185 0 0 -532c0,-66 -13,-115 -38,-148 -25,-32 -65,-49 -118,-49 -72,0 -124,23 -158,67 -33,45 -49,113 -49,205l0 457z"/>
    <path class="fil23" d="M7151 9482l201 0 177 489c26,70 44,136 53,197l6 0c5,-29 14,-63 26,-104 13,-41 79,-235 200,-582l199 0 -371 978c-68,179 -180,269 -338,269 -41,0 -81,-4 -119,-13l0 -145c27,6 59,9 95,9 89,0 151,-51 187,-154l33 -81 -349 -863z"/>
    <path class="fil23" d="M8915 9912c0,141 -36,251 -109,330 -73,79 -174,119 -304,119 -81,0 -153,-18 -215,-55 -62,-36 -110,-88 -144,-157 -33,-68 -50,-147 -50,-237 0,-140 36,-249 109,-328 72,-78 174,-117 305,-117 126,0 225,40 298,120 74,81 110,189 110,325zm-632 0l0 0c0,199 74,299 222,299 147,0 220,-100 220,-299 0,-197 -74,-296 -221,-296 -78,0 -134,26 -169,77 -34,51 -52,124 -52,219z"/>
    <path class="fil23" d="M9740 10345l-26 -113 -10 0c-25,40 -62,72 -109,94 -48,23 -102,35 -162,35 -106,0 -184,-26 -236,-78 -52,-52 -78,-131 -78,-237l0 -564 186 0 0 532c0,66 14,116 41,149 27,33 70,50 128,50 78,0 135,-23 171,-70 36,-46 55,-123 55,-231l0 -430 185 0 0 863 -145 0z"/>
    <path class="fil23" d="M10588 9467c38,0 68,2 92,7l-18 171c-26,-6 -53,-9 -81,-9 -74,0 -134,24 -180,72 -46,48 -69,110 -69,186l0 451 -184 0 0 -863 144 0 25 152 9 0c29,-51 67,-92 113,-122 46,-30 96,-45 149,-45z"/>
    <path class="fil23" d="M11582 10213c45,0 90,-7 135,-22l0 139c-20,8 -46,16 -78,22 -33,6 -66,9 -101,9 -174,0 -262,-92 -262,-275l0 -465 -118 0 0 -81 127 -67 63 -183 113 0 0 192 248 0 0 139 -248 0 0 462c0,44 12,77 34,98 22,21 51,32 87,32z"/>
    <path class="fil23" d="M12270 10361c-135,0 -241,-39 -317,-118 -76,-78 -114,-186 -114,-323 0,-141 35,-252 106,-332 71,-81 168,-121 291,-121 115,0 206,34 272,103 67,70 100,165 100,286l0 99 -579 0c3,84 26,148 68,193 43,45 104,68 182,68 51,0 99,-5 143,-15 44,-9 92,-25 143,-48l0 149c-45,22 -91,37 -137,45 -46,9 -99,14 -158,14zm-34 -755l0 0c-58,0 -105,18 -141,55 -35,37 -56,91 -63,161l394 0c-1,-71 -18,-125 -51,-161 -34,-37 -80,-55 -139,-55z"/>
    <path class="fil23" d="M13361 10345l-37 -120 -6 0c-42,53 -84,88 -127,107 -42,19 -97,29 -163,29 -85,0 -152,-23 -200,-69 -48,-46 -72,-110 -72,-194 0,-89 33,-156 100,-201 66,-46 168,-70 304,-75l150 -4 0 -46c0,-55 -13,-97 -39,-124 -26,-27 -66,-41 -121,-41 -44,0 -87,7 -128,20 -40,13 -80,28 -117,46l-60 -131c47,-25 99,-43 155,-56 56,-13 108,-19 158,-19 111,0 194,24 250,71 57,48 85,123 85,226l0 581 -132 0zm-275 -125l0 0c67,0 121,-18 161,-55 41,-38 61,-90 61,-157l0 -75 -111 5c-87,3 -150,17 -190,43 -39,26 -59,65 -59,118 0,39 11,69 34,90 23,21 58,31 104,31z"/>
    <path class="fil23" d="M14100 10361c-131,0 -231,-38 -299,-115 -68,-76 -103,-185 -103,-328 0,-145 36,-256 108,-334 71,-78 174,-117 309,-117 92,0 174,17 248,50l-56 148c-78,-30 -143,-45 -193,-45 -151,0 -226,99 -226,297 0,97 19,169 56,218 38,49 93,73 165,73 82,0 160,-20 233,-61l0 160c-33,19 -68,33 -105,41 -38,9 -83,13 -137,13z"/>
    <path class="fil23" d="M15310 10345l-185 0 0 -530c0,-67 -13,-117 -40,-149 -27,-33 -70,-50 -129,-50 -77,0 -134,23 -171,70 -36,46 -54,123 -54,231l0 428 -185 0 0 -1214 185 0 0 308c0,50 -3,103 -10,159l12 0c25,-42 60,-74 105,-97 45,-23 97,-34 157,-34 210,0 315,105 315,316l0 562z"/>
    <path class="fil23" d="M15946 10361c-135,0 -240,-39 -317,-118 -76,-78 -114,-186 -114,-323 0,-141 36,-252 106,-332 71,-81 168,-121 292,-121 114,0 205,34 271,103 67,70 100,165 100,286l0 99 -579 0c3,84 26,148 69,193 42,45 103,68 181,68 51,0 99,-5 143,-15 44,-9 92,-25 143,-48l0 149c-45,22 -91,37 -137,45 -46,9 -99,14 -158,14zm-33 -755l0 0c-59,0 -106,18 -141,55 -36,37 -57,91 -64,161l395 0c-2,-71 -19,-125 -52,-161 -34,-37 -80,-55 -138,-55z"/>
    <path class="fil23" d="M16934 9467c37,0 68,2 92,7l-18 171c-26,-6 -54,-9 -82,-9 -74,0 -133,24 -179,72 -46,48 -69,110 -69,186l0 451 -184 0 0 -863 144 0 24 152 10 0c29,-51 66,-92 112,-122 47,-30 97,-45 150,-45z"/>
    <path class="fil23" d="M2446 11846l-212 0 0 724 -186 0 0 -724 -143 0 0 -86 143 -56 0 -56c0,-102 24,-178 73,-227 48,-49 121,-73 220,-73 65,0 129,10 192,32l-49 138c-45,-14 -89,-21 -130,-21 -42,0 -73,12 -92,38 -19,26 -28,65 -28,116l0 56 212 0 0 139z"/>
    <path class="fil23" d="M3034 11692c37,0 67,2 92,7l-19 171c-26,-6 -53,-9 -81,-9 -74,0 -134,24 -180,72 -45,48 -68,110 -68,186l0 451 -185 0 0 -863 145 0 24 152 9 0c29,-51 67,-92 113,-122 46,-30 96,-45 150,-45z"/>
    <path class="fil23" d="M4057 12137c0,141 -37,251 -109,330 -73,79 -174,119 -304,119 -81,0 -153,-19 -215,-55 -63,-36 -111,-89 -144,-157 -34,-68 -50,-147 -50,-237 0,-140 36,-249 108,-328 72,-78 174,-117 305,-117 126,0 226,40 299,120 73,81 110,189 110,325zm-632 0l0 0c0,199 74,299 222,299 146,0 220,-100 220,-299 0,-197 -74,-296 -222,-296 -77,0 -133,26 -168,77 -35,51 -52,124 -52,219z"/>
    <path class="fil23" d="M5000 12570l-185 0 0 -532c0,-66 -12,-115 -38,-148 -25,-32 -64,-49 -117,-49 -71,0 -124,23 -157,69 -33,47 -50,123 -50,230l0 430 -184 0 0 -863 144 0 26 113 10 0c24,-41 59,-72 104,-95 46,-22 97,-33 151,-33 134,0 222,45 266,135l12 0c26,-42 62,-76 109,-99 46,-24 100,-36 160,-36 104,0 179,26 226,78 48,52 72,131 72,238l0 562 -185 0 0 -532c0,-66 -13,-115 -38,-148 -25,-32 -65,-49 -118,-49 -72,0 -124,23 -158,67 -33,45 -50,113 -50,205l0 457z"/>
    <polygon class="fil23" points="6583,12823 6213,12823 6213,11429 6583,11429 6583,11567 6382,11567 6382,12685 6583,12685 "/>
    <path class="fil2" d="M7040 11707l201 0 177 489c27,70 44,136 53,197l7 0c4,-29 13,-63 26,-104 12,-41 79,-235 199,-582l199 0 -371 978c-68,179 -180,269 -338,269 -40,0 -80,-4 -119,-13l0 -145c28,6 59,9 95,9 89,0 152,-51 188,-154l32 -81 -349 -863z"/>
    <path class="fil2" d="M8805 12137c0,141 -37,251 -110,330 -72,79 -174,119 -303,119 -82,0 -153,-19 -216,-55 -62,-36 -110,-89 -143,-157 -34,-68 -51,-147 -51,-237 0,-140 37,-249 109,-328 72,-78 174,-117 305,-117 126,0 225,40 299,120 73,81 110,189 110,325zm-633 0l0 0c0,199 75,299 223,299 146,0 220,-100 220,-299 0,-197 -74,-296 -222,-296 -77,0 -134,26 -168,77 -35,51 -53,124 -53,219z"/>
    <path class="fil2" d="M9629 12570l-26 -113 -9 0c-26,40 -63,71 -110,94 -47,23 -101,35 -162,35 -105,0 -184,-26 -236,-78 -51,-52 -77,-131 -77,-237l0 -564 186 0 0 532c0,66 13,116 41,149 27,33 69,49 128,49 77,0 134,-23 170,-69 37,-46 55,-123 55,-231l0 -430 185 0 0 863 -145 0z"/>
    <path class="fil2" d="M10478 11692c37,0 68,2 92,7l-18 171c-27,-6 -54,-9 -82,-9 -74,0 -134,24 -180,72 -45,48 -68,110 -68,186l0 451 -185 0 0 -863 145 0 24 152 9 0c29,-51 67,-92 113,-122 46,-30 96,-45 150,-45z"/>
    <path class="fil2" d="M11732 12324c0,85 -31,149 -93,194 -62,45 -150,68 -266,68 -115,0 -208,-18 -278,-53l0 -158c102,47 197,70 285,70 113,0 170,-34 170,-102 0,-22 -6,-40 -19,-55 -12,-14 -33,-29 -62,-45 -28,-15 -69,-33 -120,-53 -100,-38 -167,-77 -203,-115 -35,-39 -53,-89 -53,-150 0,-74 30,-131 90,-172 60,-41 142,-61 245,-61 102,0 198,20 289,61l-59 138c-94,-38 -173,-57 -237,-57 -97,0 -146,27 -146,82 0,27 13,50 38,69 26,19 81,44 167,77 71,28 123,53 156,76 32,23 56,49 72,79 16,30 24,66 24,107z"/>
    <path class="fil2" d="M12281 12586c-131,0 -231,-38 -299,-115 -69,-76 -103,-185 -103,-328 0,-145 36,-256 107,-334 72,-78 175,-117 310,-117 92,0 174,17 247,50l-55 148c-78,-30 -143,-45 -193,-45 -151,0 -226,99 -226,297 0,97 19,169 56,218 38,49 93,73 165,73 82,0 160,-20 233,-61l0 160c-33,19 -68,33 -106,41 -37,9 -82,13 -136,13z"/>
    <path class="fil2" d="M13491 12570l-185 0 0 -530c0,-67 -14,-117 -41,-149 -27,-33 -69,-50 -128,-50 -77,0 -134,23 -171,69 -36,47 -54,124 -54,232l0 428 -185 0 0 -1214 185 0 0 308c0,50 -3,103 -10,159l12 0c25,-42 60,-74 105,-97 45,-23 97,-34 156,-34 211,0 316,105 316,316l0 562z"/>
    <path class="fil2" d="M14518 12137c0,141 -36,251 -109,330 -73,79 -174,119 -304,119 -81,0 -153,-19 -215,-55 -62,-36 -110,-89 -144,-157 -33,-68 -50,-147 -50,-237 0,-140 36,-249 108,-328 73,-78 174,-117 306,-117 125,0 225,40 298,120 73,81 110,189 110,325zm-632 0l0 0c0,199 74,299 222,299 147,0 220,-100 220,-299 0,-197 -74,-296 -221,-296 -78,0 -134,26 -169,77 -35,51 -52,124 -52,219z"/>
    <path class="fil2" d="M15500 12137c0,141 -36,251 -109,330 -73,79 -174,119 -304,119 -81,0 -152,-19 -215,-55 -62,-36 -110,-89 -143,-157 -34,-68 -51,-147 -51,-237 0,-140 36,-249 109,-328 72,-78 174,-117 305,-117 126,0 225,40 298,120 74,81 110,189 110,325zm-632 0l0 0c0,199 74,299 222,299 147,0 220,-100 220,-299 0,-197 -73,-296 -221,-296 -78,0 -134,26 -168,77 -35,51 -53,124 -53,219z"/>
    <polygon class="fil2" points="15897,12570 15712,12570 15712,11356 15897,11356 "/>
    <polygon class="fil23" points="16486,12685 16687,12685 16687,11567 16486,11567 16486,11429 16855,11429 16855,12823 16486,12823 "/>
    <path class="fil23" d="M17499 12473c0,-39 11,-68 31,-88 20,-20 49,-30 87,-30 37,0 66,10 86,31 20,21 30,50 30,87 0,37 -11,66 -31,87 -20,22 -48,33 -85,33 -37,0 -66,-11 -87,-31 -20,-21 -31,-51 -31,-89zm187 -249l0 0 -136 0 -41 -795 217 0 -40 795z"/>
   </g>
   <path class="fil24" d="M54482 6775c196,-186 409,-181 655,-188 5997,-180 11993,-359 17989,-539 191,7 337,53 446,133 120,89 194,220 228,386 0,3130 0,6259 0,9388 -13,188 -71,328 -165,428 -110,118 -270,181 -467,204 -767,-70 -1534,-140 -2301,-211 -5,716 -9,1432 -14,2147 -758,-790 -1516,-1581 -2274,-2371 -4556,-416 -9112,-833 -13668,-1249 -177,-14 -321,-71 -428,-177 -101,-99 -170,-239 -203,-427 0,-2303 0,-4606 0,-6909 0,-230 22,-444 202,-615z"/>
   <g>
    <polygon class="fil23" points="57692,10497 57480,10497 57480,9918 56884,9918 56884,10497 56673,10497 56673,9214 56884,9214 56884,9739 57480,9739 57480,9214 57692,9214 "/>
    <path class="fil23" d="M57997 9269c0,-37 10,-65 31,-85 20,-20 49,-30 87,-30 36,0 65,10 85,30 20,20 30,48 30,85 0,35 -10,63 -30,83 -20,20 -49,30 -85,30 -38,0 -67,-10 -87,-30 -21,-20 -31,-48 -31,-83zm220 1228l0 0 -208 0 0 -971 208 0 0 971z"/>
    <path class="fil23" d="M58483 10387c0,-43 11,-75 34,-98 22,-23 54,-34 97,-34 43,0 75,12 98,35 22,24 33,56 33,97 0,42 -11,75 -34,99 -22,24 -55,36 -97,36 -43,0 -75,-12 -97,-36 -23,-24 -34,-57 -34,-99z"/>
    <path class="fil23" d="M58980 10387c0,-43 11,-75 34,-98 22,-23 55,-34 97,-34 43,0 76,12 98,35 22,24 34,56 34,97 0,42 -12,75 -34,99 -23,24 -56,36 -98,36 -42,0 -75,-12 -97,-36 -23,-24 -34,-57 -34,-99z"/>
    <path class="fil23" d="M59478 10387c0,-43 11,-75 33,-98 22,-23 55,-34 97,-34 43,0 76,12 98,35 23,24 34,56 34,97 0,42 -12,75 -34,99 -23,24 -55,36 -98,36 -42,0 -75,-12 -97,-36 -22,-24 -33,-57 -33,-99z"/>
    <path class="fil23" d="M59975 10387c0,-43 11,-75 33,-98 23,-23 55,-34 97,-34 44,0 76,12 99,35 22,24 33,56 33,97 0,42 -11,75 -34,99 -23,24 -55,36 -98,36 -42,0 -74,-12 -97,-36 -22,-24 -33,-57 -33,-99z"/>
    <path class="fil23" d="M60472 10387c0,-43 11,-75 34,-98 22,-23 54,-34 97,-34 43,0 75,12 98,35 22,24 33,56 33,97 0,42 -11,75 -34,99 -22,24 -55,36 -97,36 -43,0 -75,-12 -97,-36 -23,-24 -34,-57 -34,-99z"/>
    <path class="fil23" d="M60969 10387c0,-43 11,-75 34,-98 22,-23 55,-34 97,-34 43,0 76,12 98,35 22,24 34,56 34,97 0,42 -12,75 -34,99 -23,24 -56,36 -98,36 -42,0 -75,-12 -97,-36 -23,-24 -34,-57 -34,-99z"/>
    <path class="fil23" d="M61467 10387c0,-43 11,-75 33,-98 22,-23 55,-34 97,-34 43,0 76,12 98,35 23,24 34,56 34,97 0,42 -12,75 -34,99 -23,24 -55,36 -98,36 -42,0 -75,-12 -97,-36 -22,-24 -33,-57 -33,-99z"/>
    <path class="fil23" d="M61964 10387c0,-43 11,-75 33,-98 23,-23 55,-34 97,-34 44,0 76,12 99,35 22,24 33,56 33,97 0,42 -11,75 -34,99 -23,24 -55,36 -98,36 -42,0 -74,-12 -97,-36 -22,-24 -33,-57 -33,-99z"/>
   </g>
  </g>
 </g>
</svg>
