<?xml version="1.0" encoding="UTF-8"?>
<!DOCTYPE svg PUBLIC "-//W3C//DTD SVG 1.1//EN" "http://www.w3.org/Graphics/SVG/1.1/DTD/svg11.dtd">
<!-- Creator: CorelDRAW 2017 -->
<svg xmlns="http://www.w3.org/2000/svg" xml:space="preserve" width="737px" height="278px" version="1.1" style="shape-rendering:geometricPrecision; text-rendering:geometricPrecision; image-rendering:optimizeQuality; fill-rule:evenodd; clip-rule:evenodd"
viewBox="0 0 73700 27814"
 xmlns:xlink="http://www.w3.org/1999/xlink">
 <defs>
  <style type="text/css">
   <![CDATA[
    .str0 {stroke:#2B2A29;stroke-width:57;stroke-miterlimit:22.9256}
    .fil9 {fill:none}
    .fil22 {fill:#14B4C0}
    .fil15 {fill:#15333D}
    .fil11 {fill:#2F4F68}
    .fil14 {fill:#36576E}
    .fil7 {fill:#4C7296}
    .fil25 {fill:#693F21}
    .fil13 {fill:#704018}
    .fil20 {fill:#7D4721}
    .fil6 {fill:#7D4922}
    .fil8 {fill:#9A3521}
    .fil19 {fill:#CAA075}
    .fil10 {fill:#D39F6D}
    .fil26 {fill:#E4B683}
    .fil21 {fill:#E9EAEC}
    .fil4 {fill:#EDB57A}
    .fil23 {fill:#F4C18A}
    .fil16 {fill:#F4F4F6}
    .fil12 {fill:#F8F8FA}
    .fil5 {fill:#FCC082}
    .fil24 {fill:#FFFEFF}
    .fil3 {fill:white}
    .fil1 {fill:#1D3A6E;fill-rule:nonzero}
    .fil2 {fill:#F6911D;fill-rule:nonzero}
    .fil0 {fill:red;fill-rule:nonzero}
    .fil18 {fill:white;fill-rule:nonzero}
    .fil17 {fill:url(#id0)}
    .fil27 {fill:url(#id1)}
   ]]>
  </style>
  <linearGradient id="id0" gradientUnits="userSpaceOnUse" x1="0" y1="12340" x2="19524" y2="12340">
   <stop offset="0" style="stop-opacity:1; stop-color:#1F3A6F"/>
   <stop offset="1" style="stop-opacity:1; stop-color:#0E254F"/>
  </linearGradient>
  <linearGradient id="id1" gradientUnits="userSpaceOnUse" x1="54176" y1="12350" x2="73700" y2="12350">
   <stop offset="0" style="stop-opacity:1; stop-color:#F7921E"/>
   <stop offset="1" style="stop-opacity:1; stop-color:#CE7A1A"/>
  </linearGradient>
 </defs>
 <g id="Layer_x0020_1">
  <metadata id="CorelCorpID_0Corel-Layer"/>
  <g id="_1432956928912">
   <g>
    <polygon class="fil0" points="19081,24779 19081,25021 18097,25021 18097,23602 19063,23602 19063,23844 18373,23844 18373,24186 18969,24186 18969,24409 18373,24409 18373,24779 "/>
    <polygon class="fil0" points="19531,25021 19146,23974 19422,23974 19687,24803 19954,23974 20206,23974 19821,25021 "/>
    <path class="fil0" d="M20601 25041c-51,0 -98,-9 -142,-25 -44,-17 -82,-40 -114,-70 -32,-30 -57,-65 -74,-105 -18,-40 -27,-84 -27,-132 0,-49 11,-95 32,-137 22,-42 53,-77 92,-107 39,-29 86,-52 141,-68 54,-17 114,-25 179,-25 47,0 92,4 137,12 45,8 84,19 119,34l0 -60c0,-70 -20,-123 -59,-160 -39,-38 -98,-56 -175,-56 -56,0 -110,10 -163,30 -53,20 -108,49 -164,88l-82 -170c135,-89 280,-134 435,-134 150,0 267,37 350,111 83,74 125,181 125,321l0 325c0,28 5,48 16,60 11,12 29,19 56,20l0 228c-25,5 -49,9 -71,11 -22,2 -41,3 -57,3 -50,-2 -89,-13 -116,-35 -26,-22 -43,-52 -49,-89l-6 -58c-47,61 -103,108 -170,140 -66,32 -138,48 -213,48zm75 -196l0 0c46,0 88,-8 129,-24 41,-16 72,-37 95,-64 29,-23 44,-48 44,-76l0 -120c-32,-12 -67,-21 -104,-29 -37,-7 -73,-11 -108,-11 -69,0 -125,16 -169,47 -44,32 -66,71 -66,119 0,45 17,83 52,113 34,30 77,45 127,45z"/>
    <path class="fil0" d="M21464 23563l268 0 0 1110c0,81 36,122 109,122 15,0 32,-3 51,-8 19,-5 38,-11 55,-18l36 214c-36,17 -78,30 -126,40 -48,9 -91,14 -129,14 -84,0 -149,-22 -195,-67 -46,-45 -69,-108 -69,-191l0 -1216z"/>
    <path class="fil0" d="M22418 25041c-108,0 -190,-35 -246,-104 -56,-69 -83,-172 -83,-308l0 -655 267 0 0 597c0,161 58,242 173,242 54,0 104,-16 153,-47 48,-31 88,-79 119,-143l0 -649 267 0 0 739c0,28 5,48 16,60 11,12 29,19 56,20l0 228c-28,5 -53,9 -74,11 -21,2 -40,3 -56,3 -48,0 -85,-11 -113,-33 -27,-22 -44,-52 -50,-91l-6 -86c-48,72 -108,126 -181,162 -72,36 -153,54 -242,54z"/>
    <path class="fil0" d="M23627 25041c-51,0 -98,-9 -142,-25 -44,-17 -82,-40 -114,-70 -32,-30 -57,-65 -75,-105 -18,-40 -27,-84 -27,-132 0,-49 11,-95 33,-137 22,-42 53,-77 92,-107 39,-29 86,-52 141,-68 54,-17 114,-25 179,-25 47,0 92,4 137,12 44,8 84,19 119,34l0 -60c0,-70 -20,-123 -59,-160 -40,-38 -98,-56 -175,-56 -56,0 -110,10 -163,30 -54,20 -108,49 -164,88l-82 -170c135,-89 280,-134 435,-134 150,0 267,37 350,111 83,74 125,181 125,321l0 325c0,28 5,48 16,60 10,12 29,19 56,20l0 228c-26,5 -49,9 -71,11 -22,2 -41,3 -57,3 -51,-2 -89,-13 -116,-35 -26,-22 -43,-52 -50,-89l-6 -58c-46,61 -103,108 -169,140 -67,32 -138,48 -213,48zm75 -196l0 0c45,0 88,-8 129,-24 40,-16 72,-37 95,-64 29,-23 44,-48 44,-76l0 -120c-32,-12 -67,-21 -104,-29 -37,-7 -73,-11 -108,-11 -69,0 -126,16 -169,47 -44,32 -66,71 -66,119 0,45 17,83 52,113 34,30 77,45 127,45z"/>
    <path class="fil0" d="M25103 24967c-36,16 -81,32 -133,48 -53,16 -108,24 -165,24 -37,0 -72,-5 -104,-14 -33,-10 -62,-25 -86,-45 -25,-21 -44,-47 -59,-80 -15,-33 -22,-72 -22,-119l0 -601 -136 0 0 -206 136 0 0 -340 267 0 0 340 222 0 0 206 -222 0 0 511c0,37 10,64 30,79 20,15 44,23 72,23 28,0 55,-5 82,-14 26,-9 48,-17 64,-24l54 212z"/>
    <path class="fil0" d="M25705 25041c-85,0 -162,-15 -229,-44 -68,-29 -126,-69 -173,-119 -47,-50 -83,-108 -109,-173 -25,-65 -38,-134 -38,-206 0,-73 13,-142 38,-207 26,-66 62,-123 109,-173 47,-50 105,-90 173,-119 67,-29 144,-44 229,-44 85,0 161,15 228,44 67,29 125,69 172,119 47,50 83,107 109,173 25,65 37,134 37,207 0,72 -12,141 -37,206 -26,65 -62,123 -108,173 -47,50 -104,90 -172,119 -68,29 -144,44 -229,44zm-273 -542l0 0c0,47 7,89 21,127 14,38 33,71 57,99 25,28 54,50 87,65 33,15 69,23 108,23 38,0 74,-8 108,-23 33,-15 62,-37 86,-65 25,-28 44,-61 58,-100 14,-38 21,-81 21,-128 0,-45 -7,-87 -21,-125 -14,-39 -33,-72 -58,-100 -24,-28 -53,-50 -86,-65 -34,-16 -70,-23 -108,-23 -39,0 -75,8 -108,24 -33,16 -62,38 -87,66 -24,28 -43,61 -57,100 -14,38 -21,80 -21,125z"/>
    <path class="fil0" d="M27049 24206c-81,1 -153,17 -217,47 -64,30 -110,75 -138,135l0 633 -267 0 0 -1047 245 0 0 224c36,-72 83,-130 141,-174 58,-44 119,-66 182,-66 15,0 26,0 33,1 8,1 15,2 21,3l0 244z"/>
    <polygon class="fil1" points="27664,25021 27664,23602 28615,23602 28615,23844 27939,23844 27939,24210 28501,24210 28501,24434 27939,24434 27939,25021 "/>
    <path class="fil1" d="M29397 24206c-81,1 -154,17 -217,47 -64,30 -110,75 -138,135l0 633 -267 0 0 -1047 245 0 0 224c36,-72 83,-130 141,-174 58,-44 118,-66 182,-66 15,0 26,0 33,1 7,1 14,2 21,3l0 244z"/>
    <path class="fil1" d="M30003 25041c-85,0 -161,-15 -229,-44 -68,-29 -125,-69 -173,-119 -47,-50 -83,-108 -108,-173 -25,-65 -38,-134 -38,-206 0,-73 13,-142 38,-207 25,-66 61,-123 108,-173 48,-50 105,-90 173,-119 68,-29 144,-44 229,-44 85,0 162,15 229,44 67,29 124,69 171,119 48,50 84,107 109,173 25,65 38,134 38,207 0,72 -13,141 -38,206 -25,65 -61,123 -108,173 -46,50 -103,90 -171,119 -68,29 -145,44 -230,44zm-273 -542l0 0c0,47 7,89 21,127 14,38 33,71 58,99 25,28 53,50 87,65 33,15 69,23 107,23 39,0 75,-8 108,-23 33,-15 62,-37 87,-65 25,-28 44,-61 58,-100 14,-38 21,-81 21,-128 0,-45 -7,-87 -21,-125 -14,-39 -33,-72 -58,-100 -25,-28 -54,-50 -87,-65 -33,-16 -69,-23 -108,-23 -38,0 -74,8 -107,24 -34,16 -62,38 -87,66 -25,28 -44,61 -58,100 -14,38 -21,80 -21,125z"/>
    <path class="fil1" d="M32349 25021l-267 0 0 -587c0,-84 -15,-146 -44,-184 -29,-39 -69,-58 -120,-58 -52,0 -101,20 -147,61 -47,40 -80,93 -100,159l0 609 -267 0 0 -587c0,-84 -15,-146 -43,-184 -29,-39 -68,-58 -119,-58 -52,0 -101,20 -148,60 -48,40 -81,92 -101,157l0 612 -267 0 0 -1047 241 0 0 194c38,-68 91,-120 158,-157 68,-37 144,-55 231,-55 88,0 155,21 202,64 47,43 78,95 93,158 43,-72 96,-127 162,-165 65,-38 139,-57 223,-57 64,0 116,12 158,36 41,24 73,55 95,94 23,39 39,82 47,132 9,49 13,99 13,150l0 653z"/>
    <polygon class="fil1" points="19712,27526 20512,26557 19734,26557 19734,26316 20829,26316 20829,26523 20055,27492 20835,27492 20835,27734 19712,27734 "/>
    <path class="fil1" d="M20903 27734l558 -1418 224 0 556 1418 -291 0 -130 -354 -496 0 -130 354 -291 0zm670 -1121l0 0 -203 574 400 0 -197 -574z"/>
    <polygon class="fil1" points="23548,27734 23548,26795 23183,27494 23033,27494 22668,26795 22668,27734 22393,27734 22393,26316 22688,26316 23107,27123 23530,26316 23823,26316 23823,27734 "/>
    <polygon class="fil1" points="25102,27492 25102,27734 24118,27734 24118,26316 25084,26316 25084,26557 24393,26557 24393,26899 24990,26899 24990,27123 24393,27123 24393,27492 "/>
    <polygon class="fil1" points="25598,26825 25598,27734 25323,27734 25323,26316 25536,26316 26274,27247 26274,26318 26550,26318 26550,27734 26326,27734 "/>
    <polygon class="fil1" points="28036,26316 28036,27734 27762,27734 27762,27129 27120,27129 27120,27734 26845,27734 26845,26316 27120,26316 27120,26889 27762,26889 27762,26316 "/>
    <path class="fil1" d="M28919 27744c-100,0 -191,-20 -273,-61 -82,-41 -153,-95 -212,-162 -60,-67 -105,-144 -137,-231 -32,-86 -48,-175 -48,-265 0,-95 17,-185 51,-272 34,-86 81,-163 142,-230 60,-66 131,-119 214,-158 82,-40 172,-59 269,-59 100,0 191,21 274,63 82,41 152,96 211,164 58,68 104,146 136,232 31,87 47,175 47,264 0,94 -17,185 -50,270 -34,86 -81,162 -141,228 -60,66 -131,119 -213,158 -83,39 -173,59 -270,59zm-393 -719l0 0c0,61 9,120 27,178 18,57 44,107 78,151 34,44 75,80 125,106 49,27 105,40 167,40 64,0 120,-13 169,-41 48,-27 89,-63 122,-109 34,-45 59,-96 76,-152 18,-57 26,-115 26,-173 0,-61 -9,-121 -28,-178 -18,-57 -45,-108 -79,-152 -33,-44 -75,-79 -123,-105 -49,-26 -104,-39 -165,-39 -64,0 -120,14 -168,41 -49,28 -90,64 -124,108 -34,45 -60,95 -77,152 -17,57 -26,114 -26,173z"/>
    <polygon class="fil1" points="29807,27734 29807,26316 30758,26316 30758,26557 30082,26557 30082,26923 30645,26923 30645,27147 30082,27147 30082,27734 "/>
   </g>
   <g>
    <path class="fil1" d="M36625 25021l0 -1419 601 0c65,0 125,14 180,41 55,28 103,64 143,108 40,45 71,96 94,152 22,57 33,114 33,171 0,60 -10,118 -31,175 -22,56 -52,107 -90,150 -39,44 -85,80 -140,106 -54,27 -114,40 -179,40l-335 0 0 476 -276 0zm276 -717l0 0 319 0c50,0 92,-21 126,-62 34,-42 51,-97 51,-168 0,-36 -5,-68 -16,-97 -10,-29 -24,-53 -42,-73 -17,-20 -37,-35 -60,-45 -24,-10 -47,-15 -71,-15l-307 0 0 460z"/>
    <path class="fil1" d="M38458 24206c-81,1 -153,17 -217,47 -64,30 -110,75 -138,135l0 633 -267 0 0 -1047 245 0 0 224c36,-72 83,-130 141,-174 58,-44 119,-66 182,-66 15,0 26,0 33,1 8,1 15,2 21,3l0 244z"/>
    <path class="fil1" d="M39065 25041c-85,0 -162,-15 -230,-44 -67,-29 -125,-69 -172,-119 -47,-50 -84,-108 -109,-173 -25,-65 -38,-134 -38,-206 0,-73 13,-142 38,-207 25,-66 62,-123 109,-173 47,-50 105,-90 172,-119 68,-29 145,-44 230,-44 85,0 161,15 228,44 67,29 124,69 172,119 47,50 83,107 108,173 26,65 38,134 38,207 0,72 -12,141 -38,206 -25,65 -61,123 -107,173 -47,50 -104,90 -172,119 -68,29 -144,44 -229,44zm-274 -542l0 0c0,47 7,89 21,127 14,38 34,71 58,99 25,28 54,50 87,65 33,15 69,23 108,23 38,0 74,-8 107,-23 34,-15 63,-37 87,-65 25,-28 44,-61 58,-100 14,-38 21,-81 21,-128 0,-45 -7,-87 -21,-125 -14,-39 -33,-72 -58,-100 -24,-28 -53,-50 -87,-65 -33,-16 -69,-23 -107,-23 -39,0 -75,8 -108,24 -33,16 -62,38 -87,66 -24,28 -44,61 -58,100 -14,38 -21,80 -21,125z"/>
    <path class="fil1" d="M40194 25041c-43,0 -87,-4 -133,-10 -46,-7 -91,-16 -135,-28 -43,-12 -85,-27 -125,-44 -40,-17 -75,-37 -106,-58l108 -182c133,87 261,130 385,130 56,0 99,-10 131,-30 32,-20 48,-49 48,-86 0,-37 -19,-65 -57,-83 -37,-18 -101,-37 -190,-59 -68,-16 -126,-32 -174,-50 -47,-17 -86,-37 -115,-60 -30,-22 -51,-48 -64,-77 -13,-30 -20,-64 -20,-104 0,-54 11,-102 32,-144 21,-43 51,-79 89,-109 37,-30 82,-53 133,-69 51,-16 107,-24 167,-24 74,0 148,12 222,35 74,23 143,55 207,95l-110 166c-59,-38 -114,-65 -166,-81 -51,-17 -103,-25 -155,-25 -48,0 -88,9 -121,28 -32,18 -49,48 -49,90 0,36 16,62 47,78 31,16 87,34 167,54 74,18 138,37 190,55 53,19 96,40 130,64 34,24 58,52 74,83 15,32 23,69 23,113 0,51 -11,97 -31,138 -21,41 -50,76 -87,105 -37,29 -83,51 -137,66 -54,15 -113,23 -178,23z"/>
    <path class="fil1" d="M41418 25041c-81,0 -152,-19 -213,-55 -61,-37 -109,-86 -144,-149l0 609 -267 0 0 -1472 233 0 0 180c39,-61 89,-110 150,-145 61,-35 132,-53 211,-53 71,0 136,14 196,43 60,29 111,67 155,116 43,49 77,106 101,172 25,66 37,135 37,208 0,76 -11,148 -34,214 -22,67 -54,125 -94,174 -41,49 -90,88 -146,116 -57,28 -118,42 -185,42zm-87 -228l0 0c40,0 76,-9 110,-26 34,-17 63,-41 87,-70 24,-29 43,-63 56,-102 13,-38 20,-78 20,-120 0,-44 -7,-84 -22,-122 -15,-38 -35,-71 -61,-99 -26,-28 -56,-50 -92,-66 -35,-16 -73,-24 -114,-24 -26,0 -52,4 -78,13 -27,8 -51,21 -74,37 -23,16 -43,34 -61,56 -18,21 -31,44 -41,70l0 245c24,60 61,110 110,149 49,39 102,59 160,59z"/>
    <path class="fil1" d="M42541 25041c-83,0 -159,-15 -227,-43 -68,-29 -126,-68 -174,-117 -47,-49 -84,-107 -110,-172 -26,-65 -39,-134 -39,-206 0,-74 13,-144 38,-210 25,-66 62,-124 110,-174 47,-50 106,-90 174,-119 68,-29 145,-44 230,-44 85,0 162,15 229,44 67,29 124,69 171,118 47,49 83,106 108,172 25,65 37,133 37,203 0,18 0,34 -1,50 -1,16 -2,30 -5,40l-808 0c4,42 14,78 30,110 16,32 37,59 62,82 25,23 54,40 86,52 32,12 65,18 99,18 54,0 104,-13 151,-39 47,-26 79,-60 97,-103l229 64c-38,80 -100,146 -184,197 -85,51 -186,77 -303,77zm272 -632l0 0c-7,-78 -36,-141 -87,-188 -51,-47 -113,-71 -187,-71 -36,0 -69,6 -100,19 -32,12 -59,30 -83,53 -24,22 -44,50 -59,82 -15,32 -24,67 -27,105l543 0z"/>
    <path class="fil1" d="M43188 24497c0,-73 12,-142 38,-207 25,-66 61,-123 109,-172 48,-49 106,-89 174,-118 68,-29 144,-44 229,-44 115,0 212,25 292,74 81,49 141,114 181,194l-261 80c-23,-39 -53,-69 -90,-89 -37,-21 -79,-31 -124,-31 -38,0 -74,7 -108,23 -33,15 -62,36 -86,64 -25,27 -44,60 -58,99 -14,38 -21,81 -21,127 0,47 7,90 22,128 14,39 34,72 59,100 24,28 53,50 86,65 34,15 69,23 106,23 48,0 92,-12 133,-36 40,-24 69,-53 85,-88l261 80c-36,80 -95,145 -178,196 -82,50 -181,76 -297,76 -85,0 -161,-15 -229,-44 -68,-29 -126,-69 -174,-119 -48,-50 -85,-108 -110,-174 -26,-66 -39,-135 -39,-207z"/>
    <path class="fil1" d="M45005 24967c-36,16 -80,32 -133,48 -52,16 -107,24 -164,24 -38,0 -73,-5 -105,-14 -33,-10 -61,-25 -86,-45 -25,-21 -44,-47 -59,-80 -14,-33 -22,-72 -22,-119l0 -601 -135 0 0 -206 135 0 0 -340 268 0 0 340 221 0 0 206 -221 0 0 511c0,37 10,64 30,79 19,15 43,23 71,23 28,0 55,-5 82,-14 27,-9 48,-17 64,-24l54 212z"/>
    <path class="fil1" d="M45138 23828l0 -265 268 0 0 265 -268 0zm0 1193l0 0 0 -1047 268 0 0 1047 -268 0z"/>
    <polygon class="fil1" points="45920,25021 45535,23974 45811,23974 46076,24803 46343,23974 46594,23974 46210,25021 "/>
    <path class="fil1" d="M47213 25041c-84,0 -160,-15 -228,-43 -67,-29 -125,-68 -173,-117 -48,-49 -85,-107 -111,-172 -26,-65 -39,-134 -39,-206 0,-74 13,-144 38,-210 25,-66 62,-124 110,-174 48,-50 106,-90 174,-119 69,-29 146,-44 231,-44 85,0 161,15 228,44 67,29 125,69 172,118 47,49 83,106 107,172 25,65 37,133 37,203 0,18 0,34 -1,50 0,16 -2,30 -5,40l-807 0c4,42 14,78 29,110 16,32 37,59 62,82 26,23 54,40 86,52 32,12 65,18 100,18 53,0 103,-13 150,-39 48,-26 80,-60 97,-103l230 64c-39,80 -101,146 -185,197 -84,51 -185,77 -302,77zm271 -632l0 0c-7,-78 -35,-141 -87,-188 -51,-47 -113,-71 -186,-71 -36,0 -70,6 -101,19 -31,12 -59,30 -83,53 -24,22 -43,50 -59,82 -15,32 -24,67 -26,105l542 0z"/>
    <path class="fil1" d="M49273 23974c-9,-9 -26,-22 -51,-38 -24,-16 -54,-32 -89,-47 -36,-15 -74,-28 -115,-39 -41,-10 -83,-16 -126,-16 -75,0 -132,14 -169,42 -37,28 -56,67 -56,118 0,29 7,54 21,73 14,19 34,36 61,51 26,15 60,28 100,40 41,12 88,24 141,38 69,18 132,38 189,60 56,21 104,48 143,80 39,32 70,70 91,114 21,45 32,100 32,165 0,76 -14,141 -43,195 -29,54 -67,98 -115,131 -48,33 -103,58 -167,73 -64,15 -131,23 -200,23 -106,0 -211,-16 -315,-48 -104,-32 -197,-77 -279,-136l122 -238c12,12 33,28 64,47 32,20 69,39 111,58 43,19 90,36 142,49 52,13 105,20 159,20 152,0 228,-49 228,-146 0,-32 -9,-58 -26,-80 -18,-21 -42,-40 -74,-56 -32,-16 -71,-30 -116,-44 -45,-13 -95,-27 -151,-42 -68,-18 -127,-38 -177,-60 -50,-22 -91,-48 -125,-77 -33,-30 -58,-64 -74,-104 -17,-40 -25,-87 -25,-142 0,-72 13,-136 40,-192 26,-56 63,-102 110,-140 47,-37 102,-65 165,-85 62,-19 130,-28 201,-28 100,0 192,15 276,46 83,32 156,69 219,111l-122 224z"/>
    <path class="fil1" d="M50227 24967c-36,16 -80,32 -133,48 -52,16 -107,24 -164,24 -38,0 -73,-5 -105,-14 -33,-10 -61,-25 -86,-45 -25,-21 -44,-47 -59,-80 -14,-33 -22,-72 -22,-119l0 -601 -135 0 0 -206 135 0 0 -340 268 0 0 340 221 0 0 206 -221 0 0 511c0,37 10,64 29,79 20,15 44,23 72,23 28,0 55,-5 82,-14 27,-9 48,-17 64,-24l54 212z"/>
    <path class="fil1" d="M50680 25041c-108,0 -190,-35 -246,-104 -56,-69 -84,-172 -84,-308l0 -655 268 0 0 597c0,161 58,242 173,242 53,0 104,-16 153,-47 48,-31 88,-79 119,-143l0 -649 267 0 0 739c0,28 5,48 16,60 10,12 29,19 56,20l0 228c-28,5 -53,9 -74,11 -21,2 -40,3 -56,3 -48,0 -86,-11 -113,-33 -27,-22 -44,-52 -51,-91l-6 -86c-47,72 -108,126 -180,162 -73,36 -153,54 -242,54z"/>
    <path class="fil1" d="M52034 25041c-72,0 -138,-14 -199,-42 -60,-28 -112,-67 -156,-116 -44,-49 -78,-107 -103,-173 -24,-66 -37,-137 -37,-213 0,-76 12,-146 35,-211 23,-66 56,-123 97,-172 41,-49 90,-88 147,-116 58,-28 120,-42 188,-42 76,0 145,19 206,56 62,37 110,86 145,146l0 -595 267 0 0 1150c0,28 6,48 16,60 11,12 30,19 56,20l0 228c-50,9 -93,14 -128,14 -49,-2 -87,-13 -114,-34 -28,-21 -44,-51 -51,-90l-6 -72c-39,67 -91,117 -156,151 -65,34 -134,51 -207,51zm70 -228l0 0c25,0 51,-4 78,-13 26,-9 51,-21 73,-37 23,-16 44,-35 62,-56 19,-21 33,-44 42,-70l0 -249c-23,-59 -59,-108 -111,-146 -51,-39 -104,-58 -160,-58 -40,0 -77,8 -111,26 -34,17 -63,41 -87,71 -24,30 -42,64 -56,103 -13,38 -20,78 -20,119 0,44 8,85 22,122 15,38 35,70 61,98 26,28 57,50 92,66 35,16 73,24 115,24z"/>
    <path class="fil1" d="M53382 25041c-84,0 -159,-15 -227,-43 -68,-29 -126,-68 -174,-117 -48,-49 -84,-107 -110,-172 -26,-65 -39,-134 -39,-206 0,-74 12,-144 38,-210 25,-66 61,-124 109,-174 48,-50 106,-90 175,-119 68,-29 145,-44 230,-44 85,0 161,15 229,44 67,29 124,69 171,118 47,49 83,106 108,172 25,65 37,133 37,203 0,18 -1,34 -1,50 -1,16 -3,30 -5,40l-808 0c4,42 14,78 30,110 16,32 36,59 62,82 25,23 54,40 85,52 32,12 66,18 100,18 53,0 104,-13 151,-39 47,-26 79,-60 97,-103l229 64c-39,80 -100,146 -185,197 -84,51 -185,77 -302,77zm272 -632l0 0c-7,-78 -36,-141 -87,-188 -51,-47 -114,-71 -187,-71 -36,0 -69,6 -100,19 -32,12 -59,30 -83,53 -24,22 -44,50 -59,82 -15,32 -24,67 -27,105l543 0z"/>
    <path class="fil1" d="M55064 25021l-268 0 0 -587c0,-84 -14,-146 -43,-184 -30,-39 -70,-58 -122,-58 -27,0 -54,5 -82,16 -28,10 -54,25 -79,45 -24,19 -47,42 -67,69 -19,26 -34,56 -43,87l0 612 -268 0 0 -1047 242 0 0 194c38,-67 94,-119 167,-156 73,-37 156,-56 248,-56 65,0 118,12 159,36 41,24 73,55 96,94 22,39 38,82 47,132 8,49 13,99 13,150l0 653z"/>
    <path class="fil1" d="M55917 24967c-35,16 -80,32 -132,48 -53,16 -108,24 -165,24 -37,0 -72,-5 -104,-14 -33,-10 -62,-25 -86,-45 -25,-21 -44,-47 -59,-80 -15,-33 -22,-72 -22,-119l0 -601 -136 0 0 -206 136 0 0 -340 267 0 0 340 222 0 0 206 -222 0 0 511c0,37 10,64 30,79 20,15 44,23 72,23 28,0 55,-5 82,-14 26,-9 48,-17 64,-24l53 212z"/>
    <path class="fil1" d="M56596 25021l0 -719 -136 0 0 -206 136 0 0 -130c0,-130 31,-234 94,-310 64,-75 148,-113 255,-113 85,0 171,20 257,61l-54 202c-20,-10 -43,-19 -71,-27 -27,-7 -52,-11 -74,-11 -94,0 -140,63 -140,188l0 140 255 0 0 206 -255 0 0 719 -267 0z"/>
    <path class="fil1" d="M57910 24206c-81,1 -154,17 -217,47 -64,30 -110,75 -138,135l0 633 -267 0 0 -1047 245 0 0 224c36,-72 83,-130 141,-174 58,-44 118,-66 182,-66 15,0 26,0 33,1 7,1 14,2 21,3l0 244z"/>
    <path class="fil1" d="M58516 25041c-85,0 -161,-15 -229,-44 -68,-29 -125,-69 -172,-119 -48,-50 -84,-108 -109,-173 -25,-65 -38,-134 -38,-206 0,-73 13,-142 38,-207 25,-66 61,-123 109,-173 47,-50 104,-90 172,-119 68,-29 144,-44 229,-44 86,0 162,15 229,44 67,29 124,69 171,119 48,50 84,107 109,173 25,65 38,134 38,207 0,72 -13,141 -38,206 -25,65 -61,123 -108,173 -46,50 -103,90 -171,119 -68,29 -144,44 -230,44zm-273 -542l0 0c0,47 7,89 21,127 14,38 33,71 58,99 25,28 53,50 87,65 33,15 69,23 107,23 39,0 75,-8 108,-23 33,-15 62,-37 87,-65 24,-28 44,-61 58,-100 14,-38 21,-81 21,-128 0,-45 -7,-87 -21,-125 -14,-39 -34,-72 -58,-100 -25,-28 -54,-50 -87,-65 -33,-16 -69,-23 -108,-23 -38,0 -74,8 -107,24 -34,16 -62,38 -87,66 -25,28 -44,61 -58,100 -14,38 -21,80 -21,125z"/>
    <path class="fil1" d="M60862 25021l-267 0 0 -587c0,-84 -15,-146 -44,-184 -29,-39 -69,-58 -120,-58 -52,0 -101,20 -147,61 -47,40 -80,93 -100,159l0 609 -267 0 0 -587c0,-84 -15,-146 -43,-184 -29,-39 -68,-58 -119,-58 -52,0 -101,20 -148,60 -48,40 -81,92 -101,157l0 612 -267 0 0 -1047 241 0 0 194c38,-68 91,-120 158,-157 67,-37 144,-55 231,-55 88,0 155,21 202,64 47,43 78,95 93,158 43,-72 96,-127 162,-165 65,-38 139,-57 223,-57 64,0 116,12 158,36 41,24 73,55 95,94 23,39 38,82 47,132 9,49 13,99 13,150l0 653z"/>
    <polygon class="fil1" points="40767,27814 40767,26256 41142,26256 41142,26469 41014,26469 41014,27600 41142,27600 41142,27814 "/>
    <polygon class="fil2" points="41920,26316 42269,26999 42624,26316 42921,26316 42407,27238 42407,27734 42133,27734 42133,27234 41621,26316 "/>
    <path class="fil2" d="M43572 27744c-100,0 -191,-20 -274,-61 -82,-41 -153,-95 -212,-162 -59,-67 -105,-144 -137,-231 -32,-86 -48,-175 -48,-265 0,-95 17,-185 51,-272 34,-86 81,-163 142,-230 60,-66 132,-119 214,-158 83,-40 173,-59 270,-59 99,0 190,21 273,63 82,41 153,96 211,164 59,68 104,146 136,232 32,87 48,175 48,264 0,94 -17,185 -51,270 -34,86 -81,162 -141,228 -59,66 -131,119 -213,158 -83,39 -172,59 -269,59zm-393 -719l0 0c0,61 9,120 27,178 18,57 44,107 77,151 34,44 76,80 125,106 49,27 105,40 168,40 64,0 120,-13 168,-41 49,-27 90,-63 123,-109 33,-45 58,-96 76,-152 17,-57 26,-115 26,-173 0,-61 -10,-121 -28,-178 -19,-57 -45,-108 -79,-152 -34,-44 -75,-79 -124,-105 -48,-26 -103,-39 -164,-39 -64,0 -120,14 -169,41 -48,28 -90,64 -124,108 -33,45 -59,95 -76,152 -18,57 -26,114 -26,173z"/>
    <path class="fil2" d="M45056 27500c65,0 120,-13 164,-40 45,-26 81,-61 108,-104 27,-42 46,-91 58,-146 11,-56 17,-113 17,-171l0 -723 273 0 0 723c0,97 -12,188 -35,273 -23,86 -60,160 -110,224 -49,64 -114,115 -192,152 -79,37 -172,56 -281,56 -113,0 -209,-20 -289,-59 -79,-39 -143,-91 -192,-156 -49,-64 -85,-139 -107,-225 -22,-85 -33,-173 -33,-265l0 -723 276 0 0 723c0,60 5,117 17,173 11,55 30,104 57,146 28,43 63,77 107,103 44,26 98,39 162,39z"/>
    <path class="fil2" d="M45951 27734l0 -1418 627 0c65,0 125,13 180,41 55,27 103,63 143,107 40,45 71,96 93,152 23,57 34,114 34,171 0,92 -23,175 -68,251 -46,75 -109,129 -187,163l333 533 -311 0 -297 -475 -272 0 0 475 -275 0zm275 -717l0 0 346 0c25,0 48,-6 70,-18 22,-12 41,-28 57,-49 16,-21 29,-45 38,-73 9,-28 14,-58 14,-90 0,-33 -5,-64 -16,-92 -11,-28 -25,-52 -43,-73 -18,-20 -38,-36 -62,-48 -23,-11 -46,-17 -70,-17l-334 0 0 460z"/>
    <path class="fil2" d="M48618 26687c-9,-9 -26,-22 -51,-38 -24,-16 -54,-31 -90,-47 -35,-15 -73,-28 -114,-39 -41,-10 -83,-16 -126,-16 -76,0 -132,14 -169,42 -38,28 -56,68 -56,118 0,29 7,54 21,73 14,19 34,36 60,51 27,15 61,28 101,40 41,12 88,25 141,38 69,19 132,39 188,60 57,21 105,48 144,80 39,32 69,70 91,115 21,44 32,99 32,164 0,76 -15,141 -43,195 -29,54 -67,98 -115,131 -48,33 -104,58 -168,73 -63,15 -130,23 -199,23 -106,0 -211,-16 -315,-48 -104,-32 -197,-77 -279,-136l121 -238c12,12 34,28 65,47 31,20 68,39 111,58 42,20 90,36 141,49 52,14 105,20 160,20 152,0 227,-48 227,-146 0,-32 -8,-58 -26,-80 -17,-21 -41,-40 -73,-55 -32,-16 -71,-31 -116,-44 -45,-14 -96,-28 -152,-42 -67,-19 -126,-39 -176,-61 -50,-22 -92,-48 -125,-77 -33,-30 -58,-64 -75,-104 -16,-40 -25,-87 -25,-142 0,-72 14,-136 40,-192 27,-56 64,-102 111,-140 47,-37 102,-65 165,-84 62,-20 129,-29 201,-29 100,0 192,15 275,47 84,31 157,68 220,110l-122 224z"/>
    <path class="fil2" d="M48915 27015c0,-87 16,-172 46,-257 31,-85 75,-160 133,-227 58,-66 128,-120 212,-161 84,-42 180,-62 287,-62 127,0 236,28 329,86 92,57 160,131 204,223l-211 146c-16,-40 -37,-73 -62,-101 -26,-27 -53,-49 -83,-65 -30,-16 -61,-27 -93,-35 -32,-7 -62,-11 -92,-11 -65,0 -122,14 -171,42 -49,28 -90,65 -123,109 -32,45 -57,95 -74,152 -16,57 -24,113 -24,169 0,62 9,123 28,181 20,57 47,108 82,152 35,44 78,80 127,106 49,27 103,40 161,40 31,0 62,-4 94,-12 32,-8 63,-20 93,-38 30,-17 57,-39 83,-67 25,-27 46,-60 62,-99l225 130c-21,54 -52,100 -93,141 -40,41 -87,75 -138,103 -52,28 -107,49 -164,64 -57,15 -114,22 -170,22 -98,0 -188,-21 -270,-64 -82,-43 -152,-98 -211,-167 -59,-68 -105,-146 -138,-234 -32,-87 -49,-176 -49,-266z"/>
    <polygon class="fil2" points="51526,26316 51526,27734 51253,27734 51253,27129 50611,27129 50611,27734 50335,27734 50335,26316 50611,26316 50611,26889 51253,26889 51253,26316 "/>
    <path class="fil2" d="M52410 27744c-100,0 -191,-20 -273,-61 -83,-41 -154,-95 -213,-162 -59,-67 -104,-144 -136,-231 -32,-86 -48,-175 -48,-265 0,-95 17,-185 51,-272 33,-86 81,-163 141,-230 61,-66 132,-119 215,-158 82,-40 172,-59 269,-59 100,0 191,21 273,63 83,41 153,96 212,164 58,68 103,146 135,232 32,87 48,175 48,264 0,94 -17,185 -51,270 -34,86 -81,162 -140,228 -60,66 -131,119 -214,158 -82,39 -172,59 -269,59zm-393 -719l0 0c0,61 9,120 27,178 18,57 44,107 78,151 34,44 75,80 124,106 50,27 105,40 168,40 64,0 120,-13 168,-41 49,-27 90,-63 123,-109 33,-45 59,-96 76,-152 17,-57 26,-115 26,-173 0,-61 -9,-121 -28,-178 -19,-57 -45,-108 -79,-152 -34,-44 -75,-79 -124,-105 -48,-26 -103,-39 -164,-39 -64,0 -120,14 -169,41 -48,28 -89,64 -123,108 -34,45 -60,95 -77,152 -17,57 -26,114 -26,173z"/>
    <path class="fil2" d="M53886 27744c-100,0 -191,-20 -273,-61 -83,-41 -154,-95 -213,-162 -59,-67 -104,-144 -136,-231 -32,-86 -48,-175 -48,-265 0,-95 17,-185 51,-272 34,-86 81,-163 141,-230 61,-66 132,-119 215,-158 82,-40 172,-59 269,-59 100,0 191,21 273,63 83,41 153,96 212,164 58,68 103,146 135,232 32,87 48,175 48,264 0,94 -17,185 -51,270 -34,86 -80,162 -140,228 -60,66 -131,119 -214,158 -82,39 -172,59 -269,59zm-393 -719l0 0c0,61 9,120 27,178 18,57 44,107 78,151 34,44 75,80 124,106 50,27 105,40 168,40 64,0 120,-13 168,-41 49,-27 90,-63 123,-109 33,-45 59,-96 76,-152 17,-57 26,-115 26,-173 0,-61 -9,-121 -28,-178 -19,-57 -45,-108 -79,-152 -34,-44 -75,-79 -124,-105 -48,-26 -103,-39 -164,-39 -64,0 -120,14 -169,41 -48,28 -89,64 -123,108 -34,45 -60,95 -77,152 -17,57 -26,114 -26,173z"/>
    <polygon class="fil2" points="54774,27734 54774,26316 55049,26316 55049,27492 55771,27492 55771,27734 "/>
    <polygon class="fil1" points="56307,27814 56307,27600 56433,27600 56433,26469 56307,26469 56307,26256 56680,26256 56680,27814 "/>
   </g>
   <circle class="fil3 str0" cx="25201" cy="10723" r="8532"/>
   <circle class="fil3 str0" cx="48292" cy="10723" r="8532"/>
   <g>
    <path class="fil4" d="M24389 5877c262,69 524,137 786,206 0,2931 0,5862 0,8793 -418,-111 -825,-281 -1221,-507 -604,-344 -1487,-1041 -1936,-1580 -381,-459 -546,-914 -694,-1482 -58,-221 -107,-457 -147,-711 -310,-1 -569,-107 -758,-356 -260,-341 -470,-1196 -167,-1559 98,-117 245,-168 447,-145 615,-702 1230,-1404 1845,-2106 615,-185 1230,-369 1845,-553z"/>
    <path class="fil5" d="M25952 5559c-262,68 -515,455 -777,524 0,2931 0,5862 0,8793 418,-111 825,-281 1221,-507 604,-344 1488,-1041 1936,-1580 381,-459 546,-914 694,-1482 58,-221 107,-457 147,-711 310,-1 569,-107 759,-356 259,-341 469,-1196 166,-1559 -98,-117 -245,-168 -447,-145 -615,-702 -584,-1807 -1199,-2509 -614,-184 -1885,-284 -2500,-468z"/>
    <path class="fil6" d="M25175 6514c0,-656 0,-1742 0,-2397 666,-23 1192,23 1628,123 1102,251 2053,1022 2539,2011 285,579 428,1255 387,2005 -25,336 -57,624 -96,875 -48,310 -106,564 -171,780 -54,-654 -169,-1290 -374,-1899 -119,-355 -510,-1449 -903,-1531 -64,-13 -129,-11 -196,9 -200,124 -407,211 -622,267 -313,81 -833,163 -1082,-102 -196,-209 -22,-247 76,-424 49,-89 90,-198 121,-326 -244,155 -492,296 -746,410 -183,82 -369,150 -561,199z"/>
    <path class="fil7" d="M20540 19249c-249,-706 -499,-1411 -749,-2116 392,-447 886,-851 1484,-1210 587,-352 1280,-508 1987,-885l921 4417 -3643 -206z"/>
    <path class="fil7" d="M29810 19249c249,-706 499,-1411 749,-2116 -392,-447 -886,-851 -1484,-1210 -587,-352 -1280,-508 -1987,-885l-921 4417 3643 -206z"/>
    <polygon class="fil8" points="25175,19342 25175,16964 24333,17854 24778,18500 24745,19127 "/>
    <polygon class="fil8" points="25175,19342 25175,16964 26017,17854 25573,18500 25605,19127 "/>
    <polygon class="fil5" points="23235,14548 25175,16926 25175,14876 23197,13862 "/>
    <polygon class="fil9" points="27115,14548 25175,16926 25175,14876 27153,13862 "/>
    <polygon class="fil5" points="27115,14548 25175,16926 25175,14876 27153,13862 "/>
    <polygon class="fil10" points="25175,14876 27153,13862 24205,15738 23235,14548 23197,13862 "/>
    <polygon class="fil11" points="21655,17245 22619,15499 21313,17367 22722,18046 22137,18500 23069,17919 "/>
    <polygon class="fil11" points="28695,17245 27731,15499 29037,17367 27628,18046 28213,18500 27281,17919 "/>
    <polygon class="fil9" points="25175,16964 23940,18139 23262,15038 23235,14548 25175,16919 "/>
    <polygon class="fil12" points="25175,16964 26410,18139 27088,15038 27115,14548 25175,16919 "/>
    <polygon class="fil9" points="24778,18500 24745,19127 24183,19455 23940,18139 25175,16964 24333,17854 "/>
    <polygon class="fil9" points="25573,18500 25605,19127 26167,19455 26410,18139 25175,16964 26017,17854 "/>
    <path class="fil13" d="M25175 6514c0,-656 0,-1742 0,-2397 -655,18 -1171,97 -1601,223 -1082,319 -2017,1149 -2495,2168 -280,596 -420,1281 -380,2028 24,335 56,621 94,870 47,307 105,557 168,769 183,-1085 488,-2030 994,-2739 244,-341 534,-628 880,-849 207,-133 832,-459 1075,-356 166,71 -28,239 -98,298 -95,79 -156,117 -150,156 24,142 423,128 807,49 311,-63 609,-177 706,-220z"/>
    <g>
     <path class="fil14" d="M29401 10870c7,-126 -7,-250 -13,-375 -6,-134 -19,-268 -30,-402 -17,-186 -35,-372 -52,-558 -12,-126 -24,-252 -37,-379 -7,-65 -15,-129 -23,-194 0,-67 -11,-133 -19,-200 -10,-79 -17,-159 -26,-238 -10,-88 -20,-177 -30,-265 -9,-80 -18,-159 -25,-239 -2,-20 -6,-40 -10,-60 -4,-18 4,-29 24,-29 15,0 30,-1 44,-1 187,0 374,2 560,0 54,-1 103,9 151,32 16,7 31,23 52,15 16,22 42,30 65,43 233,132 403,318 488,576 19,59 29,119 29,181 -1,496 0,991 -1,1487 0,145 -30,282 -108,406 -93,148 -231,237 -393,290 -205,67 -414,79 -627,58 -21,-2 -31,-9 -25,-31 9,-39 8,-78 6,-117z"/>
     <path class="fil15" d="M28764 12318c-103,43 -207,86 -310,129 -554,227 -1121,416 -1707,542 -221,47 -444,85 -670,96 -37,2 -64,12 -86,48 -33,56 -89,89 -147,118 -96,48 -199,74 -305,90 -62,10 -126,16 -189,24 -100,0 -201,2 -302,0 -167,-5 -330,-31 -488,-89 -185,-67 -290,-202 -334,-389 -31,-132 4,-249 100,-343 110,-109 245,-177 391,-222 118,-38 240,-56 364,-38 11,2 22,1 34,1 45,20 95,17 142,23 170,21 336,54 493,125 103,47 198,107 255,210 10,18 23,20 42,18 113,-14 226,-24 339,-41 303,-44 604,-101 901,-176 445,-112 879,-255 1291,-460 172,-86 339,-183 496,-296 13,-9 29,-16 38,-31 124,-82 231,-183 335,-288 18,-17 34,-35 50,-53 87,-97 222,-112 328,-36 64,46 107,110 141,179 15,32 7,63 -7,92 -19,41 -49,75 -80,107 -72,72 -153,132 -237,188 -244,162 -504,293 -768,417 -37,18 -76,30 -110,55z"/>
     <path class="fil15" d="M22139 6627c-59,42 -100,101 -145,155 -155,182 -296,375 -424,577 -148,234 -281,475 -384,733 -11,27 -24,41 -57,41 -95,-2 -190,-1 -286,-1 -39,-1 -40,-2 -32,-42 36,-180 94,-353 154,-525 97,-275 216,-541 353,-799 138,-261 297,-509 477,-743 87,-112 181,-218 276,-324 90,-102 190,-196 292,-286 196,-173 408,-325 635,-457 254,-148 524,-261 804,-348 159,-49 320,-86 484,-113 126,-21 253,-37 382,-47 175,-14 350,-22 525,-21 125,8 250,11 374,24 148,15 295,35 442,62 209,37 415,89 617,155 153,50 301,110 448,176 201,91 393,200 577,321 131,86 257,180 377,281 124,105 247,212 359,330 173,181 333,373 478,577 182,255 339,524 472,807 68,143 128,290 179,441 15,46 9,54 -40,59 -124,12 -248,23 -373,35 -24,2 -47,10 -71,11 -29,1 -44,-9 -55,-36 -24,-60 -50,-120 -80,-179 -130,-257 -286,-498 -468,-723 -126,-156 -262,-302 -409,-438 -176,-161 -365,-307 -569,-433 -126,-78 -254,-151 -388,-214 -290,-136 -590,-239 -904,-303 -121,-25 -242,-47 -363,-63 -98,-12 -196,-22 -295,-27 -103,-6 -205,-12 -308,-9 -21,17 -46,14 -70,14 -226,-4 -451,19 -674,58 -509,87 -984,267 -1421,543 -315,198 -598,434 -853,705 -11,11 -24,18 -36,26l0 0z"/>
    </g>
   </g>
   <path class="fil16" d="M25201 19061c-4605,0 -8339,-3733 -8339,-8338 0,-4605 3734,-8339 8339,-8339 4605,0 8338,3734 8338,8339 0,4605 -3733,8338 -8338,8338zm0 2384c-5922,0 -10723,-4800 -10723,-10722 0,-5922 4801,-10723 10723,-10723 5922,0 10722,4801 10722,10723 0,5922 -4800,10722 -10722,10722z"/>
   <path class="fil17 str0" d="M19321 6828c-196,-186 -408,-181 -655,-188 -5997,-180 -11995,-360 -17992,-539 -191,7 -337,53 -446,133 -120,89 -194,220 -228,386 0,3130 0,6260 0,9390 13,188 71,328 165,428 110,118 269,181 467,204 767,-71 1534,-141 2301,-211 5,716 10,1432 14,2148 758,-791 1516,-1582 2274,-2372 4557,-417 9114,-833 13671,-1250 177,-14 321,-71 429,-177 100,-98 169,-239 203,-426 0,-2304 0,-4607 0,-6911 0,-230 -23,-444 -203,-615z"/>
   <g>
    <polygon class="fil18" points="2593,10352 2405,10352 2405,9838 1876,9838 1876,10352 1688,10352 1688,9212 1876,9212 1876,9678 2405,9678 2405,9212 2593,9212 "/>
    <path class="fil18" d="M2865 9261c0,-33 9,-58 27,-76 18,-18 44,-27 77,-27 33,0 58,9 76,27 18,18 27,43 27,76 0,31 -9,55 -27,73 -18,18 -43,27 -76,27 -33,0 -59,-9 -77,-27 -18,-18 -27,-42 -27,-73zm195 1091l0 0 -184 0 0 -863 184 0 0 863z"/>
    <path class="fil18" d="M3296 10255c0,-39 11,-68 31,-88 20,-20 49,-30 87,-30 37,0 66,10 86,31 20,21 29,50 29,87 0,37 -10,66 -30,88 -20,21 -48,32 -85,32 -37,0 -66,-10 -87,-31 -20,-21 -31,-51 -31,-89zm187 -249l0 0 -136 0 -41 -794 217 0 -40 794z"/>
    <polygon class="fil18" points="4204,10352 4204,9212 4392,9212 4392,10352 "/>
    <path class="fil18" d="M4823 9212l12 17c-28,108 -74,233 -139,373l-133 0c36,-150 62,-280 79,-390l181 0z"/>
    <path class="fil18" d="M5717 10352l-185 0 0 -532c0,-66 -13,-115 -38,-148 -25,-32 -64,-48 -118,-48 -71,0 -123,23 -156,69 -34,46 -50,122 -50,229l0 430 -185 0 0 -863 145 0 26 113 9 0c24,-41 59,-72 105,-95 46,-22 96,-33 151,-33 133,0 222,45 265,135l13 0c25,-42 62,-75 108,-99 47,-24 100,-36 160,-36 104,0 179,26 227,78 47,52 71,131 71,238l0 562 -185 0 0 -532c0,-66 -12,-115 -38,-148 -25,-32 -65,-48 -118,-48 -72,0 -124,22 -157,66 -34,45 -50,113 -50,205l0 457z"/>
    <path class="fil18" d="M6808 9489l201 0 176 490c27,69 45,135 54,196l6 0c5,-28 13,-63 26,-104 12,-41 79,-235 199,-582l199 0 -371 978c-67,180 -180,269 -337,269 -41,0 -81,-4 -120,-13l0 -145c28,6 60,9 95,9 89,0 152,-51 188,-154l32 -81 -348 -863z"/>
    <path class="fil18" d="M8571 9919c0,141 -36,251 -109,330 -73,79 -174,119 -304,119 -81,0 -152,-18 -215,-55 -62,-36 -110,-88 -143,-157 -34,-68 -51,-147 -51,-237 0,-140 37,-249 109,-327 72,-79 174,-118 305,-118 126,0 225,40 298,120 74,81 110,189 110,325zm-632 0l0 0c0,200 74,299 223,299 146,0 219,-99 219,-299 0,-197 -73,-295 -221,-295 -77,0 -134,25 -168,76 -35,51 -53,124 -53,219z"/>
    <path class="fil18" d="M9395 10352l-26 -113 -9 0c-26,40 -62,72 -109,95 -48,22 -102,34 -163,34 -105,0 -183,-26 -235,-78 -52,-52 -78,-131 -78,-237l0 -564 186 0 0 532c0,67 14,116 41,149 27,33 70,50 128,50 77,0 134,-23 171,-69 36,-46 54,-124 54,-232l0 -430 186 0 0 863 -146 0z"/>
    <path class="fil18" d="M10244 9474c37,0 67,2 91,7l-18 171c-26,-6 -53,-9 -81,-9 -74,0 -134,24 -180,72 -45,48 -68,110 -68,186l0 451 -185 0 0 -863 145 0 24 152 10 0c28,-51 66,-92 112,-122 46,-30 96,-45 150,-45z"/>
    <path class="fil18" d="M11293 10368c-135,0 -241,-39 -317,-118 -76,-78 -114,-186 -114,-323 0,-141 35,-252 106,-332 71,-81 168,-121 291,-121 115,0 205,34 272,103 66,70 99,165 99,286l0 99 -578 0c3,84 25,148 68,193 43,45 104,68 182,68 51,0 99,-5 143,-15 44,-9 92,-25 142,-48l0 149c-45,22 -90,37 -136,46 -46,8 -99,13 -158,13zm-34 -755l0 0c-58,0 -105,18 -141,55 -35,37 -56,91 -63,162l394 0c-1,-72 -18,-126 -52,-162 -33,-37 -79,-55 -138,-55z"/>
    <path class="fil18" d="M12038 10352l-330 -863 195 0 176 502c31,84 49,153 55,204l7 0c4,-37 23,-105 55,-204l176 -502 196 0 -331 863 -199 0z"/>
    <path class="fil18" d="M13243 10352l-37 -120 -6 0c-42,53 -84,88 -126,107 -43,19 -97,29 -163,29 -86,0 -152,-23 -200,-69 -48,-45 -72,-110 -72,-194 0,-89 33,-156 100,-201 66,-46 167,-70 303,-74l150 -5 0 -46c0,-55 -13,-97 -39,-124 -25,-27 -66,-41 -120,-41 -44,0 -87,7 -128,20 -41,13 -80,28 -118,46l-59 -131c47,-25 98,-43 154,-56 56,-13 109,-19 159,-19 110,0 194,24 250,71 56,48 84,124 84,226l0 581 -132 0zm-274 -125l0 0c67,0 120,-18 161,-55 40,-37 61,-90 61,-157l0 -75 -112 5c-87,3 -150,18 -189,43 -40,26 -59,65 -59,119 0,38 11,68 34,89 23,21 58,31 104,31z"/>
    <polygon class="fil18" points="13817,10352 13633,10352 13633,9138 13817,9138 "/>
    <path class="fil18" d="M14693 10352l-26 -113 -9 0c-26,40 -63,72 -110,95 -47,22 -101,34 -162,34 -105,0 -184,-26 -235,-78 -52,-52 -78,-131 -78,-237l0 -564 186 0 0 532c0,67 14,116 41,149 27,33 70,50 128,50 77,0 134,-23 170,-69 37,-46 55,-124 55,-232l0 -430 185 0 0 863 -145 0z"/>
    <path class="fil18" d="M15644 10352l-37 -120 -6 0c-42,53 -84,88 -126,107 -43,19 -97,29 -164,29 -85,0 -152,-23 -199,-69 -48,-45 -72,-110 -72,-194 0,-89 33,-156 99,-201 67,-46 168,-70 304,-74l150 -5 0 -46c0,-55 -13,-97 -39,-124 -26,-27 -66,-41 -120,-41 -45,0 -87,7 -128,20 -41,13 -80,28 -118,46l-59 -131c47,-25 98,-43 154,-56 56,-13 109,-19 159,-19 110,0 193,24 250,71 56,48 84,124 84,226l0 581 -132 0zm-275 -125l0 0c67,0 121,-18 162,-55 40,-37 61,-90 61,-157l0 -75 -112 5c-87,3 -150,18 -189,43 -40,26 -60,65 -60,119 0,38 12,68 35,89 23,21 57,31 103,31z"/>
    <path class="fil18" d="M16357 10220c45,0 90,-7 135,-21l0 138c-21,9 -47,16 -79,22 -32,6 -66,9 -100,9 -175,0 -262,-92 -262,-275l0 -465 -119 0 0 -81 127 -67 63 -183 114 0 0 192 247 0 0 139 -247 0 0 462c0,44 11,77 33,98 22,21 52,32 88,32z"/>
    <path class="fil18" d="M17435 9919c0,141 -36,251 -109,330 -73,79 -174,119 -304,119 -81,0 -152,-18 -215,-55 -62,-36 -110,-88 -143,-157 -34,-68 -51,-147 -51,-237 0,-140 37,-249 109,-327 72,-79 174,-118 305,-118 126,0 225,40 298,120 73,81 110,189 110,325zm-632 0l0 0c0,200 74,299 222,299 147,0 220,-99 220,-299 0,-197 -74,-295 -221,-295 -78,0 -134,25 -168,76 -35,51 -53,124 -53,219z"/>
    <path class="fil18" d="M18087 9474c37,0 68,2 92,7l-18 171c-26,-6 -53,-9 -81,-9 -74,0 -134,24 -180,72 -46,48 -69,110 -69,186l0 451 -184 0 0 -863 144 0 25 152 9 0c29,-51 67,-92 113,-122 46,-30 96,-45 149,-45z"/>
    <path class="fil18" d="M2104 11855l-212 0 0 724 -185 0 0 -724 -143 0 0 -86 143 -56 0 -56c0,-102 24,-178 72,-227 48,-49 122,-74 221,-74 65,0 129,11 191,32l-48 139c-46,-14 -89,-22 -131,-22 -41,0 -72,13 -91,39 -19,26 -29,64 -29,116l0 56 212 0 0 139z"/>
    <path class="fil18" d="M2692 11700c37,0 68,3 92,8l-18 171c-26,-6 -54,-9 -82,-9 -74,0 -133,24 -179,72 -46,47 -69,110 -69,186l0 451 -184 0 0 -863 144 0 25 152 9 0c29,-51 66,-92 113,-122 46,-30 96,-46 149,-46z"/>
    <path class="fil18" d="M3715 12146c0,141 -37,251 -109,330 -73,79 -174,119 -304,119 -81,0 -153,-19 -215,-55 -62,-36 -110,-89 -144,-157 -33,-68 -50,-147 -50,-237 0,-140 36,-249 108,-328 73,-78 174,-118 306,-118 125,0 225,41 298,121 73,80 110,189 110,325zm-632 0l0 0c0,199 74,299 222,299 147,0 220,-100 220,-299 0,-197 -74,-296 -222,-296 -77,0 -133,26 -168,77 -35,51 -52,124 -52,219z"/>
    <path class="fil18" d="M4658 12579l-185 0 0 -532c0,-66 -13,-115 -38,-148 -25,-32 -64,-49 -117,-49 -72,0 -124,23 -157,69 -33,46 -50,123 -50,230l0 430 -184 0 0 -863 144 0 26 113 9 0c24,-41 59,-73 105,-95 46,-22 96,-34 151,-34 134,0 222,46 265,136l13 0c26,-42 62,-76 108,-100 47,-24 100,-36 160,-36 104,0 180,26 227,78 47,52 71,132 71,238l0 563 -185 0 0 -532c0,-66 -12,-115 -38,-148 -25,-32 -64,-49 -118,-49 -71,0 -124,22 -157,67 -33,44 -50,113 -50,205l0 457z"/>
    <polygon class="fil18" points="6240,12832 5870,12832 5870,11438 6240,11438 6240,11576 6039,11576 6039,12694 6240,12694 "/>
    <path class="fil2" d="M6697 11716l201 0 177 489c26,70 44,136 53,197l6 0c5,-29 14,-63 26,-104 13,-41 79,-235 199,-582l200 0 -371 978c-68,179 -180,269 -338,269 -41,0 -80,-4 -119,-13l0 -145c28,6 59,9 95,9 89,0 151,-51 187,-154l33 -81 -349 -863z"/>
    <path class="fil2" d="M8461 12146c0,141 -37,251 -109,330 -73,79 -174,119 -304,119 -81,0 -153,-19 -215,-55 -63,-36 -110,-89 -144,-157 -33,-68 -50,-147 -50,-237 0,-140 36,-249 108,-328 72,-78 174,-118 306,-118 125,0 224,41 298,121 73,80 110,189 110,325zm-632 0l0 0c0,199 74,299 222,299 146,0 220,-100 220,-299 0,-197 -74,-296 -222,-296 -77,0 -133,26 -168,77 -35,51 -52,124 -52,219z"/>
    <path class="fil2" d="M9285 12579l-26 -113 -10 0c-25,40 -62,71 -109,94 -47,23 -101,35 -162,35 -105,0 -184,-26 -236,-78 -51,-52 -77,-131 -77,-237l0 -564 186 0 0 532c0,66 13,116 40,149 28,33 70,49 128,49 78,0 135,-23 171,-69 36,-46 55,-123 55,-231l0 -430 185 0 0 863 -145 0z"/>
    <path class="fil2" d="M10133 11700c37,0 68,3 92,8l-18 171c-26,-6 -54,-9 -82,-9 -74,0 -133,24 -179,72 -46,47 -69,110 -69,186l0 451 -184 0 0 -863 144 0 25 152 9 0c29,-51 66,-92 113,-122 46,-30 96,-46 149,-46z"/>
    <path class="fil2" d="M11386 12333c0,85 -30,149 -92,194 -62,45 -150,68 -265,68 -116,0 -209,-18 -279,-53l0 -158c102,47 197,70 285,70 113,0 170,-34 170,-102 0,-22 -6,-40 -19,-55 -12,-14 -33,-29 -62,-45 -28,-15 -68,-33 -120,-53 -100,-38 -167,-77 -203,-115 -35,-39 -53,-89 -53,-150 0,-74 30,-131 90,-172 60,-41 142,-62 245,-62 102,0 198,21 289,62l-59 138c-94,-38 -173,-58 -237,-58 -97,0 -146,28 -146,83 0,27 13,50 39,69 25,19 80,44 166,77 71,28 123,53 156,76 32,23 56,49 72,79 16,30 23,66 23,107z"/>
    <path class="fil2" d="M11936 12595c-132,0 -231,-38 -300,-115 -68,-76 -102,-185 -102,-328 0,-145 36,-256 107,-335 72,-78 175,-117 310,-117 91,0 174,17 247,51l-56 148c-78,-31 -142,-46 -193,-46 -150,0 -225,99 -225,298 0,96 19,169 56,218 37,48 92,73 164,73 83,0 160,-21 234,-61l0 160c-33,19 -69,33 -106,41 -37,8 -83,13 -136,13z"/>
    <path class="fil2" d="M13145 12579l-185 0 0 -531c0,-66 -13,-116 -40,-149 -27,-32 -70,-49 -129,-49 -77,0 -134,23 -170,69 -37,46 -55,124 -55,232l0 428 -184 0 0 -1214 184 0 0 308c0,50 -3,102 -9,159l11 0c26,-42 60,-74 105,-97 45,-23 97,-35 157,-35 210,0 315,106 315,316l0 563z"/>
    <path class="fil2" d="M14172 12146c0,141 -37,251 -109,330 -73,79 -174,119 -304,119 -81,0 -153,-19 -215,-55 -62,-36 -110,-89 -144,-157 -33,-68 -50,-147 -50,-237 0,-140 36,-249 108,-328 73,-78 174,-118 306,-118 125,0 225,41 298,121 73,80 110,189 110,325zm-632 0l0 0c0,199 74,299 222,299 147,0 220,-100 220,-299 0,-197 -74,-296 -221,-296 -78,0 -134,26 -169,77 -35,51 -52,124 -52,219z"/>
    <path class="fil2" d="M15154 12146c0,141 -37,251 -109,330 -73,79 -174,119 -304,119 -81,0 -153,-19 -215,-55 -63,-36 -110,-89 -144,-157 -33,-68 -50,-147 -50,-237 0,-140 36,-249 108,-328 72,-78 174,-118 306,-118 125,0 224,41 298,121 73,80 110,189 110,325zm-632 0l0 0c0,199 74,299 222,299 146,0 220,-100 220,-299 0,-197 -74,-296 -222,-296 -77,0 -133,26 -168,77 -35,51 -52,124 -52,219z"/>
    <polygon class="fil2" points="15550,12579 15366,12579 15366,11365 15550,11365 "/>
    <polygon class="fil18" points="16139,12694 16340,12694 16340,11576 16139,11576 16139,11438 16507,11438 16507,12832 16139,12832 "/>
    <path class="fil18" d="M17152 12482c0,-39 10,-68 30,-88 21,-20 50,-30 88,-30 37,0 65,10 85,31 20,21 30,50 30,87 0,37 -10,66 -30,87 -20,22 -49,33 -85,33 -38,0 -66,-11 -87,-32 -21,-20 -31,-50 -31,-88zm187 -249l0 0 -137 0 -41 -795 218 0 -40 795z"/>
   </g>
   <g>
    <path class="fil19" d="M47181 15614l2460 -1308c-339,69 -831,171 -1171,160 -678,-21 -807,-89 -1362,-378 -5,-3 -11,-6 -17,-9 -49,-24 -50,-24 -50,31 0,469 24,1013 23,1482 27,0 64,-2 81,4 10,4 20,9 36,18z"/>
    <path class="fil20" d="M44418 10797c-92,1248 -233,2456 -428,3618 -185,1107 -419,2174 -705,3197l264 117c11,-14 21,-28 32,-41 443,-566 986,-1013 1619,-1350 1142,-608 1374,-634 1864,-746 0,-480 0,-960 1,-1440 0,-41 -11,-64 -47,-84 -235,-135 -451,-296 -652,-479 -225,-205 -424,-431 -602,-677 -174,-241 -325,-496 -453,-763 -155,-322 -278,-655 -369,-1001 -33,-127 -65,-255 -88,-384 -2,-8 -6,-15 -10,-28 -17,18 -32,34 -46,50 -116,128 -261,116 -380,11z"/>
    <path class="fil20" d="M52654 10797c91,1248 232,2456 427,3618 185,1107 419,2174 705,3197l-264 117c-10,-14 -21,-28 -32,-41 -443,-566 -985,-1013 -1619,-1350 -1142,-608 -1374,-634 -1864,-746 0,-480 0,-960 -1,-1440 0,-41 11,-64 48,-84 235,-135 451,-296 651,-479 225,-205 424,-431 602,-677 174,-241 325,-496 454,-763 155,-322 277,-655 368,-1001 34,-127 65,-255 89,-384 1,-8 5,-15 10,-28 17,18 31,34 46,50 116,128 261,116 380,11z"/>
    <path class="fil21" d="M42734 19272c196,-574 472,-1106 847,-1584 443,-566 986,-1013 1619,-1350 1142,-608 1374,-634 1864,-746 205,-47 333,347 675,707 84,88 475,253 796,410l0 3524c-84,12 -176,17 -275,15 -2,16 -1,33 -14,46 -61,0 -123,0 -185,0 -322,0 -5792,345 -5327,-1022z"/>
    <path class="fil3" d="M54337 19272c-196,-574 -472,-1106 -847,-1584 -444,-566 -986,-1013 -1619,-1350 -1142,-608 -1375,-634 -1865,-746 -204,-47 -332,347 -675,707 -84,88 -474,253 -796,410l0 3524c85,12 177,17 276,15 2,16 1,33 13,46 62,0 125,8 186,0 2919,-411 3449,264 5327,-1022z"/>
    <polygon class="fil22" points="48315,16617 48970,16647 48970,19742 48315,19742 "/>
    <path class="fil23" d="M49488 14376l-2400 1212c178,327 390,591 644,782 127,97 265,175 414,234 467,184 942,82 1341,-219 278,-209 493,-516 653,-910l0 -1437 -652 338z"/>
    <path class="fil24" d="M47069 15095c48,0 87,41 87,91 0,51 -39,92 -87,92 -47,0 -86,-41 -86,-92 0,-50 39,-91 86,-91zm3127 0c-47,0 -86,41 -86,91 0,51 39,92 86,92 48,0 87,-41 87,-92 0,-50 -39,-91 -87,-91zm-145 138c-55,0 -100,47 -100,105 0,58 45,105 100,105 55,0 100,-47 100,-105 0,-58 -45,-105 -100,-105zm-172 156c-64,0 -115,55 -115,121 0,67 51,122 115,122 64,0 115,-55 115,-122 0,-66 -51,-121 -115,-121zm-197 180c-70,0 -127,60 -127,133 0,74 57,134 127,134 70,0 127,-60 127,-134 0,-73 -57,-133 -127,-133zm-229 166c-73,0 -133,62 -133,139 0,77 60,140 133,140 73,0 132,-63 132,-140 0,-77 -59,-139 -132,-139zm-268 111c-77,0 -139,67 -139,149 0,81 62,148 139,148 77,0 140,-67 140,-148 0,-82 -63,-149 -140,-149zm-278 113c-77,0 -140,70 -140,155 0,85 63,154 140,154 77,0 140,-69 140,-154 0,-85 -63,-155 -140,-155zm-274 45c72,4 128,77 128,166 0,90 -56,162 -128,167l0 0 0 0c-72,-5 -129,-77 -129,-167 0,-89 57,-162 129,-166l0 0 0 0zm-274 -45c77,0 139,70 139,155 0,85 -62,154 -139,154 -77,0 -140,-69 -140,-154 0,-85 63,-155 140,-155zm-279 -113c78,0 140,67 140,149 0,81 -62,148 -140,148 -77,0 -139,-67 -139,-148 0,-82 62,-149 139,-149zm-267 -111c73,0 133,62 133,139 0,77 -60,140 -133,140 -73,0 -132,-63 -132,-140 0,-77 59,-139 132,-139zm-229 -166c70,0 127,60 127,133 0,74 -57,134 -127,134 -70,0 -127,-60 -127,-134 0,-73 57,-133 127,-133zm-197 -180c63,0 115,55 115,121 0,67 -52,122 -115,122 -64,0 -115,-55 -115,-122 0,-66 51,-121 115,-121zm-172 -156c55,0 100,47 100,105 0,58 -45,105 -100,105 -55,0 -100,-47 -100,-105 0,-58 45,-105 100,-105z"/>
    <path class="fil25" d="M44916 9390c-12,-40 -26,-79 -41,-118 -51,-130 -116,-252 -219,-349 -50,-48 -107,-83 -179,-90 -56,-6 -185,85 -232,112 -37,-989 90,-1845 352,-2514 280,-718 952,-1449 1672,-1742 235,-95 476,-168 750,-214 459,-78 1049,-80 1517,-76 68,1339 67,2649 0,3929 -445,768 -1786,1017 -2589,1067 -323,20 -667,18 -1031,-5z"/>
    <path class="fil20" d="M52350 9431c12,-39 -65,-136 -50,-175 51,-130 12,-236 115,-333 51,-48 108,-83 180,-90 55,-6 185,85 231,112 37,-989 -90,-1845 -351,-2514 -281,-718 -952,-1449 -1673,-1742 -234,-95 -475,-168 -749,-214 -460,-78 -1050,-80 -1517,-76 0,1310 0,2619 0,3929 444,768 1785,1017 2589,1067 322,20 860,60 1225,36z"/>
    <path class="fil26" d="M48536 8406c-1,13 0,27 0,40 156,2000 131,3990 -1,5973 0,8 1,17 1,25l0 2 0 6c0,16 -2,33 -10,48 -28,28 -64,19 -97,16 -449,-31 -874,-148 -1274,-356 -6,-3 -11,-6 -17,-9l-120 -83c-235,-135 -451,-296 -652,-479 -225,-205 -424,-431 -602,-677 -174,-241 -325,-496 -453,-763 -155,-322 -278,-655 -369,-1001 -33,-127 -65,-255 -88,-384 -2,-8 -6,-15 -10,-28 -17,18 -32,34 -46,50 -116,128 -261,116 -380,11 -84,-75 -143,-169 -191,-269 -80,-167 -125,-345 -152,-528 -20,-136 -27,-275 -19,-413 9,-173 36,-343 106,-503 22,-50 48,-98 83,-139 47,-28 176,-118 232,-112 72,7 129,42 179,90 103,97 168,219 219,349 15,39 29,78 41,118 364,23 708,25 1031,5 803,-50 2144,-299 2589,-1067l0 78z"/>
    <path class="fil23" d="M48536 14419c0,8 0,17 0,25l0 2 0 6c0,16 2,33 10,48 29,28 67,19 101,16 468,-31 911,-148 1328,-356 6,-3 12,-6 18,-9l125 -83c245,-135 470,-296 679,-479 235,-205 443,-431 628,-677 181,-241 339,-496 473,-763 161,-322 289,-655 384,-1001 35,-127 68,-255 92,-384 2,-8 6,-15 11,-28 17,18 33,34 48,50 121,128 272,116 396,11 88,-75 148,-169 199,-269 83,-167 130,-345 158,-528 21,-136 29,-275 20,-413 -10,-173 -37,-343 -111,-503 -22,-50 -49,-98 -86,-139 -49,-28 -184,-118 -242,-112 -75,7 -134,42 -187,90 -107,97 -174,219 -227,349 -16,39 -31,78 -44,118 -379,23 -738,25 -1074,5 -838,-50 -2236,-299 -2699,-1067 0,2030 0,4060 0,6091z"/>
    <path class="fil14" d="M52352 10986c6,-113 -6,-226 -11,-339 -6,-121 -17,-242 -28,-363 -15,-168 -31,-336 -47,-504 -11,-114 -22,-228 -33,-342 -6,-59 -14,-118 -21,-176 0,-61 -10,-121 -18,-181 -8,-71 -15,-143 -22,-215 -9,-80 -19,-160 -28,-240 -8,-71 -16,-143 -23,-215 -1,-19 -4,-37 -8,-55 -4,-16 3,-26 21,-26 13,0 27,0 40,0 169,0 338,1 507,-1 49,-1 93,9 137,29 14,6 27,21 46,14 15,20 39,27 59,38 211,120 365,288 442,521 17,53 26,107 26,164 -1,448 0,896 -1,1343 0,131 -27,255 -98,367 -84,134 -209,214 -356,263 -184,60 -374,71 -566,52 -19,-2 -28,-8 -23,-28 8,-35 7,-71 5,-106z"/>
    <path class="fil15" d="M51739 12235c-92,38 -184,76 -276,114 -494,201 -999,368 -1521,480 -197,42 -396,76 -597,86 -34,2 -58,11 -77,42 -30,50 -80,79 -131,105 -86,42 -178,66 -272,80 -56,9 -112,14 -168,21 -90,0 -180,2 -270,0 -148,-4 -294,-27 -434,-78 -165,-61 -259,-180 -298,-346 -28,-117 3,-220 89,-304 98,-97 218,-157 348,-197 106,-33 214,-49 325,-33 10,1 20,0 30,0 40,18 84,15 127,20 151,19 299,49 439,112 92,41 176,94 227,186 10,16 21,17 38,15 100,-12 202,-21 302,-35 270,-40 538,-91 803,-157 397,-99 784,-226 1151,-408 153,-76 301,-162 441,-262 12,-8 27,-14 35,-28 110,-72 206,-162 299,-255 15,-15 29,-31 44,-47 77,-86 197,-99 292,-32 57,41 95,97 125,159 14,28 7,55 -5,81 -17,37 -44,67 -72,96 -64,63 -136,116 -211,166 -217,144 -449,260 -684,370 -33,16 -69,27 -99,49z"/>
    <path class="fil15" d="M45795 7130c-53,37 -90,91 -131,139 -140,165 -267,339 -382,521 -134,212 -255,430 -348,662 -10,25 -21,38 -50,37 -87,-1 -173,0 -259,-1 -36,0 -36,-1 -29,-37 32,-162 84,-319 139,-474 87,-249 195,-489 319,-722 124,-236 268,-460 431,-671 78,-101 163,-197 248,-292 82,-93 172,-177 264,-258 177,-157 369,-294 574,-413 230,-134 473,-236 726,-315 143,-44 289,-77 437,-102 114,-19 229,-33 345,-43 158,-12 316,-20 474,-18 113,7 226,10 338,22 134,13 267,31 399,55 189,34 375,81 557,141 138,45 272,99 405,159 182,82 355,180 521,289 118,78 232,162 340,254 112,95 223,192 325,298 156,163 300,337 432,521 164,230 305,473 426,729 61,129 116,262 161,398 14,41 8,49 -36,53 -112,11 -224,21 -336,32 -22,2 -43,9 -65,10 -26,1 -39,-8 -49,-32 -23,-55 -46,-109 -73,-162 -117,-233 -258,-450 -422,-653 -114,-141 -237,-273 -370,-395 -159,-146 -330,-278 -514,-392 -113,-70 -229,-136 -350,-193 -262,-122 -533,-216 -817,-274 -108,-22 -218,-42 -327,-56 -89,-12 -177,-20 -267,-25 -92,-5 -185,-10 -278,-8 -18,16 -41,13 -63,12 -205,-3 -408,18 -609,53 -459,79 -888,241 -1283,490 -284,179 -540,393 -771,637 -9,10 -21,17 -32,24l0 0z"/>
   </g>
   <path class="fil16" d="M48292 19061c-4605,0 -8338,-3733 -8338,-8338 0,-4605 3733,-8339 8338,-8339 4605,0 8339,3734 8339,8339 0,4605 -3734,8338 -8339,8338zm0 2384c-5922,0 -10722,-4800 -10722,-10722 0,-5922 4800,-10723 10722,-10723 5922,0 10723,4801 10723,10723 0,5922 -4801,10722 -10723,10722z"/>
   <path class="fil27" d="M54379 6839c196,-186 408,-181 655,-188 5997,-180 11995,-360 17992,-540 191,8 337,54 446,134 120,89 194,220 228,386 0,3130 0,6260 0,9390 -13,188 -71,327 -165,428 -110,117 -269,181 -467,203 -767,-70 -1534,-140 -2301,-210 -5,716 -10,1431 -14,2147 -758,-790 -1516,-1581 -2274,-2372 -4557,-416 -9114,-833 -13671,-1249 -177,-14 -321,-71 -429,-177 -100,-99 -169,-239 -203,-427 0,-2303 0,-4607 0,-6910 0,-231 23,-445 203,-615z"/>
   <g>
    <polygon class="fil18" points="57161,9706 56949,9706 56949,9127 56353,9127 56353,9706 56142,9706 56142,8422 56353,8422 56353,8947 56949,8947 56949,8422 57161,8422 "/>
    <path class="fil18" d="M57467 8477c0,-37 10,-65 30,-85 20,-20 49,-30 87,-30 37,0 65,10 85,30 21,20 31,48 31,85 0,35 -10,63 -31,83 -20,20 -48,30 -85,30 -38,0 -67,-10 -87,-30 -20,-20 -30,-48 -30,-83zm219 1229l0 0 -207 0 0 -972 207 0 0 972z"/>
    <path class="fil18" d="M57952 9596c0,-43 12,-75 34,-98 22,-23 55,-35 97,-35 43,0 76,12 98,36 23,24 34,56 34,97 0,42 -12,75 -34,99 -23,24 -55,36 -98,36 -42,0 -75,-12 -97,-36 -22,-24 -34,-57 -34,-99z"/>
    <path class="fil18" d="M58450 9596c0,-43 11,-75 33,-98 23,-23 55,-35 97,-35 44,0 76,12 99,36 22,24 33,56 33,97 0,42 -11,75 -34,99 -23,24 -55,36 -98,36 -42,0 -74,-12 -97,-36 -22,-24 -33,-57 -33,-99z"/>
    <path class="fil18" d="M58947 9596c0,-43 11,-75 34,-98 22,-23 54,-35 97,-35 43,0 76,12 98,36 22,24 34,56 34,97 0,42 -12,75 -35,99 -22,24 -55,36 -97,36 -43,0 -75,-12 -97,-36 -23,-24 -34,-57 -34,-99z"/>
    <path class="fil18" d="M59445 9596c0,-43 11,-75 33,-98 22,-23 55,-35 97,-35 43,0 76,12 98,36 23,24 34,56 34,97 0,42 -12,75 -34,99 -23,24 -55,36 -98,36 -42,0 -75,-12 -97,-36 -22,-24 -33,-57 -33,-99z"/>
    <path class="fil18" d="M59942 9596c0,-43 11,-75 33,-98 23,-23 55,-35 98,-35 43,0 75,12 98,36 22,24 33,56 33,97 0,42 -11,75 -34,99 -23,24 -55,36 -97,36 -43,0 -75,-12 -98,-36 -22,-24 -33,-57 -33,-99z"/>
    <path class="fil18" d="M60439 9596c0,-43 11,-75 34,-98 22,-23 54,-35 97,-35 43,0 76,12 98,36 22,24 34,56 34,97 0,42 -12,75 -34,99 -23,24 -56,36 -98,36 -43,0 -75,-12 -97,-36 -23,-24 -34,-57 -34,-99z"/>
    <path class="fil18" d="M60937 9596c0,-43 11,-75 33,-98 22,-23 55,-35 97,-35 43,0 76,12 98,36 23,24 34,56 34,97 0,42 -11,75 -34,99 -23,24 -55,36 -98,36 -42,0 -75,-12 -97,-36 -22,-24 -33,-57 -33,-99z"/>
    <path class="fil18" d="M61434 9596c0,-43 11,-75 33,-98 23,-23 55,-35 98,-35 43,0 75,12 98,36 22,24 33,56 33,97 0,42 -11,75 -34,99 -22,24 -55,36 -97,36 -43,0 -75,-12 -98,-36 -22,-24 -33,-57 -33,-99z"/>
   </g>
  </g>
 </g>
</svg>
