<?xml version="1.0" encoding="UTF-8"?>
<!DOCTYPE svg PUBLIC "-//W3C//DTD SVG 1.1//EN" "http://www.w3.org/Graphics/SVG/1.1/DTD/svg11.dtd">
<!-- Creator: CorelDRAW 2017 -->
<svg xmlns="http://www.w3.org/2000/svg" xml:space="preserve" width="75px" height="75px" version="1.1" style="shape-rendering:geometricPrecision; text-rendering:geometricPrecision; image-rendering:optimizeQuality; fill-rule:evenodd; clip-rule:evenodd"
viewBox="0 0 7500 7539"
 xmlns:xlink="http://www.w3.org/1999/xlink">
 <defs>
  <style type="text/css">
   <![CDATA[
    .fil0 {fill:#1F3B6D}
    .fil1 {fill:#F7941C}
    .fil2 {fill:white}
   ]]>
  </style>
 </defs>
 <g id="Layer_x0020_1">
  <metadata id="CorelCorpID_0Corel-Layer"/>
  <path class="fil0" d="M3847 7020c-1281,0 -2562,0 -3847,0 0,-2040 0,-4077 0,-6118 311,0 622,0 944,0 -24,309 78,567 339,749 154,108 328,159 513,137 372,-44 738,-341 713,-885 652,0 1304,0 1966,0 -29,293 75,536 301,721 153,124 335,180 531,165 222,-18 408,-115 553,-289 143,-174 194,-374 173,-599 319,0 630,0 946,0 0,997 0,1994 0,2993 -114,-74 -224,-149 -337,-220 -48,-30 -99,-57 -151,-79 -41,-17 -52,-39 -52,-82 2,-268 1,-535 1,-802 0,-25 0,-51 0,-80 -1968,0 -3931,0 -5897,0 0,1318 0,2633 0,3958 27,0 53,0 80,0 965,0 1930,1 2895,-2 55,0 78,21 104,64 71,124 148,244 225,369z"/>
  <path class="fil1" d="M5559 7538c-1028,32 -2005,-866 -1938,-2059 53,-930 844,-1885 2067,-1819 937,51 1842,844 1811,2010 -26,992 -860,1890 -1940,1868zm1439 -1936l0 0c14,-804 -658,-1452 -1432,-1451 -818,2 -1449,642 -1451,1449 -2,803 634,1428 1411,1448 815,20 1486,-656 1472,-1446z"/>
  <path class="fil0" d="M5793 796c-10,100 -14,234 -38,364 -37,194 -256,360 -453,367 -148,4 -280,-25 -394,-126 -91,-82 -158,-182 -167,-302 -15,-185 -20,-371 -15,-555 8,-255 126,-464 400,-528 302,-70 598,91 643,429 15,105 15,211 24,351z"/>
  <path class="fil0" d="M2209 1195c-40,166 -250,331 -452,332 -212,2 -384,-68 -486,-257 -41,-76 -67,-166 -73,-252 -11,-169 -7,-339 -2,-509 8,-296 246,-507 507,-506 134,0 254,27 356,114 107,90 175,205 181,347 10,213 18,531 -31,731z"/>
  <path class="fil0" d="M3243 3135c0,245 0,486 0,730 -244,0 -485,0 -731,0 0,-241 0,-483 0,-730 240,0 483,0 731,0z"/>
  <path class="fil0" d="M3242 4250c0,246 0,487 0,731 -243,0 -484,0 -730,0 0,-241 0,-483 0,-731 240,0 483,0 730,0z"/>
  <path class="fil0" d="M3243 5365c0,245 0,486 0,731 -244,0 -486,0 -733,0 0,-243 0,-485 0,-731 244,0 484,0 733,0z"/>
  <path class="fil0" d="M1929 4982c-241,0 -477,0 -716,0 0,-244 0,-485 0,-731 236,0 474,0 716,0 0,240 0,483 0,731z"/>
  <path class="fil0" d="M1212 6096c0,-246 0,-486 0,-731 239,0 475,0 717,0 0,241 0,484 0,731 -236,0 -474,0 -717,0z"/>
  <path class="fil0" d="M3808 3133c246,0 487,0 735,0 0,162 0,322 -1,481 0,12 -12,28 -23,35 -105,69 -210,136 -315,203 -13,8 -29,16 -43,16 -116,1 -232,1 -353,1 0,-246 0,-488 0,-736z"/>
  <path class="fil0" d="M5851 3134c0,94 0,181 0,276 -245,-49 -485,-24 -731,17 0,-100 0,-194 0,-293 241,0 484,0 731,0z"/>
  <path class="fil2" d="M6998 5602c14,790 -657,1466 -1472,1446 -777,-20 -1413,-645 -1411,-1448 2,-807 633,-1447 1451,-1449 774,-1 1446,647 1432,1451zm-1473 318l0 0c101,14 209,-62 246,-162 5,-13 18,-26 30,-34 49,-29 98,-57 149,-83 217,-108 434,-215 650,-324 97,-48 140,-127 109,-209 -48,-128 -147,-157 -278,-91 -253,128 -504,258 -757,385 -27,14 -63,12 -96,14 -35,3 -71,-5 -105,2 -131,28 -220,148 -204,276 17,133 129,238 256,226z"/>
  <path class="fil1" d="M5525 5920c-127,12 -239,-93 -256,-226 -16,-128 73,-248 204,-276 34,-7 70,1 105,-2 33,-2 69,0 96,-14 253,-127 504,-257 757,-385 131,-66 230,-37 278,91 31,82 -12,161 -109,209 -216,109 -433,216 -650,324 -51,26 -100,54 -149,83 -12,8 -25,21 -30,34 -37,100 -145,176 -246,162z"/>
 </g>
</svg>
