<?xml version="1.0" encoding="UTF-8"?>
<!DOCTYPE svg PUBLIC "-//W3C//DTD SVG 1.1//EN" "http://www.w3.org/Graphics/SVG/1.1/DTD/svg11.dtd">
<!-- Creator: CorelDRAW 2017 -->
<svg xmlns="http://www.w3.org/2000/svg" xml:space="preserve" width="73px" height="74px" version="1.1" style="shape-rendering:geometricPrecision; text-rendering:geometricPrecision; image-rendering:optimizeQuality; fill-rule:evenodd; clip-rule:evenodd"
viewBox="0 0 7300 7392"
 xmlns:xlink="http://www.w3.org/1999/xlink">
 <defs>
  <style type="text/css">
   <![CDATA[
    .fil0 {fill:#1F3B6D}
    .fil1 {fill:#F7941C}
   ]]>
  </style>
 </defs>
 <g id="Layer_x0020_1">
  <metadata id="CorelCorpID_0Corel-Layer"/>
  <g id="_1651403165328">
   <path class="fil0" d="M1979 5617c0,263 0,518 0,772 1,152 4,305 2,457 -1,45 15,56 56,56 390,-1 779,-1 1169,0 441,0 881,2 1322,0 79,0 164,-3 234,-32 65,-28 122,-86 166,-143 93,-120 116,-267 138,-413 43,-290 37,-581 22,-873 -4,-74 7,-145 51,-202 49,-63 123,-88 202,-90 142,-5 285,-4 427,-10 235,-10 468,-31 693,-109 191,-66 306,-192 339,-388 12,-71 5,-146 5,-219 1,-1264 1,-2529 0,-3793 0,-134 0,-135 -130,-135 -1546,0 -3092,0 -4639,-1 -45,0 -55,14 -55,56 0,608 -1,1217 -2,1825 0,113 1,226 1,339l-492 312c1,-320 1,-640 2,-959 0,-594 3,-1187 0,-1780 -1,-183 119,-287 285,-287 1681,2 3361,1 5042,1 69,0 139,0 208,0 166,0 274,93 274,280 0,1313 2,2625 0,3938 0,249 9,500 -54,746 -49,192 -126,368 -262,516 -157,170 -309,344 -468,512 -219,230 -442,457 -664,683 -145,147 -291,294 -441,436 -203,194 -448,280 -729,280 -966,-2 -1933,0 -2899,-1 -50,0 -101,-11 -150,-25 -73,-21 -111,-80 -124,-149 -14,-67 -18,-137 -18,-205 -2,-347 -2,-693 -2,-1039l0 -48 491 -308z"/>
   <path class="fil1" d="M0 4592c13,-84 23,-169 40,-252 6,-26 29,-56 52,-70l3915 -2427c49,-30 65,-19 72,36 14,126 28,252 41,378 4,41 15,70 60,84 31,9 57,33 85,50 83,52 164,105 248,155 32,18 38,40 40,75 8,130 21,261 37,391 2,24 25,52 46,67 112,75 227,146 340,220 32,21 34,44 -2,66l-3931 2437c-35,19 -91,23 -130,11 -368,-122 -638,-359 -802,-711 -75,-159 -107,-332 -111,-510z"/>
   <path class="fil1" d="M5621 1833c131,0 170,62 110,180l-343 665c-25,48 -59,29 -83,13 -313,-212 -447,-387 -487,-786 -4,-32 5,-55 48,-53l755 -19z"/>
  </g>
 </g>
</svg>
