<?xml version="1.0" encoding="UTF-8"?>
<!DOCTYPE svg PUBLIC "-//W3C//DTD SVG 1.1//EN" "http://www.w3.org/Graphics/SVG/1.1/DTD/svg11.dtd">
<!-- Creator: CorelDRAW 2017 -->
<svg xmlns="http://www.w3.org/2000/svg" xml:space="preserve" width="85px" height="59px" version="1.1" style="shape-rendering:geometricPrecision; text-rendering:geometricPrecision; image-rendering:optimizeQuality; fill-rule:evenodd; clip-rule:evenodd"
viewBox="0 0 8500 5916"
 xmlns:xlink="http://www.w3.org/1999/xlink">
 <defs>
  <style type="text/css">
   <![CDATA[
    .fil0 {fill:#1F3B6D}
    .fil2 {fill:#F7941C}
    .fil1 {fill:#FDFDFD}
   ]]>
  </style>
 </defs>
 <g id="Layer_x0020_1">
  <metadata id="CorelCorpID_0Corel-Layer"/>
  <g id="_1651530319792">
   <path class="fil0" d="M4251 1c1263,0 2526,0 3789,0 305,0 460,155 460,463 0,1663 0,3326 0,4990 -1,306 -157,462 -462,462 -2529,0 -5059,0 -7589,0 -290,0 -448,-162 -448,-451 0,-1660 0,-3320 -1,-4979 0,-337 149,-486 485,-486 1255,0 2511,0 3766,0 0,0 0,1 0,1zm0 1109l0 0c777,0 1554,0 2332,0 388,0 777,1 1166,-1 117,-1 197,-78 198,-181 1,-106 -77,-182 -193,-188 -19,0 -38,0 -57,0 -2286,0 -4573,0 -6859,0 -195,0 -286,60 -284,188 2,125 88,182 279,182 1139,0 2278,0 3418,0zm2997 2141l0 0c533,-563 363,-1266 -8,-1604 -429,-390 -1067,-388 -1489,-1 -382,348 -539,1054 -7,1609 -18,9 -34,18 -52,26 -478,211 -765,573 -826,1094 -37,318 -7,639 -12,958 -1,73 52,53 89,53 1035,1 2071,0 3106,2 66,0 85,-18 84,-84 -4,-261 7,-523 -2,-785 -22,-577 -273,-1007 -822,-1236 -21,-9 -40,-21 -61,-32zm-4562 1741l0 0c0,0 0,-1 0,-1 511,0 1023,1 1534,0 136,0 210,-62 217,-172 7,-121 -73,-196 -214,-196 -527,-1 -1054,-1 -1581,-1 -500,0 -1000,-1 -1500,1 -157,0 -249,115 -201,244 36,98 113,126 210,125 512,-1 1023,0 1535,0zm4 -2588l0 0c507,0 1015,0 1523,0 147,0 226,-67 225,-187 -1,-114 -81,-182 -218,-182 -1027,-1 -2054,0 -3081,-1 -44,0 -86,3 -122,28 -68,48 -105,113 -82,198 29,104 103,145 209,144 515,-1 1030,0 1546,0zm-11 924l0 0c-511,0 -1023,0 -1534,1 -141,0 -234,92 -216,209 17,102 98,160 232,160 1019,0 2038,-1 3057,-1 23,0 47,2 69,-2 98,-19 160,-104 150,-202 -10,-101 -83,-164 -200,-164 -519,-1 -1039,-1 -1558,-1z"/>
   <path class="fil1" d="M4251 1110c-1140,0 -2279,0 -3418,0 -191,0 -277,-57 -279,-182 -2,-128 89,-188 284,-188 2286,0 4573,0 6859,0 19,0 38,0 57,0 116,6 194,82 193,188 -1,103 -81,180 -198,181 -389,2 -778,1 -1166,1 -778,0 -1555,0 -2332,0z"/>
   <path class="fil1" d="M7248 3251c21,11 40,23 61,32 549,229 800,659 822,1236 9,262 -2,524 2,785 1,66 -18,84 -84,84 -1035,-2 -2071,-1 -3106,-2 -37,0 -90,20 -89,-53 5,-319 -25,-640 12,-958 61,-521 348,-883 826,-1094 18,-8 34,-17 52,-26 -532,-555 -375,-1261 7,-1609 422,-387 1060,-389 1489,1 371,338 541,1041 8,1604zm-760 1951l0 0c455,0 909,-2 1363,1 76,1 100,-22 98,-97 -5,-170 -3,-339 -1,-509 5,-616 -280,-1011 -862,-1202 -60,-19 -99,-10 -145,28 -316,261 -563,259 -876,-4 -30,-25 -53,-48 -101,-35 -449,124 -760,391 -885,851 -76,280 -26,567 -44,851 -5,88 18,119 113,118 447,-5 894,-2 1340,-2zm6 -3658l0 0c-506,-1 -904,392 -905,894 -2,510 395,914 899,915 511,0 908,-393 909,-902 2,-513 -390,-907 -903,-907z"/>
   <path class="fil1" d="M2686 4992c-512,0 -1023,-1 -1535,0 -97,1 -174,-27 -210,-125 -48,-129 44,-244 201,-244 500,-2 1000,-1 1500,-1 527,0 1054,0 1581,1 141,0 221,75 214,196 -7,110 -81,172 -217,172 -511,1 -1023,0 -1534,0 0,0 0,1 0,1z"/>
   <path class="fil1" d="M2690 2404c-516,0 -1031,-1 -1546,0 -106,1 -180,-40 -209,-144 -23,-85 14,-150 82,-198 36,-25 78,-28 122,-28 1027,1 2054,0 3081,1 137,0 217,68 218,182 1,120 -78,187 -225,187 -508,0 -1016,0 -1523,0z"/>
   <path class="fil1" d="M2679 3328c519,0 1039,0 1558,1 117,0 190,63 200,164 10,98 -52,183 -150,202 -22,4 -46,2 -69,2 -1019,0 -2038,1 -3057,1 -134,0 -215,-58 -232,-160 -18,-117 75,-209 216,-209 511,-1 1023,-1 1534,-1z"/>
   <path class="fil2" d="M6488 5202c-446,0 -893,-3 -1340,2 -95,1 -118,-30 -113,-118 18,-284 -32,-571 44,-851 125,-460 436,-727 885,-851 48,-13 71,10 101,35 313,263 560,265 876,4 46,-38 85,-47 145,-28 582,191 867,586 862,1202 -2,170 -4,339 1,509 2,75 -22,98 -98,97 -454,-3 -908,-1 -1363,-1z"/>
   <path class="fil2" d="M6494 1544c513,0 905,394 903,907 -1,509 -398,902 -909,902 -504,-1 -901,-405 -899,-915 1,-502 399,-895 905,-894z"/>
  </g>
 </g>
</svg>
