<svg xmlns="http://www.w3.org/2000/svg" width="600" height="224" viewBox="0 0 60000 22400" shape-rendering="geometricPrecision" text-rendering="geometricPrecision" image-rendering="optimizeQuality" fill-rule="evenodd" clip-rule="evenodd"><defs><style>.fil90{fill:#dbdbdc}.fil89{fill:#dadbdc}.fil88{fill:#dadada}.fil87{fill:#d9d9da}.fil86{fill:#d9d9d9}.fil85{fill:#d8d8d9}.fil84{fill:#d8d8d8}.fil83{fill:#d7d7d8}.fil82{fill:#d7d7d7}.fil81{fill:#d6d6d6}.fil80{fill:#d5d5d6}.fil79{fill:#d5d5d5}.fil78{fill:#d4d4d5}.fil77{fill:#d4d4d4}.fil75,.fil76{fill:#d3d3d3}.fil74{fill:#d2d2d2}.fil123{fill:#d1d1d2}.fil73{fill:#d0d1d2}.fil72{fill:#d0d0d1}.fil31{fill:#cfcecf}.fil71{fill:#d0d0d1}.fil70{fill:#d0cfd0}.fil69{fill:#cfcfd0}.fil67,.fil68{fill:#cecece}.fil66{fill:#cdcdcd}.fil65{fill:#cccccd}.fil63,.fil64{fill:#cbcbcb}.fil62{fill:#cbcaca}.fil61{fill:#cacaca}.fil60{fill:#cac9c9}.fil59{fill:#c9c9c9}.fil122{fill:#c8c8c9}.fil58{fill:#c8c8c8}.fil32{fill:#c5c3c3}.fil57{fill:#c7c7c8}.fil56{fill:#c7c7c7}.fil54,.fil55{fill:#c6c6c6}.fil53{fill:#c6c5c5}.fil52{fill:#c5c5c5}.fil51{fill:#c4c4c4}.fil49,.fil50{fill:#c3c3c3}.fil48{fill:#c3c2c2}.fil47{fill:#c2c2c2}.fil46{fill:#c2c1c1}.fil45{fill:#c0c1c1}.fil121{fill:#c1c0c0}.fil44{fill:silver}.fil120{fill:#bebebe}.fil119{fill:#bdbdbd}.fil33{fill:#bab9b9}.fil118{fill:#bbb}.fil43{fill:#b9baba}.fil117{fill:#b9b9b9}.fil116{fill:#b7b7b7}.fil115{fill:#b6b6b5}.fil114{fill:#b4b4b4}.fil42{fill:#b3b3b2}.fil113{fill:#b2b2b2}.fil34{fill:#b0aeaf}.fil112{fill:#b1b1b1}.fil111{fill:#afafaf}.fil110{fill:#adadad}.fil41{fill:#acacac}.fil109{fill:#acacab}.fil108{fill:#a9a9a9}.fil107{fill:#a8a8a8}.fil106{fill:#a6a6a6}.fil35{fill:#a5a4a4}.fil40{fill:#a5a5a5}.fil105{fill:#a5a5a4}.fil104{fill:#a4a3a3}.fil103{fill:#a2a2a2}.fil102{fill:#a09f9f}.fil39{fill:#9f9f9f}.fil101{fill:#9e9e9e}.fil100{fill:#9d9d9c}.fil36{fill:#9b9a9a}.fil99{fill:#9b9b9b}.fil98{fill:#999}.fil38{fill:#989898}.fil97{fill:#969696}.fil96{fill:#959594}.fil95{fill:#939393}.fil37{fill:#919291}.fil94{fill:#8e8e8e}.fil93{fill:#8b8a8b}.fil92{fill:#878687}.fil22{fill:#c5c6c6}.fil30{fill:#dad9da}.fil91{fill:#dadada}.fil28,.fil29{fill:#a1b1ce;fill-rule:nonzero}.fil29{fill:#f7931d}</style><clipPath id="id0"><path d="M32356 20639c74 0 134-57 141-128h18525c77 0 141-64 141-142v-282H5977v282c0 78 64 142 142 142h18524c7 71 68 128 141 128h7572z"/></clipPath><clipPath id="id1"><path d="M28570 20511h3513c60 0 109-49 109-109v-315h-3622v424zm0 0h-3513c-60 0-109-49-109-109v-315h3622v424z"/></clipPath><linearGradient id="id2" gradientUnits="userSpaceOnUse" x1="28570" y1="20509" x2="28570" y2="21456"><stop offset="0" stop-color="#5d5d5d"/><stop offset="1" stop-color="#2b2a29"/></linearGradient><radialGradient id="id3" gradientUnits="userSpaceOnUse" gradientTransform="translate(-2) scale(1.00007)" cx="28570" cy="1063" r="963" fx="28570" fy="1063"><stop offset="0" stop-color="#252525"/><stop offset="1" stop-color="#454545"/></radialGradient><radialGradient id="id4" gradientUnits="userSpaceOnUse" gradientTransform="matrix(.9999 0 0 .9999 3 0)" cx="28570" cy="1063" r="483" fx="28570" fy="1063"><stop offset="0" stop-color="#aeaeae"/><stop offset=".369" stop-color="#747474"/><stop offset="1" stop-color="#3a3b3b"/></radialGradient></defs><g id="Layer_x0020_1"><path d="M28570 20718H12090c-3483 279-5155 802-5331 1180-73 155 467 408 2044 408 6589-1 13178-3 19767-4 6589 1 13178 3 19767 4 1577 0 2117-253 2045-408-177-378-1849-901-5332-1180H28570z" fill="#2b2a29" fill-opacity="0"/><g id="_2383142581552" fill="#2b2a29"><path d="M28570 20729H12169c-3467 275-5130 789-5306 1161-72 152 465 400 2035 400l19672-3 19672 3c1570 0 2107-248 2035-400-175-372-1839-886-5306-1161H28570z" fill-opacity=".024"/><path d="M28570 20741H12248c-3450 270-5106 775-5281 1140-71 150 463 394 2025 394 6526-1 13052-2 19578-4 6526 2 13052 3 19578 4 1562 0 2097-244 2025-394-175-365-1831-870-5280-1140H28570z" fill-opacity=".047"/><path d="M28570 20753H12326c-3433 265-5081 761-5255 1120-71 147 461 386 2016 386l19483-3 19483 3c1555 0 2087-239 2016-386-174-359-1822-855-5255-1120H28570z" fill-opacity=".071"/><path d="M28570 20765H12405c-3416 260-5056 747-5229 1099-71 144 458 379 2005 379 6463 0 12926-2 19389-3 6463 1 12926 3 19389 3 1547 0 2076-235 2006-379-174-352-1813-839-5230-1099H28570z" fill-opacity=".094"/><path d="M28570 20776H12484c-3400 256-5032 733-5204 1079-71 142 456 373 1996 372 6431 0 12863-2 19294-3 6432 1 12863 3 19295 3 1539 1 2066-230 1995-372-172-346-1804-823-5204-1079H28570z" fill-opacity=".118"/><path d="M28570 20788H12563c-3384 250-5007 719-5179 1058-70 139 454 365 1986 365 6400 0 12800-2 19200-3 6400 1 12800 3 19200 3 1532 0 2056-226 1986-365-171-339-1795-808-5178-1058H28570z" fill-opacity=".141"/><path d="M28570 20799H12641c-3366 246-4982 705-5153 1038-69 136 452 358 1977 358l19105-3 19106 3c1524 0 2046-222 1976-358-171-333-1787-792-5153-1038H28570z" fill-opacity=".169"/><path d="M28570 20810H12720c-3350 241-4958 691-5128 1018-69 133 450 351 1967 351l19011-3 19011 3c1517 0 2036-218 1967-351-170-327-1778-777-5128-1018H28570z" fill-opacity=".192"/><path d="M28570 20821H12799c-3333 236-4933 677-5102 997-69 131 447 344 1956 344l18917-3 18917 3c1509 0 2026-213 1957-344-169-320-1769-761-5103-997H28570z" fill-opacity=".216"/><path d="M28570 20831H12878c-3317 232-4909 664-5077 977-69 128 445 337 1947 337 6274 0 12548-1 18822-2 6274 1 12548 2 18822 2 1502 0 2016-209 1947-337-168-313-1760-745-5076-977H28570z" fill-opacity=".239"/><path d="M28570 20842H12956c-3300 226-4884 650-5051 956-68 126 443 330 1937 330 6243 0 12486-2 18728-2 6243 0 12485 2 18728 2 1494 0 2005-204 1937-330-167-306-1751-730-5051-956H28570z" fill-opacity=".263"/><path d="M28570 20851H13035c-3283 222-4859 637-5026 937-68 122 441 323 1928 323l18633-3 18633 3c1487 0 1996-201 1928-323-167-300-1743-715-5026-937H28570z" fill-opacity=".286"/><path d="M28570 20861H13114c-3267 217-4835 622-5000 916-68 120 438 316 1917 316l18539-3 18539 3c1479 0 1985-196 1918-316-166-294-1734-699-5001-916H28570z" fill-opacity=".31"/><path d="M28570 20870H13193c-3250 212-4810 608-4975 895-67 118 436 309 1908 309 6148 0 12296-1 18444-2 6148 1 12296 2 18444 2 1472 0 1976-191 1908-309-164-287-1724-683-4974-895H28570z" fill-opacity=".333"/><path d="M28570 20878H13271c-3233 207-4785 595-4949 875-67 115 434 302 1898 302 6117-1 12233-2 18350-2s12233 1 18350 2c1464 0 1965-187 1898-302-164-280-1716-668-4949-875H28570z" fill-opacity=".357"/><path d="M28570 20885H13350c-3217 203-4761 581-4924 855-66 112 432 295 1889 295l18255-3 18255 3c1457 0 1956-183 1889-295-163-274-1707-652-4924-855H28570z" fill-opacity=".38"/><path d="M28570 20891H13429c-3200 198-4736 567-4899 834-66 110 430 288 1879 288 6054-1 12107-1 18161-2 6054 1 12107 1 18161 2 1449 0 1945-178 1879-288-163-267-1699-636-4899-834H28570z" fill-opacity=".404"/><path d="M28570 20894H13508c-3184 193-4712 553-4873 814-66 107 427 281 1869 281 6022 0 12044-1 18066-2 6022 1 12044 2 18067 2 1441 0 1934-174 1868-281-161-261-1689-621-4872-814H28570z" fill-opacity=".427"/><path d="M28570 20894H13586c-3166 188-4686 539-4847 793-66 104 425 274 1859 274 5991-1 11981-2 17972-2s11981 1 17972 2c1434 0 1925-170 1859-274-160-254-1680-605-4847-793H28570z" fill-opacity=".451"/><path d="M28570 20883H13665c-3150 183-4662 525-4822 773-65 101 423 267 1850 267 5959-1 11918-2 17877-2s11918 1 17878 2c1426 0 1914-166 1849-267-160-248-1672-590-4822-773H28570z" fill-opacity=".475"/></g><path d="M28570 20769H13744c-3134 178-4638 511-4797 753-64 98 421 259 1840 259 5928 0 11855-1 17783-2 5928 1 11855 2 17783 2 1419 0 1905-161 1840-259-159-242-1663-575-4797-753H28570z" fill="#2b2a29" fill-opacity=".502"/><path class="fil22" d="M11549 73h17021v1594H12297v16925h16273v1495H10274V1348c0-701 573-1275 1275-1275zM45592 73H28570v1594h16722v16925H28570v1495h18297V1348c0-701-574-1275-1275-1275z"/><path d="M45592 87H11549c-347 0-662 142-891 371-228 228-370 544-370 890v18725h17684v28H10259V1348c0-354 146-677 379-910 234-234 556-379 911-379h34043c354 0 677 145 910 379 234 233 379 556 379 910v18753H29092v-28h17761V1348c0-346-142-662-371-890-228-229-543-371-890-371z" fill="#838383" fill-rule="nonzero"/><path d="M11532 209h34076c622 0 1132 510 1132 1133v18745H10400V1342c0-623 509-1133 1132-1133zm765 1458h32995v16925H12297V1667z"/><path d="M28570 1294c-128 0-231-103-231-231 0-127 103-230 231-230 127 0 231 103 231 230 0 128-104 231-231 231z" fill="url(#id3)"/><path d="M28570 1139c-42 0-75-34-75-76 0-41 33-75 75-75 41 0 75 34 75 75 0 42-34 76-75 76z" fill="url(#id4)"/><path d="M28570 20511c7492-1 14984-2 22476-2-1341 287-2657 596-4018 779-371 50-745 94-1123 132-202 20-381 36-583 36H11819c-203 0-382-16-584-36-378-38-752-82-1123-132-1361-183-2677-492-4018-779 7492 0 14984 1 22476 2z" fill="url(#id2)"/><path class="fil28" d="M1308 2707c-59 0-113-12-162-37s-91-57-126-97-62-86-81-138-29-105-29-159c0-57 10-111 31-163 20-52 48-98 84-138 35-40 77-71 126-95s101-35 158-35c59 0 113 12 162 37 48 26 90 58 125 99s62 87 81 139c19 51 29 103 29 156 0 57-11 112-31 164s-48 98-84 137c-35 40-77 71-126 95-48 23-100 35-157 35zm-337-431c0 49 8 95 25 141 16 45 39 85 69 119 30 35 66 63 107 84 41 20 86 31 136 31 51 0 97-11 138-32 41-22 77-51 106-86 30-36 53-76 68-121 16-44 24-90 24-136 0-49-8-96-25-141-16-45-40-85-70-120-30-34-65-62-106-83-42-21-86-31-135-31-51 0-98 11-139 32-42 22-77 50-106 86-29 35-52 76-68 120-16 45-24 91-24 137zm1076 437c-133 0-200-92-200-275v-360h60v351c0 154 52 230 157 230 26 0 52-4 77-14 25-9 48-22 70-38s41-36 57-59 29-49 39-77v-393h60v539c0 20 8 30 25 30v54c-5 1-9 1-12 1h-10c-16 0-30-5-41-15s-16-23-16-39v-94c-28 50-66 89-113 117s-98 42-153 42zm805-581c-57 2-106 18-147 50-42 31-71 75-88 130v389h-60v-623h57v154c21-44 50-80 85-108 36-27 74-43 115-47 8 0 15 0 21-1h17v56zM1710 3282h-377v961h-74v-961H883v-67h827v67zm463 976c-53 0-103-11-148-32-45-20-85-49-118-85s-59-78-78-125-28-98-28-152c0-53 9-103 28-150s45-88 77-123c33-35 72-63 118-83 45-21 94-31 146-31 53 0 102 11 147 31 45 21 83 49 116 84 33 36 59 77 78 123 19 47 28 97 28 149 0 5 0 11-1 18 0 7-1 12-1 14h-661c3 43 13 83 30 121 18 37 40 69 66 96 27 27 57 48 92 63 35 16 72 24 112 24 26 0 52-4 77-11 26-7 49-17 71-30 22-12 41-28 58-46 17-17 30-37 40-58l63 17c-11 27-27 52-48 75-21 22-45 42-72 58-28 17-58 30-91 39s-67 14-101 14zm295-420c-3-45-13-85-30-122s-38-68-65-95c-26-26-57-47-92-62-34-15-72-22-111-22-40 0-77 7-112 22-34 15-65 36-92 62-26 27-47 59-63 96s-26 77-28 121h593zm415 420c-34 0-67-6-97-19-31-12-57-28-80-49s-40-45-53-74c-12-28-19-59-19-92 0-32 8-62 24-89 15-27 37-51 65-70 28-20 61-36 99-47s80-16 127-16c40 0 81 3 123 10 41 8 78 18 111 30v-74c0-71-20-128-61-170-40-42-95-63-165-63-37 0-77 8-118 23-41 16-82 38-123 67l-29-49c97-66 189-99 275-99 90 0 162 27 215 79 52 53 78 125 78 218v368c0 24 11 36 31 36v65c-5 1-10 1-14 1h-12c-18 0-34-6-48-18s-22-27-22-47v-62c-34 45-79 80-132 104-54 24-112 37-175 37zm15-58c56 0 107-11 155-32 47-20 82-48 105-84 17-19 25-39 25-58v-133c-73-27-149-41-226-41-75 0-136 16-182 47-46 30-70 71-70 121 0 25 5 49 15 71s23 41 40 57c18 16 38 29 62 38s49 14 76 14zm528-336c0-53 9-103 28-151 18-47 44-88 77-123s73-62 118-82c45-21 95-31 149-31 69 0 129 16 180 47 52 31 91 73 118 128l-70 24c-23-42-55-74-96-98-42-24-87-36-136-36-42 0-80 9-116 25s-67 39-93 68c-27 29-48 63-62 102-15 39-23 81-23 127 0 45 8 88 24 128s37 75 64 104c26 30 57 53 93 70 36 18 74 26 114 26 26 0 52-4 78-11 25-8 49-18 71-31 21-12 40-27 56-44s27-34 33-53l71 21c-10 26-25 50-44 73-20 22-44 42-71 58-27 17-56 30-89 39-32 9-66 14-100 14-53 0-103-11-148-32-45-20-85-49-118-85s-59-78-79-125c-19-47-29-98-29-152zm1456 379h-72v-420c0-93-16-163-48-210-32-46-78-69-139-69-31 0-61 6-91 17-30 12-58 28-83 50-26 21-48 46-67 74-20 29-34 59-42 92v466h-73V3186h73v484c31-59 73-106 128-141 54-34 113-52 176-52 41 0 77 8 107 23 30 16 54 38 74 67s34 64 44 105c9 41 13 87 13 138v433zm536 15c-53 0-102-11-148-32-45-20-84-49-118-85-33-36-59-78-78-125s-28-98-28-152c0-53 9-103 28-150s45-88 78-123c32-35 72-63 117-83 45-21 94-31 146-31 53 0 102 11 147 31 45 21 84 49 117 84 32 36 58 77 77 123 19 47 28 97 28 149 0 5 0 11-1 18v14h-662c3 43 13 83 31 121 17 37 39 69 66 96 26 27 57 48 91 63 35 16 72 24 112 24 26 0 52-4 77-11 26-7 50-17 71-30 22-12 41-28 58-46 17-17 30-37 40-58l64 17c-12 27-28 52-49 75-21 22-45 42-72 58-28 17-58 30-91 39s-66 14-101 14zm295-420c-3-45-13-85-29-122-17-37-39-68-66-95-26-26-57-47-91-62-35-15-72-22-112-22-39 0-77 7-111 22-35 15-66 36-92 62-27 27-48 59-64 96s-25 77-28 121h593zm585-283c-68 2-128 22-178 61-50 38-85 90-106 157v470h-72v-753h68v186c26-53 61-97 104-130 42-33 89-52 138-57 9 0 18 0 26-1 7 0 14-1 20-1v68z"/><path class="fil29" d="M6865 4067v-99h77v99h-77zm250 0v-99h77v99h-77zm250 0v-99h77v99h-77zm250 0v-99h77v99h-77zm250 0v-99h77v99h-77zm250 0v-99h77v99h-77zm250 0v-99h77v99h-77zm250 0v-99h77v99h-77zm250 0v-99h77v99h-77zm250 0v-99h77v99h-77zm250 0v-99h77v99h-77zm250 0v-99h77v99h-77zm250 0v-99h77v99h-77zm250 0v-99h77v99h-77zm250 0v-99h77v99h-77zm250 0v-99h77v99h-77zm250 0v-99h77v99h-77zm250 0v-99h77v99h-77zm250 0v-99h77v99h-77zm250 0v-99h77v99h-77zm250 0v-99h77v99h-77zm250 0v-99h77v99h-77zm250 0v-99h77v99h-77zm250 0v-99h77v99h-77zm250 0v-99h76v99h-76zm250 0v-99h76v99h-76zm250 0v-99h76v99h-76zm250 0v-99h76v99h-76zm250 0v-99h76v99h-76z"/><path class="fil28" d="M933 11733l297 471 299-471h67l-335 530v321h-61v-324l-334-527h67zm925 863c-44 0-85-9-122-26s-69-40-96-70c-27-29-49-64-64-103s-23-80-23-123c0-44 8-86 24-125 15-39 37-73 64-103 28-29 60-53 97-70s77-26 120-26 83 9 120 26 70 41 97 70c28 30 49 64 65 103 15 39 23 81 23 125 0 43-8 84-23 123-16 39-37 74-64 103-27 30-60 53-97 70-38 17-78 26-121 26zm-243-320c0 37 6 71 19 104 12 32 30 60 52 84s47 43 77 57 61 21 95 21c33 0 65-7 94-21 30-14 56-33 78-58s39-53 52-86c13-32 20-67 20-105 0-36-7-71-20-103s-30-61-52-85c-22-25-48-44-78-58-29-15-61-22-94-22s-64 7-94 22c-29 14-55 34-78 58-22 25-40 54-52 87-13 33-19 68-19 105zm882 320c-133 0-200-92-200-276v-359h60v351c0 153 53 230 157 230 26 0 52-5 77-14 26-9 49-22 70-38 22-16 41-36 57-59 17-24 30-49 39-77v-393h60v539c0 20 9 30 25 30v54c-4 1-8 1-12 1h-9c-17 0-31-5-42-15-10-10-16-23-16-39v-94c-28 50-65 89-112 117s-99 42-154 42zm805-581c-56 2-105 18-147 50-41 31-71 75-87 130v389h-60v-623h56v153c22-44 50-79 86-107 35-27 73-43 114-47 8 0 15 0 22-1h16v56zM1589 13269c-66-74-160-112-282-112-100 0-173 20-219 58s-69 89-69 154c0 33 6 60 17 82 12 23 30 41 55 56 24 15 56 28 94 39s83 22 135 33c56 11 106 24 151 38 44 14 82 32 113 53 32 21 56 47 73 78s25 69 25 114c0 46-9 85-27 119s-43 62-75 85c-32 22-71 40-116 51-45 12-95 18-150 18-160 0-295-52-406-154l39-59c43 45 96 81 159 108 63 26 133 39 211 39 90 0 160-16 211-49s76-82 76-149c0-34-7-62-20-86s-33-44-60-62c-27-17-60-32-100-44-40-13-87-25-141-37-55-11-104-24-146-37s-77-29-106-49-51-43-66-71c-14-28-21-64-21-106 0-46 9-87 27-123 17-36 42-66 74-91 32-24 70-43 114-55 45-13 94-19 148-19 67 0 126 10 178 30 52 19 100 49 142 90l-38 58zm584 821c-4 2-11 5-20 11-9 5-21 10-35 15s-29 9-47 13c-17 4-36 6-56 6s-39-3-57-9-34-15-47-26c-14-12-25-26-33-42-8-17-12-36-12-58v-568h-106v-59h106v-258h72v258h177v59h-177v551c0 28 10 49 29 63 19 13 42 20 67 20 30 0 55-5 77-15s35-16 40-19l22 58zm354 50c-161 0-241-111-241-333v-434h72v424c0 186 63 278 190 278 31 0 63-5 93-16 30-12 59-27 85-47s49-43 68-71c20-28 36-59 47-93v-475h73v651c0 25 10 37 30 37v65c-6 1-10 1-14 1h-12c-20 0-37-6-50-18s-19-28-19-47v-114c-34 61-79 108-136 142-57 33-119 50-186 50zm928 0c-52 0-100-11-145-32-44-22-82-51-115-87-32-36-57-78-75-125-18-46-27-95-27-145 0-52 9-102 26-149 18-47 42-89 73-125 31-35 67-64 109-85s88-32 138-32c33 0 64 5 94 15 29 9 56 22 81 38 24 16 47 34 67 56 20 21 38 44 52 68v-468h72v955c0 25 11 37 31 37v65c-5 1-9 1-13 1h-12c-21 0-38-6-51-20s-20-28-20-45v-87c-31 50-72 91-123 120-52 30-106 45-162 45zm13-65c26 0 54-5 84-16 30-10 58-25 84-44s48-40 66-64 28-51 31-79v-247c-11-27-26-53-45-77-20-25-43-46-68-64s-52-32-81-43c-29-10-57-16-84-16-43 0-83 10-118 28-35 19-65 44-91 74-26 31-45 65-59 105-13 39-20 79-20 120 0 44 8 85 23 123 16 39 37 73 65 103 27 30 59 54 95 71s76 26 118 26zm889 65c-53 0-102-10-148-31-45-21-84-49-118-85-33-36-59-78-78-125-19-48-28-98-28-152s9-103 28-150 45-88 78-123c32-36 72-63 117-83 45-21 94-31 146-31 53 0 102 10 147 31s84 49 117 84c32 35 58 76 77 123s28 96 28 149c0 4 0 10-1 18v13h-662c3 44 13 84 31 121 17 37 39 70 65 97 27 27 58 48 92 63 35 16 72 23 112 23 26 0 52-3 77-10 26-8 50-18 71-30 22-13 41-28 58-46s30-37 40-58l64 17c-12 27-28 52-49 75-21 22-45 42-72 58-28 17-58 29-91 39-33 9-66 13-101 13zm295-419c-3-45-13-85-29-122-17-37-39-68-66-95-26-26-57-47-91-62-35-15-72-23-112-23-39 0-77 8-111 23-35 15-66 36-92 62-27 27-48 59-64 96s-25 77-28 121h593zm844 405h-72v-420c0-97-14-168-41-213-28-44-72-66-133-66-32 0-63 5-95 17-31 12-60 28-87 49-26 21-50 46-70 75-20 28-35 59-45 92v466h-72v-753h67v180c15-29 34-56 57-79 24-24 49-44 77-61s58-30 91-39c32-9 65-14 99-14 82 0 140 29 173 86 34 58 51 140 51 247v433zm547-36c-4 2-10 5-19 11-9 5-21 10-35 15s-30 9-47 13-36 6-56 6c-21 0-40-3-58-9-17-6-33-15-47-26-13-12-24-26-32-42-8-17-13-36-13-58v-568h-105v-59h105v-258h73v258h176v59h-176v551c0 28 9 49 29 63 19 13 41 20 66 20 30 0 56-5 78-15 21-10 35-16 40-19l21 58zm362 50c-58 0-113-9-166-29-53-19-100-48-139-87l36-49c40 37 82 64 126 81 43 18 91 26 143 26 66 0 119-13 159-41 40-27 60-66 60-115 0-23-5-43-15-59-11-15-26-29-46-40s-45-21-75-30c-30-8-65-18-105-27-42-10-79-20-110-29-32-10-57-21-78-35-20-13-35-30-45-49s-16-44-16-74c0-38 8-70 22-98 15-28 35-52 60-70 26-18 55-32 89-41 33-9 68-14 106-14 59 0 111 10 156 30 46 20 81 45 106 76l-41 39c-25-29-57-51-97-65-40-15-83-22-128-22-28 0-55 3-79 9-25 5-46 15-65 27-18 13-32 29-43 49-11 19-16 43-16 70 0 22 4 40 11 53 7 14 19 26 35 35 15 10 36 18 61 26 25 7 55 15 90 23 47 12 89 23 126 34 36 10 67 23 92 39 24 15 43 34 56 55s20 48 20 81c0 67-27 121-79 161-53 40-123 60-211 60z"/><path class="fil29" d="M6865 13950v-99h77v99h-77zm250 0v-99h77v99h-77zm250 0v-99h77v99h-77zm250 0v-99h77v99h-77zm250 0v-99h77v99h-77zm250 0v-99h77v99h-77zm250 0v-99h77v99h-77zm250 0v-99h77v99h-77zm250 0v-99h77v99h-77zm250 0v-99h77v99h-77zm250 0v-99h77v99h-77zm250 0v-99h77v99h-77zm250 0v-99h77v99h-77zm250 0v-99h77v99h-77zm250 0v-99h77v99h-77zm250 0v-99h77v99h-77zm250 0v-99h77v99h-77zm250 0v-99h77v99h-77zm250 0v-99h77v99h-77zm250 0v-99h77v99h-77zm250 0v-99h77v99h-77zm250 0v-99h77v99h-77zm250 0v-99h77v99h-77zm250 0v-99h77v99h-77zm250 0v-99h76v99h-76zm250 0v-99h76v99h-76z"/><path class="fil28" d="M52488 668l297 470 300-470h67l-336 529v321h-61v-323l-334-527h67zm925 862c-44 0-85-8-122-26-37-17-69-40-96-70-27-29-49-64-64-103s-22-80-22-123c0-44 7-85 23-125 15-39 37-73 65-103 27-29 59-53 96-70s77-25 120-25 83 8 120 25 70 41 97 70c28 30 49 64 65 103 15 40 23 81 23 125 0 43-8 84-23 123-16 39-37 74-64 103-27 30-60 53-97 70-38 18-78 26-121 26zm-243-320c0 37 6 72 19 104s30 60 52 84 48 43 77 57c30 14 61 21 95 21 33 0 65-7 94-21 30-14 56-33 78-58s39-53 52-85c14-33 20-68 20-105s-6-72-20-104c-13-32-30-61-52-85s-48-44-78-58c-29-14-61-22-94-22s-64 8-94 22c-29 14-55 34-77 59-23 24-40 53-53 87-13 33-19 68-19 104zm883 320c-134 0-201-92-201-275V895h60v351c0 154 53 230 157 230 27 0 52-4 78-13 25-10 48-22 70-39 21-16 40-36 57-59 16-23 29-49 38-77V895h60v539c0 20 9 30 25 30v54c-4 1-8 1-11 1h-10c-17 0-31-5-41-15-11-10-17-23-17-38v-95c-28 50-65 89-112 117s-98 42-153 42zm805-581c-57 2-106 18-148 50-41 31-71 75-87 130v389h-60V895h56v154c22-44 50-80 86-108 35-27 73-43 114-47h22c6-1 12-1 17-1v56zM53301 2794c0 37-7 72-22 105-14 32-34 60-59 84-25 25-55 43-88 57-34 13-70 20-108 20h-480V2032h479c36 0 68 8 97 24 29 15 54 35 74 60 20 24 36 52 47 84 11 31 16 63 16 94 0 53-13 100-39 144-26 43-62 75-108 95 59 18 105 50 140 98 34 48 51 102 51 163zm-74-10c0-27-5-54-14-79-10-26-24-48-41-68s-38-36-61-47c-24-12-49-18-76-18h-417v422h406c29 0 56-6 81-18 24-11 46-27 63-47 18-20 32-42 43-67s16-51 16-78zm-609-685v411h376c28 0 54-6 77-17 23-12 43-27 60-46s30-41 40-66c9-25 14-50 14-76 0-28-5-55-14-79-9-25-21-47-37-65-16-19-35-34-58-45-22-11-46-17-73-17h-385zm1220 274c-69 1-128 22-178 60s-86 90-106 157v470h-72v-753h68v186c26-53 60-97 103-130s89-52 139-57c9 0 18 0 26-1h20v68zm310 702c-35 0-68-6-98-19-30-12-57-28-80-49-22-20-40-45-53-74-12-28-18-59-18-91 0-33 7-63 23-90 15-27 37-51 65-70 28-20 61-36 99-47s80-16 127-16c40 0 81 3 123 10 41 8 78 18 111 30v-74c0-71-20-128-60-170-41-42-96-63-166-63-37 0-77 8-117 23-42 16-83 38-124 67l-29-49c97-66 189-99 275-99 91 0 162 27 215 79 52 53 79 126 79 218v368c0 24 10 36 30 36v65c-5 1-9 2-14 2h-12c-17 0-33-6-48-19-14-12-21-27-21-47v-62c-35 46-79 80-133 104-53 25-112 37-174 37zm14-58c56 0 108-11 155-31 47-21 82-49 106-85 16-19 24-39 24-58v-133c-73-27-148-41-226-41-75 0-136 16-182 47-46 30-69 71-69 121 0 25 4 49 14 71s23 41 41 57c17 16 37 29 61 38s49 14 76 14zm1194 43h-72v-420c0-97-14-168-41-212-28-45-72-67-133-67-32 0-63 6-95 17-31 12-60 28-86 50-27 21-50 46-71 74-20 29-35 59-45 92v466h-72v-753h67v180c15-29 34-55 58-79 23-24 48-44 76-61s58-30 91-39c32-9 65-14 99-14 82 0 140 29 174 87 33 57 50 139 50 246v433zm526 15c-52 0-101-11-145-33s-83-51-115-87-58-78-75-124c-18-47-27-96-27-146 0-52 9-102 26-149s41-89 72-124c31-36 68-65 110-86s88-32 138-32c33 0 64 5 93 15 30 10 57 22 81 38 25 16 47 35 68 56 20 21 37 44 52 68v-468h72v956c0 24 10 36 30 36v65c-4 1-9 2-13 2h-11c-21 0-39-7-52-21-13-13-19-28-19-45v-86c-31 50-72 90-124 120-51 30-105 45-161 45zm13-66c26 0 54-5 84-15 30-11 58-26 84-45 26-18 48-40 66-64 17-24 28-50 31-78v-248c-11-27-26-53-46-77-20-25-42-46-67-64s-52-32-81-43c-29-10-57-15-84-15-44 0-83 9-118 28s-66 43-91 74c-26 30-46 65-59 104-14 39-20 79-20 121 0 43 7 84 23 123 15 38 37 73 64 102 28 30 60 54 96 71 36 18 75 26 118 26z"/><path class="fil29" d="M44165 2589v-99h77v99h-77zm250 0v-99h77v99h-77zm250 0v-99h77v99h-77zm250 0v-99h77v99h-77zm250 0v-99h77v99h-77zm250 0v-99h77v99h-77zm250 0v-99h77v99h-77zm250 0v-99h77v99h-77zm250 0v-99h77v99h-77zm250 0v-99h77v99h-77zm250 0v-99h77v99h-77zm250 0v-99h77v99h-77zm250 0v-99h77v99h-77zm250 0v-99h77v99h-77zm250 0v-99h77v99h-77zm250 0v-99h77v99h-77zm250 0v-99h77v99h-77zm250 0v-99h77v99h-77zm250 0v-99h77v99h-77zm250 0v-99h77v99h-77zm250 0v-99h77v99h-77zm250 0v-99h77v99h-77zm250 0v-99h77v99h-77zm250 0v-99h76v99h-76zm250 0v-99h76v99h-76zm250 0v-99h76v99h-76zm250 0v-99h76v99h-76zm250 0v-99h76v99h-76zm250 0v-99h76v99h-76zm250 0v-99h76v99h-76zm250 0v-99h76v99h-76zm250 0v-99h76v99h-76z"/><path class="fil28" d="M52863 7154c-59 0-113-12-162-37-48-25-90-57-126-97-35-40-62-86-81-138-19-51-29-105-29-159 0-57 10-111 31-163 20-52 48-98 84-138 35-39 77-71 126-95 49-23 101-35 158-35 59 0 113 12 162 38 49 25 90 58 125 98 35 41 62 87 81 139 19 51 29 103 29 156 0 58-10 112-31 164-20 52-48 98-84 137-35 40-77 71-126 95-48 24-100 35-157 35zm-337-431c0 49 9 96 25 141s39 85 69 120c30 34 66 62 107 83s86 31 136 31c51 0 97-11 138-32 41-22 77-50 106-86 30-35 53-76 69-120 16-45 24-91 24-137 0-49-9-96-26-141-16-45-40-85-70-119-30-35-65-63-106-84-41-20-86-31-135-31-51 0-97 11-139 33-41 21-77 50-106 85-29 36-52 76-68 121-16 44-24 90-24 136zm1076 437c-133 0-200-91-200-275v-360h60v351c0 154 52 230 157 230 26 0 52-4 77-13 25-10 49-22 70-39 22-16 41-36 57-59s29-49 39-77v-393h60v540c0 20 8 29 25 29v54c-5 1-9 2-12 2h-9c-17 0-31-5-42-15s-16-23-16-39v-95c-28 50-65 90-113 117-47 28-98 42-153 42zm805-581c-57 2-106 19-147 50-42 32-71 75-88 130v389h-60v-623h57v154c21-44 50-80 85-107 36-28 74-44 115-48h21c7-1 12-1 17-1v56zM53145 7833c-67-74-161-111-283-111-100 0-173 19-219 57s-69 90-69 154c0 33 6 61 18 83 11 22 29 41 54 55 24 15 56 28 94 40 38 11 83 22 135 32 56 12 106 25 151 39 44 14 82 31 113 52 32 22 56 48 73 78 17 31 25 70 25 115s-9 85-27 119c-17 33-43 62-75 84-32 23-71 40-116 52-45 11-94 17-149 17-161 0-296-51-407-153l39-60c43 46 96 81 159 108s133 40 211 40c90 0 160-17 211-49 51-33 76-83 76-149 0-34-7-63-20-87-13-23-33-44-60-61s-60-32-100-45-87-25-141-36c-55-12-104-24-146-37s-77-29-106-49-51-44-65-72c-15-28-22-63-22-106 0-46 9-87 27-123 18-35 42-66 74-90 32-25 70-43 115-56 44-12 93-19 147-19 67 0 126 10 178 30s100 50 142 91l-37 57zm576 872c-53 0-102-11-147-31-45-21-84-49-117-85s-58-77-77-124c-18-48-27-97-27-150s9-103 28-150 45-89 78-125c34-35 73-64 117-84 44-21 93-31 145-31s100 10 145 31c45 20 84 49 117 84 34 36 60 78 79 125 18 47 28 97 28 150s-10 102-28 150c-19 47-45 88-78 124s-72 64-117 85c-46 20-94 31-146 31zm-294-387c0 45 8 86 23 126 15 39 36 73 63 102 26 29 58 51 93 68 36 17 74 26 115 26 40 0 78-9 114-26s67-40 93-70c27-30 48-64 64-103s24-82 24-127c0-44-8-86-24-125s-37-74-64-103c-26-29-57-53-93-70-36-18-74-26-114-26s-78 8-113 26c-36 17-67 41-94 71s-49 65-64 105-23 82-23 126zm865 372v-605h-105v-59h105v-113c0-93 19-165 58-216 38-52 90-78 157-78 28 0 55 4 82 13s49 20 67 35l-26 52c-14-11-30-19-50-26s-41-10-62-10c-49 0-87 19-113 58-27 40-40 96-40 171v114h214v59h-214v605h-73zm788-36c-4 2-11 6-20 11s-20 10-34 15-30 9-47 13c-18 4-37 6-57 6s-39-3-57-9c-18-5-34-14-47-26-14-11-25-25-33-42-8-16-12-35-12-58v-567h-106v-59h106v-258h72v258h177v59h-177v550c0 28 10 49 29 63 20 14 42 21 67 21 30 0 56-5 77-15 22-10 35-17 40-20l22 58zm1077-716h72l-326 752h-60l-170-398-169 398h-62l-325-752h71l288 673 158-371-129-301h64l104 249 103-249h64l-128 301 158 371 287-673zm378 767c-35 0-68-6-98-18-31-12-57-29-80-50-22-20-40-45-53-73-12-29-18-59-18-92s7-63 23-90c15-27 37-50 65-70s61-35 99-47c38-11 80-16 127-16 40 0 81 3 123 11 41 7 78 17 111 29v-73c0-72-20-129-61-171-40-42-95-63-165-63-37 0-77 8-118 24-41 15-82 37-123 66l-29-49c97-66 189-98 275-98 90 0 162 26 215 78 52 53 79 126 79 218v368c0 24 10 36 30 36v65c-5 1-9 2-14 2h-12c-17 0-33-6-48-18-14-12-22-28-22-47v-63c-34 46-78 80-132 105-54 24-112 36-174 36zm14-58c56 0 108-10 155-31s82-49 106-85c16-19 24-39 24-58v-133c-73-27-148-40-226-40-75 0-136 15-182 46s-69 71-69 121c0 25 4 49 14 71 10 23 23 42 41 57 17 16 37 29 61 38s49 14 76 14zm935-644c-68 2-128 22-178 60s-85 90-106 157v470h-72v-752h68v185c26-53 61-96 104-130 43-33 89-52 138-57 9 0 18 0 26-1h20v68zm459 702c-53 0-102-11-148-31-45-21-84-50-118-86-33-36-59-78-78-125s-28-98-28-152c0-53 9-103 28-150s45-88 78-123c32-35 72-63 117-83s94-30 146-30c53 0 102 10 147 31 45 20 84 48 116 84 33 35 59 76 78 123s28 96 28 148c0 5 0 11-1 18v14h-662c3 43 13 84 31 121 17 37 39 69 65 96 27 27 58 48 92 64 35 15 72 23 112 23 26 0 52-4 77-11 26-7 49-17 71-30 22-12 41-27 58-45s30-38 40-59l64 17c-12 28-28 52-49 75s-45 42-72 59c-28 16-58 29-91 38s-66 14-101 14zm295-420c-3-44-13-85-29-122-17-36-39-68-66-94-26-27-57-48-91-63-35-15-72-22-112-22-39 0-77 7-111 22-35 15-66 36-92 63-27 26-48 58-64 95s-25 78-28 121h593z"/><path class="fil29" d="M45764 8514v-99h77v99h-77zm250 0v-99h77v99h-77zm250 0v-99h77v99h-77zm250 0v-99h77v99h-77zm250 0v-99h77v99h-77zm250 0v-99h77v99h-77zm250 0v-99h77v99h-77zm250 0v-99h77v99h-77zm250 0v-99h77v99h-77zm250 0v-99h77v99h-77zm250 0v-99h77v99h-77zm250 0v-99h77v99h-77zm250 0v-99h77v99h-77zm250 0v-99h77v99h-77zm250 0v-99h77v99h-77zm250 0v-99h77v99h-77zm250 0v-99h76v99h-76zm250 0v-99h76v99h-76zm250 0v-99h76v99h-76zm250 0v-99h76v99h-76zm250 0v-99h76v99h-76zm250 0v-99h76v99h-76zm250 0v-99h76v99h-76zm250 0v-99h76v99h-76zm250 0v-99h76v99h-76zm250 0v-99h76v99h-76z"/><path class="fil28" d="M52863 12761c-59 0-113-13-162-38-48-24-90-57-126-97-35-40-62-86-81-137-19-52-29-105-29-160 0-56 10-111 31-163 20-52 48-97 84-137 35-40 77-72 126-96 49-23 101-35 158-35 59 0 113 13 162 38s90 58 125 99c35 40 62 86 81 138 19 51 29 104 29 156 0 58-10 112-31 164-20 52-48 98-84 138-35 39-77 71-126 94-48 24-100 36-157 36zm-337-432c0 49 9 96 25 141s39 85 69 120 66 62 107 83 86 31 136 31c51 0 97-11 138-32 41-22 77-50 106-86 30-35 53-75 69-120s24-90 24-137c0-48-9-95-26-140-16-46-40-86-70-120-30-35-65-63-106-84-41-20-86-31-135-31-51 0-97 11-139 33-41 21-77 50-106 85-29 36-52 76-68 121-16 44-24 90-24 136zm1076 438c-133 0-200-92-200-276v-359h60v351c0 153 52 230 157 230 26 0 52-5 77-14s49-22 70-39c22-16 41-36 57-59s29-49 39-76v-393h60v539c0 20 8 30 25 30v54c-5 0-9 1-12 1h-9c-17 0-31-5-42-15s-16-23-16-39v-95c-28 50-65 90-113 118-47 28-98 42-153 42zm805-581c-57 1-106 18-147 49-42 32-71 75-88 130v390h-60v-623h57v153c21-44 50-80 85-107 36-28 74-44 115-48h21c7-1 12-1 17-1v57zM52476 13775c0-61 11-123 32-184 22-62 54-116 95-164 42-49 93-88 153-118 60-31 129-46 206-46 92 0 170 21 235 63 64 42 112 96 143 161l-61 35c-17-36-38-66-63-90-24-24-51-43-79-58-29-15-59-26-89-33-31-7-62-10-92-10-65 0-123 13-173 40-51 26-93 61-128 103-34 43-61 91-79 144-17 54-26 108-26 162 0 60 10 118 31 173 22 55 51 104 87 146 37 42 80 75 131 100 50 26 104 38 162 38 31 0 62-4 95-11 32-8 63-20 94-37 30-16 58-37 84-63 26-25 48-55 65-90l63 30c-18 39-41 73-71 103-29 30-62 55-99 75-36 21-75 36-116 46s-81 15-121 15c-71 0-135-15-193-46-59-31-109-71-152-121-42-50-75-106-99-169-23-64-35-128-35-194zm1363 536c-53 0-102-10-147-31-44-21-83-49-116-85s-58-77-77-124c-18-48-27-97-27-149 0-54 9-104 28-151s45-89 78-124c33-36 72-64 117-85 44-21 92-31 144-31s101 10 146 31 84 49 117 85c33 35 59 77 78 124s28 97 28 151c0 52-9 101-28 149-19 47-44 88-77 124s-72 64-117 85c-46 21-95 31-147 31zm-294-387c0 45 8 87 24 126 15 39 36 73 63 102 26 29 57 52 93 68 36 17 74 26 114 26 41 0 79-9 115-26 35-16 67-40 93-70 27-30 48-64 64-103s24-82 24-127c0-44-8-86-24-125s-37-73-64-103c-26-29-58-53-93-70-36-17-74-26-115-26-39 0-77 9-113 26-35 17-67 41-94 71s-48 65-63 105c-16 40-24 82-24 126zm1449 372h-72v-419c0-98-14-169-41-213-28-45-72-67-133-67-31 0-63 6-94 18-32 11-61 28-87 49-27 21-50 46-71 74-20 29-35 60-44 92v466h-73v-752h67v179c15-29 35-55 58-79 23-23 48-44 76-60 28-17 59-30 91-40 32-9 65-13 99-13 82 0 140 28 174 86 34 57 50 140 50 247v432zm548-36c-4 2-11 6-20 11s-21 11-35 15c-14 5-29 10-47 13-17 4-36 6-56 6s-40-3-57-9c-18-5-34-14-47-26-14-11-25-25-33-42-8-16-12-35-12-58v-567h-106v-59h106v-258h72v258h177v59h-177v550c0 28 10 49 29 63s42 21 67 21c30 0 55-5 77-15s35-17 40-20l22 58zm442 51c-53 0-102-10-147-31-46-21-85-49-118-86-33-36-59-78-78-125s-29-98-29-152c0-53 10-103 29-150 19-46 44-87 77-123 33-35 72-63 117-83 46-20 94-30 147-30s102 10 147 31c44 21 83 49 116 84s59 76 78 123c18 47 28 96 28 148 0 5-1 11-1 18 0 8-1 12-1 14h-661c3 43 13 84 30 121 18 37 39 69 66 96s57 48 92 64c35 15 72 23 111 23 26 0 52-4 78-11 25-7 49-17 71-30 21-12 41-27 58-45s30-38 39-59l64 18c-11 27-28 52-48 74-21 23-45 42-73 59-27 16-57 29-90 38s-67 14-102 14zm296-420c-3-44-13-85-30-121-17-37-39-69-65-95-27-27-57-48-92-62-35-15-72-23-111-23-40 0-77 8-112 23-35 14-65 35-92 62-26 26-48 58-63 95-16 37-26 78-29 121h594zm844 405h-73v-419c0-98-13-169-41-213-27-45-72-67-132-67-32 0-64 6-95 18-32 11-61 28-87 49-27 21-50 46-70 74-21 29-35 60-45 92v466h-73v-752h67v179c16-29 35-55 58-79 23-23 49-44 77-60 28-17 58-30 90-40 33-9 66-13 99-13 82 0 140 28 174 86 34 57 51 140 51 247v432zm547-36c-4 2-11 6-20 11s-20 11-34 15c-14 5-30 10-47 13-18 4-37 6-57 6s-39-3-57-9c-18-5-34-14-47-26-14-11-25-25-33-42-8-16-12-35-12-58v-567h-106v-59h106v-258h72v258h177v59h-177v550c0 28 10 49 29 63 20 14 42 21 67 21 30 0 56-5 77-15 22-10 35-17 40-20l22 58z"/><path class="fil29" d="M52675 15561c-30 0-57-5-82-17-26-12-47-28-66-48-18-20-33-43-43-70-10-26-15-54-15-83 0-30 5-59 15-85 11-27 26-50 44-70 19-20 41-36 66-48 25-11 52-17 81-17s57 6 82 17c25 12 47 28 66 48s33 43 44 70c10 26 16 55 16 85 0 29-6 57-16 83-11 27-25 50-44 70-18 20-40 36-66 48-25 12-53 17-82 17zm-165-217c0 25 4 49 13 70 9 23 21 42 35 58 15 16 33 29 53 39 20 9 41 14 64 14s44-5 64-14c20-10 38-23 53-40s27-36 36-58 13-46 13-71-4-49-13-71-21-41-36-57c-15-17-33-30-53-40s-41-14-64-14c-22 0-43 4-63 14s-38 23-53 40-27 36-36 59c-9 22-13 46-13 71zm669-177c-39 1-72 12-100 34-29 21-48 50-60 88v264h-40v-423h38v104c14-29 34-54 58-72 24-19 50-30 78-33h26v38zm278 530c5 0 12 0 21-1 10 0 17-2 22-5 2-1 5-3 8-7s7-11 11-21c5-10 11-23 19-41s17-41 29-69l-189-423h43l168 383 157-383h39l-231 557c-9 19-19 32-33 38-13 6-29 10-48 10h-8c-3 0-5-1-8-1v-37zm573-136c-30 0-57-5-82-17-26-12-47-28-66-48-18-20-33-43-43-70-10-26-15-54-15-83 0-30 5-59 15-85 11-27 26-50 44-70 19-20 41-36 66-48 25-11 52-17 81-17s57 6 82 17c25 12 47 28 66 48s33 43 44 70c10 26 16 55 16 85 0 29-6 57-16 83-11 27-25 50-44 70-18 20-40 36-66 48-25 12-53 17-82 17zm-165-217c0 25 4 49 13 70 9 23 21 42 35 58 15 16 33 29 53 39 20 9 41 14 64 14s44-5 64-14c20-10 38-23 53-40s27-36 36-58 13-46 13-71-4-49-13-71-21-41-36-57c-15-17-33-30-53-40s-41-14-64-14c-22 0-43 4-63 14s-38 23-53 40-27 36-36 59c-9 22-13 46-13 71zm600 217c-91 0-136-62-136-187v-244h40v239c0 104 36 156 107 156 18 0 35-3 52-10 17-6 33-15 48-26s27-24 39-40c11-16 20-33 26-52v-267h41v366c0 14 5 21 17 21v36c-3 1-6 1-8 1h-7c-11 0-21-3-28-10s-11-16-11-27v-64c-19 34-44 61-76 80s-67 28-104 28zm546-394c-38 1-72 12-100 34-28 21-48 50-59 88v264h-41v-423h38v104c15-29 34-54 58-72 25-19 50-30 78-33h26v38zm243 173c0-30 5-58 16-84 10-27 25-50 43-70 19-19 41-35 67-46 25-11 53-17 83-17 39 0 73 9 102 26s51 41 66 72l-40 13c-12-23-30-41-54-55-23-13-48-19-76-19-23 0-45 4-65 13-20 10-38 22-53 39-15 16-26 35-35 57-8 22-12 46-12 71 0 26 4 50 13 72 9 23 21 42 36 59 15 16 32 29 52 39s42 15 65 15c14 0 29-2 43-7 15-4 28-10 40-17s23-15 32-25c9-9 15-19 18-29l40 11c-6 15-14 28-25 41s-24 24-39 33-32 16-50 22c-18 5-37 7-57 7-30 0-57-5-83-17-25-12-47-28-66-48s-34-44-44-70c-11-27-17-56-17-86zm646 221c-30 0-57-5-82-17-26-12-47-28-66-48-18-20-33-43-43-70-10-26-15-54-15-83 0-30 5-59 15-85 11-27 26-50 44-70 19-20 41-36 66-48 25-11 52-17 81-17s57 6 82 17c25 12 47 28 66 48 18 20 33 43 44 70 10 26 15 55 15 85 0 29-5 57-15 83-11 27-25 50-44 70-18 20-40 36-66 48-25 12-53 17-82 17zm-165-217c0 25 4 49 13 70 9 23 20 42 35 58s33 29 53 39c20 9 41 14 64 14s44-5 64-14c20-10 38-23 53-40s27-36 36-58 13-46 13-71-4-49-13-71-21-41-36-57c-15-17-33-30-53-40s-41-14-64-14c-22 0-43 4-63 14s-38 23-53 40-27 36-36 59c-9 22-13 46-13 71zm814 209h-41v-236c0-54-7-94-23-119-15-25-40-38-74-38-18 0-36 4-53 10-18 7-34 16-49 28s-28 26-40 42c-11 16-19 33-25 51v262h-41v-423h38v101c9-16 19-31 32-44 13-14 28-25 44-34 15-10 32-17 50-22 19-6 37-8 56-8 46 0 79 16 98 48 19 33 28 79 28 139v243zm308-20c-3 1-6 3-11 6-6 3-12 6-20 9-8 2-17 5-26 7-10 2-21 3-32 3s-22-2-32-5-19-8-27-14c-7-7-13-15-18-24s-7-20-7-33v-318h-59v-34h59v-145h41v145h99v34h-99v309c0 15 5 27 16 35s23 12 38 12c16 0 31-3 43-9 12-5 20-9 22-11l13 33zm248 28c-29 0-57-5-82-17-26-12-48-28-67-48-18-20-33-44-44-70-10-27-16-56-16-86s6-58 16-84c11-26 25-49 44-69 18-20 40-36 66-47 25-11 53-17 82-17 30 0 57 6 82 17 26 12 47 28 66 48 18 19 33 42 43 69 11 26 16 54 16 83v10c0 4-1 7-1 8h-371c1 24 7 47 17 68s22 39 37 54 32 27 51 36c20 8 41 13 63 13 15 0 29-2 44-6 14-4 27-10 40-17 12-7 23-16 32-26s17-21 22-33l36 10c-6 15-15 29-27 42s-25 24-41 33c-15 9-32 16-51 22-18 5-37 7-57 7zm166-236c-1-24-7-47-16-68-10-21-22-38-37-53s-32-27-52-35c-19-9-40-13-62-13s-43 4-63 13c-19 8-37 20-51 35-15 15-27 33-36 54-9 20-14 43-16 67h333zm475 228h-41v-236c0-54-8-94-23-119-16-25-40-38-75-38-18 0-35 4-53 10-18 7-34 16-49 28s-28 26-39 42c-12 16-20 33-25 51v262h-41v-423h37v101c9-16 20-31 33-44 13-14 27-25 43-34 16-10 33-17 51-22 18-6 37-8 56-8 46 0 78 16 97 48 19 33 29 79 29 139v243zm307-20c-2 1-6 3-11 6s-12 6-19 9c-8 2-17 5-27 7s-20 3-32 3c-11 0-22-2-32-5s-19-8-26-14c-8-7-14-15-18-24-5-9-7-20-7-33v-318h-60v-34h60v-145h40v145h100v34h-100v309c0 15 6 27 17 35 10 8 23 12 37 12 17 0 31-3 43-9 13-5 20-9 23-11l12 33zM44165 14120v-99h77v99h-77zm250 0v-99h77v99h-77zm250 0v-99h77v99h-77zm250 0v-99h77v99h-77zm250 0v-99h77v99h-77zm250 0v-99h77v99h-77zm250 0v-99h77v99h-77zm250 0v-99h77v99h-77zm250 0v-99h77v99h-77zm250 0v-99h77v99h-77zm250 0v-99h77v99h-77zm250 0v-99h77v99h-77zm250 0v-99h77v99h-77zm250 0v-99h77v99h-77zm250 0v-99h77v99h-77zm250 0v-99h77v99h-77zm250 0v-99h77v99h-77zm250 0v-99h77v99h-77zm250 0v-99h77v99h-77zm250 0v-99h77v99h-77zm250 0v-99h77v99h-77zm250 0v-99h77v99h-77zm250 0v-99h77v99h-77zm250 0v-99h76v99h-76zm250 0v-99h76v99h-76zm250 0v-99h76v99h-76zm250 0v-99h76v99h-76zm250 0v-99h76v99h-76zm250 0v-99h76v99h-76zm250 0v-99h76v99h-76zm250 0v-99h76v99h-76zm250 0v-99h76v99h-76zM58060 13769l132-189-214-69 29-91 216 75-9-226h116l-9 226 213-75 28 91-213 69 135 189-82 56-132-191-132 191z"/><g clip-path="url(#id0)"><path class="fil30" d="M51163 20639h-113v-552h113z"/><path id="1" class="fil31" d="M51163 20639h-339v-552h339z"/><path id="2" class="fil32" d="M50937 20639h-339v-552h339z"/><path id="3" class="fil33" d="M50711 20639h-339v-552h339z"/><path id="4" class="fil34" d="M50485 20639h-339v-552h339z"/><path id="5" class="fil35" d="M50259 20639h-339v-552h339z"/><path id="6" class="fil36" d="M50033 20639h-339v-552h339z"/><path id="7" class="fil37" d="M49807 20639h-338v-552h338z"/><path id="8" class="fil38" d="M49581 20639h-338v-552h338z"/><path id="9" class="fil39" d="M49356 20639h-339v-552h339z"/><path id="10" class="fil40" d="M49130 20639h-339v-552h339z"/><path id="11" class="fil41" d="M48904 20639h-339v-552h339z"/><path id="12" class="fil42" d="M48678 20639h-339v-552h339z"/><path id="13" class="fil43" d="M48452 20639h-339v-552h339z"/><path id="14" class="fil44" d="M48226 20639h-339v-552h339z"/><path id="15" class="fil44" d="M48000 20639h-339v-552h339z"/><path id="16" class="fil45" d="M47774 20639h-339v-552h339z"/><path id="17" class="fil45" d="M47548 20639h-339v-552h339z"/><path id="18" class="fil45" d="M47322 20639h-339v-552h339z"/><path id="19" class="fil46" d="M47096 20639h-339v-552h339z"/><path id="20" class="fil47" d="M46870 20639h-339v-552h339z"/><path id="21" class="fil47" d="M46644 20639h-338v-552h338z"/><path id="22" class="fil48" d="M46418 20639h-338v-552h338z"/><path id="23" class="fil48" d="M46193 20639h-339v-552h339z"/><path id="24" class="fil49" d="M45967 20639h-339v-552h339z"/><path id="25" class="fil50" d="M45741 20639h-339v-552h339z"/><path id="26" class="fil50" d="M45515 20639h-339v-552h339z"/><path id="27" class="fil51" d="M45289 20639h-339v-552h339z"/><path id="28" class="fil51" d="M45063 20639h-339v-552h339z"/><path id="29" class="fil52" d="M44837 20639h-339v-552h339z"/><path id="30" class="fil52" d="M44611 20639h-339v-552h339z"/><path id="31" class="fil52" d="M44385 20639h-339v-552h339z"/><path id="32" class="fil53" d="M44159 20639h-339v-552h339z"/><path id="33" class="fil54" d="M43933 20639h-339v-552h339z"/><path id="34" class="fil54" d="M43707 20639h-339v-552h339z"/><path id="35" class="fil55" d="M43481 20639h-338v-552h338z"/><path id="36" class="fil56" d="M43255 20639h-338v-552h338z"/><path id="37" class="fil57" d="M43030 20639h-339v-552h339z"/><path id="38" class="fil58" d="M42804 20639h-339v-552h339z"/><path id="39" class="fil58" d="M42578 20639h-339v-552h339z"/><path id="40" class="fil58" d="M42352 20639h-339v-552h339z"/><path id="41" class="fil59" d="M42126 20639h-339v-552h339z"/><path id="42" class="fil59" d="M41900 20639h-339v-552h339z"/><path id="43" class="fil59" d="M41674 20639h-339v-552h339z"/><path id="44" class="fil60" d="M41448 20639h-339v-552h339z"/><path id="45" class="fil61" d="M41222 20639h-339v-552h339z"/><path id="46" class="fil61" d="M40996 20639h-339v-552h339z"/><path id="47" class="fil62" d="M40770 20639h-339v-552h339z"/><path id="48" class="fil62" d="M40544 20639h-339v-552h339z"/><path id="49" class="fil63" d="M40318 20639h-338v-552h338z"/><path id="50" class="fil63" d="M40092 20639h-338v-552h338z"/><path id="51" class="fil64" d="M39867 20639h-339v-552h339z"/><path id="52" class="fil64" d="M39641 20639h-339v-552h339z"/><path id="53" class="fil65" d="M39415 20639h-339v-552h339z"/><path id="54" class="fil66" d="M39189 20639h-339v-552h339z"/><path id="55" class="fil66" d="M38963 20639h-339v-552h339z"/><path id="56" class="fil66" d="M38737 20639h-339v-552h339z"/><path id="57" class="fil67" d="M38511 20639h-339v-552h339z"/><path id="58" class="fil67" d="M38285 20639h-339v-552h339z"/><path id="59" class="fil67" d="M38059 20639h-339v-552h339z"/><path id="60" class="fil68" d="M37833 20639h-339v-552h339z"/><path id="61" class="fil69" d="M37607 20639h-339v-552h339z"/><path id="62" class="fil69" d="M37381 20639h-339v-552h339z"/><path id="63" class="fil70" d="M37155 20639h-338v-552h338z"/><path id="64" class="fil70" d="M36929 20639h-338v-552h338z"/><path id="65" class="fil71" d="M36704 20639h-339v-552h339z"/><path id="66" class="fil72" d="M36478 20639h-339v-552h339z"/><path id="67" class="fil72" d="M36252 20639h-339v-552h339z"/><path id="68" class="fil72" d="M36026 20639h-339v-552h339z"/><path id="69" class="fil73" d="M35800 20639h-339v-552h339z"/><path id="70" class="fil74" d="M35574 20639h-339v-552h339z"/><path id="71" class="fil74" d="M35348 20639h-339v-552h339z"/><path id="72" class="fil74" d="M35122 20639h-339v-552h339z"/><path id="73" class="fil75" d="M34896 20639h-339v-552h339z"/><path id="74" class="fil75" d="M34670 20639h-339v-552h339z"/><path id="75" class="fil75" d="M34444 20639h-339v-552h339z"/><path id="76" class="fil76" d="M34218 20639h-339v-552h339z"/><path id="77" class="fil77" d="M33992 20639h-338v-552h338z"/><path id="78" class="fil78" d="M33766 20639h-338v-552h338z"/><path id="79" class="fil79" d="M33541 20639h-339v-552h339z"/><path id="80" class="fil79" d="M33315 20639h-339v-552h339z"/><path id="81" class="fil80" d="M33089 20639h-339v-552h339z"/><path id="82" class="fil81" d="M32863 20639h-339v-552h339z"/><path id="83" class="fil81" d="M32637 20639h-339v-552h339z"/><path id="84" class="fil81" d="M32411 20639h-339v-552h339z"/><path id="85" class="fil82" d="M32185 20639h-339v-552h339z"/><path id="86" class="fil82" d="M31959 20639h-339v-552h339z"/><path id="87" class="fil83" d="M31733 20639h-339v-552h339z"/><path id="88" class="fil84" d="M31507 20639h-339v-552h339z"/><path id="89" class="fil85" d="M31281 20639h-339v-552h339z"/><path id="90" class="fil85" d="M31055 20639h-339v-552h339z"/><path id="91" class="fil85" d="M30829 20639h-338v-552h338z"/><path id="92" class="fil86" d="M30603 20639h-338v-552h338z"/><path id="93" class="fil87" d="M30378 20639h-339v-552h339z"/><path id="94" class="fil87" d="M30152 20639h-339v-552h339z"/><path id="95" class="fil88" d="M29926 20639h-339v-552h339z"/><path id="96" class="fil88" d="M29700 20639h-339v-552h339z"/><path id="97" class="fil89" d="M29474 20639h-339v-552h339z"/><path id="98" class="fil90" d="M29248 20639h-339v-552h339z"/><path id="99" class="fil91" d="M29022 20639h-339v-552h339z"/><path id="100" class="fil90" d="M28796 20639h-339v-552h339z"/><path id="101" class="fil89" d="M28570 20639h-339v-552h339z"/><path id="102" class="fil88" d="M28344 20639h-339v-552h339z"/><path id="103" class="fil88" d="M28118 20639h-339v-552h339z"/><path id="104" class="fil87" d="M27892 20639h-339v-552h339z"/><path id="105" class="fil87" d="M27666 20639h-339v-552h339z"/><path id="106" class="fil86" d="M27440 20639h-338v-552h338z"/><path id="107" class="fil85" d="M27215 20639h-339v-552h339z"/><path id="108" class="fil85" d="M26989 20639h-339v-552h339z"/><path id="109" class="fil85" d="M26763 20639h-339v-552h339z"/><path id="110" class="fil84" d="M26537 20639h-339v-552h339z"/><path id="111" class="fil83" d="M26311 20639h-339v-552h339z"/><path id="112" class="fil82" d="M26085 20639h-339v-552h339z"/><path id="113" class="fil82" d="M25859 20639h-339v-552h339z"/><path id="114" class="fil81" d="M25633 20639h-339v-552h339z"/><path id="115" class="fil81" d="M25407 20639h-339v-552h339z"/><path id="116" class="fil81" d="M25181 20639h-339v-552h339z"/><path id="117" class="fil80" d="M24955 20639h-339v-552h339z"/><path id="118" class="fil79" d="M24729 20639h-339v-552h339z"/><path id="119" class="fil79" d="M24503 20639h-339v-552h339z"/><path id="120" class="fil78" d="M24277 20639h-338v-552h338z"/><path id="121" class="fil77" d="M24051 20639h-338v-552h338z"/><path id="122" class="fil76" d="M23826 20639h-339v-552h339z"/><path id="123" class="fil75" d="M23600 20639h-339v-552h339z"/><path id="124" class="fil75" d="M23374 20639h-339v-552h339z"/><path id="125" class="fil75" d="M23148 20639h-339v-552h339z"/><path id="126" class="fil74" d="M22922 20639h-339v-552h339z"/><path id="127" class="fil74" d="M22696 20639h-339v-552h339z"/><path id="128" class="fil74" d="M22470 20639h-339v-552h339z"/><path id="129" class="fil73" d="M22244 20639h-339v-552h339z"/><path id="130" class="fil72" d="M22018 20639h-339v-552h339z"/><path id="131" class="fil72" d="M21792 20639h-339v-552h339z"/><path id="132" class="fil72" d="M21566 20639h-339v-552h339z"/><path id="133" class="fil71" d="M21340 20639h-339v-552h339z"/><path id="134" class="fil70" d="M21114 20639h-338v-552h338z"/><path id="135" class="fil70" d="M20888 20639h-338v-552h338z"/><path id="136" class="fil69" d="M20663 20639h-339v-552h339z"/><path id="137" class="fil69" d="M20437 20639h-339v-552h339z"/><path id="138" class="fil68" d="M20211 20639h-339v-552h339z"/><path id="139" class="fil67" d="M19985 20639h-339v-552h339z"/><path id="140" class="fil67" d="M19759 20639h-339v-552h339z"/><path id="141" class="fil67" d="M19533 20639h-339v-552h339z"/><path id="142" class="fil66" d="M19307 20639h-339v-552h339z"/><path id="143" class="fil66" d="M19081 20639h-339v-552h339z"/><path id="144" class="fil66" d="M18855 20639h-339v-552h339z"/><path id="145" class="fil65" d="M18629 20639h-339v-552h339z"/><path id="146" class="fil64" d="M18403 20639h-339v-552h339z"/><path id="147" class="fil64" d="M18177 20639h-339v-552h339z"/><path id="148" class="fil63" d="M17951 20639h-338v-552h338z"/><path id="149" class="fil63" d="M17725 20639h-338v-552h338z"/><path id="150" class="fil62" d="M17500 20639h-339v-552h339z"/><path id="151" class="fil62" d="M17274 20639h-339v-552h339z"/><path id="152" class="fil61" d="M17048 20639h-339v-552h339z"/><path id="153" class="fil61" d="M16822 20639h-339v-552h339z"/><path id="154" class="fil60" d="M16596 20639h-339v-552h339z"/><path id="155" class="fil59" d="M16370 20639h-339v-552h339z"/><path id="156" class="fil59" d="M16144 20639h-339v-552h339z"/><path id="157" class="fil59" d="M15918 20639h-339v-552h339z"/><path id="158" class="fil58" d="M15692 20639h-339v-552h339z"/><path id="159" class="fil58" d="M15466 20639h-339v-552h339z"/><path id="160" class="fil58" d="M15240 20639h-339v-552h339z"/><path id="161" class="fil57" d="M15014 20639h-339v-552h339z"/><path id="162" class="fil56" d="M14788 20639h-338v-552h338z"/><path id="163" class="fil55" d="M14562 20639h-338v-552h338z"/><path id="164" class="fil54" d="M14337 20639h-339v-552h339z"/><path id="165" class="fil54" d="M14111 20639h-339v-552h339z"/><path id="166" class="fil53" d="M13885 20639h-339v-552h339z"/><path id="167" class="fil52" d="M13659 20639h-339v-552h339z"/><path id="168" class="fil52" d="M13433 20639h-339v-552h339z"/><path id="169" class="fil52" d="M13207 20639h-339v-552h339z"/><path id="170" class="fil51" d="M12981 20639h-339v-552h339z"/><path id="171" class="fil51" d="M12755 20639h-339v-552h339z"/><path id="172" class="fil50" d="M12529 20639h-339v-552h339z"/><path id="173" class="fil50" d="M12303 20639h-339v-552h339z"/><path id="174" class="fil49" d="M12077 20639h-339v-552h339z"/><path id="175" class="fil48" d="M11851 20639h-339v-552h339z"/><path id="176" class="fil48" d="M11625 20639h-338v-552h338z"/><path id="177" class="fil47" d="M11399 20639h-338v-552h338z"/><path id="178" class="fil47" d="M11174 20639h-339v-552h339z"/><path id="179" class="fil46" d="M10948 20639h-339v-552h339z"/><path id="180" class="fil45" d="M10722 20639h-339v-552h339z"/><path id="181" class="fil45" d="M10496 20639h-339v-552h339z"/><path id="182" class="fil45" d="M10270 20639h-339v-552h339z"/><path id="183" class="fil44" d="M10044 20639h-339v-552h339z"/><path id="184" class="fil44" d="M9818 20639h-339v-552h339z"/><path id="185" class="fil43" d="M9592 20639h-339v-552h339z"/><path id="186" class="fil42" d="M9366 20639h-339v-552h339z"/><path id="187" class="fil41" d="M9140 20639h-339v-552h339z"/><path id="188" class="fil40" d="M8914 20639h-339v-552h339z"/><path id="189" class="fil39" d="M8688 20639h-339v-552h339z"/><path id="190" class="fil38" d="M8462 20639h-338v-552h338z"/><path id="191" class="fil37" d="M8236 20639h-338v-552h338z"/><path id="192" class="fil36" d="M8011 20639h-339v-552h339z"/><path id="193" class="fil35" d="M7785 20639h-339v-552h339z"/><path id="194" class="fil34" d="M7559 20639h-339v-552h339z"/><path id="195" class="fil33" d="M7333 20639h-339v-552h339z"/><path id="196" class="fil32" d="M7107 20639h-339v-552h339z"/><path id="197" class="fil31" d="M6881 20639h-339v-552h339z"/><path id="198" class="fil30" d="M6655 20639h-339v-552h339z"/><path id="199" class="fil31" d="M6429 20639h-339v-552h339z"/><path id="200" class="fil32" d="M6203 20639h-226v-552h226z"/></g><g clip-path="url(#id1)"><path class="fil92" d="M32192 20511h-18v-424h18z"/><path id="1" class="fil93" d="M32192 20511h-54v-424h54z"/><path id="2" class="fil94" d="M32156 20511h-54v-424h54z"/><path id="3" class="fil37" d="M32120 20511h-55v-424h55z"/><path id="4" class="fil95" d="M32083 20511h-54v-424h54z"/><path id="5" class="fil96" d="M32047 20511h-54v-424h54z"/><path id="6" class="fil97" d="M32011 20511h-54v-424h54z"/><path id="7" class="fil38" d="M31975 20511h-55v-424h55z"/><path id="8" class="fil98" d="M31939 20511h-55v-424h55z"/><path id="9" class="fil99" d="M31902 20511h-54v-424h54z"/><path id="10" class="fil100" d="M31866 20511h-54v-424h54z"/><path id="11" class="fil101" d="M31830 20511h-54v-424h54z"/><path id="12" class="fil102" d="M31794 20511h-55v-424h55z"/><path id="13" class="fil103" d="M31758 20511h-55v-424h55z"/><path id="14" class="fil104" d="M31721 20511h-54v-424h54z"/><path id="15" class="fil105" d="M31685 20511h-54v-424h54z"/><path id="16" class="fil106" d="M31649 20511h-54v-424h54z"/><path id="17" class="fil107" d="M31613 20511h-55v-424h55z"/><path id="18" class="fil108" d="M31576 20511h-54v-424h54z"/><path id="19" class="fil109" d="M31540 20511h-54v-424h54z"/><path id="20" class="fil110" d="M31504 20511h-54v-424h54z"/><path id="21" class="fil111" d="M31468 20511h-55v-424h55z"/><path id="22" class="fil112" d="M31432 20511h-55v-424h55z"/><path id="23" class="fil113" d="M31395 20511h-54v-424h54z"/><path id="24" class="fil114" d="M31359 20511h-54v-424h54z"/><path id="25" class="fil115" d="M31323 20511h-54v-424h54z"/><path id="26" class="fil116" d="M31287 20511h-55v-424h55z"/><path id="27" class="fil117" d="M31250 20511h-54v-424h54z"/><path id="28" class="fil118" d="M31214 20511h-54v-424h54z"/><path id="29" class="fil119" d="M31178 20511h-54v-424h54z"/><path id="30" class="fil120" d="M31142 20511h-54v-424h54z"/><path id="31" class="fil44" d="M31106 20511h-55v-424h55z"/><path id="32" class="fil121" d="M31069 20511h-54v-424h54z"/><path id="33" class="fil45" d="M31033 20511h-54v-424h54z"/><path id="34" class="fil45" d="M30997 20511h-54v-424h54z"/><path id="35" class="fil46" d="M30961 20511h-55v-424h55z"/><path id="36" class="fil47" d="M30925 20511h-55v-424h55z"/><path id="37" class="fil47" d="M30888 20511h-54v-424h54z"/><path id="38" class="fil48" d="M30852 20511h-54v-424h54z"/><path id="39" class="fil49" d="M30816 20511h-54v-424h54z"/><path id="40" class="fil50" d="M30780 20511h-55v-424h55z"/><path id="41" class="fil51" d="M30743 20511h-54v-424h54z"/><path id="42" class="fil51" d="M30707 20511h-54v-424h54z"/><path id="43" class="fil52" d="M30671 20511h-54v-424h54z"/><path id="44" class="fil52" d="M30635 20511h-55v-424h55z"/><path id="45" class="fil53" d="M30599 20511h-55v-424h55z"/><path id="46" class="fil54" d="M30562 20511h-54v-424h54z"/><path id="47" class="fil54" d="M30526 20511h-54v-424h54z"/><path id="48" class="fil56" d="M30490 20511h-54v-424h54z"/><path id="49" class="fil57" d="M30454 20511h-55v-424h55z"/><path id="50" class="fil58" d="M30417 20511h-54v-424h54z"/><path id="51" class="fil58" d="M30381 20511h-54v-424h54z"/><path id="52" class="fil122" d="M30345 20511h-54v-424h54z"/><path id="53" class="fil59" d="M30309 20511h-55v-424h55z"/><path id="54" class="fil59" d="M30273 20511h-55v-424h55z"/><path id="55" class="fil60" d="M30236 20511h-54v-424h54z"/><path id="56" class="fil61" d="M30200 20511h-54v-424h54z"/><path id="57" class="fil61" d="M30164 20511h-54v-424h54z"/><path id="58" class="fil62" d="M30128 20511h-55v-424h55z"/><path id="59" class="fil63" d="M30091 20511h-54v-424h54z"/><path id="60" class="fil64" d="M30055 20511h-54v-424h54z"/><path id="61" class="fil64" d="M30019 20511h-54v-424h54z"/><path id="62" class="fil65" d="M29983 20511h-55v-424h55z"/><path id="63" class="fil66" d="M29947 20511h-55v-424h55z"/><path id="64" class="fil66" d="M29910 20511h-54v-424h54z"/><path id="65" class="fil67" d="M29874 20511h-54v-424h54z"/><path id="66" class="fil67" d="M29838 20511h-54v-424h54z"/><path id="67" class="fil67" d="M29802 20511h-55v-424h55z"/><path id="68" class="fil68" d="M29765 20511h-54v-424h54z"/><path id="69" class="fil69" d="M29729 20511h-54v-424h54z"/><path id="70" class="fil70" d="M29693 20511h-54v-424h54z"/><path id="71" class="fil70" d="M29657 20511h-55v-424h55z"/><path id="72" class="fil71" d="M29621 20511h-55v-424h55z"/><path id="73" class="fil72" d="M29584 20511h-54v-424h54z"/><path id="74" class="fil72" d="M29548 20511h-54v-424h54z"/><path id="75" class="fil123" d="M29512 20511h-54v-424h54z"/><path id="76" class="fil74" d="M29476 20511h-55v-424h55z"/><path id="77" class="fil74" d="M29440 20511h-55v-424h55z"/><path id="78" class="fil75" d="M29403 20511h-54v-424h54z"/><path id="79" class="fil75" d="M29367 20511h-54v-424h54z"/><path id="80" class="fil75" d="M29331 20511h-54v-424h54z"/><path id="81" class="fil76" d="M29295 20511h-55v-424h55z"/><path id="82" class="fil78" d="M29258 20511h-54v-424h54z"/><path id="83" class="fil79" d="M29222 20511h-54v-424h54z"/><path id="84" class="fil79" d="M29186 20511h-54v-424h54z"/><path id="85" class="fil80" d="M29150 20511h-55v-424h55z"/><path id="86" class="fil81" d="M29114 20511h-55v-424h55z"/><path id="87" class="fil81" d="M29077 20511h-54v-424h54z"/><path id="88" class="fil82" d="M29041 20511h-54v-424h54z"/><path id="89" class="fil83" d="M29005 20511h-54v-424h54z"/><path id="90" class="fil83" d="M28969 20511h-55v-424h55z"/><path id="91" class="fil85" d="M28932 20511h-54v-424h54z"/><path id="92" class="fil85" d="M28896 20511h-54v-424h54z"/><path id="93" class="fil86" d="M28860 20511h-54v-424h54z"/><path id="94" class="fil86" d="M28824 20511h-54v-424h54z"/><path id="95" class="fil87" d="M28788 20511h-55v-424h55z"/><path id="96" class="fil88" d="M28751 20511h-54v-424h54z"/><path id="97" class="fil88" d="M28715 20511h-54v-424h54z"/><path id="98" class="fil90" d="M28679 20511h-54v-424h54z"/><path id="99" class="fil91" d="M28643 20511h-55v-424h55z"/><path id="100" class="fil90" d="M28607 20511h-55v-424h55z"/><path id="101" class="fil88" d="M28570 20511h-54v-424h54z"/><path id="102" class="fil88" d="M28534 20511h-54v-424h54z"/><path id="103" class="fil87" d="M28498 20511h-54v-424h54z"/><path id="104" class="fil86" d="M28462 20511h-55v-424h55z"/><path id="105" class="fil86" d="M28425 20511h-54v-424h54z"/><path id="106" class="fil85" d="M28389 20511h-54v-424h54z"/><path id="107" class="fil85" d="M28353 20511h-54v-424h54z"/><path id="108" class="fil83" d="M28317 20511h-55v-424h55z"/><path id="109" class="fil83" d="M28281 20511h-55v-424h55z"/><path id="110" class="fil82" d="M28244 20511h-54v-424h54z"/><path id="111" class="fil81" d="M28208 20511h-54v-424h54z"/><path id="112" class="fil81" d="M28172 20511h-54v-424h54z"/><path id="113" class="fil80" d="M28136 20511h-55v-424h55z"/><path id="114" class="fil79" d="M28099 20511h-54v-424h54z"/><path id="115" class="fil79" d="M28063 20511h-54v-424h54z"/><path id="116" class="fil78" d="M28027 20511h-54v-424h54z"/><path id="117" class="fil76" d="M27991 20511h-55v-424h55z"/><path id="118" class="fil75" d="M27955 20511h-55v-424h55z"/><path id="119" class="fil75" d="M27918 20511h-54v-424h54z"/><path id="120" class="fil75" d="M27882 20511h-54v-424h54z"/><path id="121" class="fil74" d="M27846 20511h-54v-424h54z"/><path id="122" class="fil74" d="M27810 20511h-55v-424h55z"/><path id="123" class="fil123" d="M27773 20511h-54v-424h54z"/><path id="124" class="fil72" d="M27737 20511h-54v-424h54z"/><path id="125" class="fil72" d="M27701 20511h-54v-424h54z"/><path id="126" class="fil71" d="M27665 20511h-54v-424h54z"/><path id="127" class="fil70" d="M27629 20511h-55v-424h55z"/><path id="128" class="fil70" d="M27592 20511h-54v-424h54z"/><path id="129" class="fil69" d="M27556 20511h-54v-424h54z"/><path id="130" class="fil68" d="M27520 20511h-54v-424h54z"/><path id="131" class="fil67" d="M27484 20511h-55v-424h55z"/><path id="132" class="fil67" d="M27448 20511h-55v-424h55z"/><path id="133" class="fil67" d="M27411 20511h-54v-424h54z"/><path id="134" class="fil66" d="M27375 20511h-54v-424h54z"/><path id="135" class="fil66" d="M27339 20511h-54v-424h54z"/><path id="136" class="fil65" d="M27303 20511h-55v-424h55z"/><path id="137" class="fil64" d="M27266 20511h-54v-424h54z"/><path id="138" class="fil64" d="M27230 20511h-54v-424h54z"/><path id="139" class="fil63" d="M27194 20511h-54v-424h54z"/><path id="140" class="fil62" d="M27158 20511h-55v-424h55z"/><path id="141" class="fil61" d="M27122 20511h-55v-424h55z"/><path id="142" class="fil61" d="M27085 20511h-54v-424h54z"/><path id="143" class="fil60" d="M27049 20511h-54v-424h54z"/><path id="144" class="fil59" d="M27013 20511h-54v-424h54z"/><path id="145" class="fil59" d="M26977 20511h-55v-424h55z"/><path id="146" class="fil122" d="M26940 20511h-54v-424h54z"/><path id="147" class="fil58" d="M26904 20511h-54v-424h54z"/><path id="148" class="fil58" d="M26868 20511h-54v-424h54z"/><path id="149" class="fil57" d="M26832 20511h-55v-424h55z"/><path id="150" class="fil56" d="M26796 20511h-55v-424h55z"/><path id="151" class="fil54" d="M26759 20511h-54v-424h54z"/><path id="152" class="fil54" d="M26723 20511h-54v-424h54z"/><path id="153" class="fil53" d="M26687 20511h-54v-424h54z"/><path id="154" class="fil52" d="M26651 20511h-55v-424h55z"/><path id="155" class="fil52" d="M26615 20511h-55v-424h55z"/><path id="156" class="fil51" d="M26578 20511h-54v-424h54z"/><path id="157" class="fil51" d="M26542 20511h-54v-424h54z"/><path id="158" class="fil50" d="M26506 20511h-54v-424h54z"/><path id="159" class="fil49" d="M26470 20511h-55v-424h55z"/><path id="160" class="fil48" d="M26433 20511h-54v-424h54z"/><path id="161" class="fil47" d="M26397 20511h-54v-424h54z"/><path id="162" class="fil47" d="M26361 20511h-54v-424h54z"/><path id="163" class="fil46" d="M26325 20511h-55v-424h55z"/><path id="164" class="fil45" d="M26289 20511h-55v-424h55z"/><path id="165" class="fil45" d="M26252 20511h-54v-424h54z"/><path id="166" class="fil121" d="M26216 20511h-54v-424h54z"/><path id="167" class="fil44" d="M26180 20511h-54v-424h54z"/><path id="168" class="fil120" d="M26144 20511h-55v-424h55z"/><path id="169" class="fil119" d="M26107 20511h-54v-424h54z"/><path id="170" class="fil118" d="M26071 20511h-54v-424h54z"/><path id="171" class="fil117" d="M26035 20511h-54v-424h54z"/><path id="172" class="fil116" d="M25999 20511h-55v-424h55z"/><path id="173" class="fil115" d="M25963 20511h-55v-424h55z"/><path id="174" class="fil114" d="M25926 20511h-54v-424h54z"/><path id="175" class="fil113" d="M25890 20511h-54v-424h54z"/><path id="176" class="fil112" d="M25854 20511h-54v-424h54z"/><path id="177" class="fil111" d="M25818 20511h-55v-424h55z"/><path id="178" class="fil110" d="M25782 20511h-55v-424h55z"/><path id="179" class="fil109" d="M25745 20511h-54v-424h54z"/><path id="180" class="fil108" d="M25709 20511h-54v-424h54z"/><path id="181" class="fil107" d="M25673 20511h-54v-424h54z"/><path id="182" class="fil106" d="M25637 20511h-55v-424h55z"/><path id="183" class="fil105" d="M25600 20511h-54v-424h54z"/><path id="184" class="fil104" d="M25564 20511h-54v-424h54z"/><path id="185" class="fil103" d="M25528 20511h-54v-424h54z"/><path id="186" class="fil102" d="M25492 20511h-55v-424h55z"/><path id="187" class="fil101" d="M25456 20511h-55v-424h55z"/><path id="188" class="fil100" d="M25419 20511h-54v-424h54z"/><path id="189" class="fil99" d="M25383 20511h-54v-424h54z"/><path id="190" class="fil98" d="M25347 20511h-54v-424h54z"/><path id="191" class="fil38" d="M25311 20511h-55v-424h55z"/><path id="192" class="fil97" d="M25274 20511h-54v-424h54z"/><path id="193" class="fil96" d="M25238 20511h-54v-424h54z"/><path id="194" class="fil95" d="M25202 20511h-54v-424h54z"/><path id="195" class="fil37" d="M25166 20511h-55v-424h55z"/><path id="196" class="fil94" d="M25130 20511h-55v-424h55z"/><path id="197" class="fil93" d="M25093 20511h-54v-424h54z"/><path id="198" class="fil92" d="M25057 20511h-54v-424h54z"/><path id="199" class="fil93" d="M25021 20511h-54v-424h54z"/><path id="200" class="fil94" d="M24985 20511h-55v-424h55z"/><path id="201" class="fil37" d="M24948 20511v-424z"/></g></g></svg>