<?xml version="1.0" encoding="UTF-8"?>
<!DOCTYPE svg PUBLIC "-//W3C//DTD SVG 1.1//EN" "http://www.w3.org/Graphics/SVG/1.1/DTD/svg11.dtd">
<!-- Creator: CorelDRAW 2017 -->
<svg xmlns="http://www.w3.org/2000/svg" xml:space="preserve" width="80px" height="74px" version="1.1" style="shape-rendering:geometricPrecision; text-rendering:geometricPrecision; image-rendering:optimizeQuality; fill-rule:evenodd; clip-rule:evenodd"
viewBox="0 0 8000 7457"
 xmlns:xlink="http://www.w3.org/1999/xlink">
 <defs>
  <style type="text/css">
   <![CDATA[
    .fil0 {fill:#1F3B6D}
    .fil1 {fill:#F7941C}
   ]]>
  </style>
 </defs>
 <g id="Layer_x0020_1">
  <metadata id="CorelCorpID_0Corel-Layer"/>
  <g id="_1651400696272">
   <path class="fil0" d="M1563 0c425,0 850,0 1274,0 43,0 43,0 43,43 -1,221 0,443 -1,665 0,26 -2,52 -5,77 -3,30 -22,45 -51,42 -31,-2 -61,-6 -92,-12 -343,-62 -561,142 -665,378 -161,367 84,741 344,847 99,40 200,41 302,28 33,-5 65,-10 98,-13 44,-5 62,8 65,53 4,57 4,115 5,173 0,187 -1,374 0,561 0,29 -6,39 -38,38 -285,0 -571,0 -856,2 -42,0 -84,3 -125,12 -70,16 -92,58 -71,127 21,69 50,137 62,208 36,212 -96,415 -300,471 -301,83 -576,-173 -521,-486 9,-49 28,-97 43,-145 6,-21 15,-41 21,-62 12,-48 -2,-84 -48,-102 -31,-13 -65,-21 -98,-21 -144,-3 -289,-4 -433,-4 -162,0 -324,0 -486,1 -28,0 -30,-12 -30,-34 1,-453 1,-906 1,-1358 0,-388 -1,-776 0,-1164 0,-42 6,-84 13,-124 20,-105 85,-167 189,-185 51,-9 103,-15 154,-15 402,-1 804,-1 1206,-1 0,0 0,0 0,0zm2838 1c403,0 806,-1 1209,1 58,0 117,9 174,21 83,17 137,71 156,154 11,47 19,96 19,144 2,838 1,1676 1,2513 0,46 0,46 -44,46 -216,0 -432,0 -648,0 -27,0 -54,-2 -80,-5 -43,-4 -57,-20 -53,-63 5,-46 13,-93 18,-139 27,-233 -72,-408 -259,-537 -336,-232 -781,-113 -962,255 -51,102 -53,211 -38,321 5,33 11,67 14,100 4,43 -10,61 -52,63 -58,4 -117,4 -176,5 -187,0 -374,-1 -561,1 -30,0 -38,-8 -38,-38 1,-288 1,-575 0,-863 0,-38 -3,-78 -11,-115 -15,-72 -62,-96 -131,-75 -69,21 -136,49 -206,61 -227,40 -446,-117 -480,-340 -36,-238 119,-451 356,-484 86,-13 168,4 249,33 31,12 61,24 92,33 57,17 95,-1 112,-57 12,-39 18,-80 18,-120 2,-248 2,-496 2,-743 0,-47 2,-94 0,-141 -1,-25 9,-31 33,-31 246,0 493,0 740,0 182,0 364,0 546,0zm-4400 4377c0,-414 0,-827 -1,-1241 0,-27 7,-36 35,-36 227,1 454,1 680,1 21,0 42,2 63,5 40,6 53,22 49,63 -4,36 -9,73 -15,109 -51,320 151,529 365,629 351,164 707,-44 840,-289 57,-105 67,-217 53,-333 -5,-40 -12,-79 -15,-118 -4,-44 8,-58 52,-63 24,-3 48,-3 71,-3 222,-1 444,0 666,-1 29,0 37,9 36,37 -1,274 -1,547 0,821 0,50 3,101 12,151 14,81 61,105 139,79 60,-20 120,-45 182,-57 306,-58 557,205 490,509 -36,160 -183,291 -346,313 -107,15 -205,-13 -302,-52 -16,-6 -32,-11 -48,-15 -52,-13 -85,2 -105,52 -10,26 -17,54 -17,81 -3,192 -4,384 -5,576 -1,116 -1,233 0,349 0,28 -7,36 -35,36 -201,-2 -402,-2 -603,-2 -614,0 -1228,0 -1841,0 -84,0 -164,-16 -242,-48 -67,-28 -112,-78 -128,-147 -15,-69 -29,-141 -29,-212 -3,-398 -2,-796 -2,-1194 0,0 1,0 1,0z"/>
   <path class="fil1" d="M3924 5526c70,-68 136,-133 201,-198 100,-100 200,-200 300,-299 19,-19 40,-36 61,-53 23,-18 45,-14 64,7 20,24 40,49 58,75 99,138 226,233 399,249 219,20 412,-42 564,-203 177,-188 229,-518 102,-739 -51,-90 -129,-153 -210,-213 -16,-12 -32,-24 -47,-37 -20,-19 -23,-41 -6,-64 12,-16 25,-31 39,-45 166,-167 333,-334 499,-501 4,-3 8,-6 14,-12 18,17 35,33 51,50 198,196 394,394 592,589 27,27 57,51 89,71 60,36 105,22 138,-39 31,-58 55,-120 91,-174 114,-173 326,-240 508,-163 145,61 235,171 257,327 23,164 -36,300 -170,398 -51,38 -109,67 -167,92 -106,44 -103,114 -44,182 70,80 145,155 220,230 148,149 297,297 446,446 7,7 14,15 27,29 -32,29 -62,56 -91,84 -392,392 -784,784 -1176,1175 -181,182 -362,364 -545,544 -33,33 -73,61 -113,87 -74,47 -152,48 -225,0 -48,-31 -96,-66 -136,-106 -254,-251 -505,-504 -758,-757 -284,-285 -569,-570 -854,-855 -57,-58 -115,-115 -178,-177z"/>
  </g>
 </g>
</svg>
