<?xml version="1.0" encoding="UTF-8"?>
<!DOCTYPE svg PUBLIC "-//W3C//DTD SVG 1.1//EN" "http://www.w3.org/Graphics/SVG/1.1/DTD/svg11.dtd">
<!-- Creator: CorelDRAW 2017 -->
<svg xmlns="http://www.w3.org/2000/svg" xml:space="preserve" width="71px" height="75px" version="1.1" style="shape-rendering:geometricPrecision; text-rendering:geometricPrecision; image-rendering:optimizeQuality; fill-rule:evenodd; clip-rule:evenodd"
viewBox="0 0 7100 7540"
 xmlns:xlink="http://www.w3.org/1999/xlink">
 <defs>
  <style type="text/css">
   <![CDATA[
    .fil0 {fill:#1F3B6D}
    .fil1 {fill:#F7941C;fill-rule:nonzero}
   ]]>
  </style>
 </defs>
 <g id="Layer_x0020_1">
  <metadata id="CorelCorpID_0Corel-Layer"/>
  <g id="_1651403139920">
   <path class="fil0" d="M3554 2220c379,0 685,368 685,822 0,455 -306,823 -685,823 -378,0 -685,-368 -685,-823 0,-454 307,-822 685,-822zm0 3632l0 0c-334,7 -796,-64 -1101,-275 -58,-40 -110,-85 -155,-136 0,-116 0,-232 0,-347 0,-178 0,-355 0,-532 0,-170 -10,-232 71,-391 29,-56 64,-108 105,-155 130,-148 241,-209 380,-203 158,8 267,71 369,140 346,238 318,237 664,0 101,-70 211,-132 368,-140 139,-6 250,55 380,203 41,47 76,99 105,155 81,159 71,221 71,391 0,177 0,354 0,532 0,115 0,231 0,347 -45,51 -97,96 -155,136 -305,211 -767,282 -1102,275z"/>
   <path class="fil1" d="M3554 0c203,0 386,82 519,215 119,119 198,279 212,456 746,170 1399,592 1869,1176 486,602 778,1375 778,2218 0,210 -19,417 -54,618 -29,165 -69,325 -120,482 46,29 89,63 127,101 133,133 215,316 215,519 0,202 -82,386 -215,519 -133,132 -316,214 -518,214 -124,0 -240,-30 -342,-84 -300,331 -663,602 -1070,793 -427,201 -902,313 -1401,313 -500,0 -975,-112 -1403,-314 -406,-191 -769,-463 -1070,-796 -103,57 -222,88 -348,88 -202,0 -385,-82 -518,-214 -133,-133 -215,-317 -215,-519 0,-203 82,-386 215,-519 40,-40 85,-76 134,-106 -50,-155 -90,-315 -118,-479 -35,-200 -54,-407 -54,-616 0,-843 292,-1616 778,-2218 470,-584 1123,-1006 1869,-1176 14,-177 93,-337 212,-456 133,-133 316,-215 518,-215zm702 950c-36,115 -99,219 -183,302 -109,109 -253,184 -413,207l-3 1 -6 1 -3 0 -5 1 -4 0 -5 1 -5 0 -4 1 -5 0 -4 0 -5 1 -3 0 -18 1 -7 1 -2 0 -8 0 -1 0 -8 0 -1 0 -9 0 -8 0 -1 0 -8 0 -1 0 -8 0 -2 0 -7 -1 -18 -1 -3 0 -6 -1 -3 0 -5 0 -4 -1 -5 0 -5 -1 -4 0 -5 -1 -3 0 -6 -1 -3 -1c-160,-23 -304,-98 -413,-207 -84,-83 -147,-187 -183,-302 -669,160 -1256,544 -1682,1071 -446,554 -715,1266 -715,2044 0,195 17,385 49,569 25,147 61,290 105,428 32,-6 66,-9 100,-10l2 0 2 0 1 0 1 0 2 0 2 0 2 -1 2 0 0 0 2 0 2 0 2 0 2 0 1 0c203,0 386,83 519,216l0 -1c133,133 215,316 215,519l0 5 0 4 0 1 0 6 0 3 0 2 0 5 0 2 -1 3 0 6c-8,164 -70,314 -169,433 274,300 603,546 972,720 391,184 826,286 1285,286 459,0 893,-102 1284,-285 366,-173 695,-417 969,-716 -97,-114 -159,-258 -172,-417l0 -2 0 -3 -1 -11 0 -4 0 -1 0 -5 -1 -4 0 -1 0 -6 0 -2 0 -3 0 -5 0 -2 0 -4 0 -5c0,-203 82,-386 215,-519l0 1c133,-133 316,-216 519,-216l2 0 2 0 2 0 2 0 1 0 1 0 2 0 2 1 2 0 2 0 0 0 2 0 2 0 2 0 3 0 1 0 1 0 2 0c34,1 68,5 101,11 44,-138 79,-281 105,-427 32,-185 49,-376 49,-571 0,-778 -269,-1490 -715,-2044 -426,-527 -1013,-911 -1682,-1071zm1789 5157c13,13 26,24 40,36l11 8c75,56 169,89 271,89 125,0 239,-51 321,-133 82,-83 133,-196 133,-322 0,-126 -51,-239 -133,-322 -79,-79 -186,-129 -306,-133l-1 0 -2 0 -1 0 0 0 -2 0 -1 0 -1 0 -2 0 0 0 -1 0 -2 0 -1 0 -1 0c-126,0 -240,51 -322,133l0 0c-82,83 -133,196 -133,322l0 3 0 3 0 1 0 3 0 2 0 1 0 4 0 0 0 3 0 3 0 0 0 4 1 2c7,114 56,217 132,293l0 0zm-5032 37l6 -5c11,-8 21,-17 31,-27l1 -1 1 -1 3 -2 0 -1 0 0 0 0c77,-78 127,-182 133,-299l0 0 0 -3 0 -3 0 0 0 -4 0 -1 0 -2 0 -3 0 -1 0 -3 0 -3c0,-126 -51,-239 -133,-322l0 0c-82,-82 -196,-133 -322,-133l-1 0 -1 0 -2 0 -1 0 0 0 -2 0 -1 0 -1 0 -2 0 0 0c-121,3 -230,54 -310,133 -82,83 -133,196 -133,322 0,126 51,239 133,322 82,82 196,133 321,133 106,0 203,-36 280,-96zm2863 -5732c-82,-82 -196,-133 -322,-133 -125,0 -239,51 -321,133 -82,82 -133,196 -133,321 0,126 51,240 133,322 68,68 158,115 258,129l3 0 3 1 3 0 2 0 3 1 3 0 2 0 4 1 11 0 2 1 4 0 1 0 5 0 1 0 5 0 0 0 6 0 0 0 5 0 6 0 0 0 6 0 0 0 5 0 1 0 5 0 1 0 4 0 2 -1 11 0 4 -1 2 0 3 0 3 -1 2 0 3 0 3 -1 3 0c100,-14 190,-61 258,-129 82,-82 133,-196 133,-322 0,-125 -51,-239 -133,-321z"/>
  </g>
 </g>
</svg>
