<?xml version="1.0" encoding="UTF-8"?>
<!DOCTYPE svg PUBLIC "-//W3C//DTD SVG 1.1//EN" "http://www.w3.org/Graphics/SVG/1.1/DTD/svg11.dtd">
<!-- Creator: CorelDRAW 2017 -->
<svg xmlns="http://www.w3.org/2000/svg" xml:space="preserve" width="89px" height="75px" version="1.1" style="shape-rendering:geometricPrecision; text-rendering:geometricPrecision; image-rendering:optimizeQuality; fill-rule:evenodd; clip-rule:evenodd"
viewBox="0 0 8900 7495"
 xmlns:xlink="http://www.w3.org/1999/xlink">
 <defs>
  <style type="text/css">
   <![CDATA[
    .fil0 {fill:#1F3B6D}
    .fil1 {fill:#F7941C}
    .fil2 {fill:white}
   ]]>
  </style>
 </defs>
 <g id="Layer_x0020_1">
  <metadata id="CorelCorpID_0Corel-Layer"/>
  <g id="_1651362171520">
   <path class="fil0" d="M6908 4137c1,21 3,39 3,57 1,487 4,974 1,1461 -2,396 -282,716 -674,768 -95,12 -192,6 -288,6 -438,1 -876,2 -1313,2 -25,0 -50,3 -74,1 -29,-2 -36,11 -36,38 0,176 0,352 -2,528 0,25 8,33 33,33 230,0 460,2 689,2 238,1 476,1 715,0 26,0 35,6 34,33 -1,129 1,258 1,388 0,12 -1,25 -2,41 -28,0 -52,0 -77,0 -470,0 -941,0 -1412,0 -543,0 -1085,0 -1628,0 -535,0 -1070,0 -1605,-1 -63,0 -126,-2 -189,-1 -19,0 -26,-7 -26,-26 1,-136 1,-272 0,-407 0,-29 17,-27 35,-27 231,0 462,0 692,0 230,0 459,0 689,0 43,0 44,0 44,-44 -1,-172 -2,-344 -1,-516 0,-31 -8,-42 -41,-42 -389,1 -778,0 -1167,0 -182,0 -365,0 -547,-1 -333,-2 -638,-233 -730,-553 -22,-77 -32,-156 -32,-237 0,-1265 -1,-2531 1,-3796 0,-287 127,-509 368,-663 115,-74 243,-112 381,-113 283,0 566,0 849,0 340,-1 679,-2 1019,-1 306,0 613,1 919,1 12,0 24,0 37,7 -38,17 -77,35 -116,51 -346,146 -692,292 -1038,438 -244,103 -489,205 -732,308 -40,18 -80,26 -124,26 -213,0 -425,2 -638,2 -30,0 -38,12 -38,39 0,165 -1,329 -2,493 0,409 0,818 0,1227 0,388 1,776 0,1163 0,212 0,423 0,634 0,14 2,28 1,42 -1,23 9,32 32,32 71,0 141,2 212,2 1232,0 2464,0 3697,0 360,0 720,0 1080,1 32,0 40,-9 40,-41 -1,-325 0,-650 0,-975 0,-22 5,-33 28,-41 226,-82 451,-164 676,-247 71,-26 142,-52 213,-77 13,-5 25,-9 43,-15zm-734 2013l0 0c-1,-98 -83,-179 -181,-179 -98,0 -181,84 -180,182 0,97 83,178 181,178 100,-1 181,-82 180,-181z"/>
   <path class="fil1" d="M8695 3140c-57,27 -113,57 -171,79 -353,132 -707,262 -1060,393 -589,218 -1177,437 -1765,655 -346,128 -693,256 -1040,383 -60,23 -123,28 -192,20 25,-54 48,-106 71,-157 159,-347 319,-693 478,-1040 17,-38 35,-76 52,-114 39,-86 6,-179 -76,-220 -82,-40 -180,-10 -221,74 -66,135 -127,273 -190,410 -135,291 -269,582 -404,874 -6,13 -13,26 -21,44 -50,-43 -86,-91 -109,-146 -35,-84 -66,-170 -98,-256 -132,-355 -264,-711 -396,-1067 -119,-320 -238,-641 -357,-961 -22,-61 -34,-124 -28,-194 47,8 92,15 137,23 155,26 310,51 464,78 190,33 379,67 569,100 231,39 462,77 693,117 185,31 369,64 553,95 118,21 235,43 353,59 87,11 159,-30 213,-94 191,-227 380,-456 570,-684 143,-171 286,-342 428,-513 146,-174 291,-349 436,-524 109,-132 218,-263 328,-395 7,-8 14,-16 23,-26 42,44 75,91 96,146 94,251 186,502 280,753 96,261 193,521 290,781 91,245 182,490 271,736 32,88 37,178 12,274 -44,-19 -84,-37 -125,-56 -339,-156 -679,-312 -1018,-468 -96,-44 -192,-88 -288,-130 -105,-45 -210,9 -235,119 -16,66 23,149 87,178 283,131 567,261 850,391 170,78 340,157 510,235 9,4 18,10 27,16 1,4 2,8 3,12zm-1079 -3133c-88,108 -176,217 -265,324 -280,337 -560,674 -840,1011 -191,229 -382,457 -573,687 -13,15 -25,19 -44,15 -135,-23 -271,-45 -407,-69 -313,-54 -625,-110 -938,-164 -381,-66 -761,-131 -1142,-196 -32,-6 -63,-12 -95,-25 1433,-530 2867,-1060 4300,-1590 2,2 3,5 4,7z"/>
   <path class="fil2" d="M6174 6150c1,99 -80,180 -180,181 -98,0 -181,-81 -181,-178 -1,-98 82,-182 180,-182 98,0 180,81 181,179z"/>
  </g>
 </g>
</svg>
