<svg xmlns="http://www.w3.org/2000/svg" width="570" height="324" viewBox="0 0 57000 32398" id="svg255" clip-rule="evenodd" fill-rule="evenodd" image-rendering="optimizeQuality" shape-rendering="geometricPrecision" text-rendering="geometricPrecision"><defs id="defs14"><style id="style2">.fil14{fill:#15333d}.fil16{fill:#7d4721}.fil11{fill:#f4c18a}.fil2{fill:#fff}.fil0,.fil1{fill:#1d3a6e;fill-rule:nonzero}.fil1{fill:#f6911d}</style><linearGradient id="id0" gradientUnits="userSpaceOnUse" y1="15470" x2="34820" y2="15470"><stop offset="0" id="stop4" stop-color="#1f3a6f"/><stop offset="1" id="stop6" stop-color="#0e254f"/></linearGradient><linearGradient id="id1" gradientUnits="userSpaceOnUse" x1="80180" y1="15489" x2="115000" y2="15489"><stop offset="0" id="stop9" stop-color="#f7921e"/><stop offset="1" id="stop11" stop-color="#ce7a1a"/></linearGradient><linearGradient gradientTransform="translate(-58085.853 74.199)" id="id1-3" gradientUnits="userSpaceOnUse" x1="80180" y1="15489" x2="115000" y2="15489"><stop offset="0" id="stop9-6" stop-color="#f7921e"/><stop offset="1" id="stop11-7" stop-color="#ce7a1a"/></linearGradient></defs><path class="fil0" d="M7000.147 27912.199c-11-11-31-26-61-46-30-19-66-38-108-56-43-18-89-34-138-47-50-13-100-19-152-19-91 0-159 17-204 50-45 34-67 81-67 142 0 35 8 65 25 88s41 44 73 61c32 18 73 34 122 48 49 15 105 30 169 46 83 22 159 46 227 72s126 58 173 96c47 39 84 85 110 138 25 54 38 120 38 199 0 91-17 169-52 234-34 65-80 117-138 157s-125 70-202 88-157 28-240 28c-128 0-255-20-380-58-125-39-237-93-336-163l146-286c15 14 41 33 79 56 37 23 82 47 133 70s108 43 171 59c62 16 126 24 192 24 182 0 274-59 274-176 0-38-11-70-32-96-20-26-50-48-88-67-39-19-85-37-140-53-54-16-115-33-182-51-82-22-153-46-213-73-60-26-110-57-150-92-40-36-70-77-90-125-21-48-30-105-30-171 0-86 15-163 48-231 32-67 76-123 133-168s123-79 198-102c76-23 156-35 243-35 120 0 231 19 332 57 101 37 189 82 264 133z" id="path55" fill="#1d3a6e" fill-rule="nonzero"/><path class="fil0" d="M8149.147 29107.199c-43 19-97 38-160 57s-129 29-198 29c-45 0-87-6-126-17-40-11-74-29-104-54-29-25-53-57-70-96-18-39-27-87-27-143v-723h-163v-248h163v-408h322v408h267v248h-267v615c0 45 12 76 36 95 24 18 53 27 87 27 33 0 66-5 98-16 32-12 58-21 77-29z" id="path57" fill="#1d3a6e" fill-rule="nonzero"/><path class="fil0" d="M8694.147 29195.199c-129 0-228-41-295-124-67-84-101-207-101-371v-788h322v719c0 194 70 290 209 290 64 0 125-18 184-56 58-38 106-95 143-172v-781h322v889c0 34 6 58 19 72 13 15 35 23 67 24v274c-33 7-63 11-88 14-26 2-49 3-68 3-57 0-103-13-136-39-32-27-53-63-61-110l-7-103c-58 86-130 151-218 195-87 43-184 64-292 64z" id="path59" fill="#1d3a6e" fill-rule="nonzero"/><path class="fil0" d="M10326.147 29195.199c-86 0-166-16-239-50s-136-80-189-139c-52-60-94-129-123-208-30-80-45-165-45-256 0-92 14-176 42-255 28-78 67-147 117-207 49-59 109-105 178-139 68-34 144-50 226-50 91 0 174 22 248 67 75 45 133 103 175 175v-716h322v1384c0 34 6 58 19 72 13 15 35 23 67 24v274c-61 12-112 17-154 17-59-1-105-15-138-41-33-25-53-61-61-108l-7-86c-47 80-109 140-188 181-78 41-162 61-250 61zm84-274c31 0 62-5 94-15 32-11 62-25 89-45 27-19 52-41 74-67 23-26 40-54 51-84v-300c-27-71-72-129-134-176-61-46-126-70-193-70-48 0-92 11-133 32s-76 49-105 85-51 77-67 124c-16 46-24 94-24 144 0 53 9 102 26 147 18 44 42 84 74 117 31 34 68 60 110 80 43 19 89 28 138 28z" id="path61" fill="#1d3a6e" fill-rule="nonzero"/><path class="fil0" d="M11951.147 29195.199c-101 0-193-17-274-51-82-35-152-82-209-141-58-59-103-128-134-207-31-78-47-160-47-247 0-90 16-174 46-254 30-79 75-149 132-209 58-60 128-107 210-143 83-35 176-52 278-52 103 0 194 17 275 52 81 36 150 83 207 142s100 128 130 207c29 78 44 160 44 245 0 21 0 41-1 60s-3 35-6 48h-973c4 50 16 94 36 132 19 39 44 72 74 99 31 27 65 48 103 62 39 15 79 22 121 22 64 0 124-16 181-47s96-72 117-124l276 77c-46 96-121 175-222 237-102 62-223 92-364 92zm327-759c-8-94-43-170-105-227s-137-85-225-85c-43 0-83 7-121 22-38 16-71 37-100 64s-52 60-71 99c-18 38-29 81-32 127z" id="path63" fill="#1d3a6e" fill-rule="nonzero"/><path class="fil0" d="M13977.147 29171.199h-322v-706c0-101-18-175-53-221-36-47-84-70-147-70-32 0-65 7-99 19-33 13-65 31-94 54-30 24-57 51-81 83s-42 68-53 106v735h-322v-1259h291v233c46-80 114-142 202-187s187-67 298-67c78 0 142 14 192 43s88 66 115 113c28 46 46 99 57 158 10 60 16 120 16 181z" id="path65" fill="#1d3a6e" fill-rule="nonzero"/><path class="fil0" d="M15005.147 29107.199c-43 19-97 38-160 57s-129 29-198 29c-45 0-87-6-126-17-40-11-74-29-104-54-29-25-53-57-70-96-18-39-27-87-27-143v-723h-163v-248h163v-408h322v408h267v248h-267v615c0 45 12 76 36 95 24 18 53 27 87 27 33 0 66-5 98-16 32-12 58-21 77-29z" id="path67" fill="#1d3a6e" fill-rule="nonzero"/><path transform="translate(-58085.853 74.199)" class="fil0" id="polygon69" fill="#1d3a6e" fill-rule="nonzero" d="M75006 27391v291h-814v440h677v269h-677v706h-332v-1706z"/><path class="fil0" d="M17862.147 28191.199c-97 2-185 20-262 56s-132 91-165 163v761h-322v-1259h295v269c43-86 100-156 169-209 70-53 144-79 220-79 18 0 31 0 40 1s17 2 25 4z" id="path71" fill="#1d3a6e" fill-rule="nonzero"/><path class="fil0" d="M18593.147 29195.199c-103 0-195-17-277-52-81-36-151-83-207-143-57-61-101-130-131-208-31-79-46-161-46-248 0-88 15-171 46-250 30-78 74-148 131-208 56-60 126-107 207-143 82-35 174-52 277-52 102 0 194 17 275 52 81 36 150 83 207 143s100 130 131 208c30 79 45 162 45 250 0 87-15 169-45 248-31 78-74 147-130 208-56 60-125 107-207 143-82 35-174 52-276 52zm-329-651c0 56 8 107 25 153 17 45 40 85 69 119 30 33 65 59 105 78 40 18 83 27 130 27 46 0 90-9 130-27 40-19 74-45 104-78 30-34 53-74 70-120 17-47 25-98 25-154 0-55-8-105-25-152-17-46-40-86-70-120-30-33-64-59-104-78-40-18-84-28-130-28-47 0-90 10-130 29-40 20-75 46-105 80-29 33-52 73-69 120-17 46-25 97-25 151z" id="path73" fill="#1d3a6e" fill-rule="nonzero"/><path class="fil0" d="M21419.147 29171.199h-322v-706c0-101-18-175-53-221-35-47-83-70-144-70-63 0-122 25-178 73-56 49-96 113-120 191v733h-322v-706c0-101-17-175-52-221-34-47-82-70-143-70-62 0-122 24-179 72s-97 112-121 190v735h-322v-1259h291v233c46-81 110-144 191-188s173-66 277-66c106 0 187 25 244 76 57 52 94 115 112 190 51-86 116-152 194-198 79-46 169-68 270-68 77 0 140 14 189 43 50 29 89 66 116 113 27 46 46 99 56 158 11 60 16 120 16 181z" id="path75" fill="#1d3a6e" fill-rule="nonzero"/><path transform="translate(-58085.853 74.199)" class="fil0" id="polygon77" fill="#1d3a6e" fill-rule="nonzero" d="M62474 30780v1361h154v257h-452v-1875h452v257z"/><path transform="translate(-58085.853 74.199)" class="fil1" id="polygon79" fill="#f6911d" fill-rule="nonzero" d="M64771 30595l-620 1111v596h-329v-601l-617-1106h360l421 822 427-822z"/><path class="fil1" d="M7469.147 32388.199c-120 0-230-25-329-74-100-49-185-113-256-194s-126-174-165-278c-38-104-57-211-57-320 0-113 20-222 61-326s97-197 170-277 159-143 259-191c99-47 207-71 324-71 120 0 230 26 329 76 100 51 185 117 255 198 71 82 125 175 164 279 38 104 57 210 57 317 0 114-20 223-61 326s-97 195-170 274c-72 79-157 142-257 190-99 47-207 71-324 71zm-473-866c0 74 10 145 32 214s53 130 94 183 91 95 150 127 126 48 202 48c77 0 144-16 203-49 58-33 108-76 148-131 40-54 70-116 91-184s31-137 31-208c0-73-11-144-33-213-23-69-55-130-95-183-41-53-91-95-149-126-59-31-125-47-199-47-77 0-144 16-203 49-58 33-108 76-149 130s-71 115-92 183-31 137-31 207z" id="path81" fill="#f6911d" fill-rule="nonzero"/><path class="fil1" d="M9257.147 32094.199c78 0 144-16 198-48s97-73 130-125c33-51 56-110 70-176 13-67 20-135 20-206v-870h329v870c0 117-14 227-42 330-28 102-72 192-132 269s-137 138-232 182c-94 45-207 68-339 68-136 0-252-24-347-71-95-48-173-110-232-188-59-77-102-168-129-270-26-103-39-209-39-320v-870h331v870c0 72 7 142 21 208 13 67 37 126 70 177 32 51 75 92 128 124 53 31 118 46 195 46z" id="path83" fill="#f6911d" fill-rule="nonzero"/><path class="fil1" d="M10336.147 32376.199v-1707h754c79 0 151 17 218 50 66 32 124 76 172 129 48 54 85 115 113 183 27 68 41 137 41 206 0 110-28 211-83 301-56 91-131 156-225 196l401 642h-375l-358-572h-327v572zm331-863h416c31 0 59-7 85-22 27-14 50-34 69-59 19-24 34-54 46-87 11-34 17-70 17-108 0-41-7-77-20-111s-30-63-51-88c-22-25-47-44-75-57-28-14-56-21-85-21h-402z" id="path85" fill="#f6911d" fill-rule="nonzero"/><path class="fil1" d="M13549.147 31116.199c-11-11-32-26-62-45-29-20-65-38-108-57-42-18-88-34-138-47-49-12-100-19-151-19-92 0-160 17-204 51-45 33-68 81-68 141 0 36 9 65 26 88 16 23 41 44 73 61 32 18 72 34 121 48 49 15 105 30 170 46 83 23 159 47 227 72 68 26 125 58 173 96 47 39 83 85 109 138 26 54 38 120 38 199 0 91-17 169-51 234-35 65-81 117-138 157-58 41-125 70-202 88-77 19-157 28-241 28-128 0-254-19-379-58-125-38-237-93-337-163l147-286c14 14 40 33 78 56s82 47 133 70c52 23 109 43 171 59s127 24 192 24c183 0 274-59 274-176 0-38-10-70-31-96-21-25-51-48-89-67s-85-37-139-53c-55-16-116-33-183-50-82-23-153-47-213-74-60-26-110-57-150-92s-70-77-90-125-30-105-30-171c0-86 16-163 48-230 32-68 76-124 133-169s123-79 199-102c75-23 156-35 242-35 121 0 231 19 332 57 101 37 189 82 264 133z" id="path87" fill="#f6911d" fill-rule="nonzero"/><path class="fil1" d="M13907.147 31510.199c0-104 18-207 55-308 37-102 90-193 160-273s155-145 256-195c101-49 216-74 346-74 152 0 284 34 395 103s194 159 247 269l-255 176c-19-48-44-89-75-122-30-33-63-59-99-78-37-19-74-33-112-42-39-9-75-13-111-13-78 0-147 17-206 50-60 34-109 78-148 131-39 54-69 115-89 183s-30 136-30 203c0 75 11 148 35 218 23 69 56 131 98 183 43 53 93 96 153 128 59 32 124 48 194 48 37 0 75-5 113-15 39-9 76-24 112-45s69-48 100-81c30-33 55-72 74-119l272 156c-26 65-63 121-112 170s-104 90-167 124c-62 33-128 59-197 77-69 17-137 26-204 26-119 0-227-26-326-77-98-51-183-118-254-201-72-82-127-176-166-281-40-105-59-212-59-321z" id="path89" fill="#f6911d" fill-rule="nonzero"/><path transform="translate(-58085.853 74.199)" class="fil1" id="polygon91" fill="#f6911d" fill-rule="nonzero" d="M75139 30595v1707h-330v-729h-773v729h-332v-1707h332v690h773v-690z"/><path class="fil1" d="M18117.147 32388.199c-120 0-230-25-329-74-100-49-185-113-256-194s-126-174-165-278c-38-104-57-211-57-320 0-113 20-222 61-326s98-197 171-277c72-80 159-143 258-191 99-47 207-71 324-71 120 0 230 26 330 76 99 51 184 117 254 198 71 82 125 175 164 279 38 104 57 210 57 317 0 114-20 223-61 326s-97 195-169 274-158 142-257 190c-100 47-208 71-325 71zm-473-866c0 74 10 145 32 214s53 130 94 183 91 95 150 127 127 48 202 48c77 0 144-16 203-49 58-33 108-76 148-131 40-54 70-116 91-184s31-137 31-208c0-73-11-144-33-213-23-69-54-130-95-183s-91-95-149-126c-59-31-125-47-198-47-77 0-145 16-204 49-58 33-108 76-149 130-40 54-71 115-92 183s-31 137-31 207z" id="path93" fill="#f6911d" fill-rule="nonzero"/><path class="fil1" d="M19895.147 32388.199c-120 0-230-25-329-74s-184-113-256-194c-71-81-126-174-164-278-39-104-58-211-58-320 0-113 20-222 61-326s98-197 171-277 159-143 258-191c99-47 208-71 325-71 120 0 229 26 329 76 99 51 184 117 255 198 70 82 125 175 163 279s58 210 58 317c0 114-21 223-62 326s-97 195-169 274-158 142-257 190c-100 47-208 71-325 71zm-473-866c0 74 11 145 32 214 22 69 53 130 94 183s91 95 150 127c60 32 127 48 202 48 77 0 145-16 203-49 59-33 108-76 148-131 40-54 71-116 91-184 21-68 32-137 32-208 0-73-12-144-34-213-23-69-54-130-95-183s-91-95-149-126-125-47-198-47c-77 0-145 16-203 49-59 33-108 76-149 130s-72 115-93 183-31 137-31 207z" id="path95" fill="#f6911d" fill-rule="nonzero"/><path transform="translate(-58085.853 74.199)" class="fil1" id="polygon97" fill="#f6911d" fill-rule="nonzero" d="M79051 32302v-1707h331v1416h870v291z"/><path transform="translate(-58085.853 74.199)" class="fil0" id="polygon99" fill="#1d3a6e" fill-rule="nonzero" d="M80899 30780v-257h449v1875h-449v-257h151v-1361z"/><circle class="fil2" cx="13005.148" cy="12709.199" r="10495" id="circle103" fill="#fff" stroke="#2b2a29" stroke-width="57" stroke-miterlimit="22.926"/><g transform="translate(-58085.853 74.199)" id="g171"><path d="M70017 18175l2900-1542c-399 81-979 202-1381 189-799-25-950-105-1605-446-7-4-14-7-20-10-58-29-59-28-59 36 0 553 27 1195 27 1748 32 0 75-3 95 5 12 4 24 10 43 20z" id="path141" fill="#caa075"/><path class="fil16" d="M66759 12496c-108 1472-275 2895-504 4266-219 1305-495 2563-832 3769l311 139c13-17 25-33 38-49 523-667 1162-1194 1909-1592 1346-717 1620-748 2198-879 0-566 0-1133 1-1699 0-48-13-74-56-99-277-159-531-349-768-564-265-241-500-509-710-799-205-284-383-584-535-899-182-380-327-773-434-1180-40-150-77-301-104-453-2-9-7-18-12-33-20 21-37 40-54 58-137 151-308 138-448 14z" id="path143" fill="#7d4721"/><path class="fil16" d="M76470 12496c108 1472 274 2895 504 4266 218 1305 494 2563 831 3769l-311 139c-12-17-25-33-38-49-522-667-1162-1194-1909-1592-1346-717-1620-748-2198-879 0-566 1-1133-1-1699 0-48 13-74 56-99 277-159 532-349 768-564 265-241 501-509 710-799 205-284 383-584 535-899 182-380 327-773 435-1180 39-150 76-301 104-453 1-9 6-18 11-33 20 21 38 40 55 58 137 151 307 138 448 14z" id="path145" fill="#7d4721"/><path d="M64773 22489c231-677 557-1304 999-1868 523-667 1162-1194 1909-1592 1346-717 1620-748 2198-879 241-55 393 409 796 833 99 104 560 298 939 484v4155c-100 14-208 21-325 18-2 19-2 39-16 54h-219c-380 0-6829 407-6281-1205z" id="path147" fill="#e9eaec"/><path class="fil2" d="M78454 22489c-230-677-556-1304-998-1868-523-667-1163-1194-1910-1592-1346-717-1620-748-2198-879-240-55-392 409-796 833-99 104-559 298-938 484v4155c100 14 208 21 325 18 2 19 1 39 16 54 72 0 146 10 218 0 3442-484 4067 311 6281-1205z" id="path149" fill="#fff"/><path id="polygon151" fill="#14b4c0" d="M71354 19358l772 36v3649h-772z"/><path class="fil11" d="M72737 16716l-2830 1430c210 384 460 695 759 922 150 113 313 206 488 275 551 218 1111 97 1582-258 328-246 582-608 770-1074v-1694z" id="path153" fill="#f4c18a"/><path d="M69885 17564c57 0 102 48 102 108 0 59-45 107-102 107-56 0-102-48-102-107 0-60 46-108 102-108zm3687 0c-56 0-102 48-102 108 0 59 46 107 102 107 57 0 103-48 103-107 0-60-46-108-103-108zm-171 162c-65 0-118 55-118 124 0 68 53 124 118 124s117-56 117-124c0-69-52-124-117-124zm-203 185c-75 0-136 64-136 143 0 78 61 142 136 142s136-64 136-142c0-79-61-143-136-143zm-232 211c-83 0-150 71-150 158s67 157 150 157c82 0 149-70 149-157s-67-158-149-158zm-271 196c-86 0-156 74-156 165 0 90 70 164 156 164 87 0 156-74 156-164 0-91-69-165-156-165zm-315 132c-91 0-164 78-164 174 0 97 73 175 164 175s165-78 165-175c0-96-74-174-165-174zm-328 133c-91 0-165 82-165 182 0 101 74 182 165 182s164-81 164-182c0-100-73-182-164-182zm-323 52c84 6 151 92 151 197s-67 191-151 197c-85-6-152-92-152-197s67-191 152-197zm-323-52c90 0 164 82 164 182 0 101-74 182-164 182-91 0-165-81-165-182 0-100 74-182 165-182zm-329-133c91 0 165 78 165 174 0 97-74 175-165 175s-164-78-164-175c0-96 73-174 164-174zm-315-132c86 0 156 74 156 165 0 90-70 164-156 164s-156-74-156-164c0-91 70-165 156-165zm-270-196c82 0 149 71 149 158s-67 157-149 157c-83 0-150-70-150-157s67-158 150-158zm-233-211c75 0 136 64 136 143 0 78-61 142-136 142s-135-64-135-142c0-79 60-143 135-143zm-202-185c65 0 118 55 118 124 0 68-53 124-118 124s-118-56-118-124c0-69 53-124 118-124z" id="path155" fill="#fffeff"/><path d="M67346 10837c-15-47-31-94-49-140-60-153-136-296-257-411-60-56-127-98-212-107-66-6-218 101-273 133-44-1167 106-2176 414-2964 331-847 1123-1709 1973-2054 276-112 560-198 883-253 542-92 1238-95 1789-90 81 1580 80 3124 0 4634-524 905-2105 1198-3052 1258-381 24-786 21-1216-6z" id="path157" fill="#693f21"/><path class="fil16" d="M76111 10885c15-46-76-160-58-207 60-153 14-277 136-392 59-56 126-98 211-107 66-6 218 101 273 133 44-1167-106-2176-414-2964-331-847-1123-1709-1972-2054-277-112-561-198-884-253-542-92-1237-95-1789-90v4634c525 905 2106 1198 3053 1258 380 24 1015 70 1444 42z" id="path159" fill="#7d4721"/><path d="M71614 9677c-1 15 0 31 0 47 185 2358 155 4704 0 7042v40c0 19-2 38-11 56-34 33-76 22-115 19-529-36-1031-174-1502-420-7-3-13-7-20-10l-142-99c-277-159-531-349-768-564-265-241-500-509-710-799-205-284-383-584-535-899-182-380-327-773-434-1180-40-150-77-301-104-453-2-9-7-18-12-33-20 21-37 40-54 58-137 151-308 138-448 14-100-89-169-199-225-318-95-197-148-407-179-621-24-162-33-325-24-488 12-204 43-404 126-593 26-59 56-115 98-164 55-32 207-139 273-133 85 9 152 51 212 107 121 115 197 258 257 411 18 46 34 93 49 140 430 27 835 30 1216 6 947-60 2528-353 3052-1258z" id="path161" fill="#e4b683"/><path class="fil11" d="M71615 16766c0 10-1 20-1 31v9c0 19 3 38 12 56 35 33 79 22 119 19 552-36 1075-174 1566-420 7-3 15-7 22-10l147-99c289-159 554-349 801-564 276-241 521-509 740-799 214-284 399-584 558-899 190-380 341-773 453-1180 41-150 79-301 108-453 2-9 7-18 12-33 21 21 39 40 57 58 143 151 321 138 467 14 104-89 176-199 235-318 98-197 153-407 186-621 25-162 34-325 25-488-13-204-45-404-131-593-27-59-59-115-103-164-57-32-216-139-285-133-88 9-158 51-220 107-127 115-206 258-268 411-19 46-36 93-51 140-448 27-871 30-1268 6-987-60-2635-353-3182-1258 0 2393 1 4787 1 7181z" id="path163" fill="#f4c18a"/><path d="M76115 12718c7-133-8-266-14-399-7-143-20-286-33-429-17-198-36-396-55-594-13-134-26-269-40-403-7-70-16-139-24-208 0-71-12-141-21-212-10-85-17-169-27-254-10-94-22-189-32-283-10-84-19-169-27-254-2-22-6-43-10-64-4-19 4-31 25-31 16 0 32-1 48-1 199 0 398 2 597-1 58 0 110 11 161 35 17 7 33 24 55 16 17 24 45 32 69 45 249 141 430 340 521 614 21 63 31 127 31 194-1 528 0 1056 0 1584-1 154-33 301-116 433-100 157-247 252-420 309-218 71-441 84-668 62-23-3-33-10-27-34 10-41 8-83 7-125z" id="path165" fill="#36576e"/><path class="fil14" d="M75392 14191c-109 45-217 90-326 134-583 238-1178 435-1794 567-232 50-466 90-704 101-39 2-68 13-90 50-36 58-94 93-155 123-101 50-209 78-320 95-66 10-133 17-199 25-106 0-212 2-318-1-175-4-346-32-512-92-195-71-305-212-352-407-33-139 5-260 106-359 115-114 257-185 410-232 125-39 252-58 383-39 12 1 24 0 35 0 48 21 100 18 151 24 177 22 352 57 517 131 109 49 208 112 268 220 11 19 25 20 44 18 119-14 238-25 357-42 318-47 634-107 947-185 468-116 924-266 1356-481 182-90 356-191 521-309 14-10 31-16 41-33 130-85 243-190 352-300 18-18 35-37 52-56 92-101 233-117 345-37 67 48 112 114 148 187 16 33 7 65-7 96-20 43-51 79-85 112-75 75-160 138-249 196-256 170-529 307-807 437-38 18-80 31-115 57z" id="path167" fill="#15333d"/><path class="fil14" d="M68383 8171c-63 45-106 108-155 165-165 194-315 399-451 614-158 250-300 507-409 781-12 30-26 44-60 44-102-2-203-1-305-1-42-1-42-2-34-45 38-191 99-376 164-559 103-293 230-576 375-850 147-279 316-543 509-792 92-119 192-232 293-345 97-109 202-208 311-304 209-185 434-346 676-487 271-158 558-278 857-371 169-52 341-91 515-120 134-23 270-40 406-50 187-15 373-24 560-22 133 8 266 12 398 25 157 17 314 38 471 66 223 40 442 95 657 165 162 54 321 118 477 188 214 97 418 212 614 342 140 91 274 191 402 299 132 112 262 226 382 351 184 193 354 397 509 614 194 272 360 559 503 860 72 153 136 309 190 469 16 49 10 58-43 63-132 13-264 25-396 38-26 2-51 10-77 11-30 2-46-9-58-38-26-64-54-128-85-190-138-275-305-531-498-770-134-166-279-322-436-466-187-173-389-328-606-462-134-83-270-161-413-228-308-144-628-254-963-323-128-26-257-50-386-67-104-13-209-23-314-29-110-6-219-12-328-9-22 19-49 15-74 15-242-4-481 20-719 61-542 94-1047 285-1513 578-335 212-637 463-908 751-12 12-25 20-39 29z" id="path169" fill="#15333d"/></g><path d="M13005.147 22966.199c-5665 0-10257-4592-10257-10257s4592-10257 10257-10257 10257 4592 10257 10257-4592 10257-10257 10257zm0 2378c-6978 0-12635-5657-12635-12635s5657-12635 12635-12635 12635 5657 12635 12635-5657 12635-12635 12635z" id="path173" fill="#f4f4f6"/><path d="M22455.147 5733.199c350-331 729-322 1169-335 10696-321 21392-641 32089-962 339 13 600 96 794 238 215 159 346 392 407 688v16747c-24 335-127 585-294 764-196 209-481 322-832 362-1369-125-2737-250-4106-375-8 1277-16 2553-25 3830-1352-1410-2703-2820-4055-4231-8127-742-16255-1485-24382-2227-315-26-572-128-764-316-179-176-302-427-362-761v-12325c0-411 40-793 361-1097z" id="path249" fill="url(#id1-3)"/><path d="M27007.147 11962.199h-328v-902h-923v902h-327v-2002h327v819h923v-819h328zm474-1915c0-58 16-102 47-133 32-31 77-47 135-47 57 0 101 16 132 47s47 75 47 133c0 54-16 98-47 129-31 32-75 47-132 47-58 0-103-15-135-47-31-31-47-75-47-129zm341 1915h-322v-1514h322zm412-171c0-68 18-119 53-154 36-35 86-53 152-53 65 0 115 18 149 55 35 36 52 87 52 152s-17 116-52 154-85 57-149 57c-65 0-115-19-151-55-36-37-54-89-54-156zm326-437h-239l-71-1394h379zm447 437c0-67 18-118 52-154 35-35 85-53 151-53s117 18 152 55c34 37 52 88 52 152 0 65-18 116-53 154s-85 57-151 57-116-19-151-57c-34-37-52-89-52-154zm771 0c0-67 17-118 52-154 35-35 85-53 151-53s117 18 152 55c34 37 52 88 52 152 0 65-18 116-53 154s-86 57-151 57c-66 0-116-19-151-57-35-37-52-89-52-154zm771 0c0-67 17-118 52-154 34-35 85-53 150-53 67 0 118 18 152 55 35 37 52 88 52 152 0 65-17 116-52 154-36 38-86 57-152 57-65 0-116-19-150-57-35-37-52-89-52-154zm770 0c0-67 18-118 52-154 35-35 85-53 151-53 67 0 117 18 152 55s52 88 52 152c0 65-18 116-53 154s-85 57-151 57-116-19-151-57c-34-37-52-89-52-154zm771 0c0-67 17-118 52-154 35-35 85-53 151-53s117 18 152 55c34 37 52 88 52 152 0 65-18 116-53 154s-86 57-151 57c-66 0-116-19-151-57-35-37-52-89-52-154zm771 0c0-67 17-118 52-154 35-35 85-53 150-53 67 0 118 18 152 55 35 37 52 88 52 152 0 65-17 116-52 154s-86 57-152 57c-65 0-115-19-150-57-35-37-52-89-52-154zm771 0c0-67 17-118 52-154 34-35 85-53 150-53 67 0 117 18 152 55s52 88 52 152c0 65-17 116-53 154-35 38-85 57-151 57-65 0-116-19-150-57-35-37-52-89-52-154zm770 0c0-67 18-118 52-154 35-35 85-53 151-53 67 0 117 18 152 55s52 88 52 152c0 65-18 116-53 154s-85 57-151 57-116-19-151-57c-34-37-52-89-52-154zm771 0c0-67 17-118 52-154 35-35 85-53 151-53s117 18 152 55c34 37 52 88 52 152 0 65-18 116-53 154s-86 57-151 57c-66 0-116-19-151-57-35-37-52-89-52-154z" id="path251" fill="#fff" fill-rule="nonzero"/></svg>