<svg xmlns="http://www.w3.org/2000/svg" width="570" height="325" viewBox="0 0 57000 32492" id="svg395" clip-rule="evenodd" fill-rule="evenodd" image-rendering="optimizeQuality" shape-rendering="geometricPrecision" text-rendering="geometricPrecision"><defs id="defs14"><style id="style2">.str0{stroke:#2b2a29;stroke-width:57;stroke-miterlimit:22.9256}.fil12{fill:#15333d}.fil8{fill:#693f21}.fil9{fill:#f4c18a}.fil25,.fil28{fill:#1d3a6e;fill-rule:nonzero}.fil28{fill:#fff}</style><linearGradient id="id0" gradientUnits="userSpaceOnUse" y1="15508" x2="34790" y2="15508"><stop offset="0" id="stop4" stop-color="#f7921e"/><stop offset="1" id="stop6" stop-color="#ce7a1a"/></linearGradient><linearGradient id="id1" gradientUnits="userSpaceOnUse" x1="80110" y1="15527" x2="114900" y2="15527"><stop offset="0" id="stop9" stop-color="#1f3a6f"/><stop offset="1" id="stop11" stop-color="#0e254f"/></linearGradient><linearGradient gradientTransform="translate(-58152.616 59.548)" id="id1-3" gradientUnits="userSpaceOnUse" x1="80110" y1="15527" x2="114900" y2="15527"><stop offset="0" id="stop9-6" stop-color="#1f3a6f"/><stop offset="1" id="stop11-7" stop-color="#0e254f"/></linearGradient></defs><circle class="str0" cx="12866.384" cy="12683.548" r="10486" id="circle17" fill="#fff" stroke="#2b2a29" stroke-width="57" stroke-miterlimit="22.926"/><path d="M6279.384 22501.549c231-677 556-1304 998-1867 522-667 1161-1193 1908-1591 465-248 953-437 1468-556 9-2 18-6 21-7 12-9 8-15 5-19-32-48-19-83 19-124 116-125 227-255 340-383 10-11 21-22 36-38 104 103 207 205 309 307 28 6 47 25 66 44 243 243 490 482 727 730 334 350 683 685 1021 1030 16 16 35 31 43 53 3 44-40 54-61 79-248 200-495 401-744 598-76 60-75 60-33 144 162 324 320 650 488 971 49 93 57 182 45 281-21 190-38 381-55 572-16 171-33 342-50 514-14 137-24 274-41 411-2 19-1 39-16 54-4012-432-6193 730-6494-1203z" id="path19" fill="#565656"/><path d="M15767.384 18397.549c95 10 187 38 279 64 732 200 1380 558 1951 1055 508 443 923 963 1273 1536 1025 3407-1225 1991-5633 2652-16-17-14-39-16-60-19-196-36-392-54-589-17-183-33-366-50-549-14-147-25-294-42-440-4-40 0-76 17-112 187-374 374-748 561-1121 9-17 17-35 35-45 30-9 50 11 71 27 143 116 285 232 429 347 55 45 55 45 83-24 187-476 375-952 563-1428l492-1245c10-25 17-52 41-68z" id="path21" fill="#626062"/><path d="M14456.384 5005.548c474 15 944 60 1406 175 297 74 583 176 845 337 176 108 332 240 457 406 148 196 233 417 262 660 26 217 13 432-33 645-9 44-5 79 16 120 208 408 360 837 476 1279 87 330 146 666 181 1005 4 33 4 65 5 98-20 25-42 7-61-2-54-24-109-30-168-30-176 2-353 0-529 1-73 0-75 2-67 76 34 297 67 594 99 891 3 21 4 42 0 63-52 144-87 290-79 444 2 22 7 52-19 61-24 8-42-17-57-33-119-135-233-275-337-422-325-459-584-951-758-1486-94-291-162-587-195-892-3-22-7-45-11-67-7-6-13-2-15 3-65 97-165 147-262 200-501 271-1031 466-1588 581-231 48-464 84-700 96-48 3-95 16-143 9-14-3-29-5-32-22 12-82 9-165 9-247v-1869c0-35-3-69 5-103 14-39 49-32 78-32 213-2 425 19 635 49 467 67 913 203 1333 419 295 151 566 338 814 558 338 298 619 643 847 1031 71 121 138 243 189 374 18 47 46 58 94 51 129-18 259-29 388-42 57-5 64-12 45-68-81-230-180-453-295-667-159-297-344-576-556-838-371-461-811-841-1328-1129-524-293-1086-468-1682-539-148-17-296-33-446-35-40 0-86 4-114-38-8-74-18-148-18-223v-678c0-86 0-86-81-110-8-2-14-7-19-13 65-17 133-14 199-19 200-13 400-25 600-29 15 0 31 3 44-8h311c64 13 128 2 192 6 21 1 42-4 63 3z" id="path23" fill="#754928"/><path d="M14096.384 20791.549c-51 85-92 176-136 265-149 294-296 589-445 883-23 45-32 88-21 138 11 46 8 95 14 142 15 147 24 294 38 440 13 145 29 289 43 434 9 106 17 213 26 320 6 78 15 156 21 234 2 19 1 38 1 57h-461c-26-32-18-69-18-105-1-606-1-1212-1-1817v-1530c0-37-2-73 19-106 9-15 25-22 37-33 11-10 25-17 22-36 5-2 10-2 15 0 126 112 261 214 391 321 143 116 285 232 429 347 14 12 34 21 26 46z" id="path25" fill="#e8a170"/><path d="M13176.384 20146.549v3558h-403c2-109 18-217 28-325 5-55 9-110 16-165 17-139 25-278 38-417 14-138 30-276 43-415 10-101 11-203 28-302 11-65-8-114-35-168-178-352-355-705-532-1057-18-37-18-43 14-68 176-141 353-282 529-423 91-73 179-150 274-218z" id="path27" fill="#d18e66"/><path d="M14456.384 5005.548c-78 7-157-2-235 0-7 0-13-6-20-9h253c1 3 1 6 2 9z" id="path29" fill="#b8a190"/><path d="M13153.384 9208.548c12 1 23 2 34 3-1 5 0 13-6 14-75 14-67 70-67 124v4671c0 38 4 77-6 115-15 32-43 25-70 24-278-18-522 74-729 255-126 109-148 277-85 433 75 184 216 283 400 332 141 38 284 61 432 59 74-1 149-2 224 1 20 1 53-13 56 27-38 28-81 16-122 17-100 2-100 1-100 98v1004.001c0 32 4 66-11 96-34 33-76 22-115 19-529-36-1030-174-1500-420-7-3-14-7-21-10-57-28.001-58-28.001-58 37v1857c0 33 3 65-6 97-3 7-7 12-13 16-16-20-9-44-9-66 0-647-1-1294 1-1940 0-48.001-13-75.001-56-99.001-277-159-531-349-768-564-265-241-499-508-709-798-205-284-383-584-534-899-183-379-327-772-435-1179-39-150-76-300-104-452-1-10-6-18-11-33-20 21-38 40-55 58-136 151-307 138-447 13-99-88-168-198-225-317-94-197-147-406-179-621-24-161-32-324-23-487 12-203 43-403 125-592 31-71 69-138 125-192 30-29 51-59 57-100 19 12 36 6 55-1 126-43 237-13 336 74 104 91 180 204 237 329 121 267 184 548 197 841 3 68 12 137 11 206 0 16 1 32 10 45 49 71 109 133 166 198 19 21 34 6 42-15 19-46 39-91 58-138 81-199 154-401 247-595 146-302 188-630 260-950 102-457 180-919 254-1381 4-25 7-49 20-72 4-5 9-9 15-10 28-3 47 15 68 28 509 320 1055 555 1640 695 256 61 516 99 778 122 125 11 249-1 373 18 59 10 118-15 178-9 22 2 46-4 65 14z" id="path31" fill="#e4b683"/><path class="fil8" d="M10044.384 8345.548c-100 628-212 1253-356 1872-31 134-66 267-100 401-6 23-8 49-36 61-14 6-15 26-21 40-105 254-210 510-315 765-9 21-16 43-30 61-20 3-26-14-36-24-55-64-109-129-166-192-21-23-24-49-24-79 0-318-42-630-159-928-60-153-136-297-257-411-60-57-127-98-211-107-66-6-125 11-180 44-12-13-3-28-10-39 25-410 71-817 174-1216 62-238 143-469 270-682 74-124 162-238 278-327 28-22 25-39 15-67-62-162-104-329-140-497-2-10-7-19 2-30 119 42 236 96 378 101-174-253-300-517-380-803-80-287-109-577-70-875 28 4 45 18 63 27 260 136 521 269 793 379 66 27 133 51 202 68 26 7 52 11 86 10-52-130-116-249-157-377 18-14 36-8 52-7 230 4 460 0 689-23 174-19 345-48 512-104 158-53 323-82 486-113 335-66 672-117 1011-159 184-22 369-40 554-59 29-3 58-2 86-3 29 1 58 1 87 1 21 0 31 11 31 32-1 13 0 27 0 40 0 244 0 487-1 730 0 79 20 156 12 235-19 18-43 15-65 14-133-7-265 5-396 14-293 19-583 66-867 144-471 130-903 340-1295 632-245 183-467 390-668 621-337 386-602 818-819 1280-143 305-257 620-344 945-6 20-11 41-15 61-16 70-14 73 56 73 73 0 146-2 219 0 40 1 63-12 79-50 213-505 505-959 862-1373 22-26 42-55 68-78 15-13 28-33 53-28z" id="path33" fill="#693f21"/><path class="fil9" d="M13244.384 20077.549h-5-4c-19-8-30-24-43-37-316-316-631-632-946-949-288-289-575-578-863-868 16-48 5-97 7-146l2-4c49-58 121-81 183-116 506-285 1012-569 1519-852 540-302 1080-605 1619-908 69-38 138-75 206-114 16-9 33-21 54-12v2223c5 20-9 32-21 44-49 48-92 103-141 151-185 181-359 372-541 555-169 169-336 341-500 515-152 162-317 311-462 480-16 18-30 46-64 38z" id="path35" fill="#f4c18a"/><path class="fil9" d="M13096.384 14147.548v-4860-35c-1-21 10-30 31-31 20-1 43 7 60-10 232-16 462-40 690-81 417-74 819-195 1210-358 221-92 436-198 642-320 41-24 73-55 103-90 20-23 40-46 69-79 55 561 203 1084 437 1583 233 500 530 957 908 1372 10-29 6-49 5-69-6-140 18-275 67-405 4-9 6-19 14-25 44 48 32 110 38 165 38 369 75 739 104 1109 16 201 30 401 37 602 1 28 6 58-20 81-19 23-21 53-30 80-74 237-158 471-258 700-3 9-5 18-8 27-2 37-35 48-59 65-246 171-511 308-788 424-524 219-1070 362-1629 462-217 39-434 72-654 92-32 3-56-2-73-31-60-103-159-159-262-206-181-83-375-109-569-133-24-3-51-3-65-29z" id="path37" fill="#f4c18a"/><path class="fil9" d="M13096.384 16485.549v-1160.001-29c-1-22 11-30 32-30 52 0 103 0 155-1 19 0 39 6 55-10 26-24 59-25 91-27 125-10 246-39 363-84 76-30 144-72 192-140 27-39 65-51 109-53 321-17 633-84 944-160 289-71 572-160 853-257 293-101 583-213 867-339 25-11 50-30 81-14-6 31-27 55-43 80-176 284-373 552-597 800-324 360-691 668-1110 912-13 7-29 12-35 28-106 76.001-225 129.001-343 182.001-359 161-735 261-1126 305-144 16-290 14-435 13-19 0-39 0-53-16z" id="path39" fill="#f4c18a"/><path d="M17491.384 12696.548c7-129-7-257-13-385-7-137-19-275-31-412-17-191-35-381-53-572-13-129-25-259-39-388-6-67-15-133-23-200 0-68-11-136-20-204-10-81-17-163-26-244-10-91-21-182-31-273-9-81-18-162-26-244-2-21-5-41-9-62-4-18 3-30 24-30h46c191 0 382 1 574-1 55-1 105 10 155 33 16 7 31 24 52 16 17 22 44 30 67 43 239 136 413 327 500 591 20 61 31 122 30 186-1 508 0 1017 0 1525 0 148-32 289-112 416-95 152-236 243-403 298-209 68-424 80-642 59-22-2-32-9-26-32 9-40 8-80 6-120z" id="path41" fill="#36576e"/><path d="M13244.384 20077.549c77-66 143-144 214-216 323-331 644-663 966-995 174-179 347-358 520-537 11-11 24-20 29-35 89-79 166-169 251-252 41-40 82-80 126-122 23 25 47 52 71 79 101 115 203 229 304 344 15 17 28 36 42 54-34 85-67 171-100 256-90 227-179 455-269 682-85 215-171 430-256 645l-285 726c-67 168-133 337-200 506-1 3-5 6-9 10-46-20-80-56-118-86-119-95-235-194-356-287-26-20-46-47-78-58-61-63-133-114-201-169-207-169-415-336-623-505-13-10-30-18-28-40z" id="path43" fill="#505050"/><path class="fil12" d="M16838.384 14181.548l-318 132c-568 233-1149 426-1750 556-227 48-455 87-687 99-39 2-66 12-88 49-35 57-92 91-151 121-99 49-204 76-313 92-64 10-129 17-193 25-104 0-207 2-310-1-172-4-339-31-501-90-189-70-297-208-343-399-32-136 5-255 103-353 113-111 251-180 401-227 121-38 246-57 373-39 12 2 23 1 35 1 47 21 97 17 146 23 174 22 344 57 505 129 106 48 203 109 262 215 10 19 24 21 43 18 116-14 232-24 348-41 310-46 619-104 924-181 456-115 901-262 1323-472 177-88 347-188 508-303 14-9 31-16 40-32 127-84 237-187 344-295 17-17 34-36 50-55 90-99 228-114 337-36 66 47 109 112 144 184 16 32 7 63-7 94-19 42-50 77-82 110-73 73-157 135-243 192-250 166-517 301-787 428-38 18-79 31-113 56z" id="path45" fill="#15333d"/><path d="M13096.384 16485.549c113 0 226 5 339-1 92-5 185-18 277-31 142-19 281-47 419-83 181-48 358-108 530-183 113-50 225-103 334-162.001 19-10 37-22 58-24 10 3 22 7 8 17-28 19-59 36.001-88 53.001-116 64-232 128-347 192-112 62-223 126-335 189-120 67-239 135-360 202-140 78-281 156-421 234-147 83-293 166-440 248-108 61-217 120-326 181-110 62-219 125-329 187-108 61-217 120-326 181-118 66-236 134-355 200-114 63-228 125-342 188v-2025c0-8.001 1-15.001 1-22.001 19-9 31 4 44 10 156 81.001 315 155.001 480 218.001 167 63 337 112 511 150 104 23 209 42 314 55 55 7 110 15 165 17 63 1 126 13 189 9z" id="path47" fill="#caa075"/><path class="fil12" d="M10044.384 8345.548c-60 43-102 104-148 159-159 187-304 384-435 592-151 239-288 487-394 751-11 29-25 43-58 42-97-2-195 0-293-1-41 0-41-1-33-42 37-185 96-362 158-539 99-282 222-554 361-819 142-268 305-522 490-762 89-115 186-223 282-332 93-105 195-201 300-293 201-178 418-334 651-469 261-152 537-268 825-357 163-50 328-88 496-116 130-22 260-38 391-48 180-15 359-23 539-21 128 7 256 11 384 24 151 16 302 36 453 63 215 39 425 92 632 160 157 51 310 113 460 180 206 94 403 205 592 329 134 89 263 184 386 289 127 107 253 217 368 337 178 186 342 383 491 592 186 262 347 538 484 828 69 147 131 297 183 452 16 47 9 56-41 60-127 12-255 24-382 36-25 3-48 11-74 12-29 1-44-9-55-37-26-62-52-124-83-183-133-265-293-511-479-742-129-160-269-310-420-449-180-166-375-315-584-444-129-80-260-155-397-219-297-140-606-245-928-312-123-25-247-48-372-64-100-13-201-22-302-28-105-6-210-12-316-9-21 18-47 15-71 14-233-3-463 20-692 59-522 90-1008 274-1457 557-323 204-613 446-875 724-11 11-24 19-37 27z" id="path49" fill="#15333d"/><path class="fil8" d="M10044.384 8346.548c61-90 143-161 221-233 54-49 106-99 162-146 100-84 201-165 307-241 193-139 396-261 611-363 307-147 626-255 960-319 131-26 263-44 396-58 158-18 316-25 475-21 0 715 0 1430 1 2144 0 36-3 69-24 99-245 14-489 4-734-19-522-51-1023-185-1506-388-281-118-550-261-809-423-19-12-36-29-60-32z" id="path51" fill="#693f21"/><g transform="translate(-58152.616 59.548)" id="g59"><path d="M67730 23290l-1234-1189-477-4558c-18-280 32-505 170-655 118-130 302-206 565-215h8999c262 9 446 85 565 215 138 150 188 375 170 655l-477 4558-1234 1189h-3736z" id="path53" fill="#d0dfe4"/><path d="M66665 22264l-169-163-477-4558c-18-280 32-505 170-655 118-130 302-206 565-215h8999c262 9 446 85 565 215z" id="path55" fill="#dbe6ea"/><path d="M71318 19073c384 0 696 312 696 696 0 385-312 696-696 696-385 0-696-311-696-696 0-384 311-696 696-696zm0 282c229 0 414 185 414 414s-185 415-414 415-415-186-415-415 186-414 415-414z" id="path57" fill="#c3ced0"/></g><path d="M12866.384 22931.549c-5660 0-10248-4588-10248-10248.001 0-5660 4588-10248 10248-10248s10248 4588 10248 10248c0 5660.001-4588 10248.001-10248 10248.001zm0 2377c-6972 0-12624-5653-12624-12625.001 0-6972 5652-12624 12624-12624s12624 5652 12624 12624c0 6972.001-5652 12625.001-12624 12625.001z" id="path61" fill="#f4f4f6"/><g transform="translate(-58152.616 59.548)" id="g191"><path class="fil25" id="polygon153" fill="#1d3a6e" fill-rule="nonzero" d="M65180 27487v291h-542v1415h-332v-1415h-545v-291z"/><path class="fil25" d="M65946 29217c-101 0-192-17-273-52-82-34-152-81-209-140-58-60-102-129-134-207-31-79-46-161-46-248 0-89 15-174 45-253 31-79 75-149 132-209 58-60 128-108 210-143 83-35 175-53 278-53 102 0 194 18 275 53 80 35 149 83 206 142s100 128 130 206c29 79 44 161 44 245 0 21 0 41-1 61-1 19-3 35-6 48h-972c4 49 16 93 36 132 19 38 44 71 74 98s65 48 103 63c39 14 79 21 120 21 64 0 125-15 182-47 56-31 95-72 116-123l276 77c-46 96-120 175-222 236-102 62-223 93-364 93zm327-759c-8-95-43-171-105-227-61-57-136-86-224-86-43 0-84 8-121 23-38 15-71 36-100 64-29 27-52 60-71 98-18 39-29 81-32 128z" id="path155" fill="#1d3a6e" fill-rule="nonzero"/><path class="fil25" d="M67147 29217c-61 0-118-10-171-30s-98-48-137-84c-38-36-68-78-90-127-21-48-32-100-32-158 0-59 13-114 40-165 26-50 63-93 110-128s104-63 169-83c66-20 138-30 216-30 56 0 111 5 165 14 54 10 101 24 143 41v-72c0-83-24-147-71-192s-117-67-210-67c-67 0-133 12-197 36s-130 59-197 105l-98-204c161-107 336-161 523-161 181 0 321 45 421 134 101 88 151 217 151 385v392c0 33 6 57 19 72 12 14 35 22 67 24v274c-30 6-59 11-85 13-27 2-50 4-69 4-61-2-107-16-139-42-32-27-52-63-60-107l-7-70c-56 74-124 130-204 168-80 39-166 58-257 58zm91-236c54 0 106-9 155-29 49-19 87-44 114-76 35-28 53-58 53-92v-144c-39-14-80-26-125-35-45-8-88-13-130-13-83 0-151 19-204 57-53 37-79 85-79 143 0 54 21 99 62 135 42 36 93 54 154 54z" id="path157" fill="#1d3a6e" fill-rule="nonzero"/><path class="fil25" d="M68112 28563c0-88 15-171 46-250 30-78 74-147 132-206 57-59 127-107 209-142 81-35 173-53 276-53 137 0 255 30 351 89 97 59 170 137 218 233l-315 96c-27-46-63-82-108-107s-94-37-149-37c-46 0-89 9-129 28-40 18-75 44-105 77-29 32-53 72-69 119-17 46-26 97-26 153s9 108 27 154c17 47 41 87 71 120 29 34 64 60 104 78 40 19 83 28 127 28 58 0 111-15 160-43 49-29 83-64 102-106l315 96c-44 96-115 175-214 235-99 61-219 92-358 92-102 0-194-18-276-53s-151-83-209-143c-57-60-102-130-133-209s-47-162-47-249z" id="path159" fill="#1d3a6e" fill-rule="nonzero"/><path class="fil25" d="M70712 29193h-321v-707c0-99-19-172-56-219-36-48-88-71-156-71-29 0-59 6-91 19s-62 31-91 54-55 51-79 83-42 67-53 106v735h-322v-1754h322v728c46-82 109-145 188-189 80-44 167-66 263-66 82 0 148 14 199 42 52 28 92 65 121 112 28 46 48 99 60 159 11 59 16 120 16 182z" id="path161" fill="#1d3a6e" fill-rule="nonzero"/><path class="fil25" d="M71574 29217c-101 0-192-17-274-52-81-34-151-81-208-140-58-60-102-129-134-207-31-79-46-161-46-248 0-89 15-174 45-253 31-79 75-149 132-209 58-60 128-108 210-143 83-35 175-53 278-53 102 0 194 18 275 53 80 35 149 83 206 142s100 128 130 206c29 79 44 161 44 245 0 21 0 41-1 61-1 19-3 35-6 48h-972c4 49 16 93 36 132 19 38 44 71 74 98s65 48 103 63c39 14 79 21 120 21 64 0 125-15 182-47 56-31 95-72 116-123l276 77c-46 96-120 175-222 236-102 62-223 93-364 93zm327-759c-8-95-43-171-105-227-61-57-136-86-224-86-43 0-84 8-121 23-38 15-71 36-100 64-29 27-52 60-71 98-18 39-29 81-32 128z" id="path163" fill="#1d3a6e" fill-rule="nonzero"/><path class="fil25" d="M73178 28213c-97 1-185 20-262 56-76 36-132 90-165 162v762h-322v-1259h295v269c44-87 100-156 170-209 69-53 143-79 219-79 18 0 31 0 40 1s17 2 25 3z" id="path165" fill="#1d3a6e" fill-rule="nonzero"/><path class="fil25" id="polygon167" fill="#1d3a6e" fill-rule="nonzero" d="M74249 28217h677v269h-677v707h-331v-1706h1145v291h-814z"/><path class="fil25" d="M76004 28213c-97 1-185 20-262 56-76 36-132 90-165 162v762h-322v-1259h295v269c44-87 100-156 170-209 69-53 143-79 219-79 18 0 31 0 40 1s17 2 25 3z" id="path169" fill="#1d3a6e" fill-rule="nonzero"/><path class="fil25" d="M76734 29217c-102 0-194-18-276-53s-151-83-208-143-100-129-131-208c-30-78-45-161-45-247 0-88 15-172 45-250 31-79 74-148 131-208s126-108 208-143 174-53 276-53 194 18 275 53 150 83 206 143c57 60 101 129 131 208 31 78 46 162 46 250 0 86-15 169-46 247-30 79-73 148-129 208s-125 108-207 143-174 53-276 53zm-329-651c0 56 9 107 25 152 17 46 40 86 70 119 30 34 64 60 104 78 40 19 84 28 130 28s90-9 130-28c40-18 74-44 104-78 30-33 53-73 70-120 17-46 25-98 25-154 0-54-8-105-25-151-17-47-40-87-70-120-30-34-64-60-104-78-40-19-84-28-130-28s-90 10-130 29-74 46-104 79c-30 34-53 74-70 120-16 47-25 97-25 152z" id="path171" fill="#1d3a6e" fill-rule="nonzero"/><path class="fil25" d="M79558 29193h-322v-707c0-101-18-174-53-221-35-46-83-69-144-69-62 0-122 24-178 73s-96 113-120 191v733h-321v-707c0-101-18-174-52-221-34-46-82-69-143-69-62 0-122 24-179 72s-97 111-121 190v735h-322v-1259h291v233c46-82 110-145 191-189 80-44 173-66 277-66 106 0 187 26 244 77 56 51 94 115 111 190 52-87 116-153 195-198 78-46 168-69 269-69 77 0 140 15 189 43 50 29 88 67 116 113 27 47 46 100 56 159s16 119 16 180z" id="path173" fill="#1d3a6e" fill-rule="nonzero"/><path class="fil25" id="polygon175" fill="#1d3a6e" fill-rule="nonzero" d="M66442 30940l-931 1165h938v291h-1351v-250l962-1165h-936v-291h1318z"/><path class="fil25" d="M66531 32396l672-1706h269l670 1706h-350l-156-425h-598l-156 425zm807-1348l-245 690h483z" id="path177" fill="#1d3a6e" fill-rule="nonzero"/><path class="fil25" id="polygon179" fill="#1d3a6e" fill-rule="nonzero" d="M69275 32108h-180l-439-841v1129h-331v-1706h355l504 971 509-971h353v1706h-331v-1129z"/><path class="fil25" id="polygon181" fill="#1d3a6e" fill-rule="nonzero" d="M70401 30690h1162v291h-830v411h718v269h-718v444h852v291h-1184z"/><path class="fil25" id="polygon183" fill="#1d3a6e" fill-rule="nonzero" d="M72997 31810v-1117h331v1703h-269l-876-1093v1093h-331v-1706h257z"/><path class="fil25" id="polygon185" fill="#1d3a6e" fill-rule="nonzero" d="M74788 31668h-773v728h-331v-1706h331v690h773v-690h329v1706h-329z"/><path class="fil25" d="M76181 32408c-120 0-230-24-329-73s-185-114-256-195-126-173-164-277c-39-104-58-211-58-320 0-113 20-222 61-326 41-105 98-197 171-277 72-80 158-144 258-191 99-47 207-71 324-71 120 0 230 26 329 76s184 117 254 198c71 82 125 175 164 279 38 104 57 210 57 317 0 114-20 222-61 326-41 103-97 194-169 274-72 79-158 142-257 189-99 48-208 71-324 71zm-473-865c0 74 11 145 32 214 22 69 53 130 94 183s91 95 150 127 126 48 201 48c77 0 145-16 203-49 59-33 108-77 148-131 40-55 70-116 91-184s31-137 31-208c0-73-11-145-33-214-23-68-54-129-95-182s-90-95-149-126c-58-32-124-47-198-47-77 0-144 16-203 49-58 33-108 76-149 130-40 54-71 114-92 182-21 69-31 138-31 208z" id="path187" fill="#1d3a6e" fill-rule="nonzero"/><path class="fil25" id="polygon189" fill="#1d3a6e" fill-rule="nonzero" d="M77580 31421h678v269h-678v706h-331v-1706h1145v291h-814z"/></g><path class="str0" d="M22318.384 5765.548c350-331 728-322 1168-335 10687-321 21374-641 32061-961 339 13 600 95 793 238 215 158 346 392 407 687V22126.55c-24 335-126 584-294 763-196 209-480 322-831 363-1368-125-2735-250-4102-375-9 1275-17 2551-25 3826-1351-1409-2701-2818-4052-4227-8120-742-16240-1484-24361-2225-314-26-571-128-763-316-179-176-302-427-362-760V6860.548c0-410 40-791 361-1095z" id="path193" fill="url(#id1-3)" stroke="#2b2a29" stroke-width="57" stroke-miterlimit="22.926"/><g transform="translate(-58152.616 59.548)" id="g271"><path class="fil28" d="M84300 9415c0 153-55 272-165 359-111 87-262 130-456 130s-353-30-476-90v-265c78 37 161 66 249 87s170 31 246 31c110 0 192-21 245-63s79-99 79-170c0-64-24-118-73-163-48-44-148-97-300-158-156-63-266-136-330-217s-96-179-96-293c0-143 51-256 152-338 102-82 238-123 409-123 164 0 328 36 490 108l-89 229c-152-64-288-96-408-96-90 0-159 19-206 59-47 39-70 91-70 156 0 45 9 83 28 115 19 31 49 61 92 89s121 65 232 112c126 52 218 101 277 146 58 45 101 97 129 154 27 57 41 124 41 201z" id="path195" fill="#fff" fill-rule="nonzero"/><path class="fil28" d="M85516 9881l-39-170h-14c-38 60-93 107-163 142-71 34-152 51-242 51-157 0-274-39-352-117-77-78-116-197-116-355v-848h278v800c0 99 20 173 61 223 40 50 104 75 191 75 115 0 200-35 255-104 54-69 81-185 81-348v-646h277v1297z" id="path197" fill="#fff" fill-rule="nonzero"/><path class="fil28" d="M86782 8561c56 0 102 4 137 11l-26 257c-39-9-80-14-122-14-110 0-200 36-268 108s-103 165-103 280v678h-275V8584h216l36 229h14c43-78 99-139 168-184 69-46 144-68 223-68z" id="path199" fill="#fff" fill-rule="nonzero"/><path class="fil28" d="M87726 9904c-202 0-360-59-473-176-114-118-171-280-171-486 0-212 53-378 158-500 106-121 251-181 435-181 171 0 306 52 406 156 99 104 148 247 148 429v149h-863c4 125 38 222 102 290 64 67 154 101 270 101 77 0 148-7 214-21 66-15 137-39 213-73v224c-67 32-135 55-204 68-69 14-147 20-235 20zm-51-1135c-87 0-157 28-210 84-53 55-84 136-94 242h588c-2-107-28-188-78-243s-118-83-206-83z" id="path201" fill="#fff" fill-rule="nonzero"/><path class="fil28" d="M88501 9734c0-58 15-102 46-132 30-30 74-45 130-45 55 0 98 16 128 47 29 31 44 75 44 130 0 56-15 100-45 132-30 33-72 49-127 49-56 0-99-16-130-47-30-31-46-76-46-134zm279-374h-204l-61-1193h325z" id="path203" fill="#fff" fill-rule="nonzero"/><path class="fil28" d="M90991 8685c0 179-59 316-176 411-117 96-284 144-500 144h-178v641h-280V8167h493c214 0 374 44 481 131 107 88 160 217 160 387zm-854 319h149c143 0 249-25 316-75s101-128 101-235c0-98-30-172-90-220-61-49-154-73-282-73h-194z" id="path205" fill="#fff" fill-rule="nonzero"/><path class="fil28" id="polygon207" fill="#fff" fill-rule="nonzero" d="M91579 8057v1824h-275V8057z"/><path class="fil28" d="M92539 9904c-202 0-359-59-473-176-114-118-171-280-171-486 0-212 53-378 159-500 105-121 250-181 434-181 171 0 306 52 406 156 99 104 149 247 149 429v149h-864c4 125 38 222 102 290 64 67 154 101 271 101 76 0 147-7 213-21 66-15 137-39 213-73v224c-67 32-135 55-204 68-69 14-147 20-235 20zm-51-1135c-87 0-157 28-210 84-53 55-84 136-94 242h588c-2-107-28-188-77-243-51-55-119-83-207-83z" id="path209" fill="#fff" fill-rule="nonzero"/><path class="fil28" d="M94166 9881l-55-181h-9c-63 79-126 133-189 161-63 29-144 43-244 43-127 0-226-34-298-103-71-69-107-166-107-292 0-133 50-234 149-302s250-105 453-112l224-7v-69c0-83-19-145-58-186s-99-61-180-61c-66 0-130 10-191 29-61 20-119 43-176 69l-89-197c71-36 148-64 231-84 84-19 163-28 237-28 165 0 289 36 373 108 84 71 126 184 126 338v874zm-410-188c100 0 180-28 241-84 60-55 91-134 91-235v-112l-167 7c-129 5-224 26-283 65s-88 98-88 178c0 57 17 102 51 134 35 31 86 47 155 47z" id="path211" fill="#fff" fill-rule="nonzero"/><path class="fil28" d="M95618 9512c0 126-46 223-138 291-93 67-225 101-397 101s-311-26-415-78v-238c152 70 294 105 425 105 169 0 254-51 254-153 0-33-9-61-28-82-19-22-50-45-93-68-43-24-102-50-179-80-149-58-250-116-303-174-52-57-79-133-79-225 0-111 45-197 134-258 90-62 211-92 365-92 153 0 297 31 433 92l-89 208c-140-58-258-87-353-87-145 0-218 42-218 124 0 41 19 75 57 104 38 28 120 66 248 116 107 41 184 79 233 113 48 35 84 74 108 119 23 45 35 99 35 162z" id="path213" fill="#fff" fill-rule="nonzero"/><path class="fil28" d="M96481 9904c-201 0-359-59-473-176-113-118-170-280-170-486 0-212 53-378 158-500 106-121 250-181 435-181 171 0 306 52 405 156s149 247 149 429v149h-864c4 125 38 222 102 290 64 67 155 101 271 101 77 0 148-7 214-21 66-15 137-39 213-73v224c-68 32-136 55-204 68-69 14-148 20-236 20zm-50-1135c-88 0-158 28-210 84-53 55-85 136-95 242h588c-1-107-27-188-77-243s-119-83-206-83z" id="path215" fill="#fff" fill-rule="nonzero"/><path class="fil28" id="polygon217" fill="#fff" fill-rule="nonzero" d="M98196 8057v1824h-275V8057z"/><path class="fil28" d="M99740 9230c0 212-55 377-163 496-109 119-260 178-454 178-121 0-228-27-321-82s-164-133-214-235c-50-103-75-222-75-357 0-210 54-374 162-492 107-118 259-177 455-177 188 0 336 60 446 181 109 121 164 283 164 488zm-944 0c0 300 111 449 332 449 219 0 328-149 328-449 0-296-110-444-330-444-116 0-200 38-252 115-52 76-78 186-78 329z" id="path219" fill="#fff" fill-rule="nonzero"/><path class="fil28" d="M101150 8584v151l-221 41c20 28 37 61 50 101s20 82 20 127c0 134-46 239-138 315-92 77-219 115-381 115-41 0-79-3-112-9-60 36-90 79-90 129 0 29 14 52 42 67 28 14 79 22 153 22h226c143 0 252 30 326 91s111 149 111 264c0 147-60 260-181 340-122 80-296 120-525 120-177 0-312-32-405-94-93-63-139-152-139-267 0-80 25-147 76-202 50-54 120-92 211-113-37-15-67-40-91-75s-35-72-35-110c0-48 13-89 40-123 28-34 68-67 122-100-67-29-121-76-163-141s-63-142-63-229c0-141 45-250 133-327 89-78 215-116 379-116 37 0 75 2 116 7 40 5 70 11 90 16zm-1018 1498c0 60 27 106 80 138 54 32 129 48 226 48 150 0 261-22 335-65 73-43 110-100 110-171 0-56-20-96-60-120s-115-36-225-36h-208c-79 0-142 19-188 56-47 37-70 87-70 150zm118-1078c0 81 21 144 63 187 42 44 102 66 180 66 159 0 239-85 239-255 0-85-20-150-59-196-40-45-100-68-180-68s-140 22-181 68c-41 45-62 111-62 198z" id="path221" fill="#fff" fill-rule="nonzero"/><path class="fil28" d="M101997 8241c0-50 14-87 41-114s65-40 115-40c48 0 86 13 113 40s41 64 41 114c0 47-14 83-41 110s-65 41-113 41c-50 0-88-14-115-41s-41-63-41-110zm292 1640h-275V8584h275z" id="path223" fill="#fff" fill-rule="nonzero"/><path class="fil28" d="M103823 9881h-277v-797c0-100-20-175-60-224-40-50-104-74-192-74-116 0-201 34-255 103s-81 184-81 346v646h-275V8584h215l39 170h14c39-62 94-109 166-143 72-33 152-50 239-50 311 0 467 158 467 475z" id="path225" fill="#fff" fill-rule="nonzero"/><path class="fil28" d="M104632 8584h300l264 735c40 105 66 203 80 296h9c7-43 20-95 39-157 18-61 118-353 297-874h298l-554 1469c-101 270-269 405-504 405-61 0-121-7-178-20v-218c41 9 88 14 141 14 133 0 227-77 280-231l49-122z" id="path227" fill="#fff" fill-rule="nonzero"/><path class="fil28" d="M107265 9230c0 212-54 377-163 496-108 119-260 178-453 178-121 0-228-27-321-82s-165-133-215-235c-50-103-75-222-75-357 0-210 54-374 162-492s260-177 456-177c187 0 336 60 445 181s164 283 164 488zm-943 0c0 300 110 449 331 449 219 0 328-149 328-449 0-296-110-444-330-444-116 0-199 38-251 115-52 76-78 186-78 329z" id="path229" fill="#fff" fill-rule="nonzero"/><path class="fil28" d="M108495 9881l-38-170h-15c-38 60-92 107-163 142-71 34-151 51-242 51-157 0-274-39-351-117-78-78-116-197-116-355v-848h277v800c0 99 21 173 61 223 41 50 104 75 191 75 116 0 201-35 255-104s81-185 81-348v-646h277v1297z" id="path231" fill="#fff" fill-rule="nonzero"/><path class="fil28" d="M109762 8561c55 0 101 4 137 11l-27 257c-39-9-80-14-122-14-110 0-199 36-268 108-68 72-102 165-102 280v678h-276V8584h216l36 229h14c43-78 99-139 169-184 69-46 143-68 223-68z" id="path233" fill="#fff" fill-rule="nonzero"/><path class="fil28" id="polygon235" fill="#fff" fill-rule="nonzero" d="M83818 13655v207h-552v-2094h552v207h-300v1680z"/><path d="M101212 13482h-275v-1824h275zm-592-650c0 212-54 377-162 496-109 118-260 178-454 178-121 0-228-28-321-82-93-55-164-134-214-236s-75-221-75-356c0-211 54-375 161-493 108-118 260-177 456-177 188 0 336 61 445 181 110 121 164 284 164 489zm-943 0c0 299 111 449 332 449 219 0 328-150 328-449 0-297-110-445-330-445-116 0-200 39-252 115-52 77-78 187-78 330zm-522 0c0 212-54 377-163 496-109 118-260 178-453 178-122 0-228-28-321-82-93-55-165-134-215-236s-75-221-75-356c0-211 54-375 162-493s259-177 456-177c187 0 335 61 445 181 109 121 164 284 164 489zm-943 0c0 299 110 449 331 449 219 0 328-150 328-449 0-297-110-445-330-445-116 0-200 39-251 115-52 77-78 187-78 330zm-590 650h-276v-797c0-100-20-175-61-224-40-49-104-74-191-74-116 0-201 35-255 104s-81 185-81 348v643h-276v-1824h276v463c0 75-5 154-14 238h17c38-62 90-111 157-145 66-35 144-52 233-52 314 0 471 159 471 475zm-1805 24c-196 0-345-57-447-172-102-114-153-279-153-493 0-218 53-386 160-503s261-176 462-176c137 0 260 26 369 76l-83 222c-116-45-212-68-288-68-224 0-336 149-336 447 0 145 27 254 83 327 56 74 138 110 246 110 122 0 238-30 348-91v240c-49 29-102 50-158 62-56 13-123 19-203 19zm-820-393c0 127-46 224-138 291-93 68-225 102-397 102s-311-26-415-79v-238c152 71 294 106 425 106 169 0 254-51 254-154 0-33-9-60-28-82s-50-44-93-68c-43-23-102-50-179-80-149-57-250-115-303-173-52-58-79-133-79-225 0-111 45-197 134-259 90-61 211-92 365-92 153 0 297 31 433 93l-89 207c-140-57-258-86-353-86-145 0-218 41-218 124 0 41 19 75 57 103s120 67 248 116c107 42 184 79 233 114 48 34 84 74 108 119 23 45 35 99 35 161zm-1871-951c55 0 101 4 137 12l-27 257c-39-10-80-14-122-14-110 0-199 36-268 108-68 71-102 165-102 280v677h-276v-1296h216l36 228h14c43-77 99-138 169-184 69-45 143-68 223-68zm-1474 1344c-202 0-359-59-473-177-114-117-170-279-170-486 0-211 52-378 158-499 105-121 250-182 434-182 171 0 307 52 406 156s149 247 149 429v149h-864c4 126 38 223 102 290 64 68 154 102 271 102 76 0 147-7 213-22 66-14 137-38 213-72v224c-67 32-135 55-204 68-68 13-147 20-235 20zm-51-1135c-87 0-157 28-210 83-53 56-84 137-94 243h588c-2-107-27-188-77-243s-119-83-207-83zm-898 1111h-277v-797c0-100-20-175-60-224s-104-74-192-74c-116 0-201 35-255 104-54 68-81 184-81 345v646h-275v-1296h215l39 170h14c39-62 95-110 166-143 72-34 152-51 239-51 311 0 467 159 467 475zm-1601-199c67 0 135-10 202-32v208c-31 13-70 24-118 33s-98 14-149 14c-261 0-392-138-392-413v-699h-177v-122l190-100 94-275h170v289h369v208h-369v694c0 67 16 116 50 148 33 31 76 47 130 47zm-860-1121c56 0 102 4 137 12l-27 257c-39-10-79-14-121-14-111 0-200 36-268 108-68 71-103 165-103 280v677h-275v-1296h216l36 228h14c43-77 99-138 168-184 69-45 144-68 223-68zm-1238 1320l-55-180h-10c-62 79-125 133-188 161-63 29-145 43-244 43-127 0-227-35-298-103-72-69-107-166-107-292 0-134 49-235 148-303 100-68 251-105 454-111l224-7v-69c0-83-20-145-58-186-39-41-99-62-180-62-66 0-130 10-191 30-61 19-120 42-176 69l-89-197c70-37 147-65 231-84 83-19 162-29 237-29 164 0 289 36 373 108s126 185 126 339v873zm-410-187c100 0 180-28 241-84 60-56 90-134 90-235v-113l-166 7c-130 5-224 27-283 65-59 39-88 98-88 178 0 58 17 103 51 134 35 32 86 48 155 48zm-1239 211c-164 0-291-59-382-177h-16c11 109 16 176 16 199v531h-275v-1873h223c6 24 19 82 38 173h14c86-131 215-197 387-197 162 0 288 59 378 176s135 282 135 494-46 377-137 496c-92 118-219 178-381 178zm-66-1119c-110 0-190 32-240 97-50 64-76 166-76 307v41c0 158 26 272 75 343 50 70 132 106 245 106 96 0 169-39 221-118 51-78 77-189 77-334s-26-255-77-330c-51-74-126-112-225-112z" id="path237" fill="#f7941c" fill-rule="nonzero"/><path class="fil28" id="polygon239" fill="#fff" fill-rule="nonzero" d="M102092 13862v-207h300v-1680h-300v-207h550v2094z"/><path class="fil28" d="M104515 13113c0 127-46 224-138 291-92 68-224 102-396 102-173 0-312-26-416-79v-238c152 71 294 106 425 106 170 0 254-51 254-154 0-33-9-60-28-82-18-22-49-44-92-68-43-23-103-50-179-80-150-57-251-115-303-173-53-58-79-133-79-225 0-111 44-197 134-259 89-61 211-92 365-92 152 0 296 31 432 93l-89 207c-140-57-257-86-353-86-145 0-218 41-218 124 0 41 19 75 57 103s121 67 248 116c107 42 185 79 233 114 49 34 84 74 108 119 23 45 35 99 35 161z" id="path241" fill="#fff" fill-rule="nonzero"/><path class="fil28" d="M105295 13283c67 0 135-10 202-32v208c-31 13-70 24-118 33s-98 14-149 14c-261 0-392-138-392-413v-699h-177v-122l190-100 94-275h170v289h369v208h-369v694c0 67 16 116 50 148 33 31 76 47 130 47z" id="path243" fill="#fff" fill-rule="nonzero"/><path class="fil28" d="M106670 13482l-39-170h-14c-38 61-93 108-164 142-70 35-151 52-241 52-157 0-275-39-352-117-77-79-116-197-116-356v-847h278v799c0 100 20 174 61 224 40 49 104 74 191 74 115 0 200-35 255-104 54-69 81-185 81-347v-646h276v1296z" id="path245" fill="#fff" fill-rule="nonzero"/><path class="fil28" d="M107716 13506c-162 0-288-59-379-176-90-117-135-282-135-494s46-378 137-496c92-119 219-178 382-178 170 0 300 63 389 189h14c-14-93-20-166-20-220v-473h276v1824h-215l-48-170h-13c-88 129-218 194-388 194zm74-223c113 0 195-32 247-95 51-64 78-168 80-311v-38c0-164-27-280-80-348-53-69-136-104-250-104-96 0-171 40-223 118-53 79-79 191-79 336 0 144 26 254 76 329 51 75 127 113 229 113z" id="path247" fill="#fff" fill-rule="nonzero"/><path class="fil28" d="M109340 13506c-202 0-359-59-473-177-114-117-170-279-170-486 0-211 52-378 158-499 105-121 250-182 434-182 171 0 307 52 406 156s149 247 149 429v149h-864c4 126 38 223 102 290 64 68 154 102 271 102 76 0 148-7 213-22 67-14 137-38 213-72v224c-67 32-135 55-204 68-68 13-147 20-235 20zm-51-1135c-87 0-157 28-210 83-53 56-84 137-94 243h588c-2-107-27-188-77-243s-119-83-207-83z" id="path249" fill="#fff" fill-rule="nonzero"/><path class="fil28" d="M111296 13482h-276v-797c0-100-20-175-60-224-41-49-104-74-192-74-116 0-202 35-255 104-54 68-81 184-81 345v646h-276v-1296h216l39 170h14c39-62 94-110 166-143 72-34 152-51 239-51 311 0 466 159 466 475z" id="path251" fill="#fff" fill-rule="nonzero"/><path class="fil28" d="M112162 13283c67 0 135-10 202-32v208c-31 13-70 24-118 33s-98 14-149 14c-261 0-392-138-392-413v-699h-177v-122l190-100 94-275h170v289h369v208h-369v694c0 67 16 116 50 148 33 31 76 47 130 47z" id="path253" fill="#fff" fill-rule="nonzero"/><path class="fil28" d="M84094 17084l-55-181h-10c-62 79-125 133-189 162-63 28-144 42-243 42-128 0-227-34-298-103-72-69-108-166-108-292 0-133 50-234 149-302s251-105 454-112l223-7v-69c0-83-19-145-58-186-38-41-98-61-179-61-67 0-131 10-191 29-61 20-120 43-176 69l-89-197c70-36 147-64 231-83 83-20 162-29 236-29 165 0 289 36 373 108s126 185 126 339v873zm-411-188c100 0 181-28 241-83 61-56 91-135 91-236v-112l-166 7c-130 5-224 26-283 65s-89 98-89 178c0 57 17 102 52 134 34 32 86 47 154 47z" id="path255" fill="#fff" fill-rule="nonzero"/><path class="fil28" d="M85197 17107c-196 0-345-57-447-171-102-115-153-279-153-493 0-218 54-386 160-503 107-118 261-176 463-176 136 0 259 25 369 76l-84 222c-116-46-212-68-288-68-224 0-336 149-336 446 0 146 28 255 84 328 55 73 137 110 245 110 123 0 239-31 348-92v240c-49 29-102 50-157 63-56 12-124 18-204 18z" id="path257" fill="#fff" fill-rule="nonzero"/><path class="fil28" d="M86385 17107c-196 0-345-57-447-171-102-115-153-279-153-493 0-218 54-386 160-503 107-118 261-176 463-176 136 0 259 25 369 76l-84 222c-116-46-212-68-288-68-224 0-336 149-336 446 0 146 28 255 84 328 55 73 137 110 245 110 123 0 239-31 348-92v240c-49 29-102 50-157 63-56 12-124 18-204 18z" id="path259" fill="#fff" fill-rule="nonzero"/><path class="fil28" d="M88200 16433c0 212-54 377-163 496-108 119-259 178-453 178-121 0-228-27-321-82-93-54-165-133-215-235-50-103-75-222-75-357 0-210 54-374 162-492s260-177 456-177c187 0 336 60 445 181s164 283 164 488zm-943 0c0 300 110 449 331 449 219 0 329-149 329-449 0-296-111-444-331-444-115 0-199 38-251 115-52 76-78 186-78 329z" id="path261" fill="#fff" fill-rule="nonzero"/><path class="fil28" d="M89430 17084l-38-170h-14c-39 60-93 107-164 142-71 34-151 51-242 51-157 0-274-39-351-117-78-78-116-196-116-355v-848h277v800c0 99 21 174 61 223 41 50 105 75 191 75 116 0 201-35 255-104s82-185 82-348v-646h276v1297z" id="path263" fill="#fff" fill-rule="nonzero"/><path class="fil28" d="M91179 17084h-276v-797c0-100-20-175-60-224-41-49-104-74-192-74-116 0-201 34-255 103s-81 184-81 346v646h-275v-1297h215l39 170h14c39-61 94-109 166-143 72-33 152-50 239-50 311 0 466 158 466 475z" id="path265" fill="#fff" fill-rule="nonzero"/><path class="fil28" d="M92045 16885c68 0 135-11 202-32v207c-31 14-70 25-118 34s-98 13-149 13c-261 0-392-137-392-412v-699h-176v-122l189-101 94-274h170v288h369v209h-369v694c0 66 16 116 50 147 33 32 76 48 130 48z" id="path267" fill="#fff" fill-rule="nonzero"/><path class="fil28" d="M92465 16937c0-57 15-100 44-131 30-30 73-46 129-46 57 0 101 16 130 48 30 32 45 75 45 129 0 56-15 100-45 132-30 33-74 49-130 49s-99-16-129-48c-29-32-44-76-44-133z" id="path269" fill="#fff" fill-rule="nonzero"/></g></svg>