<svg xmlns="http://www.w3.org/2000/svg" width="570" height="324" viewBox="0 0 57000 32398" id="svg255" clip-rule="evenodd" fill-rule="evenodd" image-rendering="optimizeQuality" shape-rendering="geometricPrecision" text-rendering="geometricPrecision"><defs id="defs14"><style id="style2">.str0{stroke:#2b2a29;stroke-width:57;stroke-miterlimit:22.9256}.fil14{fill:#15333d}.fil10{fill:#693f21}.fil11{fill:#f4c18a}.fil0,.fil1,.fil22{fill:#1d3a6e;fill-rule:nonzero}.fil1,.fil22{fill:#f6911d}.fil22{fill:#fff}</style><linearGradient id="id0" gradientUnits="userSpaceOnUse" y1="15470" x2="34820" y2="15470"><stop offset="0" id="stop4" stop-color="#1f3a6f"/><stop offset="1" id="stop6" stop-color="#0e254f"/></linearGradient><linearGradient id="id1" gradientUnits="userSpaceOnUse" x1="80180" y1="15489" x2="115000" y2="15489"><stop offset="0" id="stop9" stop-color="#f7921e"/><stop offset="1" id="stop11" stop-color="#ce7a1a"/></linearGradient></defs><path class="fil0" id="polygon17" fill="#1d3a6e" fill-rule="nonzero" d="M36750 29097h-332v-1415h-545v-291h1420v291h-543z"/><path class="fil0" d="M38060 29121c-101 0-193-17-274-51-82-35-152-82-209-141-58-59-103-128-134-207-31-78-47-160-47-247 0-90 15-174 46-254 30-79 74-149 132-209s128-107 210-143c83-35 175-52 278-52 102 0 194 17 275 52 81 36 150 83 207 142s100 128 129 207c30 78 45 160 45 245 0 21 0 41-1 60s-3 35-6 48h-974c5 50 17 94 37 132 19 39 44 72 74 99s65 48 103 62c39 15 79 22 121 22 64 0 124-16 181-47s96-72 117-124l276 77c-47 96-121 175-222 237-102 62-224 92-364 92zm326-759c-8-94-43-170-104-227-62-57-137-85-225-85-43 0-84 7-121 22-38 16-71 37-100 64s-52 60-71 99c-18 38-29 81-32 127z" id="path19" fill="#1d3a6e" fill-rule="nonzero"/><path class="fil0" d="M39261 29121c-61 0-118-10-171-30-52-20-98-48-137-84-38-36-68-78-90-126-21-48-32-101-32-159 0-59 13-114 40-164 26-51 63-93 110-129 47-35 104-63 169-83 66-20 138-30 217-30 56 0 111 5 164 15 54 9 102 23 143 41v-72c0-84-23-148-71-193-47-45-117-67-210-67-67 0-133 12-197 36s-130 59-197 106l-98-204c161-108 336-161 523-161 181 0 322 44 422 133s150 217 150 386v391c0 34 7 58 20 72 12 15 35 23 67 24v274c-31 7-59 11-85 14-27 2-50 3-69 3-61-1-107-15-139-42-32-26-52-62-60-107l-8-69c-56 73-124 129-204 168-80 38-166 57-257 57zm91-235c55 0 106-10 155-29s87-45 115-77c35-27 52-58 52-91v-144c-38-15-80-26-125-35-44-9-88-13-129-13-84 0-152 18-205 56-52 38-79 85-79 143 0 55 21 100 63 136 41 36 92 54 153 54z" id="path21" fill="#1d3a6e" fill-rule="nonzero"/><path class="fil0" d="M40227 28468c0-88 15-172 46-250 30-79 74-148 132-207s127-106 209-142c82-35 174-52 276-52 138 0 255 29 352 88 97 60 170 137 218 234l-315 96c-27-47-63-82-108-107s-95-38-149-38c-47 0-90 10-130 28-40 19-75 44-104 77-30 33-53 73-70 119s-25 98-25 154 8 107 26 154c18 46 41 86 71 120 30 33 65 59 105 78 40 18 82 27 127 27 58 0 111-14 160-43s83-64 102-105l315 96c-44 96-115 174-214 235-100 61-219 91-358 91-103 0-195-17-277-52-81-36-151-83-209-143-57-61-102-130-133-210-31-79-47-162-47-248z" id="path23" fill="#1d3a6e" fill-rule="nonzero"/><path class="fil0" d="M42830 29097h-322v-706c0-99-19-173-56-220s-89-71-156-71c-29 0-59 7-91 19-32 13-63 31-91 54-29 24-56 51-80 83s-41 68-53 106v735h-322v-1754h322v728c47-81 110-144 189-188s167-66 263-66c82 0 148 14 200 42 51 28 91 65 120 111 29 47 49 100 60 159s17 120 17 183z" id="path25" fill="#1d3a6e" fill-rule="nonzero"/><path class="fil0" d="M43692 29121c-101 0-192-17-274-51-81-35-151-82-209-141-57-59-102-128-133-207-31-78-47-160-47-247 0-90 15-174 46-254 30-79 74-149 132-209s128-107 210-143c83-35 175-52 278-52 102 0 194 17 275 52 81 36 150 83 207 142 56 59 100 128 129 207 30 78 45 160 45 245 0 21-1 41-1 60-1 19-3 35-6 48h-974c5 50 17 94 36 132 20 39 44 72 75 99 30 27 65 48 103 62 39 15 79 22 120 22 64 0 125-16 182-47s95-72 116-124l277 77c-47 96-121 175-223 237-101 62-223 92-364 92zm327-759c-8-94-43-170-104-227-62-57-137-85-225-85-43 0-84 7-121 22-38 16-71 37-100 64s-53 60-71 99c-18 38-29 81-32 127z" id="path27" fill="#1d3a6e" fill-rule="nonzero"/><path class="fil0" d="M45298 28117c-98 2-185 20-262 56s-133 91-166 163v761h-322v-1259h295v269c44-86 100-156 170-209s143-79 220-79c17 0 31 0 39 1 9 1 18 2 26 4z" id="path29" fill="#1d3a6e" fill-rule="nonzero"/><path class="fil0" id="polygon31" fill="#1d3a6e" fill-rule="nonzero" d="M46038 29097v-1706h1146v291h-815v440h678v269h-678v706z"/><path class="fil0" d="M48126 28117c-98 2-185 20-262 56s-132 91-166 163v761h-322v-1259h296v269c43-86 100-156 169-209 70-53 143-79 220-79 18 0 31 0 40 1s17 2 25 4z" id="path33" fill="#1d3a6e" fill-rule="nonzero"/><path class="fil0" d="M48857 29121c-103 0-195-17-277-52-81-36-151-83-208-143-56-61-100-130-131-208-30-79-45-161-45-248 0-88 15-171 45-250 31-78 75-148 131-208 57-60 127-107 208-143 82-35 174-52 277-52 102 0 194 17 275 52 81 36 150 83 206 143 57 60 101 130 131 208 31 79 46 162 46 250 0 87-15 169-46 248-30 78-73 147-129 208-56 60-125 107-207 143-82 35-174 52-276 52zm-330-651c0 56 9 107 26 153 16 45 40 85 69 119 30 33 65 59 105 78 40 18 83 27 130 27 46 0 89-9 129-27 40-19 75-45 105-78 30-34 53-74 70-120 16-47 25-98 25-154 0-55-9-105-25-152-17-46-40-86-70-120-30-33-65-59-105-78-40-18-83-28-129-28-47 0-90 10-130 29-40 20-75 46-105 80-29 33-53 73-69 120-17 46-26 97-26 151z" id="path35" fill="#1d3a6e" fill-rule="nonzero"/><path class="fil0" d="M51683 29097h-322v-706c0-101-18-175-53-221-35-47-83-70-144-70-63 0-122 25-178 73-56 49-96 113-120 191v733h-322v-706c0-101-18-175-52-221-34-47-82-70-143-70-62 0-122 24-179 72s-97 112-121 190v735h-322v-1259h290v233c47-81 110-144 191-188s174-66 278-66c106 0 187 25 244 76 57 52 94 115 112 190 51-86 116-152 194-198 79-46 169-68 269-68 77 0 141 14 190 43 50 29 88 66 116 113 27 46 46 99 56 158 11 60 16 120 16 181z" id="path37" fill="#1d3a6e" fill-rule="nonzero"/><path class="fil0" id="polygon39" fill="#1d3a6e" fill-rule="nonzero" d="M37210 32052l964-1166h-938v-291h1320v250l-933 1166h940v291h-1353z"/><path class="fil0" d="M38645 32302l672-1707h270l670 1707h-351l-156-426h-598l-156 426zm807-1349l-245 690h483z" id="path41" fill="#1d3a6e" fill-rule="nonzero"/><path class="fil0" id="polygon43" fill="#1d3a6e" fill-rule="nonzero" d="M41810 30595h353v1707h-332v-1130l-440 841h-180l-440-841v1130h-331v-1707h355l505 971z"/><path class="fil0" id="polygon45" fill="#1d3a6e" fill-rule="nonzero" d="M42850 31566v445h853v291h-1185v-1707h1164v291h-832v411h719v269z"/><path class="fil0" id="polygon47" fill="#1d3a6e" fill-rule="nonzero" d="M44302 31208v1094h-332v-1707h257l889 1120v-1117h332v1704h-269z"/><path class="fil0" id="polygon49" fill="#1d3a6e" fill-rule="nonzero" d="M46909 31285v-690h329v1707h-329v-729h-774v729h-332v-1707h332v690z"/><path class="fil0" d="M48303 32314c-120 0-230-25-330-74-99-49-184-113-255-194-72-81-127-174-165-278-39-104-58-211-58-320 0-113 21-222 62-326 40-104 97-197 170-277s159-143 258-191c100-47 208-71 325-71 120 0 230 26 329 76 99 51 184 117 255 198 70 82 125 175 163 279 39 104 58 210 58 317 0 114-20 223-61 326s-98 195-170 274-158 142-257 190c-99 47-207 71-324 71zm-474-866c0 74 11 145 33 214 21 69 53 130 93 183 41 53 91 95 151 127 59 32 126 48 201 48 77 0 145-16 204-49 58-33 107-76 147-131 40-54 71-116 92-184 20-68 31-137 31-208 0-73-11-144-34-213-22-69-54-130-95-183-40-53-90-95-149-126-58-31-124-47-198-47-77 0-144 16-203 49-58 33-108 76-149 130s-72 115-92 183c-21 68-32 137-32 207z" id="path51" fill="#1d3a6e" fill-rule="nonzero"/><path class="fil0" id="polygon53" fill="#1d3a6e" fill-rule="nonzero" d="M49372 32302v-1707h1146v291h-814v440h677v269h-677v707z"/><circle class="str0" cx="43875" cy="12635" r="10495" id="circle101" fill="#fff" stroke="#2b2a29" stroke-width="57" stroke-miterlimit="22.926"/><g id="g139"><path d="M37283 22461c230-677 556-1304 998-1869 523-666 1163-1194 1910-1591 466-249 954-438 1469-557 9-2 18-6 21-7 12-9 8-15 5-19-32-48-19-83 19-125 116-125 228-254 341-382 10-12 21-22 36-38 104 103 206 205 309 307 28 6 47 25 66 44 243 243 491 482 728 731 334 350 683 685 1021 1030 16 17 35 31 44 53 2 45-40 54-62 80-248 199-495 400-745 598-75 60-75 60-32 144 162 324 320 651 489 972 48 93 56 182 45 281-22 191-39 381-56 572-16 172-33 343-50 515-13 137-24 275-41 412-2 19-1 38-16 54-4015-433-6199 730-6499-1205z" id="path105" fill="#565656"/><path d="M46778 18354c96 10 188 38 280 64 733 200 1381 558 1953 1056 508 443 923 963 1274 1537 1025 3410-1227 1993-5638 2655-16-18-15-39-17-60-18-197-36-393-54-590-16-183-32-366-49-549-15-147-26-294-42-441-4-40-1-76 17-112 187-374 374-748 562-1122 8-17 16-35 34-45 31-9 50 11 71 27 143 116 286 233 429 348 56 44 56 44 83-25 188-476 377-952 564-1429 164-415 329-831 493-1246 10-25 16-52 40-68z" id="path107" fill="#626062"/><path d="M45466 4950c475 15 946 60 1408 175 297 74 583 176 845 337 177 109 333 241 458 407 148 196 233 417 262 660 26 218 13 433-33 647-9 43-5 79 16 119 208 408 361 838 477 1280 86 331 145 667 181 1007 4 32 3 65 5 97-21 25-43 7-61-1-54-25-110-31-168-31-177 2-354 1-530 1-73 0-75 2-67 76 34 297 67 595 99 892 3 22 4 42 0 63-52 144-87 290-79 445 2 22 7 52-19 60-25 8-42-16-57-33-120-135-233-275-337-422-326-459-585-951-759-1487-94-291-162-588-195-892-3-23-7-46-12-68-7-6-12-2-15 3-64 97-164 148-262 201-501 271-1031 466-1589 581-231 48-464 84-701 96-47 2-95 16-143 9-14-3-28-5-32-22 12-82 9-165 9-247V7032c0-35-3-69 6-103 14-39 48-32 77-32 214-2 426 19 636 49 468 67 914 203 1334 419 295 152 566 339 815 558 338 299 619 644 848 1033 70 121 138 243 189 374 18 47 46 58 94 51 129-17 259-29 388-42 58-5 65-12 45-68-80-230-180-453-295-668-159-297-345-576-556-839-372-460-812-841-1329-1130-525-292-1088-467-1684-538-148-18-297-34-447-35-40-1-85 3-114-39-7-74-18-148-18-223v-678c0-86 0-86-81-111-7-2-13-6-18-13 65-17 132-14 198-18 201-14 401-26 601-29 15-1 31 3 44-9h311c64 13 129 2 193 6 21 1 42-3 62 3z" id="path109" fill="#754928"/><path d="M45106 20750c-51 85-91 177-136 265-149 295-296 590-445 884-23 45-33 88-21 138 10 46 8 95 13 143 16 146 25 293 39 440 13 145 29 289 42 434 10 106 17 213 27 320 6 78 14 156 21 234 2 19 1 38 1 58h-461c-26-32-19-70-19-106v-1819-1531c0-36-2-73 18-106 9-15 25-21 37-33 11-9 25-17 22-35 5-3 10-3 15 0 127 112 262 214 392 320 143 117 286 233 429 348 14 12 34 21 26 46z" id="path111" fill="#e8a170"/><path d="M44185 20104c0 1166 0 2332 1 3498v64h-404c2-110 18-218 28-326 6-55 9-110 16-165 17-139 25-278 38-417 14-139 30-277 43-416 10-100 11-203 28-302 11-65-8-114-35-168-178-353-355-706-532-1058-19-37-18-43 14-68 176-141 353-282 529-424 91-73 180-149 274-218z" id="path113" fill="#d18e66"/><path d="M45466 4950c-78 8-156-1-235 0-6 0-13-6-20-9h254c0 3 1 6 1 9z" id="path115" fill="#b8a190"/><path d="M44163 9157c11 1 23 2 34 3-2 5 0 13-7 14-75 14-67 70-67 124 1 1559 1 3117 1 4675 0 39 3 77-7 115-14 32-42 26-69 24-279-18-523 74-731 255-125 110-148 277-84 434 74 184 215 283 400 332 141 38 285 61 432 59 75-1 150-2 224 1 21 1 53-13 57 27-38 28-82 16-123 17-99 2-100 1-100 98v1005c0 33 4 66-11 96-33 33-75 22-114 20-530-37-1031-175-1502-421-7-3-14-7-21-10-57-28-58-28-58 37v1859c0 32 3 65-6 97-3 7-7 12-13 16-16-21-9-45-9-67 0-647-1-1294 1-1941 0-48-13-75-56-99-277-160-532-350-769-565-265-241-500-508-709-799-205-284-383-584-535-899-183-379-328-773-435-1180-39-150-76-300-104-453-2-9-6-18-12-33-20 22-37 40-54 59-137 150-308 137-448 13-99-88-168-199-225-318-94-197-147-406-179-621-24-162-32-325-23-488 11-203 43-404 125-592 31-71 69-139 125-192 30-29 51-60 57-101 19 12 36 6 55-1 127-43 238-13 336 74 104 92 181 205 237 330 121 267 185 548 197 841 3 69 13 138 12 207-1 15 0 32 9 44 50 71 110 134 167 199 19 21 34 6 42-15 19-46 39-92 58-138 81-199 154-402 248-595 146-303 187-631 259-952 103-457 180-919 255-1382 4-24 7-49 20-71 4-6 9-9 15-11 28-3 47 16 67 29 511 319 1057 555 1643 694 256 62 515 100 778 123 125 11 250-1 373 18 59 10 118-15 178-9 23 1 47-4 66 14z" id="path117" fill="#e4b683"/><path class="fil10" d="M41051 8294c-100 627-213 1253-356 1872-32 135-67 268-101 402-6 23-7 49-36 61-14 6-15 26-21 40l-315 765c-9 22-16 44-30 62-20 3-26-14-36-25-55-63-110-128-166-191-21-24-24-49-24-79 0-319-42-631-159-929-60-153-136-297-258-412-59-56-126-98-211-106-66-7-125 11-180 43-12-12-3-27-10-39 25-410 71-818 174-1217 62-238 143-469 270-682 75-124 163-238 278-327 29-22 26-40 15-68-61-161-103-329-140-497-2-10-7-19 2-30 119 42 237 96 379 101-174-253-301-517-380-804-80-287-110-577-70-875 28 4 45 17 63 27 260 136 521 269 794 379 65 27 132 51 201 68 26 7 52 11 87 10-53-130-117-249-157-378 18-13 35-7 51-7 231 5 461 1 690-23 174-18 346-48 512-104 159-53 324-81 487-113 335-65 673-116 1012-158 184-23 369-40 554-59 29-3 58-3 87-4 28 1 57 2 86 2 22 0 31 10 31 31v41c0 243 1 487 0 730-1 79 19 156 12 235-19 18-43 15-66 14-132-7-265 6-396 14-294 19-583 66-867 144-472 131-905 340-1297 633-245 183-467 390-669 621-337 387-602 819-819 1282-143 304-257 620-345 945-5 21-10 41-15 62-15 69-13 72 57 72 73 0 146-1 219 1 39 1 62-13 79-51 213-505 505-960 863-1374 22-26 42-55 68-78 15-13 28-33 53-27z" id="path119" fill="#693f21"/><path class="fil11" d="M44254 20036h-5-5c-18-9-29-25-43-38-315-316-631-632-946-949-289-289-576-579-864-869 16-48 5-97 7-146l2-4c49-58 121-81 183-117 506-285 1013-569 1520-852 541-303 1081-605 1621-909 68-38 138-75 206-114 16-9 33-21 54-12v2225c5 20-9 32-21 44-49 48-92 103-141 151-185 181-359 372-542 555-169 170-336 342-500 516-153 162-318 311-462 480-16 18-30 47-64 39z" id="path121" fill="#f4c18a"/><path class="fil11" d="M44105 14100V9236v-35c0-22 10-30 31-31s43 7 61-10c231-16 462-40 690-81 417-75 820-195 1211-358 221-93 436-199 643-320 41-24 73-56 103-91 20-23 40-46 69-79 55 561 203 1085 437 1585 233 500 531 958 909 1373 10-29 6-50 5-69-6-140 18-275 67-406 4-9 6-18 14-24 44 47 32 109 38 164 38 370 75 740 104 1111 17 200 30 401 37 602 1 28 6 58-19 81-20 23-22 53-31 80-74 238-158 472-258 700-4 9-5 19-8 28-2 37-35 48-59 64-246 172-512 309-789 425-524 220-1071 362-1630 462-217 39-435 72-655 93-31 2-56-2-73-32-60-103-159-158-262-206-181-83-375-109-570-133-24-3-50-3-65-29z" id="path123" fill="#f4c18a"/><path class="fil11" d="M44105 16440v-1161-29c0-22 12-30 32-30 52 0 104 0 156-1 18 0 38 6 54-10 26-24 60-25 92-27 125-10 246-39 363-84 76-29 144-72 192-140 27-39 65-51 109-54 321-16 634-84 945-159 289-71 573-161 854-257 294-102 583-213 867-340 26-11 51-29 82-14-6 31-27 55-43 81-177 284-374 552-598 800-325 360-692 668-1111 913-13 7-29 12-35 28-106 76-225 129-343 182-359 161-735 261-1127 305-145 16-290 14-436 13-19 0-38 1-53-16z" id="path125" fill="#f4c18a"/><path d="M48505 12648c6-129-8-257-14-385-6-138-19-275-31-413-17-190-35-381-53-572-13-129-25-259-39-389-6-66-15-133-23-199 0-69-11-137-20-205-10-81-17-163-26-244-10-91-21-182-31-273-9-81-18-163-26-244-2-21-5-42-9-63-4-18 3-29 24-29 15-1 30-1 46-1 191 0 383 2 574-1 56 0 106 10 155 33 17 8 31 24 53 16 17 23 43 31 66 44 240 135 414 326 502 591 20 61 30 122 30 186-1 509-1 1018-1 1526 0 149-32 290-112 417-95 152-236 243-403 298-210 68-425 80-643 59-22-2-32-9-26-32 10-40 8-80 7-120z" id="path127" fill="#36576e"/><path d="M44254 20036c77-67 143-144 214-217 323-331 645-663 967-995 173-180 347-359 520-538 11-11 24-20 29-35 90-79 166-170 251-253 41-40 82-79 126-122 23 26 47 52 71 79 102 115 204 230 305 345 15 17 28 36 41 54-33 85-66 171-99 256-90 228-180 456-270 683-85 215-171 430-256 645-95 242-190 485-285 726-67 170-133 339-200 507-1 4-5 6-10 11-45-20-79-57-117-87-120-94-236-194-357-287-26-20-45-47-78-58-61-64-133-114-201-169-207-169-416-337-624-505-13-11-30-19-27-40z" id="path129" fill="#505050"/><path class="fil14" d="M47851 14134c-107 44-213 89-319 132-569 233-1150 427-1751 556-227 49-456 88-688 100-38 2-66 12-88 49-35 57-92 91-151 121-99 49-205 76-313 93-64 10-129 16-194 24-103 0-207 2-310 0-171-5-339-32-501-91-190-70-298-208-343-400-32-136 4-255 103-352 113-112 251-181 401-228 121-38 246-57 374-38 11 1 23 0 34 0 47 21 98 17 147 24 174 22 344 56 505 128 106 49 203 110 262 216 10 19 24 20 43 18 116-14 232-24 348-41 311-46 620-105 925-182 457-114 902-262 1324-472 178-88 348-188 509-303 14-10 31-17 40-32 127-84 237-188 344-295 17-18 34-37 51-55 89-100 227-115 337-37 65 47 109 113 144 184 16 33 7 64-7 94-20 43-50 77-82 110-74 74-157 136-244 193-250 166-517 301-788 428-38 18-78 31-112 56z" id="path131" fill="#15333d"/><path d="M44105 16440c113 0 227 5 339-1 93-5 186-17 278-30 142-20 282-47 420-84 181-48 357-108 529-183 114-50 226-103 335-162 19-10 37-22 58-24 10 2 22 7 8 17-28 19-59 36-88 53-116 64-232 128-347 192-112 62-223 126-335 189-120 67-240 135-361 202-140 79-281 156-421 235-147 82-293 166-440 248-109 61-218 120-327 181-110 62-219 125-329 187-109 61-218 121-326 181-119 67-237 134-356 200-113 64-228 126-342 189v-2027c0-8 1-15 1-23 19-8 31 4 43 11 157 81 317 155 482 218 166 63 337 112 511 150 104 23 209 42 314 56 55 7 110 15 166 16 62 1 125 14 188 9z" id="path133" fill="#caa075"/><path class="fil14" d="M41051 8294c-60 42-102 103-149 158-159 187-303 385-435 592-151 240-288 488-394 753-12 28-25 43-58 42-98-2-196 0-294-1-40 0-41-2-32-43 36-184 95-362 157-539 100-282 222-555 362-820 142-268 305-522 490-762 89-116 186-224 283-333 93-105 195-201 300-293 201-178 419-334 651-469 262-152 538-268 826-358 163-50 329-88 496-116 130-22 261-38 392-48 180-14 359-23 540-21 128 8 256 11 383 24 152 16 303 37 454 63 215 39 426 92 633 160 157 51 310 113 460 181 206 93 403 204 592 329 135 89 264 184 387 289 127 108 253 217 369 338 177 186 341 383 491 592 186 262 347 538 484 828 69 148 131 298 183 453 16 47 9 56-41 61-127 12-255 24-382 36-25 2-49 10-74 11-29 1-44-9-56-37-25-62-52-124-82-183-133-265-294-512-480-742-129-161-269-311-420-450-181-166-375-315-584-445-129-80-261-155-398-219-297-140-606-245-928-312-124-25-248-48-373-64-100-13-201-22-302-28-106-6-211-12-316-9-22 18-47 15-72 14-233-3-463 20-692 60-522 90-1010 274-1458 557-323 204-615 446-876 724-11 11-24 19-37 27z" id="path135" fill="#15333d"/><path class="fil10" d="M41051 8294c60-90 142-161 221-233 54-49 106-99 162-146 100-84 202-165 307-242 193-139 397-261 612-363 307-147 626-255 961-319 131-26 263-44 396-58 158-18 317-25 476-21v2146c0 36-3 69-23 99-246 14-490 4-735-19-523-51-1024-185-1507-388-282-119-551-262-810-424-19-12-36-28-60-32z" id="path137" fill="#693f21"/></g><path d="M43875 22892c-5665 0-10257-4592-10257-10257S38210 2378 43875 2378s10257 4592 10257 10257-4592 10257-10257 10257zm0 2378c-6978 0-12635-5657-12635-12635S36897 0 43875 0s12635 5657 12635 12635-5657 12635-12635 12635z" id="path175" fill="#f4f4f6"/><path class="str0" d="M34459 5640c-350-331-729-322-1169-335-10696-321-21392-641-32089-962-339 13-600 96-794 238-215 159-346 392-407 688v16747c24 335 127 585 294 764 196 209 481 322 832 362 1369-125 2737-250 4106-375 8 1277 16 2553 25 3830 1352-1410 2703-2820 4055-4231 8127-742 16255-1485 24382-2227 315-26 572-128 764-316 179-176 302-427 362-761V6737c0-411-40-793-361-1097z" id="path177" fill="url(#id0)" stroke="#2b2a29" stroke-width="57" stroke-miterlimit="22.926"/><g id="g247"><path class="fil22" id="polygon179" fill="#fff" fill-rule="nonzero" d="M4760 9886h329v2002h-329v-902h-922v902h-327V9886h327v819h922z"/><path class="fil22" d="M5563 9973c0-58 15-102 47-133 31-31 76-47 135-47 56 0 100 16 132 47 31 31 47 75 47 133 0 54-16 98-47 129-32 32-76 47-132 47-59 0-104-15-135-47-32-31-47-75-47-129zm341 1915h-322v-1514h322z" id="path181" fill="#fff" fill-rule="nonzero"/><path class="fil22" d="M6316 11717c0-68 17-119 53-154s86-53 152-53c65 0 114 18 149 55 35 36 52 87 52 152s-17 116-53 154c-35 38-84 57-148 57-65 0-115-19-151-55-36-37-54-89-54-156zm325-437h-238l-71-1394h379z" id="path183" fill="#fff" fill-rule="nonzero"/><path class="fil22" id="polygon185" fill="#fff" fill-rule="nonzero" d="M8227 9886v2002h-327V9886z"/><path class="fil22" d="M8978 9886l21 31c-49 190-129 409-241 655h-233c63-263 109-492 137-686z" id="path187" fill="#fff" fill-rule="nonzero"/><path class="fil22" d="M10538 11888h-324v-934c0-116-21-202-65-259s-113-86-206-86c-124 0-215 41-273 121-58 81-87 216-87 404v754h-321v-1514h252l45 198h16c42-72 103-127 183-167 80-39 168-59 263-59 233 0 387 80 463 239h22c45-75 108-134 189-176s174-63 279-63c181 0 313 46 395 137 83 92 124 231 124 418v987h-322v-934c0-116-22-202-66-259s-113-86-206-86c-125 0-217 39-275 117s-86 198-86 360z" id="path189" fill="#fff" fill-rule="nonzero"/><path class="fil22" d="M12440 10374h351l308 858c46 122 77 237 93 345h11c8-50 23-111 45-183 22-71 138-411 348-1020h348l-648 1715c-118 315-314 472-589 472-71 0-140-7-208-23v-255c49 11 104 17 166 17 155 0 264-90 327-270l56-142z" id="path191" fill="#fff" fill-rule="nonzero"/><path class="fil22" d="M15516 11128c0 247-63 440-190 579s-303 208-530 208c-141 0-266-32-375-96-108-63-192-155-250-275-59-119-88-258-88-416 0-245 63-437 189-575s303-207 533-207c219 0 392 71 520 212s191 331 191 570zm-1102 0c0 350 130 524 388 524 255 0 383-174 383-524 0-346-128-519-386-519-135 0-233 45-294 134-60 90-91 218-91 385z" id="path193" fill="#fff" fill-rule="nonzero"/><path class="fil22" d="M16954 11888l-45-199h-17c-44 71-108 126-191 166-82 40-177 60-282 60-184 0-321-45-411-137-90-91-136-229-136-414v-990h325v933c0 116 24 203 71 261s122 87 223 87c135 0 234-40 298-121 63-81 95-216 95-406v-754h323v1514z" id="path195" fill="#fff" fill-rule="nonzero"/><path class="fil22" d="M18434 10346c65 0 118 5 160 14l-32 300c-45-11-93-17-142-17-129 0-233 42-313 126s-120 193-120 328v791h-321v-1514h252l42 267h17c50-91 115-162 196-215s168-80 261-80z" id="path197" fill="#fff" fill-rule="nonzero"/><path class="fil22" d="M20167 11655c78 0 157-12 235-37v242c-35 16-81 29-137 39-56 11-115 16-175 16-305 0-457-160-457-482v-816h-207v-142l222-118 110-320h198v337h431v243h-431v811c0 77 19 135 58 172s90 55 153 55z" id="path199" fill="#fff" fill-rule="nonzero"/><path class="fil22" d="M21366 11915c-235 0-420-68-552-206-133-137-199-326-199-567 0-248 61-442 184-583 124-142 293-213 508-213 200 0 358 61 474 182 116 122 174 289 174 501v174h-1009c4 147 44 260 119 339s180 119 316 119c90 0 173-9 250-26s160-45 248-84v262c-78 37-157 63-238 79-80 15-172 23-275 23zm-59-1325c-102 0-184 32-246 97-61 65-98 160-110 284h688c-2-125-32-220-91-284-58-65-139-97-241-97z" id="path201" fill="#fff" fill-rule="nonzero"/><path class="fil22" d="M23268 11888l-65-211h-11c-73 92-146 155-220 188-74 34-169 50-285 50-149 0-265-40-348-120-84-81-126-194-126-341 0-156 58-274 174-353 116-80 293-123 530-130l262-9v-80c0-97-23-169-68-217s-115-72-210-72c-78 0-152 11-223 34-72 23-140 50-206 81l-104-230c82-43 172-76 270-98 97-22 190-34 276-34 193 0 338 42 436 126s148 216 148 396v1020zm-480-219c117 0 211-33 282-98 70-65 106-157 106-275v-131l-195 8c-151 6-261 31-330 76s-103 115-103 208c0 67 20 119 60 156s100 56 180 56z" id="path203" fill="#fff" fill-rule="nonzero"/><path class="fil22" d="M24557 11915c-229 0-403-67-522-200-119-134-179-326-179-576 0-255 63-450 187-587 125-137 305-206 540-206 160 0 304 30 431 89l-97 259c-136-53-248-79-337-79-262 0-392 174-392 521 0 170 32 298 97 383 66 85 161 128 287 128 143 0 279-36 407-107v281c-58 34-119 58-184 72-66 15-145 22-238 22z" id="path205" fill="#fff" fill-rule="nonzero"/><path class="fil22" d="M26667 11888h-323v-931c0-117-24-204-71-262-47-57-122-86-224-86-135 0-234 41-297 121-64 81-96 216-96 406v752h-321V9758h321v540c0 87-5 180-16 278h21c43-73 104-129 182-169 78-41 169-61 273-61 367 0 551 185 551 555z" id="path207" fill="#fff" fill-rule="nonzero"/><path class="fil22" d="M27776 11915c-236 0-420-68-553-206-133-137-199-326-199-567 0-248 62-442 185-583 123-142 292-213 508-213 200 0 357 61 473 182 116 122 174 289 174 501v174h-1009c5 147 45 260 119 339 75 79 181 119 317 119 89 0 172-9 249-26 78-17 160-45 249-84v262c-79 37-158 63-238 79-81 15-172 23-275 23zm-59-1325c-103 0-184 32-246 97s-98 160-110 284h687c-2-125-32-220-90-284-59-65-139-97-241-97z" id="path209" fill="#fff" fill-rule="nonzero"/><path class="fil22" d="M29498 10346c65 0 118 5 160 14l-32 300c-45-11-93-17-142-17-129 0-233 42-313 126s-120 193-120 328v791h-321v-1514h252l42 267h17c50-91 115-162 196-215s168-80 261-80z" id="path211" fill="#fff" fill-rule="nonzero"/><path class="fil22" d="M4236 14623h-369v1270h-324v-1270h-249v-151l249-99v-98c0-179 42-312 126-398s213-129 385-129c113 0 225 19 334 56l-85 244c-79-26-155-39-227-39-73 0-126 23-160 68-33 45-49 113-49 203v99h369z" id="path213" fill="#fff" fill-rule="nonzero"/><path class="fil22" d="M5261 14352c65 0 119 4 161 13l-32 300c-45-11-93-16-142-16-129 0-233 42-313 126s-120 193-120 327v791h-321v-1514h251l43 267h16c50-90 116-162 197-215 80-53 167-79 260-79z" id="path215" fill="#fff" fill-rule="nonzero"/><path class="fil22" d="M7045 15133c0 248-63 441-190 579-127 139-303 208-530 208-141 0-266-31-375-95s-192-156-250-276c-59-119-88-258-88-416 0-245 63-437 189-575 126-137 303-206 532-206 219 0 393 70 521 211 127 141 191 331 191 570zm-1102 0c0 350 129 525 388 525 255 0 383-175 383-525 0-346-129-519-386-519-135 0-233 45-294 135-60 89-91 217-91 384z" id="path217" fill="#fff" fill-rule="nonzero"/><path class="fil22" d="M8691 15893h-323v-934c0-115-22-202-66-259s-112-86-205-86c-124 0-216 41-273 122-58 80-87 215-87 403v754h-322v-1514h252l45 198h16c42-72 103-127 183-167 80-39 168-58 264-58 232 0 387 79 462 238h22c45-75 108-133 189-175s174-63 279-63c181 0 313 45 395 136 83 92 124 231 124 418v987h-321v-934c0-115-23-202-67-259s-113-86-206-86c-125 0-216 39-274 117-58 79-87 198-87 360z" id="path219" fill="#fff" fill-rule="nonzero"/><path class="fil22" id="polygon221" fill="#fff" fill-rule="nonzero" d="M10804 13892h645v241h-350v1961h350v243h-645z"/><path class="fil1" d="M12247 14379h351l308 858c46 123 77 238 93 345h11c8-50 23-111 45-182 22-72 138-412 348-1021h347l-647 1715c-118 315-314 473-589 473-71 0-140-8-208-24v-254c49 11 104 16 166 16 155 0 264-90 327-270l56-142z" id="path223" fill="#f6911d" fill-rule="nonzero"/><path class="fil1" d="M15323 15133c0 248-63 441-190 579-127 139-303 208-530 208-141 0-266-31-375-95-108-64-192-156-250-276-59-119-88-258-88-416 0-245 63-437 189-575 126-137 303-206 533-206 219 0 392 70 520 211s191 331 191 570zm-1102 0c0 350 130 525 388 525 255 0 383-175 383-525 0-346-129-519-386-519-135 0-233 45-294 135-60 89-91 217-91 384z" id="path225" fill="#f6911d" fill-rule="nonzero"/><path class="fil1" d="M16761 15893l-45-198h-17c-44 70-108 125-191 165-82 40-177 60-282 60-184 0-321-45-411-136-90-92-136-230-136-415v-990h325v934c0 116 24 202 71 260s122 87 223 87c135 0 234-40 298-121 63-81 95-216 95-406v-754h323v1514z" id="path227" fill="#f6911d" fill-rule="nonzero"/><path class="fil1" d="M18241 14352c64 0 118 4 160 13l-32 300c-45-11-93-16-142-16-129 0-233 42-313 126s-120 193-120 327v791h-321v-1514h252l42 267h16c51-90 116-162 197-215s168-79 261-79z" id="path229" fill="#f6911d" fill-rule="nonzero"/><path class="fil1" d="M20427 15462c0 148-54 261-162 340-107 79-262 118-462 118-202 0-364-30-486-91v-278c178 82 343 123 497 123 198 0 297-60 297-179 0-39-11-71-33-96-22-26-58-52-108-80-50-27-120-58-210-93-174-67-292-135-354-202-61-68-92-155-92-263 0-130 52-230 157-302 104-72 246-107 426-107 178 0 347 36 505 108l-104 242c-163-67-300-101-412-101-170 0-254 48-254 145 0 47 22 87 66 120s141 78 290 136c125 48 215 93 272 133s98 86 126 139c27 52 41 115 41 188z" id="path231" fill="#f6911d" fill-rule="nonzero"/><path class="fil1" d="M21385 15920c-229 0-403-66-522-200s-179-326-179-576c0-254 63-450 187-587 125-137 305-205 540-205 160 0 304 29 431 89l-97 258c-136-53-248-79-336-79-262 0-393 174-393 521 0 170 32 298 97 383 66 85 161 128 287 128 144 0 279-35 407-107v281c-58 34-119 58-184 73-66 14-145 21-238 21z" id="path233" fill="#f6911d" fill-rule="nonzero"/><path class="fil1" d="M23495 15893h-323v-931c0-117-24-204-71-261-47-58-121-87-224-87-135 0-234 41-297 122-64 80-95 216-95 405v752h-322v-2130h322v541c0 86-6 179-17 278h21c43-73 104-130 182-170s169-60 274-60c366 0 550 184 550 554z" id="path235" fill="#f6911d" fill-rule="nonzero"/><path class="fil1" d="M25285 15133c0 248-63 441-190 579-127 139-303 208-530 208-141 0-266-31-375-95-108-64-192-156-250-276-59-119-88-258-88-416 0-245 63-437 189-575 126-137 303-206 533-206 219 0 392 70 520 211s191 331 191 570zm-1102 0c0 350 130 525 388 525 255 0 383-175 383-525 0-346-129-519-386-519-135 0-233 45-294 135-60 89-91 217-91 384z" id="path237" fill="#f6911d" fill-rule="nonzero"/><path class="fil1" d="M26998 15133c0 248-63 441-190 579-127 139-304 208-530 208-142 0-267-31-375-95-109-64-192-156-251-276-58-119-87-258-87-416 0-245 63-437 189-575 126-137 303-206 532-206 219 0 393 70 520 211 128 141 192 331 192 570zm-1102 0c0 350 129 525 387 525 256 0 384-175 384-525 0-346-129-519-386-519-135 0-233 45-294 135-61 89-91 217-91 384z" id="path239" fill="#f6911d" fill-rule="nonzero"/><path class="fil1" id="polygon241" fill="#f6911d" fill-rule="nonzero" d="M27368 13763h321v2130h-321z"/><path class="fil22" id="polygon243" fill="#fff" fill-rule="nonzero" d="M29068 14133h-351v-241h643v2445h-643v-243h351z"/><path class="fil22" d="M30483 15722c0-68 18-119 54-154 35-35 86-53 152-53 65 0 114 19 149 55s52 87 52 152-18 116-53 154-84 57-148 57c-65 0-115-18-151-55-37-36-55-88-55-156zm326-437h-238l-71-1393h379z" id="path245" fill="#fff" fill-rule="nonzero"/></g></svg>