<svg xmlns="http://www.w3.org/2000/svg" width="570" height="325" viewBox="0 0 57000 32492" id="svg395" clip-rule="evenodd" fill-rule="evenodd" image-rendering="optimizeQuality" shape-rendering="geometricPrecision" text-rendering="geometricPrecision"><defs id="defs14"><style id="style2">.fil12{fill:#15333d}.fil18{fill:#7d4721}.fil9{fill:#f4c18a}.fil0{fill:#fff}.fil25,.fil26,.fil31{fill:#1d3a6e;fill-rule:nonzero}.fil26,.fil31{fill:#f6911d}.fil31{fill:#fff}</style><linearGradient id="id0" gradientUnits="userSpaceOnUse" y1="15508" x2="34790" y2="15508"><stop offset="0" id="stop4" stop-color="#f7921e"/><stop offset="1" id="stop6" stop-color="#ce7a1a"/></linearGradient><linearGradient id="id1" gradientUnits="userSpaceOnUse" x1="80110" y1="15527" x2="114900" y2="15527"><stop offset="0" id="stop9" stop-color="#1f3a6f"/><stop offset="1" id="stop11" stop-color="#0e254f"/></linearGradient></defs><circle class="fil0" cx="43830" cy="12624" r="10486" id="circle63" fill="#fff" stroke="#2b2a29" stroke-width="57" stroke-miterlimit="22.926"/><path d="M42757 18159l2897-1541c-398 82-978 202-1379 190-799-26-950-105-1604-446-7-4-13-7-20-11-58-28-59-27-59 37 0 552 28 1194 27 1746 32 0 75-2 95 5 12 5 24 10 43 20z" id="path65" fill="#caa075"/><path class="fil18" d="M39501 12485c-107 1471-274 2893-503 4263-219 1304-494 2560-831 3765l311 139c12-17 25-33 38-49 522-666 1161-1193 1907-1591 1345-716 1619-747 2196-878 0-566 0-1131 1-1697 1-48-13-74-55-99-277-159-532-349-768-564-265-241-500-508-709-798-205-284-383-583-535-898-182-379-327-772-434-1179-39-150-76-300-104-453-2-9-6-18-12-33-20 22-37 40-54 59-137 150-307 137-448 13z" id="path67" fill="#7d4721"/><path class="fil18" d="M49204 12485c108 1471 274 2893 504 4263 218 1304 494 2560 831 3765l-311 139c-13-17-25-33-38-49-522-666-1161-1193-1908-1591-1345-716-1619-747-2196-878 0-566 1-1131-1-1697 0-48 13-74 56-99 277-159 531-349 768-564 265-241 499-508 709-798 205-284 383-583 534-898 183-379 327-772 435-1179 39-150 76-300 104-453 1-9 6-18 11-33 20 22 38 40 55 59 136 150 307 137 447 13z" id="path69" fill="#7d4721"/><path d="M37518 22470c230-677 556-1303 998-1867 522-666 1161-1193 1907-1591 1345-716 1619-747 2196-878 241-55 393 409 796 832 99 104 559 298 937 484v4151c-100 14-207 21-324 19-2 18-2 38-16 53h-219c-379 0-6823 407-6275-1203z" id="path71" fill="#e9eaec"/><path class="fil0" d="M51187 22470c-230-677-556-1303-998-1867-522-666-1161-1193-1907-1591-1346-716-1619-747-2197-878-240-55-392 409-795 832-99 104-559 298-938 484v4151c100 14 208 21 325 19 2 18 1 38 16 53 73 0 146 10 218 0 3439-483 4064 311 6276-1203z" id="path73" fill="#fff"/><path id="polygon75" fill="#14b4c0" d="M44864 23023h-771v-3682l771 36z"/><path class="fil9" d="M45475 16702l-2828 1428c209 384 460 695 759 921 150 114 312 206 487 275 550 218 1110 97 1580-257 328-247 582-608 770-1073v-1693z" id="path77" fill="#f4c18a"/><path d="M42625 17549c57 0 102 48 102 107 0 60-45 108-102 108-56 0-102-48-102-108 0-59 46-107 102-107zm3684 0c-56 0-102 48-102 107 0 60 46 108 102 108 57 0 102-48 102-108 0-59-45-107-102-107zm-171 162c-65 0-118 55-118 123 0 69 53 124 118 124s117-55 117-124c0-68-52-123-117-123zm-203 184c-75 0-135 64-135 143s60 143 135 143 136-64 136-143-61-143-136-143zm-232 212c-83 0-149 70-149 157s66 157 149 157 150-70 150-157-67-157-150-157zm-270 195c-86 0-156 74-156 165 0 90 70 164 156 164s156-74 156-164c0-91-70-165-156-165zm-315 132c-91 0-164 78-164 174 0 97 73 175 164 175s164-78 164-175c0-96-73-174-164-174zm-328 133c-91 0-164 81-164 182 0 100 73 182 164 182s165-82 165-182c0-101-74-182-165-182zm-323 52c85 6 152 91 152 196s-67 191-152 197c-84-6-151-92-151-197s67-190 151-196zm-323-52c91 0 165 81 165 182 0 100-74 182-165 182-90 0-164-82-164-182 0-101 74-182 164-182zm-328-133c91 0 165 78 165 174 0 97-74 175-165 175-90 0-164-78-164-175 0-96 74-174 164-174zm-314-132c86 0 155 74 155 165 0 90-69 164-155 164-87 0-156-74-156-164 0-91 69-165 156-165zm-271-195c83 0 150 70 150 157s-67 157-150 157c-82 0-149-70-149-157s67-157 149-157zm-232-212c75 0 136 64 136 143s-61 143-136 143-135-64-135-143 60-143 135-143zm-202-184c65 0 118 55 118 123 0 69-53 124-118 124s-118-55-118-124c0-68 53-123 118-123z" id="path79" fill="#fffeff"/><path d="M40088 10827c-14-46-30-93-49-139-59-153-135-296-257-411-59-56-126-98-211-106-66-7-218 100-273 132-44-1165 106-2174 414-2962 331-846 1122-1707 1971-2052 276-112 560-198 883-252 541-92 1236-95 1787-90 80 1578 79 3121 0 4629-524 905-2104 1198-3050 1257-380 24-786 22-1215-6z" id="path81" fill="#693f21"/><path class="fil18" d="M48846 10876c15-47-76-161-58-207 60-153 14-277 135-392 60-56 127-98 212-106 65-7 217 100 273 132 43-1165-106-2174-414-2962-331-846-1122-1707-1971-2052-276-112-560-198-883-252-541-92-1236-95-1787-90v4629c524 905 2103 1198 3050 1257 380 24 1014 71 1443 43z" id="path83" fill="#7d4721"/><path d="M44353 9669c-1 15 0 31 0 47 184 2356 155 4699-1 7036 0 10 1 20 1 30v9c0 19-3 38-11 57-34 32-76 22-115 19-529-37-1030-175-1501-420-7-4-13-7-20-10l-141-99c-277-159-532-349-768-564-265-241-500-508-709-798-205-284-383-583-535-898-182-379-327-772-434-1179-39-150-76-300-104-453-2-9-6-18-12-33-20 22-37 40-54 59-137 150-307 137-448 13-99-88-168-199-224-317-94-197-147-407-179-621-24-162-33-325-23-488 11-203 42-403 125-592 26-59 56-115 98-164 55-32 207-139 273-132 85 8 152 50 211 106 122 115 198 258 257 411 19 46 35 93 49 139 429 28 835 30 1215 6 946-59 2526-352 3050-1257z" id="path85" fill="#e4b683"/><path class="fil9" d="M44353 16752v39c0 19 2 38 12 57 35 32 79 22 119 19 551-37 1074-175 1564-420 8-4 15-7 22-10l147-99c289-159 554-349 800-564 276-241 521-508 740-798 213-284 399-583 557-898 190-379 341-772 452-1179 42-150 80-300 109-453 2-9 7-18 12-33 21 22 39 40 57 59 142 150 320 137 466 13 104-88 176-199 235-317 98-197 153-407 186-621 25-162 34-325 24-488-12-203-44-403-130-592-27-59-59-115-103-164-57-32-216-139-284-132-89 8-158 50-221 106-126 115-205 258-268 411-18 46-35 93-51 139-447 28-869 30-1266 6-986-59-2633-352-3179-1257v7176z" id="path87" fill="#f4c18a"/><path d="M48849 12707c7-133-7-266-14-399-6-143-20-285-32-428-18-198-37-396-55-593-13-135-26-269-40-404-7-69-16-138-24-207-1-71-12-142-21-212-10-85-17-169-27-254-10-94-22-188-32-282-10-85-19-169-27-254-2-22-6-43-10-65-4-18 4-30 25-31h48c199 0 398 2 596-1 58-1 110 11 161 34 17 8 33 25 55 17 18 23 45 31 69 45 249 141 430 339 521 613 20 63 31 127 31 194-1 527-1 1055-1 1583 0 154-33 300-116 432-99 157-246 252-419 309-217 71-441 84-667 62-23-3-33-10-28-34 10-41 9-83 7-125z" id="path89" fill="#36576e"/><path class="fil12" d="M48127 14178c-108 45-217 91-326 135-581 237-1176 434-1792 566-232 50-466 90-703 101-40 2-68 13-91 50-35 58-94 93-154 123-101 50-209 78-320 95-66 10-132 16-198 24-106 1-212 3-318 0-175-4-346-32-512-92-194-71-305-212-351-407-33-138 4-260 105-359 115-113 257-184 410-232 125-39 252-57 383-39 11 2 23 1 35 1 48 21 100 17 150 24 178 22 353 57 517 131 109 49 208 111 268 219 11 19 25 21 44 18 119-14 238-24 356-42 318-46 634-106 947-184 467-117 922-267 1355-481 181-90 355-191 520-308 14-10 31-17 41-33 130-86 243-191 352-301 18-18 35-37 52-55 91-102 233-117 344-38 68 48 112 115 148 188 16 33 7 64-7 95-20 43-51 79-84 112-75 76-161 138-249 197-256 169-529 306-806 436-39 18-81 31-116 56z" id="path91" fill="#15333d"/><path class="fil12" d="M41124 8164c-63 45-106 108-154 165-165 194-315 399-451 614-157 249-300 506-409 780-12 29-26 44-60 43-101-2-203 0-304-1-43 0-43-1-34-44 38-191 99-376 163-559 103-293 230-575 375-850 147-277 316-541 508-790 93-120 193-232 293-345 97-109 203-208 311-304 209-184 434-346 676-486 271-158 557-278 856-371 168-52 340-91 514-120 135-23 270-40 406-50 187-15 373-24 559-22 133 8 266 12 398 25 158 16 314 38 471 66 222 40 441 95 656 165 162 53 321 117 476 188 215 97 419 212 615 341 139 92 273 191 401 299 132 112 262 225 382 351 184 192 354 396 509 614 193 271 359 557 501 858 72 153 137 309 191 469 16 49 9 58-43 63-132 13-264 25-396 38-26 2-50 10-77 11-30 1-46-9-57-38-27-64-54-128-86-190-138-274-304-530-497-769-134-166-279-322-436-466-187-173-389-327-606-462-133-83-270-160-412-227-308-144-628-254-962-323-128-26-257-50-386-66-104-14-209-24-314-30-109-6-218-12-327-9-23 19-49 15-75 15-241-4-480 20-717 61-542 94-1047 284-1512 578-335 211-637 462-908 750-11 12-25 20-38 29z" id="path93" fill="#15333d"/><g id="g101"><path d="M40831 23290l-1234-1189-477-4558c-18-280 32-505 170-655 118-130 302-206 565-215h8999c262 9 446 85 565 215 138 150 188 375 170 655l-477 4558-1234 1189h-3736z" id="path95" fill="#d0dfe4"/><path d="M39766 22264l-169-163-477-4558c-18-280 32-505 170-655 118-130 302-206 565-215h8999c262 9 446 85 565 215z" id="path97" fill="#dbe6ea"/><path d="M44419 19073c384 0 696 312 696 696 0 385-312 696-696 696-385 0-696-311-696-696 0-384 311-696 696-696zm0 282c229 0 414 185 414 414s-185 415-414 415-415-186-415-415 186-414 415-414z" id="path99" fill="#c3ced0"/></g><path d="M43830 22872c-5660 0-10248-4588-10248-10248S38170 2376 43830 2376s10248 4588 10248 10248-4588 10248-10248 10248zm0 2377c-6972 0-12624-5653-12624-12625S36858 0 43830 0s12624 5652 12624 12624-5652 12625-12624 12625z" id="path103" fill="#f4f4f6"/><g id="g151"><path class="fil25" d="M37126 27934c-12-11-32-27-62-46-29-19-65-38-108-56-42-19-88-34-138-47-49-13-100-19-151-19-91 0-159 16-204 50s-67 81-67 142c0 35 8 64 25 88 17 23 41 43 73 61 32 17 72 33 121 48 49 14 106 30 170 45 83 23 158 47 227 73 68 25 125 57 172 96 48 38 84 84 110 138 25 53 38 120 38 198 0 91-17 169-52 234-34 65-80 118-138 158-57 40-125 69-201 87-77 19-157 28-240 28-129 0-255-19-380-58-125-38-237-93-336-163l147-286c14 14 40 33 78 56 37 24 82 47 133 70s108 43 170 59c63 16 127 24 192 24 183 0 274-58 274-175 0-39-10-71-31-96-21-26-51-49-89-68s-85-37-139-53c-55-16-115-32-183-50-81-22-152-47-212-73-60-27-110-58-150-93s-70-77-90-125-30-105-30-170c0-87 16-164 48-231s76-123 133-168 123-79 198-102 156-35 243-35c120 0 230 19 331 56 101 38 189 82 264 134z" id="path105" fill="#1d3a6e" fill-rule="nonzero"/><path class="fil25" d="M38273 29128c-43 19-96 38-159 58-64 19-130 28-199 28-44 0-86-5-126-16-39-12-73-30-103-54-29-25-53-57-71-97-17-39-26-86-26-143v-723h-163v-247h163v-409h322v409h266v247h-266v615c0 45 12 77 36 95 24 19 53 28 86 28 34 0 67-6 99-17s57-21 76-29z" id="path107" fill="#1d3a6e" fill-rule="nonzero"/><path class="fil25" d="M38818 29217c-129 0-228-42-295-125s-101-207-101-370v-788h322v718c0 194 69 291 209 291 64 0 125-19 183-57 59-37 106-94 143-171v-781h322v889c0 33 6 57 19 72 13 14 35 22 67 24v274c-33 6-63 11-88 13-26 2-48 4-68 4-57 0-102-14-135-40s-54-63-62-109l-7-104c-57 87-130 152-217 195s-185 65-292 65z" id="path109" fill="#1d3a6e" fill-rule="nonzero"/><path class="fil25" d="M40449 29217c-87 0-167-17-239-51-73-33-136-80-189-139s-94-129-123-208c-30-79-45-164-45-256 0-91 14-176 42-254 28-79 67-148 117-207 49-59 108-106 177-139 69-34 144-51 226-51 91 0 174 23 248 67 75 45 133 104 175 176v-716h321v1384c0 33 7 57 19 72 13 14 36 22 68 24v274c-61 11-112 17-154 17-59-2-105-16-138-41-33-26-53-62-61-108l-7-87c-47 80-109 141-188 182-78 40-161 61-249 61zm84-274c30 0 61-5 93-16 32-10 62-25 89-44s52-42 75-67c22-26 39-54 50-85v-300c-27-70-72-129-133-175-62-47-126-70-194-70-48 0-92 11-133 31-41 21-76 50-104 86-29 36-52 77-68 123-16 47-24 95-24 144 0 53 9 102 27 147 17 45 42 84 73 118 31 33 68 60 111 79 42 19 88 29 138 29z" id="path111" fill="#1d3a6e" fill-rule="nonzero"/><path class="fil25" d="M42072 29217c-101 0-192-17-274-52-82-34-151-81-209-140-58-60-102-129-133-207-31-79-47-161-47-248 0-89 15-174 46-253 30-79 74-149 132-209 57-60 127-108 210-143 82-35 175-53 277-53s194 18 275 53 150 83 206 142c57 59 100 128 130 206 30 79 45 161 45 245 0 21-1 41-2 61-1 19-3 35-6 48h-972c5 49 17 93 36 132 19 38 44 71 74 98 31 27 65 48 104 63 38 14 78 21 120 21 64 0 124-15 181-47 57-31 96-72 116-123l276 77c-46 96-120 175-222 236-101 62-223 93-363 93zm326-759c-8-95-43-171-104-227-62-57-137-86-225-86-43 0-83 8-121 23s-71 36-100 64c-29 27-52 60-71 98-18 39-29 81-32 128z" id="path113" fill="#1d3a6e" fill-rule="nonzero"/><path class="fil25" d="M44096 29193h-322v-707c0-101-18-174-53-221-35-46-84-69-146-69-32 0-65 6-99 19-33 13-65 31-95 54-29 23-56 51-80 83s-42 67-53 106v735h-322v-1259h291v233c46-80 114-143 202-188 88-44 187-67 297-67 79 0 143 15 192 43 50 29 88 67 116 113 27 47 46 100 56 159s16 119 16 180z" id="path115" fill="#1d3a6e" fill-rule="nonzero"/><path class="fil25" d="M45123 29128c-43 19-96 38-159 58-64 19-130 28-198 28-45 0-87-5-127-16-39-12-73-30-103-54-29-25-53-57-71-97-17-39-26-86-26-143v-723h-163v-247h163v-409h322v409h266v247h-266v615c0 45 12 77 36 95 24 19 53 28 86 28 34 0 67-6 99-17s57-21 76-29z" id="path117" fill="#1d3a6e" fill-rule="nonzero"/><path class="fil25" id="polygon119" fill="#1d3a6e" fill-rule="nonzero" d="M46900 28217v269h-677v707h-331v-1706h1145v291h-814v439z"/><path class="fil25" d="M47978 28213c-98 1-185 20-262 56-76 36-132 90-165 162v762h-322v-1259h295v269c44-87 100-156 170-209 69-53 142-79 219-79 18 0 31 0 40 1s17 2 25 3z" id="path121" fill="#1d3a6e" fill-rule="nonzero"/><path class="fil25" d="M48708 29217c-102 0-194-18-276-53s-151-83-208-143-100-129-131-208c-30-78-45-161-45-247 0-88 15-172 45-250 31-79 74-148 131-208s126-108 208-143 174-53 276-53 194 18 275 53 150 83 206 143c57 60 101 129 131 208 31 78 46 162 46 250 0 86-15 169-46 247-30 79-73 148-129 208s-125 108-207 143c-81 35-174 53-276 53zm-329-651c0 56 8 107 25 152 17 46 40 86 70 119 30 34 64 60 104 78 40 19 84 28 130 28s90-9 130-28c40-18 75-44 104-78 30-33 53-73 70-120 17-46 25-98 25-154 0-54-8-105-25-151-17-47-40-87-70-120-29-34-64-60-104-78-40-19-84-28-130-28s-90 10-130 29-74 46-104 79c-30 34-53 74-70 120-17 47-25 97-25 152z" id="path123" fill="#1d3a6e" fill-rule="nonzero"/><path class="fil25" d="M51532 29193h-322v-707c0-101-18-174-53-221-35-46-83-69-144-69-62 0-122 24-178 73s-96 113-120 191v733h-321v-707c0-101-18-174-52-221-35-46-82-69-143-69-62 0-122 24-179 72s-97 111-121 190v735h-322v-1259h291v233c46-82 110-145 191-189 80-44 173-66 277-66 106 0 187 26 244 77 56 51 94 115 111 190 52-87 116-153 195-198 78-46 168-69 269-69 77 0 140 15 189 43 50 29 88 67 116 113 27 47 46 100 56 159s16 119 16 180z" id="path125" fill="#1d3a6e" fill-rule="nonzero"/><path class="fil25" id="polygon127" fill="#1d3a6e" fill-rule="nonzero" d="M34669 32235v257h-451v-1874h451v257h-153v1360z"/><path class="fil26" id="polygon129" fill="#f6911d" fill-rule="nonzero" d="M35863 32396v-600l-618-1106h361l420 822 427-822h358l-619 1110v596z"/><path class="fil26" d="M37594 32408c-120 0-230-24-329-73s-185-114-256-195-126-173-164-277c-39-104-58-211-58-320 0-113 20-222 61-326 41-105 98-197 171-277s159-144 258-191 207-71 324-71c120 0 230 26 329 76s184 117 254 198c71 82 125 175 164 279 38 104 57 210 57 317 0 114-20 222-61 326-41 103-97 194-169 274-72 79-158 142-257 189-99 48-207 71-324 71zm-473-865c0 74 11 145 32 214 22 69 53 130 94 183s91 95 150 127 126 48 202 48 144-16 202-49c59-33 108-77 148-131 40-55 71-116 91-184 21-68 32-137 32-208 0-73-12-145-34-214-23-68-54-129-95-182s-90-95-149-126c-58-32-124-47-198-47-77 0-144 16-203 49-58 33-108 76-149 130-40 54-71 114-92 182-21 69-31 138-31 208z" id="path131" fill="#f6911d" fill-rule="nonzero"/><path class="fil26" d="M39380 32115c79 0 144-16 198-48s97-74 130-125 56-110 69-177c14-66 21-134 21-205v-870h329v870c0 117-14 227-42 329-28 103-72 192-132 269s-138 138-232 183-207 67-338 67c-137 0-252-23-347-71-96-47-173-109-232-187s-102-168-129-270c-26-103-39-209-39-320v-870h331v870c0 72 7 141 21 208 13 66 36 125 69 176 33 52 76 93 129 124 52 31 117 47 194 47z" id="path133" fill="#f6911d" fill-rule="nonzero"/><path class="fil26" d="M40458 32396v-1706h754c78 0 151 17 217 50 67 32 124 76 172 129 48 54 86 115 113 183s41 137 41 205c0 111-28 211-83 302-55 90-130 156-225 196l401 641h-374l-358-572h-327v572zm331-862h416c30 0 59-8 85-22s49-34 69-59c19-25 34-54 45-88 11-33 17-69 17-108 0-40-6-77-19-110-13-34-30-63-52-88-21-25-46-44-74-58-28-13-57-20-86-20h-401z" id="path135" fill="#f6911d" fill-rule="nonzero"/><path class="fil26" d="M43668 31137c-11-11-31-26-61-45-30-20-66-38-108-57-42-18-88-34-138-47s-100-19-151-19c-92 0-160 17-204 51-45 33-68 80-68 141 0 35 9 65 26 88 16 23 41 44 73 61 32 18 72 34 121 48 49 15 105 30 169 46 84 22 159 46 227 72s126 58 173 96c47 39 84 85 109 138 26 54 39 120 39 198 0 92-17 170-52 235-34 65-80 117-138 157s-125 69-202 88c-76 18-156 27-240 27-128 0-254-19-379-57-125-39-237-93-336-164l146-286c15 15 41 34 78 57 38 23 82 46 134 70 51 23 108 42 170 58 62 17 126 25 192 25 183 0 274-59 274-176 0-38-11-70-31-96-21-26-51-48-89-67-39-20-85-37-139-53-55-16-116-33-183-51-82-22-152-46-212-73-60-26-110-57-150-92-41-36-71-77-91-125s-30-105-30-171c0-86 16-163 48-231 32-67 77-123 134-168s123-79 198-102 156-35 242-35c120 0 231 19 332 57 101 37 189 82 264 133z" id="path137" fill="#f6911d" fill-rule="nonzero"/><path class="fil26" d="M44026 31531c0-104 18-207 55-308 37-102 90-193 160-273s155-145 256-195c101-49 216-74 345-74 152 0 284 34 395 103 112 69 194 159 246 269l-254 176c-19-49-44-89-74-122-31-33-64-59-100-78s-73-33-112-42c-38-9-75-13-110-13-79 0-147 17-207 50-59 34-108 78-147 131-40 54-69 115-89 183s-30 136-30 203c0 75 11 148 35 217 23 70 56 131 98 184s93 95 153 127c59 32 124 49 194 49 37 0 74-5 113-15 38-10 76-25 111-46 37-20 70-47 100-80 31-33 55-73 75-119l271 156c-26 64-63 121-112 170-49 48-104 90-167 123-62 34-128 60-196 77-69 18-137 27-205 27-118 0-226-26-325-77-98-52-183-118-254-201-72-82-127-176-166-281s-59-212-59-321z" id="path139" fill="#f6911d" fill-rule="nonzero"/><path class="fil26" id="polygon141" fill="#f6911d" fill-rule="nonzero" d="M45736 32396v-1706h331v690h773v-690h329v1706h-329v-728h-773v728z"/><path class="fil26" d="M48233 32408c-120 0-230-24-329-73-100-49-185-114-256-195s-126-173-164-277c-39-104-58-211-58-320 0-113 20-222 61-326 41-105 98-197 171-277 72-80 158-144 258-191 99-47 207-71 324-71 120 0 230 26 329 76s184 117 254 198c71 82 125 175 164 279 38 104 57 210 57 317 0 114-20 222-61 326-41 103-97 194-169 274-72 79-158 142-257 189-99 48-207 71-324 71zm-473-865c0 74 10 145 32 214s53 130 94 183 91 95 150 127 126 48 201 48c77 0 145-16 203-49 59-33 108-77 148-131 40-55 70-116 91-184s31-137 31-208c0-73-11-145-33-214-23-68-54-129-95-182s-90-95-149-126c-58-32-124-47-198-47-77 0-144 16-203 49-58 33-108 76-149 130-40 54-71 114-92 182-21 69-31 138-31 208z" id="path143" fill="#f6911d" fill-rule="nonzero"/><path class="fil26" d="M50009 32408c-120 0-229-24-329-73-99-49-184-114-255-195s-126-173-165-277c-38-104-57-211-57-320 0-113 20-222 61-326 41-105 98-197 170-277 73-80 159-144 258-191 100-47 208-71 325-71 120 0 229 26 329 76 99 50 184 117 254 198 71 82 125 175 163 279 39 104 58 210 58 317 0 114-20 222-61 326-41 103-98 194-170 274-72 79-157 142-256 189-100 48-208 71-325 71zm-473-865c0 74 11 145 33 214 21 69 53 130 93 183 41 53 91 95 151 127 59 32 126 48 201 48 77 0 145-16 203-49 59-33 108-77 148-131 40-55 70-116 91-184s31-137 31-208c0-73-11-145-33-214-23-68-54-129-95-182s-91-95-149-126c-59-32-125-47-198-47-77 0-145 16-203 49-59 33-108 76-149 130s-72 114-92 182c-21 69-32 138-32 208z" id="path145" fill="#f6911d" fill-rule="nonzero"/><path class="fil26" id="polygon147" fill="#f6911d" fill-rule="nonzero" d="M51078 32396v-1706h331v1415h869v291z"/><path class="fil25" id="polygon149" fill="#1d3a6e" fill-rule="nonzero" d="M53373 30618v1874h-449v-257h151v-1360h-151v-257z"/></g><path d="M34429 5687c-350-331-728-322-1168-335-10687-321-21374-641-32061-961-339 13-600 95-793 238-215 158-346 392-407 687v16732c24 335 126 584 294 763 196 209 480 322 831 363 1368-125 2735-250 4102-375 9 1275 17 2551 25 3826 1351-1409 2701-2818 4052-4226 8120-742 16240-1484 24361-2226 314-26 571-128 763-316 179-176 302-426 362-760V6782c0-410-40-791-361-1095z" id="path273" fill="url(#id0)"/><g id="g391"><path class="fil31" id="polygon275" fill="#fff" fill-rule="nonzero" d="M3057 8167v1714h-280V8167z"/><path class="fil31" d="M5243 9881h-276v-797c0-100-20-175-60-224-41-50-104-74-192-74-115 0-200 34-255 104-54 69-81 185-81 347v644h-276V8057h276v463c0 74-5 153-14 238h17c38-63 90-111 157-146 67-34 144-51 234-51 313 0 470 158 470 475z" id="path277" fill="#fff" fill-rule="nonzero"/><path class="fil31" d="M6437 9881l-55-181h-9c-63 79-125 133-189 161-63 29-144 43-243 43-128 0-227-34-299-103-71-69-107-166-107-292 0-133 50-234 149-302s250-105 453-112l224-7v-69c0-83-19-145-58-186-38-41-98-61-180-61-66 0-130 10-191 29-60 20-119 43-175 69l-89-197c70-36 147-64 230-84 84-19 163-28 237-28 165 0 289 36 373 108 84 71 126 184 126 338v874zm-410-188c100 0 181-28 241-84 61-55 91-134 91-235v-112l-166 7c-130 5-224 26-283 65s-89 98-89 178c0 57 17 102 52 134 34 31 86 47 154 47z" id="path279" fill="#fff" fill-rule="nonzero"/><path class="fil31" d="M7314 9881l-492-1297h290l264 754c45 127 73 229 82 307h9c7-56 35-158 82-307l264-754h293l-495 1297z" id="path281" fill="#fff" fill-rule="nonzero"/><path class="fil31" d="M8869 9904c-202 0-360-59-473-176-114-118-171-280-171-486 0-212 53-378 158-500 106-121 251-181 435-181 171 0 306 52 406 156 99 104 148 247 148 429v149h-863c4 125 38 222 102 290 64 67 154 101 270 101 77 0 148-7 214-21 66-15 137-39 213-73v224c-67 32-135 55-204 68-69 14-147 20-235 20zm-51-1135c-87 0-157 28-210 84-53 55-84 136-94 242h588c-2-107-28-188-78-243s-118-83-206-83z" id="path283" fill="#fff" fill-rule="nonzero"/><path class="fil31" d="M11119 9881l-55-181h-9c-63 79-126 133-189 161-63 29-144 43-244 43-127 0-226-34-298-103-71-69-107-166-107-292 0-133 50-234 149-302s250-105 453-112l224-7v-69c0-83-19-145-58-186s-99-61-180-61c-66 0-130 10-191 29-61 20-119 43-175 69l-90-197c71-36 148-64 231-84 84-19 163-28 237-28 165 0 289 36 373 108 84 71 126 184 126 338v874zm-410-188c100 0 180-28 241-84 60-55 91-134 91-235v-112l-167 7c-129 5-224 26-283 65s-88 98-88 178c0 57 17 102 52 134 34 31 85 47 154 47z" id="path285" fill="#fff" fill-rule="nonzero"/><path class="fil31" d="M12758 9904c-160 0-285-59-376-176-90-118-136-282-136-493s46-376 139-496c92-119 219-178 380-178 82 0 155 15 219 45s122 79 173 148h9l31-170h228v1874h-276v-550c0-35 1-71 4-109 3-39 6-68 8-88h-15c-81 129-210 193-388 193zm79-220c115 0 198-34 249-100 50-67 75-168 75-303v-44c0-160-26-275-77-346-52-70-136-105-252-105-98 0-173 39-225 117-51 78-77 190-77 337 0 296 102 444 307 444z" id="path287" fill="#fff" fill-rule="nonzero"/><path class="fil31" d="M14733 9881l-39-170h-14c-38 60-93 107-164 142-70 34-151 51-242 51-157 0-274-39-351-117s-116-197-116-355v-848h278v800c0 99 20 173 61 223 40 50 104 75 191 75 115 0 200-35 254-104 55-69 82-185 82-348v-646h276v1297z" id="path289" fill="#fff" fill-rule="nonzero"/><path class="fil31" d="M15908 9904c-202 0-359-59-473-176-114-118-171-280-171-486 0-212 53-378 159-500 105-121 250-181 434-181 171 0 306 52 406 156 99 104 148 247 148 429v149h-863c4 125 38 222 102 290 64 67 154 101 271 101 76 0 147-7 213-21 66-15 137-39 213-73v224c-67 32-135 55-204 68-68 14-147 20-235 20zm-51-1135c-87 0-157 28-210 84-53 55-84 136-94 242h588c-2-107-27-188-77-243s-119-83-207-83z" id="path291" fill="#fff" fill-rule="nonzero"/><path class="fil31" d="M17595 9512c0 126-46 223-138 291-93 67-225 101-396 101-173 0-312-26-416-78v-238c152 70 294 105 425 105 169 0 254-51 254-153 0-33-9-61-28-82-19-22-50-45-92-68-43-24-103-50-180-80-149-58-250-116-303-174-52-57-79-133-79-225 0-111 45-197 135-258 89-62 211-92 364-92s297 31 433 92l-89 208c-140-58-258-87-353-87-145 0-218 42-218 124 0 41 19 75 57 104 38 28 120 66 248 116 107 41 185 79 233 113 48 35 84 74 108 119 23 45 35 99 35 162z" id="path293" fill="#fff" fill-rule="nonzero"/><path class="fil31" d="M18375 9682c67 0 135-11 202-32v207c-31 14-70 25-118 34s-98 13-149 13c-261 0-392-137-392-412v-699h-177v-122l190-101 94-274h170v288h369v209h-369v694c0 66 16 115 50 147 33 32 76 48 130 48z" id="path295" fill="#fff" fill-rule="nonzero"/><path class="fil31" d="M18819 8241c0-50 14-87 41-114s65-40 115-40c49 0 86 13 113 40s41 64 41 114c0 47-14 83-41 110s-64 41-113 41c-50 0-88-14-115-41s-41-63-41-110zm292 1640h-275V8584h275z" id="path297" fill="#fff" fill-rule="nonzero"/><path class="fil31" d="M20654 9230c0 212-54 377-163 496-108 119-260 178-453 178-121 0-228-27-321-82s-165-133-215-235c-50-103-75-222-75-357 0-210 54-374 162-492s260-177 456-177c187 0 336 60 445 181s164 283 164 488zm-943 0c0 300 110 449 331 449 219 0 329-149 329-449 0-296-111-444-331-444-115 0-199 38-251 115-52 76-78 186-78 329z" id="path299" fill="#fff" fill-rule="nonzero"/><path class="fil31" d="M22110 9881h-276v-797c0-100-20-175-60-224-41-50-105-74-192-74-116 0-202 34-255 103-54 69-81 184-81 346v646h-276V8584h216l39 170h14c39-62 94-109 166-143 72-33 152-50 239-50 311 0 466 158 466 475z" id="path301" fill="#fff" fill-rule="nonzero"/><path class="fil31" d="M23928 9881l-55-181h-10c-62 79-125 133-188 161-64 29-145 43-244 43-127 0-227-34-298-103-72-69-108-166-108-292 0-133 50-234 149-302s251-105 454-112l223-7v-69c0-83-19-145-58-186-38-41-98-61-179-61-67 0-130 10-191 29-61 20-120 43-176 69l-89-197c70-36 147-64 231-84 83-19 162-28 236-28 165 0 290 36 374 108 83 71 125 184 125 338v874zm-410-188c100 0 180-28 240-84 61-55 91-134 91-235v-112l-166 7c-130 5-224 26-283 65s-89 98-89 178c0 57 17 102 52 134 34 31 86 47 155 47z" id="path303" fill="#fff" fill-rule="nonzero"/><path class="fil31" d="M25171 8561c161 0 287 58 378 176 90 117 135 281 135 493 0 213-46 378-137 497-92 118-219 177-381 177-164 0-291-59-382-177h-19l-50 154h-206V8057h275v433c0 32-1 80-5 143-3 64-5 104-7 121h12c88-129 216-193 387-193zm-72 225c-111 0-191 32-239 98-49 65-74 174-76 327v19c0 158 25 272 75 343s132 106 245 106c98 0 172-39 222-116s76-189 76-335c0-295-101-442-303-442z" id="path305" fill="#fff" fill-rule="nonzero"/><path class="fil31" d="M27153 9230c0 212-54 377-163 496-108 119-259 178-453 178-121 0-228-27-321-82s-165-133-215-235c-50-103-75-222-75-357 0-210 54-374 162-492s260-177 456-177c187 0 336 60 445 181s164 283 164 488zm-943 0c0 300 110 449 331 449 219 0 329-149 329-449 0-296-111-444-331-444-115 0-199 38-251 115-52 76-78 186-78 329z" id="path307" fill="#fff" fill-rule="nonzero"/><path class="fil31" d="M28383 9881l-38-170h-14c-39 60-93 107-164 142-71 34-151 51-242 51-157 0-274-39-351-117-78-78-116-197-116-355v-848h277v800c0 99 21 173 61 223 41 50 105 75 191 75 116 0 201-35 255-104s82-185 82-348v-646h276v1297z" id="path309" fill="#fff" fill-rule="nonzero"/><path class="fil31" d="M29475 9682c67 0 135-11 202-32v207c-31 14-70 25-118 34s-98 13-149 13c-261 0-392-137-392-412v-699h-177v-122l190-101 94-274h170v288h369v209h-369v694c0 66 16 115 50 147 33 32 76 48 130 48z" id="path311" fill="#fff" fill-rule="nonzero"/><path class="fil31" d="M3231 13283c67 0 134-10 201-32v208c-30 13-70 24-118 33s-97 14-149 14c-261 0-391-138-391-413v-699h-177v-122l190-100 93-275h170v289h369v208h-369v694c0 67 17 116 50 148 33 31 77 47 131 47z" id="path313" fill="#fff" fill-rule="nonzero"/><path class="fil31" d="M4831 13482h-276v-797c0-100-21-175-61-224s-104-74-191-74c-116 0-201 35-255 104s-82 185-82 348v643h-275v-1824h275v463c0 75-4 154-14 238h18c37-62 90-111 156-145 67-35 145-52 234-52 314 0 471 159 471 475z" id="path315" fill="#fff" fill-rule="nonzero"/><path class="fil31" d="M5780 13506c-201 0-359-59-473-177-113-117-170-279-170-486 0-211 53-378 158-499 106-121 250-182 435-182 171 0 306 52 405 156s149 247 149 429v149h-864c4 126 38 223 102 290 64 68 155 102 271 102 77 0 148-7 214-22 66-14 137-38 212-72v224c-67 32-135 55-203 68-69 13-148 20-236 20zm-50-1135c-88 0-158 28-211 83-52 56-84 137-94 243h588c-1-107-27-188-77-243s-119-83-206-83z" id="path317" fill="#fff" fill-rule="nonzero"/><path class="fil31" id="polygon319" fill="#fff" fill-rule="nonzero" d="M8345 12009h-504v1473h-280v-1473h-504v-241h1288z"/><path class="fil31" d="M10128 12623c0 279-70 496-209 651-139 154-337 232-592 232-259 0-457-77-596-231-139-153-208-371-208-654s70-501 209-652c140-152 338-228 597-228 255 0 451 77 591 231 139 154 208 371 208 651zm-1307 0c0 211 42 371 127 480s212 164 379 164c166 0 292-54 376-162 85-108 127-269 127-482 0-210-42-370-125-478-84-109-210-163-376-163-168 0-295 54-380 163-86 108-128 268-128 478z" id="path321" fill="#fff" fill-rule="nonzero"/><path class="fil31" id="polygon323" fill="#fff" fill-rule="nonzero" d="M10776 12472h646v234h-646v538h689v238h-969v-1714h969v237h-689z"/><path class="fil31" id="polygon325" fill="#fff" fill-rule="nonzero" d="M12113 12541h645v238h-645v703h-278v-1714h967v237h-689z"/><path class="fil31" id="polygon327" fill="#fff" fill-rule="nonzero" d="M13112 13482v-1714h280v1474h725v240z"/><path class="fil31" d="M16147 13482h-277v-797c0-100-20-175-60-224s-104-74-192-74c-115 0-200 35-255 104-54 69-81 185-81 348v643h-275v-1824h275v463c0 75-5 154-14 238h18c37-62 89-111 156-145 67-35 145-52 234-52 314 0 471 159 471 475z" id="path329" fill="#fff" fill-rule="nonzero"/><path class="fil31" d="M17679 12832c0 212-54 377-163 496-108 118-259 178-453 178-121 0-228-28-321-82-93-55-164-134-215-236-49-102-75-221-75-356 0-211 54-375 162-493s260-177 456-177c187 0 336 61 445 181 110 121 164 284 164 489zm-943 0c0 299 111 449 332 449 218 0 328-150 328-449 0-297-110-445-331-445-115 0-199 39-251 115-52 77-78 187-78 330z" id="path331" fill="#fff" fill-rule="nonzero"/><path class="fil31" d="M19088 13482h-277v-799c0-99-19-174-56-222-38-49-96-74-176-74-106 0-184 35-234 104-49 69-74 184-74 345v646h-275v-1296h215l39 170h14c36-62 88-110 156-143 69-34 144-51 226-51 199 0 331 68 396 204h19c38-64 92-114 161-150 70-36 149-54 239-54 155 0 268 39 338 118 71 78 106 197 106 357v845h-275v-799c0-99-19-174-57-222-38-49-96-74-176-74-107 0-186 34-235 101-50 66-74 169-74 307z" id="path333" fill="#fff" fill-rule="nonzero"/><path class="fil31" d="M20856 13506c-202 0-360-59-473-177-114-117-171-279-171-486 0-211 53-378 158-499 106-121 251-182 435-182 171 0 306 52 406 156 99 104 148 247 148 429v149h-863c4 126 38 223 102 290 64 68 154 102 270 102 77 0 148-7 214-22 66-14 137-38 213-72v224c-67 32-135 55-204 68s-147 20-235 20zm-51-1135c-87 0-157 28-210 83-53 56-84 137-94 243h588c-2-107-28-188-78-243s-118-83-206-83z" id="path335" fill="#fff" fill-rule="nonzero"/><path class="fil31" d="M22735 13482l-168-605c-20-64-57-213-110-446h-10c-46 211-82 360-108 449l-172 602h-305l-363-1296h281l165 639c38 158 64 293 80 405h7c8-57 20-122 36-196s29-129 41-166l197-682h302l191 682c12 38 27 97 44 176 18 79 28 140 31 184h10c11-96 39-231 82-403l167-639h277l-366 1296z" id="path337" fill="#fff" fill-rule="nonzero"/><path class="fil31" d="M24782 12832c0 212-55 377-163 496-109 118-260 178-454 178-121 0-228-28-321-82-93-55-164-134-214-236s-75-221-75-356c0-211 54-375 162-493 107-118 259-177 455-177 188 0 336 61 446 181 109 121 164 284 164 489zm-943 0c0 299 110 449 331 449 219 0 328-150 328-449 0-297-110-445-330-445-116 0-200 39-252 115-52 77-77 187-77 330z" id="path339" fill="#fff" fill-rule="nonzero"/><path class="fil31" d="M25755 12162c56 0 101 4 137 12l-27 257c-39-10-79-14-121-14-111 0-200 36-268 108-69 71-103 165-103 280v677h-275v-1296h216l36 228h14c43-77 99-138 168-184 69-45 144-68 223-68z" id="path341" fill="#fff" fill-rule="nonzero"/><path class="fil31" id="polygon343" fill="#fff" fill-rule="nonzero" d="M26973 13482l-416-568-151 124v444h-273v-1824h273v890l-15 250h8l155-195 392-417h317l-521 557 554 739z"/><path class="fil31" d="M27931 12186h300l264 735c39 105 66 203 79 295h10c7-43 20-95 38-156 19-62 118-353 298-874h297l-554 1469c-100 269-268 404-504 404-60 0-120-6-178-20v-218c42 10 89 14 142 14 133 0 226-77 280-231l48-122z" id="path345" fill="#fff" fill-rule="nonzero"/><path class="fil31" d="M30564 12832c0 212-55 377-163 496-109 118-260 178-454 178-121 0-228-28-321-82-93-55-164-134-214-236s-75-221-75-356c0-211 54-375 162-493 107-118 259-177 455-177 188 0 336 61 446 181 109 121 164 284 164 489zm-943 0c0 299 110 449 331 449 219 0 328-150 328-449 0-297-110-445-330-445-116 0-200 39-252 115-52 77-77 187-77 330z" id="path347" fill="#fff" fill-rule="nonzero"/><path class="fil31" d="M31794 13482l-39-170h-14c-38 61-93 108-163 142-71 35-152 52-242 52-157 0-274-39-352-117-77-79-116-197-116-356v-847h278v799c0 100 20 174 61 224 40 49 104 74 191 74 115 0 200-35 255-104 54-69 81-185 81-347v-646h277v1296z" id="path349" fill="#fff" fill-rule="nonzero"/><path class="fil31" d="M3559 17084l-55-181h-10c-62 79-125 133-188 162-64 28-145 42-244 42-127 0-227-34-298-103-72-69-107-166-107-292 0-133 49-234 148-302 100-68 251-105 454-112l224-7v-69c0-83-20-145-58-186-39-41-99-61-180-61-67 0-130 10-191 29-61 20-120 43-176 69l-89-197c70-36 147-64 231-83 83-20 162-29 236-29 165 0 290 36 374 108s126 185 126 339v873zm-410-188c100 0 180-28 240-83 61-56 91-135 91-236v-112l-166 7c-130 5-224 26-283 65s-89 98-89 178c0 57 18 102 52 134s86 47 155 47z" id="path351" fill="#fff" fill-rule="nonzero"/><path class="fil31" d="M5010 16715c0 126-46 223-138 291s-224 101-396 101c-173 0-311-26-416-78v-238c152 70 294 105 425 105 170 0 255-51 255-153 0-33-10-60-28-82-19-22-50-45-93-68-43-24-103-50-179-80-149-58-250-116-303-174-53-57-79-132-79-225 0-111 45-197 134-258s211-92 365-92c152 0 296 31 432 92l-89 208c-140-58-257-87-352-87-146 0-218 42-218 124 0 41 19 76 56 104 38 28 121 66 248 116 107 41 185 79 233 113 49 35 85 75 108 119 24 45 35 99 35 162z" id="path353" fill="#fff" fill-rule="nonzero"/><path class="fil31" d="M6179 16715c0 126-47 223-139 291s-224 101-396 101-311-26-416-78v-238c153 70 294 105 426 105 169 0 254-51 254-153 0-33-9-60-28-82s-50-45-93-68c-43-24-103-50-179-80-149-58-250-116-303-174-53-57-79-132-79-225 0-111 45-197 134-258 90-61 211-92 365-92 152 0 296 31 432 92l-89 208c-139-58-257-87-352-87-146 0-218 42-218 124 0 41 19 76 57 104s120 66 247 116c107 41 185 79 234 113 48 35 84 75 107 119 24 45 36 99 36 162z" id="path355" fill="#fff" fill-rule="nonzero"/><path class="fil31" d="M6460 15444c0-49 13-87 40-114s66-40 116-40c48 0 86 13 113 40s40 65 40 114c0 47-13 84-40 111s-65 40-113 40c-50 0-89-13-116-40s-40-64-40-111zm291 1640h-275v-1297h275z" id="path357" fill="#fff" fill-rule="nonzero"/><path class="fil31" d="M8239 15787v152l-221 41c20 27 37 61 50 100 14 40 20 82 20 127 0 134-46 239-138 315-92 77-219 115-381 115-41 0-79-3-112-9-60 37-89 80-89 129 0 30 14 52 41 67 28 15 79 22 153 22h226c143 0 252 30 326 91s111 149 111 264c0 147-60 260-181 340s-296 120-525 120c-177 0-311-32-404-94-93-63-140-152-140-267 0-80 25-147 76-201 50-55 121-92 211-114-36-15-67-40-91-75-23-35-35-71-35-110 0-48 13-89 41-123 27-33 68-67 122-100-68-28-122-76-164-141s-63-141-63-229c0-141 45-250 133-327 89-77 215-116 379-116 37 0 76 2 116 7 40 6 70 11 91 16zm-1018 1499c0 59 27 105 80 137 54 32 129 48 226 48 150 0 262-22 335-65 74-43 110-100 110-171 0-56-20-96-60-120s-115-36-224-36h-209c-79 0-142 19-188 56-47 37-70 87-70 151zm119-1079c0 81 20 144 62 188 42 43 102 65 180 65 159 0 239-85 239-255 0-85-20-150-59-196-39-45-99-68-180-68-80 0-140 23-181 68s-61 111-61 198z" id="path359" fill="#fff" fill-rule="nonzero"/><path class="fil31" d="M9620 17084h-277v-797c0-100-20-175-60-224-41-49-104-74-192-74-116 0-201 34-255 103s-81 184-81 346v646h-275v-1297h215l39 170h14c39-61 94-109 166-143 72-33 152-50 239-50 311 0 467 158 467 475z" id="path361" fill="#fff" fill-rule="nonzero"/><path class="fil31" d="M10569 17107c-202 0-359-58-473-176s-171-280-171-486c0-212 53-378 159-499 105-122 250-182 434-182 171 0 306 52 406 156 99 104 148 247 148 429v149h-863c4 126 38 222 102 290s154 101 270 101c77 0 148-7 214-21 66-15 137-39 213-72v223c-67 32-135 55-204 68-69 14-147 20-235 20zm-51-1134c-87 0-157 27-210 83-53 55-84 136-94 242h588c-2-107-28-188-78-243s-118-82-206-82z" id="path363" fill="#fff" fill-rule="nonzero"/><path class="fil31" d="M11822 17107c-161 0-288-58-378-175-91-118-136-282-136-494 0-213 46-378 138-497 91-118 218-177 381-177 170 0 300 63 389 189h14c-13-93-20-167-20-221v-472h277v1824h-216l-48-170h-13c-88 129-218 193-388 193zm74-222c113 0 196-32 247-96 52-64 78-167 80-310v-39c0-163-27-279-80-348s-136-103-249-103c-97 0-172 39-224 118-52 78-79 190-79 336 0 143 26 253 77 329 50 75 127 113 228 113z" id="path365" fill="#fff" fill-rule="nonzero"/><path class="fil31" d="M13307 15787h300l263 735c40 105 67 204 80 296h9c7-43 20-95 39-157 19-61 118-352 298-874h297l-554 1469c-101 270-269 405-504 405-61 0-120-7-178-20v-218c41 9 89 14 142 14 133 0 226-77 280-231l48-122z" id="path367" fill="#fff" fill-rule="nonzero"/><path class="fil31" d="M15356 17107c-202 0-359-58-473-176s-170-280-170-486c0-212 52-378 158-499 105-122 250-182 435-182 171 0 306 52 405 156s149 247 149 429v149h-864c4 126 38 222 102 290s154 101 271 101c76 0 148-7 214-21 66-15 136-39 212-72v223c-67 32-135 55-204 68-68 14-147 20-235 20zm-50-1134c-88 0-158 27-211 83-53 55-84 136-94 242h588c-2-107-27-188-77-243s-119-82-206-82z" id="path369" fill="#fff" fill-rule="nonzero"/><path class="fil31" d="M17043 16715c0 126-46 223-138 291s-224 101-396 101c-173 0-312-26-416-78v-238c152 70 294 105 425 105 170 0 254-51 254-153 0-33-9-60-28-82-18-22-49-45-92-68-43-24-103-50-180-80-149-58-250-116-302-174-53-57-80-132-80-225 0-111 45-197 135-258 89-61 211-92 365-92 152 0 296 31 432 92l-89 208c-140-58-257-87-353-87-145 0-218 42-218 124 0 41 19 76 57 104s121 66 248 116c107 41 185 79 233 113 49 35 84 75 108 119 23 45 35 99 35 162z" id="path371" fill="#fff" fill-rule="nonzero"/><path class="fil31" d="M17823 16885c68 0 135-11 202-32v207c-31 14-70 25-118 34s-98 13-149 13c-261 0-392-137-392-412v-699h-177v-122l190-101 94-274h170v288h369v209h-369v694c0 66 17 116 50 147 33 32 76 48 130 48z" id="path373" fill="#fff" fill-rule="nonzero"/><path class="fil31" d="M18850 17107c-202 0-359-58-473-176s-171-280-171-486c0-212 53-378 159-499 105-122 250-182 434-182 171 0 307 52 406 156s149 247 149 429v149h-864c4 126 38 222 102 290s154 101 271 101c76 0 147-7 213-21 66-15 137-39 213-72v223c-67 32-135 55-204 68-69 14-147 20-235 20zm-51-1134c-87 0-157 27-210 83-53 55-84 136-94 242h588c-2-107-27-188-77-243s-119-82-207-82z" id="path375" fill="#fff" fill-rule="nonzero"/><path class="fil31" d="M20324 15764c55 0 101 4 137 12l-27 256c-39-9-80-14-122-14-110 0-199 36-268 108-68 72-102 165-102 280v678h-276v-1297h216l36 229h14c43-77 99-139 168-184 70-46 144-68 224-68z" id="path377" fill="#fff" fill-rule="nonzero"/><path class="fil31" d="M21138 17107c-162 0-288-58-379-175-90-118-135-282-135-494 0-213 45-378 137-497 92-118 219-177 382-177 170 0 300 63 389 189h14c-14-93-20-167-20-221v-472h276v1824h-215l-48-170h-13c-89 129-218 193-388 193zm74-222c113 0 195-32 247-96s78-167 80-310v-39c0-163-27-279-80-348s-136-103-250-103c-96 0-171 39-223 118-53 78-79 190-79 336 0 143 25 253 76 329 51 75 127 113 229 113z" id="path379" fill="#fff" fill-rule="nonzero"/><path class="fil31" d="M23007 17084l-55-181h-10c-62 79-125 133-188 162-64 28-145 42-244 42-127 0-227-34-298-103-72-69-107-166-107-292 0-133 49-234 148-302s251-105 454-112l223-7v-69c0-83-19-145-58-186-38-41-98-61-179-61-67 0-130 10-191 29-61 20-120 43-176 69l-89-197c70-36 147-64 231-83 83-20 162-29 236-29 165 0 290 36 374 108 83 72 125 185 125 339v873zm-410-188c100 0 180-28 240-83 61-56 91-135 91-236v-112l-166 7c-130 5-224 26-283 65s-89 98-89 178c0 57 18 102 52 134s86 47 155 47z" id="path381" fill="#fff" fill-rule="nonzero"/><path class="fil31" d="M23391 15787h300l264 735c39 105 66 204 79 296h10c7-43 19-95 38-157 19-61 118-352 298-874h297l-554 1469c-101 270-268 405-504 405-61 0-120-7-178-20v-218c42 9 89 14 142 14 133 0 226-77 280-231l48-122z" id="path383" fill="#fff" fill-rule="nonzero"/><path class="fil31" d="M24833 16937c0-57 15-100 45-131 29-30 72-46 129-46s100 16 130 48c29 32 44 75 44 129 0 56-15 100-45 132-30 33-73 49-129 49-57 0-100-16-129-48-30-32-45-76-45-133z" id="path385" fill="#fff" fill-rule="nonzero"/><path class="fil31" d="M25493 16937c0-57 15-100 44-131 30-30 73-46 129-46 57 0 101 16 130 48 30 32 45 75 45 129 0 56-15 100-45 132-30 33-74 49-130 49s-99-16-129-48c-29-32-44-76-44-133z" id="path387" fill="#fff" fill-rule="nonzero"/><path class="fil31" d="M26152 16937c0-57 15-100 45-131 30-30 73-46 129-46 57 0 100 16 130 48s44 75 44 129c0 56-15 100-45 132-30 33-73 49-129 49s-99-16-129-48-45-76-45-133z" id="path389" fill="#fff" fill-rule="nonzero"/></g></svg>